<?xml version="1.0" encoding="utf-8"?>
<!-- Generator: Adobe Illustrator 22.1.0, SVG Export Plug-In . SVG Version: 6.00 Build 0)  -->
<svg version="1.1" id="Layer_1" xmlns="http://www.w3.org/2000/svg" xmlns:xlink="http://www.w3.org/1999/xlink" x="0px" y="0px"
	 viewBox="0 0 342.4 197.4" style="enable-background:new 0 0 342.4 197.4;" xml:space="preserve">
<style type="text/css">
	.st0{fill:#F7CB20;}
	.st1{fill:#FFF349;}
	.st2{fill:#9B7C00;}
</style>
<title>Asset 89</title>
<g id="Layer_2_1_">
	<g id="Layer_4">
		<path class="st0" d="M98.7,0h145c54.5,0,98.7,44.2,98.7,98.7l0,0c0,54.5-44.2,98.7-98.7,98.7h-145C44.2,197.3,0,153.2,0,98.7l0,0
			C0,44.2,44.2,0,98.7,0z"/>
		<path class="st1" d="M102.6,1h137.2c46.3,0,83.9,37.6,83.9,83.9l0,0c0,46.3-37.6,83.9-83.9,83.9H102.6
			c-46.3,0-83.9-37.6-83.9-83.9l0,0C18.7,38.6,56.2,1,102.6,1z"/>
	</g>
</g>
<g>
	<path class="st2" d="M75.5,63.2c0,1.5-0.5,2.6-1.6,3.2c-1.1,0.6-2.7,0.9-4.9,0.9h-4.6v30.3c0,2.2-0.3,3.9-1,5
		c-0.7,1.1-1.8,1.6-3.4,1.6c-1.6,0-2.8-0.6-3.5-1.6c-0.7-1.1-1-2.8-1-5V67.2h-4.6c-2.2,0-3.9-0.3-5-0.9c-1.1-0.6-1.6-1.7-1.6-3.2
		c0-1.5,0.5-2.5,1.6-3.2c1.1-0.6,2.7-1,5-1h18.1c2.2,0,3.9,0.3,4.9,1C74.9,60.6,75.5,61.7,75.5,63.2z"/>
	<path class="st2" d="M98,74c0,1-0.3,1.7-0.8,2.3c-0.5,0.5-1.1,1-1.9,1.4c-0.8,0.4-1.6,0.7-2.6,1c-1,0.3-1.9,0.7-2.9,1.1
		c-1.6,0.7-2.6,1.5-2.9,2.5c-0.4,1-0.6,2.4-0.6,4.4v10.9c0,4.5-1.4,6.7-4.3,6.7c-1.6,0-2.7-0.6-3.3-1.7c-0.6-1.1-1-2.8-1-5V76.5
		c0-2.2,0.3-3.9,1-5c0.6-1.1,1.7-1.7,3.3-1.7c0.8,0,1.6,0.3,2.3,0.9c0.7,0.6,1.5,1.6,2.3,3c1.3-1.5,2.5-2.5,3.6-3.1
		c1.1-0.6,2.3-1,3.3-1c1.3,0,2.3,0.4,3.1,1.3C97.6,71.7,98,72.8,98,74z"/>
	<path class="st2" d="M126.8,73.9c0,0.5-0.1,1-0.2,1.6c-0.1,0.5-0.3,1.1-0.5,1.7l-15.4,37c-0.5,1.1-1,2-1.5,2.7
		c-0.5,0.6-1.2,1-2.2,1c-1.3,0-2.3-0.4-3.1-1.1c-0.8-0.7-1.2-1.7-1.2-3c0-1.1,0.2-2.1,0.7-3.2l4.4-9.5L97.5,76.5
		c-0.2-0.4-0.3-0.8-0.4-1.2c-0.1-0.4-0.1-0.9-0.1-1.2c0-1.1,0.4-2.1,1.2-3c0.8-0.9,1.8-1.3,3-1.3s2.1,0.4,2.7,1.2
		c0.6,0.8,1.2,1.8,1.6,3.2l6.4,17.4l6.9-18.2c0.5-1.3,1.1-2.2,1.6-2.8c0.5-0.6,1.2-0.9,2.1-0.9c1.3,0,2.4,0.4,3.1,1.1
		C126.5,71.6,126.8,72.6,126.8,73.9z"/>
	<path class="st2" d="M175,97.4c0,2.2-0.3,3.9-1,5c-0.6,1.1-1.7,1.7-3.2,1.7c-1,0-1.9-0.3-2.6-1c-0.7-0.6-1.4-1.8-2.1-3.4
		c-1.3,1.6-2.7,2.8-4.1,3.6c-1.4,0.7-2.9,1.1-4.6,1.1c-2,0-3.8-0.4-5.5-1.3c-1.8-0.9-3.3-2-4.6-3.6c-1.3-1.5-2.4-3.4-3.2-5.5
		c-0.8-2.2-1.2-4.5-1.2-7.1c0-2.5,0.4-4.8,1.2-7c0.8-2.2,1.9-4,3.2-5.6s2.9-2.8,4.8-3.6c1.8-0.9,3.7-1.3,5.7-1.3
		c1.7,0,3.1,0.3,4.4,1c1.3,0.6,2.6,1.7,3.9,3.2c1.3-2.5,2.9-3.8,4.6-3.8c1.5,0,2.6,0.6,3.2,1.7c0.6,1.1,1,2.8,1,5V97.4z M166.4,86.8
		c0-2.9-0.7-5.1-2.1-6.7c-1.4-1.6-3.1-2.4-5.2-2.4c-2,0-3.8,0.8-5.2,2.4s-2.1,3.8-2.1,6.7c0,3,0.7,5.2,2.1,6.8s3.2,2.4,5.2,2.4
		c2,0,3.8-0.8,5.2-2.5C165.7,91.9,166.4,89.7,166.4,86.8z"/>
	<path class="st2" d="M211.7,97c0,3-0.1,5.6-0.4,7.9c-0.3,2.3-0.9,4.2-1.9,5.9c-2.8,4.7-7.7,7.1-14.7,7.1c-4.3,0-7.7-0.6-10.3-1.9
		c-2.5-1.3-3.8-2.8-3.8-4.6c0-1.1,0.3-2,1-2.7c0.7-0.7,1.6-1,2.6-1c0.7,0,1.3,0.1,2.1,0.4c0.7,0.3,1.5,0.6,2.4,1
		c0.9,0.4,1.8,0.7,2.8,1c1,0.3,2.2,0.4,3.6,0.4c2.8,0,4.9-0.8,6.4-2.5c1.5-1.6,2.3-4,2.3-7c0-0.2,0-0.5,0-0.9c0-0.4,0-1.4,0-2.9
		c-1.6,2.6-3.2,4.3-4.8,5.2c-1.6,0.9-3.3,1.3-5.1,1.3c-1.9,0-3.7-0.4-5.4-1.2c-1.7-0.8-3.1-2-4.4-3.5c-1.3-1.5-2.3-3.3-3-5.4
		c-0.7-2.1-1.1-4.3-1.1-6.8c0-2.4,0.4-4.7,1.2-6.9c0.8-2.1,1.9-4,3.2-5.5s2.9-2.7,4.8-3.6c1.8-0.9,3.7-1.3,5.7-1.3
		c1.7,0,3.1,0.3,4.4,0.9c1.3,0.6,2.6,1.7,3.9,3.2c0.7-1.4,1.4-2.4,2.1-2.9c0.7-0.5,1.4-0.8,2.2-0.8c1.6,0,2.7,0.6,3.3,1.7
		c0.6,1.1,1,2.8,1,5V97z M203.6,86.7c0-2.8-0.7-5.1-2.1-6.7s-3.2-2.4-5.2-2.4c-2.1,0-3.9,0.8-5.3,2.4s-2.1,3.8-2.1,6.7
		c0,2.9,0.7,5.2,2.1,6.9c1.4,1.7,3.2,2.5,5.3,2.5c2.1,0,3.9-0.9,5.2-2.6C202.9,91.9,203.6,89.6,203.6,86.7z"/>
	<path class="st2" d="M248.7,97.4c0,2.2-0.3,3.9-1,5c-0.6,1.1-1.7,1.7-3.2,1.7c-1,0-1.9-0.3-2.6-1c-0.7-0.6-1.4-1.8-2.1-3.4
		c-1.3,1.6-2.7,2.8-4.1,3.6c-1.4,0.7-2.9,1.1-4.6,1.1c-2,0-3.8-0.4-5.5-1.3c-1.8-0.9-3.3-2-4.6-3.6c-1.3-1.5-2.4-3.4-3.2-5.5
		c-0.8-2.2-1.2-4.5-1.2-7.1c0-2.5,0.4-4.8,1.2-7c0.8-2.2,1.9-4,3.2-5.6s2.9-2.8,4.8-3.6c1.8-0.9,3.7-1.3,5.7-1.3
		c1.7,0,3.1,0.3,4.4,1c1.3,0.6,2.6,1.7,3.9,3.2c1.3-2.5,2.9-3.8,4.6-3.8c1.5,0,2.6,0.6,3.2,1.7c0.6,1.1,1,2.8,1,5V97.4z M240.2,86.8
		c0-2.9-0.7-5.1-2.1-6.7c-1.4-1.6-3.1-2.4-5.2-2.4c-2,0-3.8,0.8-5.2,2.4c-1.4,1.6-2.1,3.8-2.1,6.7c0,3,0.7,5.2,2.1,6.8
		c1.4,1.6,3.2,2.4,5.2,2.4c2,0,3.8-0.8,5.2-2.5C239.5,91.9,240.2,89.7,240.2,86.8z"/>
	<path class="st2" d="M265.3,60.8c0,1.5-0.5,2.7-1.4,3.7c-1,1-2.1,1.5-3.5,1.5c-1.5,0-2.7-0.5-3.6-1.5c-0.9-1-1.4-2.2-1.4-3.7
		c0-1.5,0.5-2.7,1.4-3.6c0.9-1,2.1-1.5,3.6-1.5c1.4,0,2.6,0.5,3.5,1.5C264.8,58.2,265.3,59.4,265.3,60.8z M264.6,97.5
		c0,2.2-0.3,3.9-1,5c-0.7,1.1-1.8,1.6-3.3,1.6c-1.6,0-2.7-0.5-3.3-1.6c-0.6-1.1-1-2.8-1-5V76.9c0-2.2,0.3-3.9,1-5
		c0.6-1.1,1.7-1.7,3.3-1.7c2.8,0,4.3,2.2,4.3,6.7V97.5z"/>
	<path class="st2" d="M301.2,97.4c0,2.2-0.3,3.9-1,5c-0.7,1.1-1.8,1.7-3.3,1.7c-1.6,0-2.7-0.6-3.4-1.7c-0.7-1.1-1-2.8-1-5V85.6
		c0-3-0.4-5.3-1.3-6.7c-0.9-1.4-2.5-2.1-4.9-2.1c-2.1,0-3.7,0.7-4.6,2.2c-1,1.5-1.4,3.6-1.4,6.5v11.9c0,4.5-1.4,6.7-4.3,6.7
		c-1.6,0-2.7-0.6-3.3-1.7c-0.6-1.1-1-2.8-1-5V76.5c0-2.2,0.3-3.9,1-5c0.6-1.1,1.7-1.7,3.3-1.7c0.8,0,1.6,0.3,2.3,0.9
		c0.7,0.6,1.5,1.6,2.3,2.9c1.3-1.6,2.7-2.6,4.2-3.2c1.4-0.5,3-0.8,4.8-0.8c3.7,0,6.6,1.1,8.6,3.2c2,2.2,3,5.4,3,9.7V97.4z"/>
</g>
</svg>
