<?xml version="1.0" encoding="utf-8"?>
<!-- Generator: Adobe Illustrator 22.1.0, SVG Export Plug-In . SVG Version: 6.00 Build 0)  -->
<svg version="1.1" id="Layer_1" xmlns="http://www.w3.org/2000/svg" xmlns:xlink="http://www.w3.org/1999/xlink" x="0px" y="0px"
	 viewBox="0 0 296 170.7" style="enable-background:new 0 0 296 170.7;" xml:space="preserve">
<style type="text/css">
	.st0{fill:#AE7F0A;}
	.st1{fill:#FDB619;}
	.st2{fill:#FAECBF;}
	.st3{enable-background:new    ;}
	.st4{fill:#FFFFFF;}
</style>
<title>Asset 87</title>
<g id="Layer_2_1_">
	<g id="Layer_4">
		<path class="st0" d="M85.3,0h125.4C257.8,0,296,38.2,296,85.3l0,0c0,47.1-38.2,85.3-85.3,85.3H85.3C38.2,170.7,0,132.5,0,85.3l0,0
			C0,38.2,38.2,0,85.3,0z"/>
		<path class="st1" d="M84.7,0h126.6c42.8,0,77.4,34.7,77.4,77.4l0,0c0,42.8-34.7,77.4-77.4,77.4H84.7c-42.8,0-77.4-34.7-77.4-77.4
			l0,0C7.3,34.7,41.9,0,84.7,0z"/>
		<path class="st2" d="M44.9,45.2c7.6,0,11.3,7.8,8.1,13.8c-3.8,7.3-5.5,15.5-5.1,23.8c0.5,8.2,2.3,16.2,5.2,23.9
			c1.2,3.5,1.6,5.9-1.1,9c-1.8,2.1-4.4,3.3-7.2,3.3c-12.2,0-13.8-18.2-14.2-26.7c-0.6-10.3,0-20.7,1.9-30.8
			C33.8,54.6,36,45.2,44.9,45.2z"/>
		<path class="st2" d="M57.8,33.6L57.8,33.6c-5.3,0-9.5-4.3-9.5-9.5l0,0c0-5.3,4.3-9.5,9.5-9.5l0,0c5.3,0,9.5,4.3,9.5,9.5l0,0
			C67.3,29.3,63,33.6,57.8,33.6z"/>
		<g class="st3">
			<path class="st4" d="M119.4,88.4c0,5.1-1.7,9.2-5,12.1c-3.3,3-8.1,4.5-14.5,4.5H87c-3,0-5.1-0.5-6.2-1.6c-1.1-1-1.6-3-1.6-5.8V57
				c0-2.8,0.5-4.9,1.5-6.3c1-1.4,3.1-2.1,6.4-2.1H98c5.6,0,9.8,1.2,12.7,3.6s4.3,5.7,4.3,10c0,2.5-0.6,4.7-1.9,6.5
				c-1.3,1.8-3.7,3.5-7.2,5.1c4.9,1.3,8.4,3.1,10.4,5.5C118.4,81.8,119.4,84.8,119.4,88.4z M104.2,64.8c0-2.1-0.7-3.7-2-4.9
				s-3.2-1.8-5.5-1.8h-6.3v13.4h6.4c2.3,0,4.2-0.6,5.5-1.9C103.5,68.2,104.2,66.6,104.2,64.8z M107.8,87.9c0-5-3.4-7.4-10.2-7.4
				h-7.3v15h7.6c3.4,0,5.9-0.7,7.5-2S107.8,90.3,107.8,87.9z"/>
			<path class="st4" d="M164.2,97.1c0,2.8-0.4,4.9-1.2,6.4c-0.8,1.4-2.2,2.1-4.1,2.1c-1.3,0-2.4-0.4-3.3-1.2s-1.7-2.2-2.6-4.3
				c-1.7,2.1-3.4,3.6-5.2,4.5s-3.7,1.4-5.8,1.4c-2.5,0-4.8-0.5-7-1.6s-4.2-2.6-5.8-4.5c-1.7-1.9-3-4.2-4-6.9c-1-2.7-1.5-5.7-1.5-9
				c0-3.1,0.5-6.1,1.5-8.8c1-2.7,2.4-5.1,4.1-7c1.7-2,3.7-3.5,6-4.6c2.3-1.1,4.7-1.7,7.2-1.7c2.1,0,4,0.4,5.6,1.2s3.2,2.2,4.9,4.1
				c1.7-3.2,3.6-4.8,5.9-4.8c1.9,0,3.3,0.7,4.1,2.2c0.8,1.4,1.2,3.6,1.2,6.3L164.2,97.1L164.2,97.1z M153.4,83.7
				c0-3.6-0.9-6.4-2.6-8.4s-3.9-3-6.5-3s-4.8,1-6.6,3s-2.7,4.8-2.7,8.4c0,3.8,0.9,6.6,2.7,8.6s4,3,6.6,3s4.7-1,6.5-3.1
				C152.5,90.2,153.4,87.3,153.4,83.7z"/>
			<path class="st4" d="M204.6,98.2c0,2.2-1.3,4-4,5.5s-6,2.3-10,2.3c-3,0-5.7-0.5-8.1-1.6c-2.4-1.1-4.6-2.6-6.4-4.5
				c-1.8-1.9-3.2-4.2-4.2-6.9c-1-2.7-1.5-5.8-1.5-9.1c0-3.2,0.5-6.2,1.5-8.9c1-2.7,2.4-5.1,4.2-7c1.8-2,4-3.5,6.6-4.5
				c2.6-1.1,5.4-1.6,8.6-1.6c3.9,0,7.1,0.6,9.6,1.9c2.4,1.3,3.6,3.1,3.6,5.4c0,1.3-0.4,2.3-1.2,3.2c-0.8,0.9-1.8,1.3-3.1,1.3
				c-1.1,0-2.4-0.3-3.9-0.9s-3.1-0.9-5-0.9c-2.8,0-5.1,1.1-7,3.2s-2.8,5-2.8,8.7c0,3.9,0.9,6.8,2.7,8.9s4.3,3.1,7.6,3.1
				c1.9,0,3.5-0.3,5-1c1.4-0.6,2.7-1,3.7-1c1.3,0,2.3,0.4,3,1.3C204.3,95.9,204.6,97,204.6,98.2z"/>
			<path class="st4" d="M245.5,101.4c0,1.3-0.5,2.3-1.4,3.1c-1,0.8-2.1,1.2-3.5,1.2c-2.1,0-4-1.2-5.9-3.6l-14.4-19.6v14.6
				c0,5.6-1.8,8.4-5.4,8.4c-2,0-3.4-0.7-4.2-2.1s-1.2-3.5-1.2-6.3V52.9c0-2.7,0.4-4.8,1.2-6.2s2.2-2.2,4.2-2.2
				c3.6,0,5.4,2.8,5.4,8.4v26.4l12.5-13.2c1.1-1.1,2-1.9,2.9-2.4c0.9-0.5,1.9-0.8,3-0.8s2.1,0.4,2.9,1.1c0.8,0.8,1.3,1.7,1.3,2.8
				c0,0.9-0.2,1.8-0.7,2.7c-0.5,1-1.2,1.8-2.1,2.7l-9.3,8.7l12.4,14.8c0.9,1,1.5,1.9,1.8,2.8C245.3,99.4,245.5,100.3,245.5,101.4z"
				/>
		</g>
	</g>
</g>
</svg>
