<svg xmlns="http://www.w3.org/2000/svg" viewBox="0 0 979 667"><defs><style>.cls-1{fill:#ffb81b;}.cls-2{fill:#f2f2f2;}.cls-3,.cls-4,.cls-6{fill:none;stroke-linecap:round;stroke-miterlimit:10;stroke-width:15px;}.cls-3{stroke:#ee9f00;}.cls-4{stroke:#d6d6d6;}.cls-5{fill:#d3edff;}.cls-6{stroke:#fff;}</style></defs><title>Asset 68</title><g id="Layer_2" data-name="Layer 2"><g id="_2" data-name="2"><rect class="cls-1" x="59" y="260" width="865" height="71" rx="35.5" ry="35.5"/><path class="cls-2" d="M94,331S41,616,313,619s372,0,372,0,220,9,204-288Z"/><rect class="cls-1" x="238" y="574" width="39" height="93" rx="19.23" ry="19.23"/><rect class="cls-1" x="686" y="574" width="39" height="93" rx="19.23" ry="19.23"/><line class="cls-3" x1="91.5" y1="305.98" x2="892" y2="305.98"/><line class="cls-3" x1="710.5" y1="652.5" x2="710.5" y2="604.5"/><line class="cls-3" x1="262.5" y1="652.5" x2="262.5" y2="604.5"/><path class="cls-4" d="M743.5,578.5s119-13,122-228"/><line class="cls-4" x1="295.5" y1="592.5" x2="662.5" y2="592.5"/><circle class="cls-5" cx="224.5" cy="151.5" r="87.5"/><circle class="cls-5" cx="323.5" cy="111.5" r="87.5"/><circle class="cls-5" cx="446.5" cy="151.5" r="87.5"/><circle class="cls-5" cx="745.5" cy="238.5" r="87.5"/><circle class="cls-5" cx="87.5" cy="175.5" r="87.5"/><circle class="cls-5" cx="891.5" cy="176.5" r="87.5"/><circle class="cls-5" cx="590.5" cy="87.5" r="87.5"/><circle class="cls-5" cx="745.5" cy="131.5" r="87.5"/><circle class="cls-5" cx="585.5" cy="175.5" r="87.5"/><circle class="cls-5" cx="333.5" cy="199.5" r="87.5"/><circle class="cls-5" cx="211.5" cy="263.5" r="87.5"/><circle class="cls-5" cx="478.5" cy="238.5" r="87.5"/><circle class="cls-5" cx="623.5" cy="239.5" r="87.5"/><path class="cls-6" d="M110,112S38,99,20,175"/><path class="cls-6" d="M252,92s-78-17-96,59"/><path class="cls-6" d="M354,122s-78-17-96,59"/><path class="cls-6" d="M471,87s-75-21-93,55"/><path class="cls-6" d="M503,174s-74-21-92,55"/><path class="cls-6" d="M613,21S538,6,520,82"/><path class="cls-6" d="M649,170s-75-15-93,61"/><path class="cls-6" d="M766,65s-75-15-93,61"/><path class="cls-6" d="M766,169s-75-15-93,61"/><path class="cls-6" d="M913,112s-75-15-93,61"/><path class="cls-6" d="M236,195s-72-13-90,63"/><path class="cls-6" d="M344,43s-72-13-90,63"/></g></g></svg>