<?xml version="1.0" encoding="utf-8"?>
<!-- Generator: Adobe Illustrator 22.1.0, SVG Export Plug-In . SVG Version: 6.00 Build 0)  -->
<svg version="1.1" id="Layer_1" xmlns="http://www.w3.org/2000/svg" xmlns:xlink="http://www.w3.org/1999/xlink" x="0px" y="0px"
	 viewBox="0 0 433.7 250" style="enable-background:new 0 0 433.7 250;" xml:space="preserve">
<style type="text/css">
	.st0{fill:#B50029;}
	.st1{fill:#FF0029;}
	.st2{opacity:0.82;fill:#FCE3EE;enable-background:new    ;}
	.st3{fill:#FFFFFF;}
</style>
<title>Asset 16</title>
<g id="Layer_2_1_">
	<g id="Layer_4">
		<path class="st0" d="M125,0h183.7c69,0,125,56,125,125l0,0c0,69-56,125-125,125H125C56,250,0,194,0,125l0,0C0,56,56,0,125,0z"/>
		<path class="st1" d="M124.1,0h185.5C372.2,0,423,50.8,423,113.4l0,0c0,62.6-50.8,113.4-113.4,113.4H124.1
			c-62.6,0-113.4-50.8-113.4-113.4l0,0C10.6,50.8,61.4,0,124.1,0z"/>
		<path class="st2" d="M62.2,65.1c10.2,0,15.1,10.4,10.9,18.5c-5,9.8-7.4,20.8-6.8,31.9c0.5,11,3.3,21.7,7,32
			c1.7,4.7,2.1,7.9-1.4,12c-2.4,2.8-6,4.4-9.7,4.4c-16.4,0-18.5-24.4-19.1-35.7c-0.8-13.8,0.1-27.7,2.5-41.3
			C47.3,77.6,50.2,65.1,62.2,65.1z"/>
		<path class="st2" d="M79.5,49.4L79.5,49.4c-7.1,0-12.8-5.7-12.8-12.8l0,0c0-7.1,5.7-12.8,12.8-12.8l0,0c7.1,0,12.8,5.7,12.8,12.8
			l0,0C92.3,43.7,86.5,49.4,79.5,49.4z"/>
	</g>
</g>
<g>
	<path class="st3" d="M150.4,126.9c0,4.4-0.8,8.4-2.4,12.1c-1.6,3.7-3.9,6.8-6.8,9.5c-3,2.6-6.6,4.7-10.8,6.2
		c-4.2,1.5-9,2.2-14.3,2.2c-4,0-7.8-0.4-11.2-1.1c-3.5-0.7-6.4-1.7-9-2.9c-2.5-1.2-4.5-2.7-6-4.3c-1.5-1.7-2.2-3.4-2.2-5.2
		c0-2.5,0.8-4.4,2.4-5.9c1.6-1.5,3.8-2.2,6.5-2.2c1.4,0,3,0.3,4.7,0.8c1.7,0.5,3.4,1.1,5.3,1.7s3.9,1.1,6,1.6
		c2.1,0.5,4.4,0.8,6.7,0.8c3.3,0,6.2-1.1,8.5-3.3c2.3-2.2,3.5-4.8,3.5-7.9c0-4.2-1.5-7.2-4.6-9.1c-3.1-1.9-7.3-3.7-12.9-5.4
		c-4.2-1.3-7.9-2.6-11-4.2c-3.1-1.5-5.7-3.2-7.7-5.1s-3.6-4.1-4.6-6.7c-1-2.5-1.6-5.5-1.6-9c0-4.2,0.7-7.9,2.2-11.3
		c1.5-3.4,3.6-6.4,6.5-8.9c2.8-2.5,6.2-4.5,10.1-5.9c3.9-1.4,8.4-2.1,13.3-2.1c7.1,0,12.8,1.2,17.1,3.6c4.3,2.4,6.5,5.3,6.5,8.8
		c0,2.2-0.7,4-2,5.3c-1.4,1.4-3.3,2-5.9,2c-2.6,0-5.3-0.5-8.1-1.6c-2.8-1-5.6-1.6-8.3-1.6c-3.9,0-6.9,0.9-8.9,2.7
		c-2,1.8-3.1,4-3.1,6.7c0,1.8,0.4,3.3,1.2,4.5c0.8,1.2,1.9,2.2,3.5,3.1c1.5,0.9,3.4,1.7,5.6,2.4c2.2,0.7,4.7,1.5,7.5,2.5
		c8.2,2.7,14.4,6.2,18.4,10.5C148.3,114.6,150.4,120.1,150.4,126.9z"/>
	<path class="st3" d="M196.2,96.1c0,4.8-3.8,7.3-11.4,7.3h-3.3v38.5c0,4.5-0.6,7.9-1.8,10.1c-1.2,2.2-3.4,3.4-6.7,3.4
		c-3.2,0-5.5-1.1-6.7-3.4c-1.3-2.2-1.9-5.6-1.9-10.1v-38.5H162c-3.1,0-5.5-0.7-7.3-2c-1.8-1.4-2.7-3.1-2.7-5.2c0-2.6,1-4.5,2.9-5.7
		c1.9-1.2,5.1-1.9,9.5-2V77.5c0-4.5,0.6-7.9,1.9-10.1c1.3-2.2,3.5-3.4,6.7-3.4c3.1,0,5.3,1.1,6.6,3.4c1.3,2.2,1.9,5.6,1.9,10.1v10.8
		h3.5c3.5,0,6.2,0.6,8.2,1.9C195.2,91.5,196.2,93.5,196.2,96.1z"/>
	<path class="st3" d="M261.3,141.6c0,4.5-0.6,7.9-1.9,10.2c-1.3,2.3-3.5,3.4-6.6,3.4c-2.1,0-3.8-0.6-5.2-1.9
		c-1.4-1.3-2.8-3.6-4.2-6.9c-2.7,3.3-5.5,5.7-8.4,7.2c-2.9,1.5-6,2.2-9.3,2.2c-4,0-7.7-0.9-11.3-2.6c-3.6-1.7-6.7-4.1-9.4-7.2
		c-2.7-3.1-4.9-6.8-6.5-11.2c-1.6-4.4-2.4-9.2-2.4-14.5c0-5,0.8-9.7,2.4-14.2c1.6-4.4,3.8-8.2,6.6-11.3c2.8-3.1,6-5.6,9.7-7.4
		c3.7-1.8,7.6-2.7,11.7-2.7c3.4,0,6.4,0.6,9,1.9c2.6,1.3,5.2,3.5,7.9,6.6c2.7-5.2,5.8-7.7,9.4-7.7c3.1,0,5.3,1.2,6.6,3.5
		c1.3,2.3,1.9,5.7,1.9,10.2V141.6z M243.9,120.2c0-5.8-1.4-10.4-4.2-13.6s-6.3-4.8-10.5-4.8s-7.7,1.6-10.6,4.8
		c-2.9,3.2-4.3,7.7-4.3,13.6c0,6,1.4,10.7,4.3,13.9c2.9,3.2,6.4,4.8,10.6,4.8s7.6-1.7,10.5-5C242.5,130.6,243.9,126,243.9,120.2z"/>
	<path class="st3" d="M316.8,94.1c0,2-0.5,3.5-1.6,4.6c-1,1.1-2.3,2-3.9,2.8c-1.5,0.8-3.3,1.4-5.3,2c-2,0.6-3.9,1.3-5.9,2.2
		c-3.2,1.4-5.2,3.1-6,5c-0.8,2-1.2,4.9-1.2,8.9v22.1c0,9.1-2.9,13.7-8.7,13.7c-3.2,0-5.5-1.1-6.7-3.4c-1.3-2.3-1.9-5.7-1.9-10.2
		V99.3c0-4.5,0.6-7.9,1.9-10.2c1.3-2.3,3.5-3.5,6.7-3.5c1.7,0,3.3,0.6,4.8,1.7c1.5,1.2,3,3.2,4.7,6.2c2.6-3,5-5.1,7.4-6.4
		c2.3-1.3,4.6-1.9,6.8-1.9c2.6,0,4.7,0.9,6.4,2.6C315.9,89.5,316.8,91.6,316.8,94.1z"/>
	<path class="st3" d="M358,96.1c0,4.8-3.8,7.3-11.4,7.3h-3.3v38.5c0,4.5-0.6,7.9-1.8,10.1c-1.2,2.2-3.4,3.4-6.7,3.4
		s-5.5-1.1-6.7-3.4c-1.3-2.2-1.9-5.6-1.9-10.1v-38.5h-2.4c-3.1,0-5.5-0.7-7.3-2c-1.8-1.4-2.7-3.1-2.7-5.2c0-2.6,1-4.5,2.9-5.7
		c1.9-1.2,5.1-1.9,9.5-2V77.5c0-4.5,0.6-7.9,1.9-10.1c1.3-2.2,3.5-3.4,6.7-3.4c3.1,0,5.3,1.1,6.6,3.4c1.3,2.2,1.9,5.6,1.9,10.1v10.8
		h3.5c3.5,0,6.2,0.6,8.2,1.9C357,91.5,358,93.5,358,96.1z"/>
</g>
</svg>
