<?xml version="1.0" encoding="utf-8"?>
<!-- Generator: Adobe Illustrator 22.1.0, SVG Export Plug-In . SVG Version: 6.00 Build 0)  -->
<svg version="1.1" id="Layer_1" xmlns="http://www.w3.org/2000/svg" xmlns:xlink="http://www.w3.org/1999/xlink" x="0px" y="0px"
	 viewBox="0 0 342 342" style="enable-background:new 0 0 342 342;" xml:space="preserve">
<style type="text/css">
	.st0{fill:#D3EDFF;stroke:#FFFFFF;stroke-width:31;stroke-miterlimit:10;}
	.st1{fill:none;stroke:#FFFFFF;stroke-width:15;stroke-linecap:round;stroke-miterlimit:10;}
	.st2{fill:none;}
	.st3{enable-background:new    ;}
</style>
<title>Asset 58</title>
<g id="Layer_2_1_">
	<g id="_2">
		<circle class="st0" cx="171" cy="171" r="155.5"/>
		<path class="st1" d="M205.5,49.3c0,0-127.9-23.1-159.9,112"/>
	</g>
</g>
<rect x="107" y="144.3" class="st2" width="150" height="74"/>
<rect x="81" y="151" class="st2" width="186" height="47"/>
<g class="st3">
	<path d="M107.9,179.8c0,1.6-0.3,3.1-1,4.6c-0.6,1.4-1.5,2.7-2.6,3.7s-2.5,1.9-4,2.5c-1.6,0.6-3.3,0.9-5.1,0.9c-2.9,0-5.6-0.9-8-2.7
		c-1.5-1.1-2.6-2.3-3.3-3.6s-1.1-2.4-1.1-3.5c0-1,0.3-1.9,0.9-2.5c0.6-0.6,1.3-0.9,2.3-0.9c0.7,0,1.3,0.2,1.8,0.5
		c0.4,0.4,0.9,0.9,1.5,1.6c0.8,1.2,1.7,2.2,2.5,3.1c0.8,0.9,2,1.3,3.6,1.3c1.4,0,2.6-0.5,3.6-1.5c1-1,1.5-2.3,1.5-3.9
		c0-1.7-0.5-2.8-1.4-3.5s-2.5-1.2-4.5-1.5c-1.1-0.2-1.9-0.5-2.3-1c-0.4-0.4-0.7-1.2-0.7-2.2c0-1,0.2-1.7,0.7-2.2
		c0.5-0.4,1.3-0.8,2.3-1c1.6-0.4,2.7-0.9,3.4-1.6c0.7-0.7,1-1.7,1-2.9c0-1.2-0.3-2.1-1-2.8c-0.6-0.7-1.6-1-2.8-1
		c-0.9,0-1.7,0.2-2.3,0.7c-0.7,0.4-1.3,1-2,1.6c-0.7,0.7-1.4,1.3-1.9,1.8c-0.5,0.5-1.3,0.7-2.2,0.7c-0.7,0-1.4-0.3-2-0.9
		c-0.6-0.6-0.9-1.3-0.9-2.2c0-1,0.3-2,0.9-3c0.6-1,1.5-1.9,2.5-2.7c1-0.8,2.2-1.4,3.6-1.9s2.8-0.7,4.4-0.7c1.5,0,3,0.2,4.3,0.7
		s2.4,1.2,3.4,2.1s1.7,1.9,2.2,3.1c0.5,1.2,0.8,2.4,0.8,3.8c0,1.5-0.4,2.8-1.1,4c-0.7,1.2-1.9,2.5-3.7,3.8c2.4,1.3,4.1,2.7,5.1,4.2
		C107.3,176,107.9,177.8,107.9,179.8z"/>
	<path d="M153.7,166.8c0,2-1.5,2.9-4.6,2.9h-1.3v15.5c0,1.8-0.2,3.2-0.7,4.1c-0.5,0.9-1.4,1.4-2.7,1.4s-2.2-0.5-2.7-1.4
		s-0.8-2.3-0.8-4.1v-15.5h-1c-1.2,0-2.2-0.3-3-0.8c-0.7-0.5-1.1-1.3-1.1-2.1c0-1,0.4-1.8,1.2-2.3c0.8-0.5,2-0.8,3.8-0.8v-4.4
		c0-1.8,0.3-3.2,0.8-4.1c0.5-0.9,1.4-1.4,2.7-1.4c1.2,0,2.1,0.5,2.6,1.4c0.5,0.9,0.8,2.3,0.8,4.1v4.4h1.4c1.4,0,2.5,0.3,3.3,0.8
		C153.3,165,153.7,165.7,153.7,166.8z"/>
	<path d="M163.2,155.2c0,1.2-0.4,2.2-1.2,3s-1.8,1.2-2.9,1.2c-1.2,0-2.2-0.4-3-1.2c-0.8-0.8-1.2-1.8-1.2-3c0-1.2,0.4-2.2,1.2-3
		c0.8-0.8,1.8-1.2,3-1.2c1.1,0,2.1,0.4,2.9,1.2S163.2,154,163.2,155.2z M162.7,185.2c0,1.8-0.3,3.2-0.8,4.1
		c-0.5,0.9-1.4,1.4-2.7,1.4c-1.3,0-2.2-0.5-2.7-1.4c-0.5-0.9-0.8-2.3-0.8-4.1v-16.8c0-1.8,0.3-3.2,0.8-4.1c0.5-0.9,1.4-1.4,2.7-1.4
		c2.3,0,3.5,1.8,3.5,5.5V185.2z"/>
	<path d="M207.8,185.2c0,1.8-0.3,3.2-0.8,4.1c-0.5,0.9-1.4,1.4-2.7,1.4s-2.1-0.5-2.6-1.4c-0.5-0.9-0.8-2.3-0.8-4.1v-9.7
		c0-4.7-1.5-7.1-4.5-7.1c-3.2,0-4.8,2.3-4.8,7v9.8c0,1.8-0.3,3.2-0.8,4.1c-0.5,0.9-1.4,1.4-2.7,1.4c-1.3,0-2.2-0.5-2.7-1.4
		c-0.5-0.9-0.8-2.3-0.8-4.1v-9.7c0-4.7-1.5-7.1-4.4-7.1c-1.7,0-2.9,0.6-3.7,1.8c-0.7,1.2-1.1,2.9-1.1,5.3v9.8c0,3.7-1.2,5.5-3.5,5.5
		c-1.3,0-2.2-0.5-2.7-1.4c-0.5-0.9-0.8-2.3-0.8-4.1v-17.1c0-1.8,0.3-3.2,0.8-4.1c0.5-0.9,1.4-1.4,2.7-1.4c0.7,0,1.3,0.2,1.9,0.7
		c0.6,0.5,1.2,1.3,1.9,2.5c1-1.2,2.1-2.1,3.1-2.6c1-0.5,2.2-0.7,3.5-0.7c1.7,0,3.2,0.3,4.5,1c1.3,0.7,2.6,1.8,3.8,3.3
		c1.4-1.6,2.8-2.7,4-3.4c1.2-0.6,2.7-0.9,4.3-0.9c2.7,0,4.8,0.9,6.4,2.7c1.6,1.8,2.3,4.4,2.3,7.8V185.2z"/>
	<path d="M237.8,175.5c0,1.2-0.3,2-0.9,2.3c-0.6,0.3-1.5,0.5-2.6,0.5h-15.5c0.6,4.3,2.9,6.5,7,6.5c1,0,2-0.1,2.8-0.4
		c0.8-0.3,1.6-0.6,2.3-1c0.7-0.4,1.3-0.7,1.9-1c0.6-0.3,1.1-0.4,1.6-0.4c0.8,0,1.4,0.2,2,0.7c0.5,0.5,0.8,1.1,0.8,1.8
		c0,0.8-0.3,1.6-0.9,2.4s-1.4,1.5-2.5,2.1c-1.1,0.6-2.3,1.1-3.8,1.5s-3,0.5-4.7,0.5c-1.9,0-3.7-0.4-5.4-1.1c-1.7-0.7-3.1-1.7-4.4-3
		s-2.2-2.8-2.9-4.5c-0.7-1.7-1-3.6-1-5.7s0.3-4,1-5.8c0.7-1.8,1.6-3.3,2.8-4.6s2.6-2.3,4.2-3s3.4-1.1,5.3-1.1c1.9,0,3.6,0.3,5.2,1
		c1.6,0.7,3,1.7,4.1,2.9s2,2.6,2.6,4.2C237.5,171.9,237.8,173.7,237.8,175.5z M231,174.2c-0.2-2.1-0.8-3.7-2-4.8
		c-1.2-1.1-2.5-1.7-4-1.7c-1.5,0-2.9,0.5-4,1.6s-1.9,2.7-2.4,4.9H231z"/>
	<path d="M259.2,182c0,1.2-0.3,2.4-0.8,3.5c-0.5,1.1-1.3,2.1-2.2,2.9s-2,1.4-3.3,1.9s-2.7,0.7-4.3,0.7c-2.8,0-5.2-0.5-6.9-1.6
		c-1.8-1.1-2.7-2.4-2.7-4c0-0.9,0.2-1.6,0.7-2.3c0.5-0.6,1.1-0.9,1.8-0.9c0.6,0,1.3,0.1,1.9,0.4c0.6,0.3,1.3,0.5,1.9,0.8
		c0.6,0.3,1.3,0.6,1.9,0.8c0.6,0.3,1.3,0.4,2,0.4c0.9,0,1.6-0.2,2.1-0.7c0.5-0.5,0.8-1,0.8-1.6c0-0.7-0.4-1.4-1.2-1.9
		c-0.8-0.5-2-1.1-3.7-1.8c-2.4-1-4.2-2.1-5.5-3.2s-1.9-2.7-1.9-4.8c0-2.4,0.9-4.5,2.7-6.1c1.8-1.6,4.1-2.5,7.1-2.5
		c1.3,0,2.5,0.1,3.6,0.4c1.1,0.3,2.1,0.7,2.9,1.2s1.4,1.1,1.9,1.7s0.6,1.3,0.6,2c0,0.8-0.3,1.5-0.8,2c-0.5,0.5-1.2,0.8-2,0.8
		c-0.5,0-1-0.1-1.5-0.3c-0.5-0.2-1.1-0.5-1.7-0.7c-0.6-0.3-1.1-0.5-1.7-0.7c-0.6-0.2-1.1-0.3-1.7-0.3c-0.9,0-1.5,0.2-2,0.7
		c-0.4,0.4-0.6,1-0.6,1.5c0,0.9,0.6,1.6,1.7,2.1s2.6,1.1,4.5,2c2.2,1,3.8,2.1,4.9,3.2S259.2,180.2,259.2,182z"/>
</g>
</svg>
