<?xml version="1.0" encoding="utf-8"?>
<!-- Generator: Adobe Illustrator 22.1.0, SVG Export Plug-In . SVG Version: 6.00 Build 0)  -->
<svg version="1.1" id="Layer_1" xmlns="http://www.w3.org/2000/svg" xmlns:xlink="http://www.w3.org/1999/xlink" x="0px" y="0px"
	 viewBox="0 0 342 342" style="enable-background:new 0 0 342 342;" xml:space="preserve">
<style type="text/css">
	.st0{fill:#D3EDFF;stroke:#FFFFFF;stroke-width:31;stroke-miterlimit:10;}
	.st1{fill:none;stroke:#FFFFFF;stroke-width:15;stroke-linecap:round;stroke-miterlimit:10;}
	.st2{fill:none;}
</style>
<title>Asset 58</title>
<g id="Layer_2_1_">
	<g id="_2">
		<circle class="st0" cx="171" cy="171" r="155.5"/>
		<path class="st1" d="M205.5,49.3c0,0-127.9-23.1-159.9,112"/>
	</g>
</g>
<rect x="107" y="144.3" class="st2" width="150" height="74"/>
<g>
	<path d="M88.5,182.5c0,1.2-0.4,2-1.3,2.5c-0.9,0.5-2.2,0.7-4.1,0.7h-10c-2,0-3.3-0.3-4-1c-0.7-0.7-1-1.9-1-3.8v-26.4
		c0-1.8,0.3-3.2,1-4.1c0.6-0.9,2-1.3,4.2-1.3h9.7c1.7,0,3.1,0.3,4,0.8c0.9,0.5,1.4,1.4,1.4,2.6c0,1.2-0.5,2.1-1.4,2.6
		c-0.9,0.5-2.3,0.7-4,0.7h-7.6v8h6.6c3.6,0,5.4,1.1,5.4,3.4c0,1.2-0.5,2-1.4,2.5c-0.9,0.5-2.3,0.7-4.1,0.7h-6.6v8.4h7.8
		c1.8,0,3.2,0.3,4.1,0.8S88.5,181.3,88.5,182.5z"/>
	<path d="M113.5,161.6c0,0.4-0.1,0.8-0.2,1.2c-0.1,0.4-0.2,0.9-0.4,1.4l-7,18.5c-0.5,1.2-1,2.1-1.6,2.8c-0.6,0.6-1.5,1-2.7,1
		c-1.2,0-2.2-0.3-2.7-1c-0.6-0.7-1.1-1.7-1.6-3l-7.3-18.8c-0.3-0.8-0.4-1.4-0.4-2c0-1,0.3-1.8,1-2.5c0.6-0.7,1.5-1,2.5-1
		c0.9,0,1.7,0.3,2.2,0.9c0.5,0.6,1,1.5,1.4,2.7l5.2,16.9l5-17.5c0.6-2,1.7-3,3.3-3c1,0,1.8,0.3,2.4,0.9
		C113.2,159.7,113.5,160.6,113.5,161.6z"/>
	<path d="M140.4,171c0,1.2-0.3,2-0.9,2.3c-0.6,0.3-1.5,0.5-2.6,0.5h-15.5c0.6,4.3,2.9,6.5,7,6.5c1,0,2-0.1,2.8-0.4
		c0.8-0.3,1.6-0.6,2.3-1c0.7-0.4,1.3-0.7,1.9-1c0.6-0.3,1.1-0.4,1.6-0.4c0.8,0,1.4,0.2,2,0.7c0.5,0.5,0.8,1.1,0.8,1.8
		c0,0.8-0.3,1.6-0.9,2.4s-1.4,1.5-2.5,2.1c-1.1,0.6-2.3,1.1-3.8,1.5s-3,0.5-4.7,0.5c-1.9,0-3.7-0.4-5.4-1.1c-1.7-0.7-3.1-1.7-4.4-3
		s-2.2-2.8-2.9-4.5c-0.7-1.7-1-3.7-1-5.7s0.3-4,1-5.8s1.6-3.3,2.8-4.6s2.6-2.3,4.2-3c1.6-0.7,3.4-1.1,5.3-1.1c1.9,0,3.6,0.3,5.2,1
		s3,1.7,4.1,2.9s2,2.6,2.6,4.2C140.1,167.4,140.4,169.2,140.4,171z M133.6,169.7c-0.2-2.1-0.8-3.7-2-4.8c-1.2-1.1-2.5-1.7-4-1.7
		c-1.5,0-2.9,0.5-4,1.6s-1.9,2.7-2.4,4.9H133.6z"/>
	<path d="M160.6,161.5c0,0.8-0.2,1.4-0.6,1.8c-0.4,0.4-0.9,0.8-1.6,1.1c-0.6,0.3-1.3,0.6-2.1,0.8c-0.8,0.2-1.6,0.5-2.4,0.9
		c-1.3,0.6-2.1,1.2-2.4,2c-0.3,0.8-0.5,2-0.5,3.6v8.9c0,3.7-1.2,5.5-3.5,5.5c-1.3,0-2.2-0.5-2.7-1.4c-0.5-0.9-0.8-2.3-0.8-4.1v-17.1
		c0-1.8,0.3-3.2,0.8-4.1c0.5-0.9,1.4-1.4,2.7-1.4c0.7,0,1.3,0.2,1.9,0.7c0.6,0.5,1.2,1.3,1.9,2.5c1-1.2,2-2,3-2.6
		c0.9-0.5,1.9-0.8,2.7-0.8c1,0,1.9,0.3,2.6,1S160.6,160.5,160.6,161.5z"/>
	<path d="M184.3,161.4c0,0.4-0.1,0.8-0.2,1.3s-0.2,0.9-0.4,1.4l-12.6,30.3c-0.4,0.9-0.8,1.7-1.2,2.2c-0.4,0.5-1,0.8-1.8,0.8
		c-1,0-1.9-0.3-2.5-0.9c-0.6-0.6-1-1.4-1-2.5c0-0.9,0.2-1.8,0.6-2.6l3.6-7.8l-8.5-20.1c-0.2-0.3-0.3-0.6-0.3-1
		c-0.1-0.4-0.1-0.7-0.1-1c0-0.9,0.3-1.8,1-2.5c0.6-0.7,1.5-1,2.5-1s1.7,0.3,2.2,1c0.5,0.6,0.9,1.5,1.4,2.6l5.3,14.3l5.7-14.9
		c0.4-1,0.9-1.8,1.3-2.3c0.4-0.5,1-0.7,1.8-0.7c1.1,0,1.9,0.3,2.5,0.9S184.3,160.3,184.3,161.4z"/>
	<path d="M217.7,167.1c0,2.9-0.4,5.4-1.2,7.7s-2,4.2-3.5,5.9c-1.5,1.6-3.3,2.9-5.5,3.8s-4.7,1.3-7.4,1.3h-7.8c-2,0-3.3-0.3-4-1
		c-0.7-0.7-1-1.9-1-3.8v-26.4c0-1.8,0.3-3.2,1-4.1c0.6-0.9,2-1.3,4.2-1.3h6.9c2.2,0,4.2,0.2,6,0.6c1.8,0.4,3.4,1.1,4.8,2
		c2.4,1.5,4.3,3.6,5.6,6.3C217,160.8,217.7,163.8,217.7,167.1z M209.7,167.1c0-7.4-3.7-11.1-11-11.1h-4.3v23.2h4.5
		C206.1,179.1,209.7,175.1,209.7,167.1z"/>
	<path d="M246.6,180.7c0,1.8-0.3,3.2-0.8,4.1c-0.5,0.9-1.4,1.4-2.6,1.4c-0.8,0-1.5-0.3-2.1-0.8c-0.6-0.5-1.1-1.5-1.7-2.8
		c-1.1,1.3-2.2,2.3-3.4,2.9c-1.2,0.6-2.4,0.9-3.8,0.9c-1.6,0-3.1-0.3-4.6-1c-1.4-0.7-2.7-1.7-3.8-2.9s-2-2.7-2.6-4.5
		c-0.6-1.8-1-3.7-1-5.8c0-2,0.3-3.9,1-5.7c0.6-1.8,1.5-3.3,2.6-4.6s2.4-2.3,3.9-3c1.5-0.7,3.1-1.1,4.7-1.1c1.4,0,2.6,0.3,3.6,0.8
		c1,0.5,2.1,1.4,3.2,2.6c1.1-2.1,2.4-3.1,3.8-3.1c1.2,0,2.1,0.5,2.6,1.4c0.5,0.9,0.8,2.3,0.8,4.1V180.7z M239.6,172
		c0-2.4-0.6-4.2-1.7-5.5s-2.6-1.9-4.2-1.9s-3.1,0.6-4.3,1.9s-1.8,3.1-1.8,5.5c0,2.4,0.6,4.3,1.8,5.6s2.6,1.9,4.3,1.9s3.1-0.7,4.2-2
		S239.6,174.4,239.6,172z"/>
	<path d="M273.9,161.4c0,0.4-0.1,0.8-0.2,1.3s-0.2,0.9-0.4,1.4l-12.6,30.3c-0.4,0.9-0.8,1.7-1.2,2.2c-0.4,0.5-1,0.8-1.8,0.8
		c-1,0-1.9-0.3-2.5-0.9c-0.6-0.6-1-1.4-1-2.5c0-0.9,0.2-1.8,0.6-2.6l3.6-7.8l-8.5-20.1c-0.2-0.3-0.3-0.6-0.3-1
		c-0.1-0.4-0.1-0.7-0.1-1c0-0.9,0.3-1.8,1-2.5c0.6-0.7,1.5-1,2.5-1s1.7,0.3,2.2,1c0.5,0.6,0.9,1.5,1.4,2.6l5.3,14.3l5.7-14.9
		c0.4-1,0.9-1.8,1.3-2.3c0.4-0.5,1-0.7,1.8-0.7c1.1,0,1.9,0.3,2.5,0.9S273.9,160.3,273.9,161.4z"/>
</g>
</svg>
