<?xml version="1.0" encoding="utf-8"?>
<!-- Generator: Adobe Illustrator 22.1.0, SVG Export Plug-In . SVG Version: 6.00 Build 0)  -->
<svg version="1.1" id="Layer_1" xmlns="http://www.w3.org/2000/svg" xmlns:xlink="http://www.w3.org/1999/xlink" x="0px" y="0px"
	 viewBox="0 0 342 342" style="enable-background:new 0 0 342 342;" xml:space="preserve">
<style type="text/css">
	.st0{fill:#D3EDFF;stroke:#FFFFFF;stroke-width:31;stroke-miterlimit:10;}
	.st1{fill:none;stroke:#FFFFFF;stroke-width:15;stroke-linecap:round;stroke-miterlimit:10;}
	.st2{fill:none;}
</style>
<title>Asset 58</title>
<g id="Layer_2_1_">
	<g id="_2">
		<circle class="st0" cx="171" cy="171" r="155.5"/>
		<path class="st1" d="M205.5,49.3c0,0-127.9-23.1-159.9,112"/>
	</g>
</g>
<rect x="73" y="144.3" class="st2" width="235" height="74"/>
<g>
	<path d="M72.3,182.5c0,1.8-0.3,3.4-1,4.9c-0.6,1.5-1.6,2.8-2.8,3.8s-2.6,1.9-4.4,2.5c-1.7,0.6-3.6,0.9-5.8,0.9
		c-1.6,0-3.1-0.1-4.5-0.4s-2.6-0.7-3.6-1.2s-1.8-1.1-2.4-1.8c-0.6-0.7-0.9-1.4-0.9-2.1c0-1,0.3-1.8,1-2.4c0.6-0.6,1.5-0.9,2.6-0.9
		c0.6,0,1.2,0.1,1.9,0.3s1.4,0.4,2.1,0.7c0.7,0.2,1.6,0.4,2.4,0.6s1.8,0.3,2.7,0.3c1.3,0,2.5-0.4,3.4-1.3c0.9-0.9,1.4-1.9,1.4-3.2
		c0-1.7-0.6-2.9-1.8-3.7c-1.2-0.8-3-1.5-5.2-2.2c-1.7-0.5-3.2-1.1-4.4-1.7c-1.3-0.6-2.3-1.3-3.1-2.1s-1.4-1.7-1.9-2.7
		c-0.4-1-0.6-2.2-0.6-3.6c0-1.7,0.3-3.2,0.9-4.6c0.6-1.4,1.5-2.6,2.6-3.6s2.5-1.8,4.1-2.4c1.6-0.6,3.4-0.9,5.4-0.9
		c2.9,0,5.2,0.5,6.9,1.4c1.7,1,2.6,2.1,2.6,3.5c0,0.9-0.3,1.6-0.8,2.2s-1.3,0.8-2.4,0.8s-2.1-0.2-3.3-0.6c-1.1-0.4-2.3-0.6-3.4-0.6
		c-1.6,0-2.8,0.4-3.6,1.1c-0.8,0.7-1.2,1.6-1.2,2.7c0,0.7,0.2,1.3,0.5,1.8s0.8,0.9,1.4,1.3c0.6,0.4,1.4,0.7,2.2,1
		c0.9,0.3,1.9,0.6,3,1c3.3,1.1,5.8,2.5,7.4,4.2C71.4,177.5,72.3,179.7,72.3,182.5z"/>
	<path d="M300.9,185.2c0,1.4-0.2,2.7-0.8,3.8c-0.5,1.2-1.2,2.2-2.2,3c-0.9,0.8-2,1.5-3.4,1.9c-1.3,0.5-2.8,0.7-4.5,0.7
		c-1.2,0-2.4-0.1-3.5-0.3c-1.1-0.2-2-0.5-2.8-0.9c-0.8-0.4-1.4-0.9-1.9-1.4s-0.7-1.1-0.7-1.6c0-0.8,0.2-1.4,0.8-1.9
		c0.5-0.5,1.2-0.7,2-0.7c0.5,0,0.9,0.1,1.5,0.2c0.5,0.2,1.1,0.3,1.6,0.5c0.5,0.2,1.2,0.3,1.9,0.5s1.4,0.2,2.1,0.2c1,0,1.9-0.3,2.7-1
		c0.7-0.7,1.1-1.5,1.1-2.5c0-1.3-0.5-2.3-1.4-2.9c-0.9-0.6-2.3-1.2-4.1-1.7c-1.3-0.4-2.5-0.9-3.4-1.3c-1-0.5-1.8-1-2.4-1.6
		c-0.6-0.6-1.1-1.3-1.5-2.1c-0.3-0.8-0.5-1.7-0.5-2.8c0-1.3,0.2-2.5,0.7-3.6s1.2-2,2-2.8s1.9-1.4,3.2-1.9c1.2-0.5,2.7-0.7,4.2-0.7
		c2.3,0,4.1,0.4,5.4,1.1c1.3,0.8,2,1.6,2,2.7c0,0.7-0.2,1.2-0.6,1.7c-0.4,0.5-1,0.6-1.9,0.6s-1.6-0.2-2.6-0.5
		c-0.9-0.3-1.8-0.5-2.7-0.5c-1.2,0-2.2,0.3-2.8,0.9c-0.6,0.5-0.9,1.2-0.9,2.1c0,0.5,0.2,1,0.4,1.4c0.2,0.4,0.6,0.7,1.1,1
		s1.1,0.5,1.7,0.8c0.7,0.2,1.5,0.5,2.3,0.8c2.6,0.9,4.5,1.9,5.8,3.3C300.2,181.3,300.9,183,300.9,185.2z"/>
	<path d="M101.3,179.9c0,2.1-0.3,4.1-1,5.9c-0.6,1.8-1.6,3.3-2.8,4.6s-2.6,2.3-4.2,3s-3.4,1.1-5.4,1.1c-1.9,0-3.7-0.4-5.4-1.1
		s-3.1-1.7-4.2-3s-2.1-2.8-2.8-4.6c-0.7-1.8-1-3.8-1-5.9s0.3-4.1,1-5.9s1.6-3.3,2.8-4.6s2.6-2.3,4.2-3s3.4-1.1,5.4-1.1
		s3.8,0.4,5.4,1.1c1.6,0.7,3,1.7,4.2,3s2.1,2.8,2.8,4.6C100.9,175.8,101.3,177.7,101.3,179.9z M94,179.8c0-2.4-0.6-4.3-1.8-5.7
		s-2.6-2.1-4.3-2.1c-1.7,0-3.1,0.7-4.3,2c-1.2,1.3-1.8,3.2-1.8,5.7s0.6,4.4,1.8,5.8s2.6,2.1,4.3,2.1c1.8,0,3.2-0.7,4.4-2.1
		S94,182.2,94,179.8z"/>
	<path d="M144.7,188.4c0,1.8-0.3,3.2-0.8,4.1c-0.5,0.9-1.4,1.4-2.7,1.4s-2.1-0.5-2.6-1.4s-0.8-2.3-0.8-4.1v-9.7
		c0-4.7-1.5-7.1-4.5-7.1c-3.2,0-4.8,2.3-4.8,7v9.8c0,1.8-0.3,3.2-0.8,4.1c-0.5,0.9-1.4,1.4-2.7,1.4s-2.2-0.5-2.7-1.4
		s-0.8-2.3-0.8-4.1v-9.7c0-4.7-1.5-7.1-4.4-7.1c-1.7,0-2.9,0.6-3.7,1.8s-1.1,2.9-1.1,5.3v9.8c0,3.7-1.2,5.5-3.5,5.5
		c-1.3,0-2.2-0.5-2.7-1.4s-0.8-2.3-0.8-4.1v-17.1c0-1.8,0.3-3.2,0.8-4.1c0.5-0.9,1.4-1.4,2.7-1.4c0.7,0,1.3,0.2,1.9,0.7
		s1.2,1.3,1.9,2.5c1-1.2,2.1-2.1,3.1-2.6s2.2-0.7,3.5-0.7c1.7,0,3.2,0.3,4.5,1s2.6,1.8,3.8,3.3c1.4-1.6,2.8-2.7,4-3.4
		c1.2-0.6,2.7-0.9,4.3-0.9c2.7,0,4.8,0.9,6.4,2.7c1.6,1.8,2.3,4.4,2.3,7.8v12.1H144.7z"/>
	<path d="M174.7,178.8c0,1.2-0.3,2-0.9,2.3c-0.6,0.3-1.5,0.5-2.6,0.5h-15.5c0.6,4.3,2.9,6.5,7,6.5c1,0,2-0.1,2.8-0.4
		c0.8-0.3,1.6-0.6,2.3-1s1.3-0.7,1.9-1c0.6-0.3,1.1-0.4,1.6-0.4c0.8,0,1.4,0.2,2,0.7c0.5,0.5,0.8,1.1,0.8,1.8c0,0.8-0.3,1.6-0.9,2.4
		s-1.4,1.5-2.5,2.1s-2.3,1.1-3.8,1.5s-3,0.5-4.7,0.5c-1.9,0-3.7-0.4-5.4-1.1c-1.7-0.7-3.1-1.7-4.4-3s-2.2-2.8-2.9-4.5s-1-3.7-1-5.7
		s0.3-4,1-5.8s1.6-3.3,2.8-4.6s2.6-2.3,4.2-3c1.6-0.7,3.4-1.1,5.3-1.1c1.9,0,3.6,0.3,5.2,1s3,1.7,4.1,2.9s2,2.6,2.6,4.2
		C174.4,175.2,174.7,176.9,174.7,178.8z M167.9,177.4c-0.2-2.1-0.8-3.7-2-4.8s-2.5-1.7-4-1.7s-2.9,0.5-4,1.6s-1.9,2.7-2.4,4.9H167.9
		z"/>
	<path d="M192.9,170c0,2-1.5,2.9-4.6,2.9H187v15.5c0,1.8-0.2,3.2-0.7,4.1c-0.5,0.9-1.4,1.4-2.7,1.4s-2.2-0.5-2.7-1.4
		s-0.8-2.3-0.8-4.1V173h-1c-1.2,0-2.2-0.3-3-0.8c-0.7-0.5-1.1-1.2-1.1-2.1c0-1,0.4-1.8,1.2-2.3s2-0.8,3.8-0.8v-4.4
		c0-1.8,0.3-3.2,0.8-4.1c0.5-0.9,1.4-1.4,2.7-1.4c1.2,0,2.1,0.5,2.6,1.4s0.8,2.3,0.8,4.1v4.4h1.4c1.4,0,2.5,0.3,3.3,0.8
		S192.9,169,192.9,170z"/>
	<path d="M202.4,158.5c0,1.2-0.4,2.2-1.2,3s-1.8,1.2-2.9,1.2c-1.2,0-2.2-0.4-3-1.2s-1.2-1.8-1.2-3s0.4-2.2,1.2-3s1.8-1.2,3-1.2
		c1.1,0,2.1,0.4,2.9,1.2S202.4,157.3,202.4,158.5z M201.8,188.5c0,1.8-0.3,3.2-0.8,4.1c-0.5,0.9-1.4,1.4-2.7,1.4s-2.2-0.5-2.7-1.4
		s-0.8-2.3-0.8-4.1v-16.8c0-1.8,0.3-3.2,0.8-4.1c0.5-0.9,1.4-1.4,2.7-1.4c2.3,0,3.5,1.8,3.5,5.5V188.5z"/>
	<path d="M247,188.4c0,1.8-0.3,3.2-0.8,4.1c-0.5,0.9-1.4,1.4-2.7,1.4s-2.1-0.5-2.6-1.4s-0.8-2.3-0.8-4.1v-9.7c0-4.7-1.5-7.1-4.5-7.1
		c-3.2,0-4.8,2.3-4.8,7v9.8c0,1.8-0.3,3.2-0.8,4.1c-0.5,0.9-1.4,1.4-2.7,1.4s-2.2-0.5-2.7-1.4s-0.8-2.3-0.8-4.1v-9.7
		c0-4.7-1.5-7.1-4.4-7.1c-1.7,0-2.9,0.6-3.7,1.8s-1.1,2.9-1.1,5.3v9.8c0,3.7-1.2,5.5-3.5,5.5c-1.3,0-2.2-0.5-2.7-1.4
		s-0.8-2.3-0.8-4.1v-17.1c0-1.8,0.3-3.2,0.8-4.1c0.5-0.9,1.4-1.4,2.7-1.4c0.7,0,1.3,0.2,1.9,0.7c0.6,0.5,1.2,1.3,1.9,2.5
		c1-1.2,2.1-2.1,3.1-2.6s2.2-0.7,3.5-0.7c1.7,0,3.2,0.3,4.5,1s2.6,1.8,3.8,3.3c1.4-1.6,2.8-2.7,4-3.4c1.2-0.6,2.7-0.9,4.3-0.9
		c2.7,0,4.8,0.9,6.4,2.7c1.6,1.8,2.3,4.4,2.3,7.8v12.1H247z"/>
	<path d="M277,178.8c0,1.2-0.3,2-0.9,2.3c-0.6,0.3-1.5,0.5-2.6,0.5H258c0.6,4.3,2.9,6.5,7,6.5c1,0,2-0.1,2.8-0.4
		c0.8-0.3,1.6-0.6,2.3-1c0.7-0.4,1.3-0.7,1.9-1c0.6-0.3,1.1-0.4,1.6-0.4c0.8,0,1.4,0.2,2,0.7c0.5,0.5,0.8,1.1,0.8,1.8
		c0,0.8-0.3,1.6-0.9,2.4c-0.6,0.8-1.4,1.5-2.5,2.1c-1.1,0.6-2.3,1.1-3.8,1.5s-3,0.5-4.7,0.5c-1.9,0-3.7-0.4-5.4-1.1
		c-1.7-0.7-3.1-1.7-4.4-3s-2.2-2.8-2.9-4.5c-0.7-1.7-1-3.7-1-5.7s0.3-4,1-5.8s1.6-3.3,2.8-4.6s2.6-2.3,4.2-3
		c1.6-0.7,3.4-1.1,5.3-1.1c1.9,0,3.6,0.3,5.2,1c1.6,0.7,3,1.7,4.1,2.9c1.1,1.2,2,2.6,2.6,4.2C276.7,175.2,277,176.9,277,178.8z
		 M270.2,177.4c-0.2-2.1-0.8-3.7-2-4.8s-2.5-1.7-4-1.7s-2.9,0.5-4,1.6c-1.1,1.1-1.9,2.7-2.4,4.9H270.2z"/>
</g>
</svg>
