<?xml version="1.0" encoding="utf-8"?>
<!-- Generator: Adobe Illustrator 22.1.0, SVG Export Plug-In . SVG Version: 6.00 Build 0)  -->
<svg version="1.1" id="Layer_1" xmlns="http://www.w3.org/2000/svg" xmlns:xlink="http://www.w3.org/1999/xlink" x="0px" y="0px"
	 viewBox="0 0 342 342" style="enable-background:new 0 0 342 342;" xml:space="preserve">
<style type="text/css">
	.st0{fill:#D3EDFF;stroke:#FFFFFF;stroke-width:31;stroke-miterlimit:10;}
	.st1{fill:none;stroke:#FFFFFF;stroke-width:15;stroke-linecap:round;stroke-miterlimit:10;}
</style>
<title>Asset 58</title>
<g id="Layer_2_1_">
	<g id="_2">
		<circle class="st0" cx="171" cy="171" r="155.5"/>
		<path class="st1" d="M205.5,49.3c0,0-127.9-23.1-159.9,112"/>
	</g>
</g>
<g>
	<path d="M134,187.1c0,1.8-0.3,3.1-0.9,4.1c-0.6,1-1.6,1.5-3,1.5c-1.8,0-3.5-1.1-5.1-3.4l-19.5-26.1V186c0,4.3-1.4,6.4-4.3,6.4
		c-1.5,0-2.6-0.5-3.3-1.6c-0.6-1.1-1-2.7-1-4.8v-31.8c0-1.9,0.3-3.4,0.9-4.5c0.6-1,1.6-1.6,3-1.6c1,0,1.8,0.2,2.5,0.7
		c0.7,0.5,1.5,1.3,2.3,2.3l19.8,26.5v-23.1c0-2.2,0.3-3.8,1-4.9c0.6-1.1,1.8-1.6,3.3-1.6c2.8,0,4.2,2.2,4.2,6.5V187.1z"/>
	<path d="M170.3,174.4c0,1.5-0.3,2.4-1,2.8c-0.7,0.4-1.7,0.6-3.1,0.6h-18.3c0.7,5.1,3.5,7.6,8.3,7.6c1.2,0,2.3-0.2,3.3-0.5
		c1-0.3,1.9-0.7,2.7-1.2c0.8-0.4,1.6-0.8,2.2-1.1c0.7-0.3,1.3-0.5,1.9-0.5c0.9,0,1.7,0.3,2.3,0.9c0.6,0.6,0.9,1.3,0.9,2.1
		c0,0.9-0.4,1.9-1.1,2.8c-0.7,0.9-1.7,1.8-3,2.5c-1.3,0.7-2.7,1.3-4.4,1.7s-3.5,0.6-5.5,0.6c-2.3,0-4.4-0.4-6.4-1.3
		c-2-0.9-3.7-2-5.1-3.5c-1.4-1.5-2.6-3.3-3.4-5.3c-0.8-2.1-1.2-4.3-1.2-6.8c0-2.5,0.4-4.7,1.2-6.8c0.8-2.1,1.9-3.9,3.3-5.4
		c1.4-1.5,3.1-2.7,5-3.6c1.9-0.9,4-1.3,6.3-1.3c2.2,0,4.3,0.4,6.1,1.2c1.9,0.8,3.5,2,4.8,3.4s2.4,3.1,3.1,5
		C169.9,170.2,170.3,172.2,170.3,174.4z M162.3,172.8c-0.2-2.5-1-4.3-2.4-5.7c-1.4-1.3-3-2-4.7-2c-1.8,0-3.4,0.6-4.8,1.9
		s-2.3,3.2-2.8,5.8H162.3z"/>
	<path d="M199,163.3c0,0.4-0.1,0.9-0.2,1.4c-0.1,0.5-0.3,1.1-0.5,1.6l-8.3,21.9c-0.5,1.4-1.2,2.5-1.8,3.3c-0.7,0.8-1.7,1.1-3.1,1.1
		c-1.5,0-2.5-0.4-3.2-1.2s-1.3-2-1.9-3.6l-8.6-22.2c-0.3-0.9-0.4-1.7-0.4-2.4c0-1.2,0.4-2.2,1.1-3c0.8-0.8,1.7-1.2,2.9-1.2
		c1.1,0,2,0.4,2.6,1.1c0.6,0.7,1.2,1.8,1.6,3.2l6.2,20l5.9-20.6c0.7-2.3,1.9-3.5,3.9-3.5c1.1,0,2.1,0.4,2.8,1.1
		C198.6,161.1,199,162.1,199,163.3z"/>
	<path d="M230.7,174.4c0,1.5-0.3,2.4-1,2.8c-0.7,0.4-1.7,0.6-3.1,0.6h-18.3c0.7,5.1,3.5,7.6,8.3,7.6c1.2,0,2.3-0.2,3.3-0.5
		c1-0.3,1.9-0.7,2.7-1.2c0.8-0.4,1.6-0.8,2.2-1.1c0.7-0.3,1.3-0.5,1.9-0.5c0.9,0,1.7,0.3,2.3,0.9c0.6,0.6,0.9,1.3,0.9,2.1
		c0,0.9-0.4,1.9-1.1,2.8c-0.7,0.9-1.7,1.8-3,2.5c-1.3,0.7-2.7,1.3-4.4,1.7s-3.5,0.6-5.5,0.6c-2.3,0-4.4-0.4-6.4-1.3
		c-2-0.9-3.7-2-5.1-3.5c-1.4-1.5-2.6-3.3-3.4-5.3c-0.8-2.1-1.2-4.3-1.2-6.8c0-2.5,0.4-4.7,1.2-6.8c0.8-2.1,1.9-3.9,3.3-5.4
		c1.4-1.5,3.1-2.7,5-3.6c1.9-0.9,4-1.3,6.3-1.3c2.2,0,4.3,0.4,6.1,1.2c1.9,0.8,3.5,2,4.8,3.4s2.4,3.1,3.1,5
		C230.3,170.2,230.7,172.2,230.7,174.4z M222.7,172.8c-0.2-2.5-1-4.3-2.4-5.7c-1.4-1.3-3-2-4.7-2c-1.8,0-3.4,0.6-4.8,1.9
		s-2.3,3.2-2.8,5.8H222.7z"/>
	<path d="M254.6,163.2c0,0.9-0.2,1.7-0.7,2.2c-0.5,0.5-1.1,1-1.8,1.3c-0.7,0.4-1.6,0.7-2.5,1c-0.9,0.3-1.9,0.6-2.8,1.1
		c-1.5,0.7-2.5,1.5-2.9,2.4c-0.4,0.9-0.6,2.3-0.6,4.2v10.5c0,4.3-1.4,6.5-4.1,6.5c-1.5,0-2.6-0.5-3.2-1.6c-0.6-1.1-0.9-2.7-0.9-4.9
		v-20.2c0-2.1,0.3-3.7,0.9-4.9c0.6-1.1,1.7-1.7,3.2-1.7c0.8,0,1.6,0.3,2.3,0.8c0.7,0.6,1.4,1.5,2.2,2.9c1.2-1.4,2.4-2.4,3.5-3
		c1.1-0.6,2.2-0.9,3.2-0.9c1.2,0,2.2,0.4,3,1.2C254.2,161,254.6,162,254.6,163.2z"/>
</g>
</svg>
