<?xml version="1.0" encoding="utf-8"?>
<!-- Generator: Adobe Illustrator 22.1.0, SVG Export Plug-In . SVG Version: 6.00 Build 0)  -->
<svg version="1.1" id="Layer_1" xmlns="http://www.w3.org/2000/svg" xmlns:xlink="http://www.w3.org/1999/xlink" x="0px" y="0px"
	 viewBox="0 0 152.7 152.7" style="enable-background:new 0 0 152.7 152.7;" xml:space="preserve">
<style type="text/css">
	.st0{fill:#FFFFFF;}
	.st1{fill:#00A651;}
	.st2{fill:#FFFFFF;stroke:#FFFFFF;stroke-miterlimit:10;}
</style>
<title>check</title>
<circle class="st0" cx="69" cy="75.7" r="69"/>
<circle class="st1" cx="69" cy="75.7" r="57.4"/>
<path class="st0" d="M53.5,100.7h-0.3c-2.6-0.1-5.2-1.4-6.9-3.5L31.7,79c-3-4.1-2-9.8,2.1-12.8c3.8-2.7,9.1-2.1,12.2,1.4l7.9,9.8
	l33.6-37.3c3.3-3.8,9.1-4.2,13-0.9c3.9,3.3,4.2,9.1,0.9,13c-0.1,0.1-0.2,0.2-0.3,0.3L60.3,97.7C58.5,99.7,56.1,100.7,53.5,100.7z"/>
<g>
	<g>
		<path class="st2" d="M30.3,139.2c-1.8,0.5-3.5,0.7-5.2,0.5c-1.8-0.2-3.4-0.8-4.9-1.6c-1.4-0.9-2.7-2-3.8-3.5c-1-1.4-1.8-3-2.4-4.9
			c-0.6-1.9-0.8-3.7-0.6-5.5c0.1-1.8,0.6-3.5,1.4-5c0.8-1.5,1.9-2.9,3.2-4c1.3-1.1,2.9-1.9,4.6-2.4c1-0.3,2-0.5,2.9-0.6
			c1.1-0.1,2.1,0,3,0.2c1,0.2,2,0.6,2.8,1.2c1.2,0.8,2,1.9,2.4,3.3c0.4,1.5,0.3,3-0.3,4.3c-0.7,1.6-2,2.7-3.6,3.1
			c-1.1,0.3-2.2,0.4-3.4,0.3l0,0c0,0-0.1,0-0.2,0c0,0.2,0,0.7,0.2,1.4c0.2,0.7,0.4,1,0.5,1.1c0,0,0.1,0,0.1,0
			c0.2-0.1,0.4-0.2,0.6-0.4l0.7-0.5c2-1.5,4.6-1.7,6.7-0.4c1.3,0.8,2.3,2,2.7,3.5c0.4,1.3,0.3,2.7-0.2,4.1c-0.4,1-1,1.9-1.8,2.7
			c-0.7,0.7-1.5,1.3-2.4,1.8C32.4,138.4,31.4,138.8,30.3,139.2z M33.7,133.5L33.7,133.5C33.7,133.5,33.7,133.5,33.7,133.5z"/>
		<path class="st2" d="M38.4,136.4c-2.1,0.6-4.3,0.2-5.8-1.3c-0.9-0.9-1.6-2.1-2.1-3.8l-3.9-13.1c-0.5-1.6-0.5-2.9-0.3-4.2
			c0.5-2.1,2-3.7,4.2-4.3c2.9-0.9,6.5,0.4,7.9,5.1l3.9,13.1c0.5,1.7,0.6,3.1,0.2,4.4C42,134.3,40.5,135.8,38.4,136.4z M33.7,130.7
			L33.7,130.7L33.7,130.7z"/>
		<path class="st2" d="M44.4,134.7c-2.2,0.6-4.3,0.2-5.8-1.3c-0.9-0.9-1.6-2.1-2.1-3.7l-2.3-7.7c-0.3-1.1-0.5-2.2-0.4-3.2
			c-0.8-0.8-1.3-1.7-1.6-2.8c-0.5-1.7-0.3-3.4,0.5-4.9c0.8-1.5,2.2-2.7,3.9-3.2c1.7-0.5,3.4-0.3,4.9,0.5c1.5,0.8,2.6,2.2,3.1,3.9
			c0.3,1.1,0.4,2.2,0.1,3.2c0.6,0.8,1,1.7,1.4,2.9l2.3,7.7c0.5,1.7,0.6,3.1,0.2,4.4C48,132.5,46.5,134,44.4,134.7z M38.1,113.4
			c0.8-0.2,1.7-0.3,2.6-0.2c-0.2-0.5-0.6-0.9-1.1-1.1c-0.6-0.3-1.4-0.4-2-0.3c-0.6,0.2-1.2,0.7-1.5,1.3c-0.3,0.5-0.4,1-0.3,1.5
			C36.5,114,37.2,113.6,38.1,113.4z"/>
		<path class="st2" d="M53.9,132c-1.5,0.4-3,0.6-4.4,0.4c-1.4-0.2-2.8-0.6-4-1.4c-1.2-0.7-2.3-1.7-3.2-2.9c-0.8-1.1-1.5-2.5-1.9-4
			c-0.4-1.5-0.6-2.9-0.5-4.3c0.1-1.5,0.5-2.9,1.1-4.2c0.7-1.3,1.6-2.4,2.7-3.4c1.1-0.9,2.5-1.6,4-2.1c1.9-0.6,3.6-0.7,5.1-0.4
			c2.5,0.5,4.3,2.1,5,4.4c0.4,1.4,0.3,2.9-0.3,4.2c-0.1,0.2-0.2,0.4-0.3,0.6c0.3,0.1,0.6,0.3,0.9,0.5c1.1,0.8,1.9,1.9,2.3,3.3
			c0.7,2.2,0,4.5-1.8,6.4C57.5,130.5,55.9,131.4,53.9,132z"/>
		<path class="st2" d="M68.7,127.5c-0.9,0.3-2.4,0.5-4.3-0.3c-0.8,1.2-2,2.1-3.4,2.5c-2.1,0.6-4.3,0.2-5.8-1.3
			c-1-0.9-1.6-2.1-2.1-3.8l-3.9-13.1c-0.5-1.6-0.5-2.9-0.3-4.2c0.5-2.1,2-3.7,4.2-4.4c2.7-0.8,5.9,0.2,7.5,3.8
			c1.6-0.9,3.7-1,5.4-0.1c1.5,0.7,2.5,2,3,3.5c0.3,0.9,0.3,1.9,0.1,2.9c-0.1,0.8-0.4,1.5-0.8,2.2l1.4,0.9c0.8,0.5,1.5,1.1,2,1.8
			c0.5,0.7,0.8,1.4,1.1,2.2c0.5,1.7,0.2,3.4-0.7,4.8C71.3,126.3,70.1,127.1,68.7,127.5z"/>
		<path class="st2" d="M92.6,120.5c-1.5,0.5-3.1,0.3-4.4-0.3c-0.8,1.3-2.1,2.2-3.5,2.6c-2.1,0.6-4.3,0.2-5.8-1.3
			c-0.9-0.9-1.6-2.1-2.1-3.8L73,104.6c-0.5-1.6-0.5-2.9-0.3-4.2c0.5-2.1,2-3.7,4.2-4.3c2.6-0.8,5.8,0.1,7.4,3.7
			c2.9-0.7,5.1,0.1,6.4,0.9c2,1.2,3.4,3.1,4.2,5.9l1.6,5.5c0.5,1.7,0.6,3.1,0.2,4.4C96.2,118.3,94.7,119.8,92.6,120.5z M93.4,113.1
			L93.4,113.1L93.4,113.1z"/>
		<path class="st2" d="M102.2,117.8c-1.5,0.4-2.9,0.6-4.4,0.4c-1.5-0.2-2.8-0.6-4.1-1.3c-1.2-0.7-2.3-1.6-3.2-2.8
			c-0.9-1.2-1.6-2.5-2-4c-0.4-1.5-0.6-2.9-0.5-4.4c0.1-1.5,0.5-2.9,1.1-4.1c0.6-1.3,1.5-2.4,2.6-3.4c2.2-1.9,5.4-2.8,8.3-2.5
			c1.4,0.2,2.8,0.6,4,1.3c1.2,0.7,2.2,1.6,3.1,2.7c0.8,1.1,1.5,2.3,1.9,3.7c0.3,1,0.3,1.9,0.2,2.7c0.3,0.5,0.5,1,0.7,1.5
			c0.4,1.3,0.3,2.7-0.2,4.1c-0.4,1-1,1.9-1.8,2.8c-0.7,0.7-1.6,1.4-2.5,2C104.4,117,103.3,117.5,102.2,117.8z"/>
		<path class="st2" d="M111.2,115c-2.1,0.6-4.3,0.1-5.8-1.4c-0.9-0.9-1.6-2.1-2.1-3.7l-2.3-7.8c-0.5-1.6-0.6-3-0.3-4.2
			c0.5-2.1,2-3.7,4.2-4.3c0.7-0.2,1.4-0.3,2.1-0.2c2.1-1.6,4.9-1.8,7-0.6c1.4,0.8,2.4,2.1,2.9,3.7c0.4,1.5,0.3,3-0.4,4.2
			c-0.4,0.7-0.9,1.4-1.5,2c-0.3,0.2-0.5,0.5-0.8,0.7l0.9,3.1C116.5,111.2,114.1,114.1,111.2,115z M106.5,109.2L106.5,109.2
			L106.5,109.2z M113.1,104.1C113.1,104.1,113.1,104.1,113.1,104.1C113.1,104.1,113.1,104.1,113.1,104.1z"/>
		<path class="st2" d="M123.6,111.5c-1.5,0.4-3,0.6-4.4,0.4c-1.5-0.2-2.8-0.6-4.1-1.3c-1.2-0.7-2.3-1.6-3.2-2.8
			c-0.9-1.2-1.6-2.5-2-4c-0.4-1.5-0.6-2.9-0.5-4.4c0.1-1.5,0.5-2.9,1.1-4.1c0.6-1.3,1.5-2.4,2.6-3.4c2.2-1.9,5.4-2.8,8.3-2.5
			c1.4,0.2,2.8,0.6,4,1.3c1.2,0.7,2.2,1.6,3.1,2.7c0.8,1.1,1.5,2.3,1.9,3.7c0.3,1,0.3,1.9,0.2,2.7c0.3,0.5,0.5,1,0.7,1.5
			c0.4,1.3,0.3,2.7-0.2,4.1c-0.4,1-1,1.9-1.8,2.8c-0.7,0.7-1.6,1.4-2.5,2C125.8,110.7,124.8,111.2,123.6,111.5z M127.7,105.5
			C127.7,105.5,127.7,105.5,127.7,105.5C127.7,105.5,127.7,105.5,127.7,105.5z"/>
		<path class="st2" d="M133,108.9c-1.7,0.5-3.5,0.3-5-0.6c-1.4-0.8-2.5-2.2-3-3.8c-0.3-1.1-0.4-2.2-0.1-3.2c-0.6-0.8-1.1-1.8-1.5-3
			l-2.1-7.2c-0.5-1.7-0.6-3.1-0.2-4.4c0.5-2,2.1-3.5,4.1-4.1c2.9-0.9,6.5,0.4,7.9,5l2.1,7.2c0.4,1.2,0.5,2.4,0.4,3.4
			c0.8,0.8,1.3,1.7,1.7,2.8c0.5,1.6,0.3,3.3-0.5,4.8C136,107.3,134.7,108.5,133,108.9z M128.7,103.6c0.2,0.6,0.7,1.2,1.3,1.5
			c0.6,0.3,1.3,0.4,1.9,0.2c0.6-0.2,1.2-0.7,1.5-1.3c0.3-0.6,0.4-1.3,0.3-1.9C132.3,103.3,130.4,103.8,128.7,103.6z"/>
	</g>
	<g>
		<path d="M33.5,131c0.1,0.4,0.1,0.7-0.1,1.1c-0.2,0.4-0.4,0.8-0.8,1.2c-0.4,0.4-0.9,0.7-1.4,1.1c-0.6,0.3-1.2,0.6-2,0.8
			c-1.2,0.4-2.4,0.5-3.5,0.3s-2.1-0.5-3.1-1c-0.9-0.6-1.8-1.3-2.5-2.3c-0.7-1-1.3-2.1-1.7-3.5c-0.4-1.4-0.5-2.6-0.4-3.8
			s0.4-2.3,0.9-3.3c0.5-1,1.2-1.8,2.1-2.5c0.9-0.7,1.9-1.2,3-1.6c0.7-0.2,1.4-0.3,2-0.4c0.6,0,1.2,0,1.7,0.1s0.9,0.3,1.2,0.5
			c0.3,0.2,0.5,0.5,0.6,0.8c0.1,0.4,0.1,0.8-0.1,1.2s-0.4,0.6-0.8,0.7c-0.5,0.1-1,0.2-1.7,0.1c-0.6-0.1-1.3,0-2,0.2
			c-1.4,0.4-2.3,1.2-2.8,2.5c-0.5,1.2-0.5,2.8,0,4.5c0.5,1.7,1.3,2.9,2.4,3.7c1.1,0.7,2.4,0.9,3.8,0.5c0.4-0.1,0.8-0.3,1.1-0.5
			s0.6-0.4,0.9-0.6s0.5-0.4,0.7-0.5c0.2-0.2,0.4-0.3,0.7-0.4c0.3-0.1,0.7,0,1,0.2S33.3,130.6,33.5,131z"/>
		<path d="M38.1,129.5c0.2,0.8,0.3,1.5,0.2,2c-0.1,0.5-0.5,0.8-1,1c-0.6,0.2-1.1,0.1-1.4-0.3c-0.4-0.3-0.7-0.9-0.9-1.8L31,117.2
			c-0.2-0.8-0.3-1.4-0.2-1.9c0.1-0.5,0.5-0.8,1.1-1c1.1-0.3,1.8,0.4,2.3,2L38.1,129.5z"/>
		<path d="M40.3,113.9c0.2,0.6,0.1,1.1-0.1,1.5c-0.3,0.5-0.6,0.8-1.2,0.9c-0.5,0.2-1,0.1-1.5-0.2c-0.5-0.3-0.8-0.7-0.9-1.2
			c-0.2-0.5-0.1-1.1,0.1-1.5s0.6-0.8,1.2-0.9c0.5-0.2,1-0.1,1.5,0.2S40.1,113.3,40.3,113.9z M44.1,127.7c0.2,0.8,0.3,1.5,0.2,2
			c-0.1,0.5-0.5,0.8-1,1c-0.6,0.2-1.1,0.1-1.4-0.3c-0.4-0.3-0.7-0.9-0.9-1.8l-2.3-7.7c-0.2-0.8-0.3-1.5-0.2-2c0.1-0.5,0.5-0.8,1.1-1
			c1.1-0.3,1.8,0.4,2.3,2L44.1,127.7z"/>
		<path d="M56.2,124.5c0.2,0.6,0,1.3-0.7,2c-0.7,0.7-1.6,1.2-2.8,1.5c-0.9,0.3-1.7,0.3-2.5,0.2c-0.8-0.1-1.6-0.4-2.3-0.8
			s-1.3-1-1.9-1.7s-0.9-1.6-1.2-2.6c-0.3-1-0.4-1.9-0.3-2.8c0.1-0.9,0.3-1.7,0.6-2.5c0.4-0.7,0.9-1.4,1.6-1.9c0.7-0.5,1.5-1,2.4-1.2
			c1.2-0.3,2.2-0.4,3-0.3c0.8,0.2,1.3,0.6,1.6,1.3c0.1,0.4,0.1,0.7-0.1,1.1c-0.2,0.3-0.4,0.6-0.8,0.7c-0.3,0.1-0.8,0.1-1.2,0.1
			s-1,0-1.6,0.2c-0.8,0.2-1.4,0.8-1.8,1.6s-0.4,1.7-0.1,2.8c0.3,1.1,0.9,2,1.6,2.4s1.6,0.5,2.5,0.3c0.6-0.2,1-0.4,1.4-0.7
			c0.4-0.3,0.7-0.5,1-0.6c0.4-0.1,0.7-0.1,1,0.1C55.9,123.8,56.1,124.1,56.2,124.5z"/>
		<path d="M68.6,121.8c0.1,0.4,0.1,0.7-0.2,1c-0.2,0.3-0.5,0.5-0.9,0.7c-0.6,0.2-1.3,0-2.1-0.5l-6-4.6l1.3,4.3
			c0.5,1.7,0.2,2.6-0.9,3c-0.6,0.2-1.1,0.1-1.4-0.3c-0.4-0.3-0.7-0.9-0.9-1.8l-3.9-13.1c-0.2-0.8-0.3-1.4-0.2-1.9
			c0.1-0.5,0.5-0.8,1.1-1c1.1-0.3,1.8,0.4,2.3,2l2.3,7.8l2.5-5c0.2-0.4,0.4-0.7,0.6-1c0.2-0.2,0.5-0.4,0.8-0.5
			c0.3-0.1,0.6-0.1,1,0.1s0.5,0.4,0.6,0.7c0.1,0.3,0.1,0.5,0,0.9c-0.1,0.3-0.2,0.6-0.4,1l-2,3.4l5,3.3c0.4,0.2,0.6,0.4,0.8,0.7
			S68.5,121.5,68.6,121.8z"/>
		<path d="M92.3,113.5c0.2,0.8,0.3,1.5,0.2,2c-0.1,0.5-0.5,0.8-1,1c-0.6,0.2-1.1,0.1-1.5-0.2c-0.4-0.3-0.7-0.9-0.9-1.8l-1.3-4.3
			c-0.3-1.1-0.7-1.9-1.2-2.3c-0.5-0.4-1.2-0.5-2-0.2c-0.8,0.2-1.3,0.7-1.5,1.3c-0.2,0.6-0.1,1.5,0.2,2.6l1.3,4.4
			c0.5,1.7,0.2,2.6-0.9,3c-0.6,0.2-1.1,0.1-1.4-0.3c-0.4-0.3-0.7-0.9-0.9-1.8l-3.9-13.1c-0.2-0.8-0.3-1.4-0.2-1.9
			c0.1-0.5,0.5-0.8,1.1-1c1.1-0.3,1.8,0.4,2.3,2l1.3,4.6c0.4-0.9,0.9-1.5,1.4-1.9c0.5-0.4,1-0.6,1.6-0.8c1.4-0.4,2.6-0.3,3.6,0.2
			c1,0.6,1.7,1.7,2.2,3.2L92.3,113.5z"/>
		<path d="M104.7,105c0.2,0.6,0.1,1-0.1,1.2s-0.6,0.4-1.1,0.6l-7.1,2.1c0.8,1.9,2.2,2.6,4.1,2c0.5-0.1,0.9-0.3,1.2-0.6
			s0.7-0.5,0.9-0.8c0.3-0.3,0.5-0.5,0.7-0.7c0.2-0.2,0.4-0.3,0.7-0.4c0.4-0.1,0.7-0.1,1,0.1s0.5,0.4,0.6,0.7
			c0.1,0.4,0.1,0.8-0.1,1.2c-0.2,0.4-0.5,0.9-0.9,1.3c-0.4,0.4-0.9,0.8-1.5,1.2c-0.6,0.4-1.3,0.6-2.1,0.9c-0.9,0.3-1.8,0.3-2.6,0.2
			c-0.9-0.1-1.7-0.4-2.4-0.8c-0.7-0.4-1.4-1-1.9-1.7c-0.6-0.7-1-1.5-1.2-2.5c-0.3-1-0.4-1.9-0.3-2.8c0.1-0.9,0.3-1.7,0.7-2.5
			c0.4-0.8,0.9-1.4,1.5-1.9c0.6-0.5,1.4-1,2.3-1.2c0.9-0.3,1.7-0.3,2.5-0.2c0.8,0.1,1.6,0.4,2.3,0.8c0.7,0.4,1.3,0.9,1.8,1.6
			C104.1,103.4,104.4,104.2,104.7,105z M101.4,105.3c-0.3-0.9-0.9-1.6-1.6-1.9c-0.7-0.4-1.4-0.4-2.1-0.2c-0.7,0.2-1.3,0.6-1.6,1.3
			s-0.5,1.5-0.4,2.5L101.4,105.3z"/>
		<path d="M112.6,97.9c0.1,0.4,0.1,0.7,0,0.9c-0.1,0.3-0.3,0.5-0.6,0.7s-0.5,0.4-0.9,0.7c-0.3,0.2-0.7,0.5-1,0.7
			c-0.5,0.4-0.8,0.8-0.8,1.2c0,0.4,0,1,0.3,1.7l1.2,4.1c0.5,1.7,0.2,2.7-0.9,3c-0.6,0.2-1.1,0.1-1.4-0.3s-0.7-0.9-0.9-1.8l-2.3-7.8
			c-0.2-0.8-0.3-1.5-0.2-2c0.1-0.5,0.5-0.8,1.1-1c0.3-0.1,0.6-0.1,1,0.1c0.3,0.1,0.7,0.4,1.2,0.9c0.3-0.7,0.7-1.2,1-1.6
			c0.4-0.4,0.7-0.6,1.1-0.7c0.5-0.1,0.9-0.1,1.3,0.1S112.5,97.5,112.6,97.9z"/>
		<path d="M126.1,98.7c0.2,0.6,0.1,1-0.1,1.2s-0.6,0.4-1.1,0.6l-7.1,2.1c0.8,1.9,2.2,2.6,4.1,2c0.5-0.1,0.9-0.3,1.2-0.6
			c0.3-0.2,0.7-0.5,0.9-0.8c0.3-0.3,0.5-0.5,0.7-0.7c0.2-0.2,0.4-0.3,0.7-0.4c0.4-0.1,0.7-0.1,1,0.1s0.5,0.4,0.6,0.7
			c0.1,0.4,0.1,0.8-0.1,1.2c-0.2,0.4-0.5,0.9-0.9,1.3c-0.4,0.4-0.9,0.8-1.5,1.2c-0.6,0.4-1.3,0.6-2.1,0.9c-0.9,0.3-1.8,0.3-2.6,0.2
			c-0.9-0.1-1.7-0.4-2.4-0.8s-1.4-1-1.9-1.7c-0.6-0.7-1-1.5-1.2-2.5c-0.3-1-0.4-1.9-0.3-2.8c0.1-0.9,0.3-1.7,0.7-2.5
			c0.4-0.8,0.9-1.4,1.5-1.9s1.4-1,2.3-1.2c0.9-0.3,1.7-0.3,2.5-0.2s1.6,0.4,2.3,0.8c0.7,0.4,1.3,0.9,1.8,1.6
			C125.5,97.1,125.8,97.9,126.1,98.7z M122.8,99c-0.3-0.9-0.9-1.6-1.6-1.9s-1.4-0.4-2.1-0.2c-0.7,0.2-1.3,0.6-1.6,1.3
			c-0.4,0.6-0.5,1.5-0.4,2.5L122.8,99z"/>
		<path d="M133.1,102.5c0.1,0.5,0.1,1-0.2,1.5c-0.3,0.5-0.6,0.8-1.1,0.9c-0.5,0.2-1,0.1-1.5-0.2c-0.4-0.3-0.7-0.6-0.9-1.2
			c-0.2-0.5-0.1-1,0.1-1.4c0.2-0.4,0.6-0.7,1.2-0.9c0.5-0.1,0.9-0.1,1.4,0.1S132.9,102,133.1,102.5z M131.1,96.4
			c0.5,1.7,0.2,2.6-0.8,2.9c-0.6,0.2-1.1,0.1-1.4-0.3s-0.7-0.9-0.9-1.8l-2.1-7.2c-0.2-0.8-0.3-1.5-0.2-2c0.1-0.5,0.5-0.8,1.1-1
			c1-0.3,1.8,0.4,2.3,2L131.1,96.4z"/>
	</g>
</g>
</svg>
