<?xml version="1.0" encoding="utf-8"?>
<!-- Generator: Adobe Illustrator 22.1.0, SVG Export Plug-In . SVG Version: 6.00 Build 0)  -->
<svg version="1.1" id="Layer_1" xmlns="http://www.w3.org/2000/svg" xmlns:xlink="http://www.w3.org/1999/xlink" x="0px" y="0px"
	 viewBox="0 0 769.5 516.9" style="enable-background:new 0 0 769.5 516.9;" xml:space="preserve">
<style type="text/css">
	.st0{fill:#677300;}
	.st1{fill:#FFBF00;}
	.st2{fill:#FF6A00;}
	.st3{fill:#E068AA;}
	.st4{fill:#85CDDD;}
	.st5{fill:none;stroke:#454545;stroke-width:14;stroke-linecap:round;stroke-linejoin:round;}
	.st6{fill:#454545;stroke:#454545;stroke-width:14;stroke-linecap:round;stroke-linejoin:round;}
</style>
<path class="st0" d="M218.8,456.2c-3.2,4.4-6,10-4.2,15.2c1.6,4.5,6.1,7.1,10.5,8.8c42.9,17.2,90.7-11.8,136.7-7.3
	c19.8,1.9,38.4,10,57.2,16.5c20.7,7.2,41.9,12.6,63.5,16.2c8.8,1.5,18.6,2.4,26.1-2.4c12-7.7,11.1-26.7,2.2-37.8
	c-9-11-23.1-16.2-36.5-21c-17.9-6.5-35.8-13.3-54.4-17.8C365.4,413.3,257.2,403.2,218.8,456.2z"/>
<path class="st1" d="M563.4,506.4c8,1.2,15.7,4,23.8,3.8c8-0.2,16.9-4.3,18.8-12.1c0.5-1.7,0.4-3.5-0.2-5.2
	c-1.7-3.9-6.8-4.8-11.1-4.9c-14.5-0.2-29.2,2.5-43.5,0.1c-9.7-1.6-18.8-5.4-28.3-8s-19.8-3.7-28.9,0c-18.7,7.5-2,25.9,10.6,29.2
	C523.1,514.1,544.2,503.6,563.4,506.4z"/>
<path class="st2" d="M174.6,484.1c-4.5,2.4-8.3,6.7-8.8,11.8c-0.4,5.1,2.7,10,6.9,12.9s9.3,4.1,14.3,4.8c26.2,3.6,52.6-5.9,78.9-3.9
	c6.8,0.5,13.6,1.8,20.2,0.3c3-0.6,6.3-2.4,6.6-5.4c0-1.4-0.3-2.8-1-4c-9.1-19.9-34.8-26.4-55.1-25.6c-8,0.3-15.9,2.6-23.8,3.4
	C200.7,479.7,185.9,478.2,174.6,484.1z"/>
<path class="st3" d="M186.8,467.2c-4.8,7.9-8.3,18.9-2.1,25.8c4.8,5.3,13.3,5.3,20.1,2.9s12.7-6.8,19.4-9.3c8.1-2.9,17-2.9,25.6-2.9
	l75.9,0.4c3.2-7.7,1.1-16.8-3.6-23.6c-4.7-6.8-11.7-11.8-18.7-16.1c-17.7-10.9-45.7-24.6-67.1-18.4
	C216.6,431.7,197.2,450.3,186.8,467.2z"/>
<path class="st4" d="M266.7,490.1c-1.1,1.4-2.1,3.1-1.6,4.8c0.4,1.6,1.9,2.6,3.3,3.3c15.4,8.4,34,6.6,51.6,6.6
	c46.7,0.2,93.5,15.4,139.6,7.7c6.4-1.1,14.1-4.3,14.1-10.7c0-5.4-5.7-8.9-10.6-11.1c-32.4-14.6-71.6-29.1-107.6-29.8
	c-14.5-0.3-28.9,4.8-42.7,8.3C297,473.3,277.3,476.3,266.7,490.1z"/>
<title>Asset 82</title>
<g id="Layer_2_2_">
	<g id="_2_1_">
		<polygon class="st5" points="88,16.7 165,512.7 604,512.7 684,16.7 		"/>
		<line class="st5" x1="101.3" y1="94.3" x2="668" y2="94.3"/>
		<line class="st5" x1="115.6" y1="180.5" x2="652.7" y2="180.5"/>
		<line class="st5" x1="131.3" y1="266.6" x2="637.8" y2="266.6"/>
		<line class="st5" x1="142.5" y1="352.7" x2="626.3" y2="352.7"/>
		<line class="st5" x1="153.1" y1="438.9" x2="615.5" y2="438.9"/>
		<line class="st5" x1="395.9" y1="16.7" x2="395.9" y2="512.7"/>
		<line class="st5" x1="551.6" y1="16.7" x2="497" y2="512.7"/>
		<line class="st5" x1="228.7" y1="16.7" x2="280" y2="506.7"/>
		<polyline class="st6" points="684,40.7 759,40.7 759,72.7 675,72.7 		"/>
		<polyline class="st6" points="86,40.7 11,40.7 11,72.7 95,72.7 		"/>
	</g>
</g>
</svg>
