<?xml version="1.0" encoding="utf-8"?>
<!-- Generator: Adobe Illustrator 22.1.0, SVG Export Plug-In . SVG Version: 6.00 Build 0)  -->
<svg version="1.1" id="Layer_1" xmlns="http://www.w3.org/2000/svg" xmlns:xlink="http://www.w3.org/1999/xlink" x="0px" y="0px"
	 viewBox="0 0 769.5 516.9" style="enable-background:new 0 0 769.5 516.9;" xml:space="preserve">
<style type="text/css">
	.st0{fill:#FFBF00;}
	.st1{fill:#FFADB9;}
	.st2{fill:#677300;}
	.st3{fill:#D02600;}
	.st4{fill:#FF6A00;}
	.st5{fill:#6773E1;}
	.st6{fill:#FFFFFF;}
	.st7{fill:#00ADB9;}
	.st8{fill:none;stroke:#454545;stroke-width:14;stroke-linecap:round;stroke-linejoin:round;}
	.st9{fill:#454545;stroke:#454545;stroke-width:14;stroke-linecap:round;stroke-linejoin:round;}
</style>
<title>Asset 82</title>
<g id="Layer_2_1_">
	<g id="_2">
		<path class="st0" d="M408.9,407.6c36.3,10.8,74.5,13.4,111.9,7.8c14.2-2.1,28.9-5.5,42.6-1.1s25,20,18.9,33
			c-2.6,5.5-7.8,9.4-13.1,12.5c-27.9,16.1-62.4,15.8-94.2,10.6s-63-15-95.3-16.1c-30.4-1.1-60.4,5.5-90.6,8.2
			c-42.5,3.7-155-24.7-75-69.7C283.4,353.7,340.6,387.3,408.9,407.6z"/>
		<path class="st1" d="M383.7,391.4c-23.2-1.2-48.2-1.9-67.6,10.9c-6.1,4-11.9,10.6-10.6,17.8c1,5.3,5.7,9.3,10.8,11.1
			c5.1,1.8,10.6,1.7,16.1,1.8c19.3,0.3,38.5,2.5,57.3,6.4c8.8,1.8,17.8,4.1,26.6,2.4c8.8-1.7,17.4-8.5,17.6-17.5
			C434.8,393,405.3,392.5,383.7,391.4z"/>
		<path class="st2" d="M215.5,458.3c-3.2,4.4-6,10-4.2,15.2c1.6,4.5,6.1,7.1,10.5,8.8c42.9,17.2,90.7-11.8,136.7-7.3
			c19.8,1.9,38.4,10,57.2,16.5c20.7,7.2,41.9,12.6,63.5,16.2c8.8,1.5,18.6,2.4,26.1-2.4c12-7.7,11.1-26.7,2.2-37.8
			c-9-11-23.1-16.2-36.5-21c-17.9-6.5-35.8-13.3-54.4-17.8C362.1,415.4,253.9,405.3,215.5,458.3z"/>
		<path class="st3" d="M566.6,442.7c-26.4-17.4-55.6-30.1-86.3-37.7c-15.5-3.8-31.3-6.4-47.2-7.5c-15.5-1.2-30.1,1.9-45.7-0.1
			c-4.9-0.6-9.7-1.5-14.6-1.3c-4.9,0.2-9.8,1.4-14.6,2.4c-7.5,1.6-15.3,2.7-21.9,6.6c-20.4,12-4.7,31.3,11,38.1
			c22,9.5,47.1,6.3,70.8,9.5c45.8,6.2,85.6,36.4,131.4,43.1c14.9,2.2,33.8-0.5,39-14.7C594,466.1,579.9,451.4,566.6,442.7z"/>
		<path class="st0" d="M560.1,508.5c8,1.2,15.7,4,23.8,3.8c8-0.2,16.9-4.3,18.8-12.1c0.5-1.7,0.4-3.5-0.2-5.2
			c-1.7-3.9-6.8-4.8-11.1-4.9c-14.5-0.2-29.2,2.5-43.5,0.1c-9.7-1.6-18.8-5.4-28.3-8c-9.5-2.6-19.8-3.7-28.9,0
			c-18.7,7.5-2,25.9,10.6,29.2C519.8,516.2,540.9,505.7,560.1,508.5z"/>
		<path class="st4" d="M171.3,486.2c-4.5,2.4-8.3,6.7-8.8,11.8c-0.4,5.1,2.7,10,6.9,12.9c4.2,2.9,9.3,4.1,14.3,4.8
			c26.2,3.6,52.6-5.9,78.9-3.9c6.8,0.5,13.6,1.8,20.2,0.3c3-0.6,6.3-2.4,6.6-5.4c0-1.4-0.3-2.8-1-4c-9.1-19.9-34.8-26.4-55.1-25.6
			c-8,0.3-15.9,2.6-23.8,3.4C197.4,481.8,182.6,480.3,171.3,486.2z"/>
		<path class="st5" d="M171.4,460.1c-4.8,7.9-8.3,18.9-2.1,25.8c4.8,5.3,13.3,5.3,20.1,2.9c6.8-2.4,12.7-6.8,19.4-9.3
			c8.1-2.9,17-2.9,25.6-2.9l75.9,0.4c3.2-7.7,1.1-16.8-3.6-23.6c-4.7-6.8-11.7-11.8-18.7-16.1c-17.7-10.9-45.7-24.6-67.1-18.4
			C201.2,424.6,181.8,443.2,171.4,460.1z"/>
		<path class="st6" d="M263.4,492.2c-1.1,1.4-2.1,3.1-1.6,4.8c0.4,1.6,1.9,2.6,3.3,3.3c15.4,8.4,34,6.6,51.6,6.6
			c46.7,0.2,93.5,15.4,139.6,7.7c6.4-1.1,14.1-4.3,14.1-10.7c0-5.4-5.7-8.9-10.6-11.1c-32.4-14.6-71.6-29.1-107.6-29.8
			c-14.5-0.3-28.9,4.8-42.7,8.3C293.7,475.4,274,478.4,263.4,492.2z"/>
		<path class="st6" d="M526.8,415.7c-2.8,6.9-1.9,15.3,2.7,21.1c2.3,2.9,5.4,5.1,8.4,7.3c2.2,1.6,4.5,3.2,7.2,3.4
			c6.1,0.5,10.2-6.1,12.2-12c2.5-7.5,4-15.7,1.6-23.1C552.6,393.3,532.8,400.8,526.8,415.7z"/>
		<path class="st7" d="M494.8,391c-4.7,4.9-6.4,13-2.4,18.5c3.4,4.7,9.7,6.1,15.5,7.1l14.4,2.6c5,0.9,10.5,1.8,15.1-0.5
			c3.1-1.5,5.4-4.3,7.6-7.1l12.1-15.1c10.7-13.3-16.5-12.5-23.5-13.1C520.9,382.4,504.4,381,494.8,391z"/>
	</g>
</g>
<g id="Layer_2_2_">
	<g id="_2_1_">
		<polygon class="st8" points="88,16.7 165,512.7 604,512.7 684,16.7 		"/>
		<line class="st8" x1="101.3" y1="94.3" x2="668" y2="94.3"/>
		<line class="st8" x1="115.6" y1="180.5" x2="652.7" y2="180.5"/>
		<line class="st8" x1="131.3" y1="266.6" x2="637.8" y2="266.6"/>
		<line class="st8" x1="142.5" y1="352.7" x2="626.3" y2="352.7"/>
		<line class="st8" x1="153.1" y1="438.9" x2="615.5" y2="438.9"/>
		<line class="st8" x1="395.9" y1="16.7" x2="395.9" y2="512.7"/>
		<line class="st8" x1="551.6" y1="16.7" x2="497" y2="512.7"/>
		<line class="st8" x1="228.7" y1="16.7" x2="280" y2="506.7"/>
		<polyline class="st9" points="684,40.7 759,40.7 759,72.7 675,72.7 		"/>
		<polyline class="st9" points="86,40.7 11,40.7 11,72.7 95,72.7 		"/>
	</g>
</g>
</svg>
