<?xml version="1.0" encoding="utf-8"?>
<!-- Generator: Adobe Illustrator 22.1.0, SVG Export Plug-In . SVG Version: 6.00 Build 0)  -->
<svg version="1.1" id="Layer_1" xmlns="http://www.w3.org/2000/svg" xmlns:xlink="http://www.w3.org/1999/xlink" x="0px" y="0px"
	 viewBox="0 0 765.2 513.3" style="enable-background:new 0 0 765.2 513.3;" xml:space="preserve">
<style type="text/css">
	.st0{fill:#FFBF00;}
	.st1{fill:#F57B17;}
	.st2{fill:#FFADB9;}
	.st3{fill:#677300;}
	.st4{fill:#D02600;}
	.st5{fill:#9526DA;}
	.st6{fill:#FFFFFF;}
	.st7{fill:#FF6A00;}
	.st8{fill:#6773E1;}
	.st9{fill:#00ADB9;}
	.st10{fill:none;stroke:#454545;stroke-width:14;stroke-linecap:round;stroke-linejoin:round;}
	.st11{fill:#454545;stroke:#454545;stroke-width:14;stroke-linecap:round;stroke-linejoin:round;}
</style>
<title>Asset 83</title>
<g id="Layer_2_1_">
	<g id="_2">
		<path class="st0" d="M377.4,368.5c36.3,10.8,74.5,13.4,111.9,7.8c14.2-2.1,28.9-5.4,42.6-1.1s25,20,18.8,33
			c-2.6,5.5-7.8,9.4-13.1,12.5c-27.9,16.1-62.4,15.8-94.2,10.6s-63-15-95.3-16.1c-30.4-1.1-60.4,5.5-90.6,8.2
			c-42.5,3.7-155-24.6-75-69.7C251.9,314.5,309.1,348.2,377.4,368.5z"/>
		<path class="st1" d="M460.4,334.9c-33.5-2.1-65.4-15.4-98.9-17.5s-72.4,11.9-82,44c-1.1,3.5-1.7,7.4-0.2,10.8s5,5.7,8.5,7.3
			c23.3,10.8,50.5,3.3,76.2,2.1c30.6-1.3,60.7,6.8,90.6,13.3s61.3,11.5,91,4c29.7-7.5,57.5-30.4,61.7-60.8
			c5.4-38.5-35.9-40.8-61.5-28.3C516.2,324.5,496.1,337.2,460.4,334.9z"/>
		<path class="st2" d="M381.3,376.2c-23.2-1.2-48.2-1.9-67.6,10.9c-6.1,4-11.8,10.6-10.6,17.8c1,5.3,5.7,9.3,10.8,11.1
			c5.1,1.8,10.6,1.7,16.1,1.8c19.3,0.3,38.5,2.5,57.3,6.4c8.8,1.8,17.8,4.1,26.6,2.4c8.8-1.7,17.4-8.5,17.6-17.5
			C432.3,377.8,402.8,377.3,381.3,376.2z"/>
		<path class="st3" d="M213,443.2c-3.2,4.4-6.1,10-4.2,15.2c1.6,4.4,6.1,7.1,10.5,8.8c42.9,17.2,90.7-11.8,136.7-7.3
			c19.8,1.9,38.4,10,57.2,16.5c20.7,7.2,41.9,12.6,63.5,16.2c8.8,1.5,18.6,2.4,26.1-2.4c12-7.7,11.1-26.7,2.2-37.8
			s-23.1-16.2-36.5-21c-17.9-6.5-35.8-13.3-54.4-17.8C359.6,400.3,251.5,390.2,213,443.2z"/>
		<path class="st4" d="M564.1,427.5c-26.4-17.4-55.6-30.1-86.3-37.6c-15.5-3.8-31.3-6.4-47.2-7.6c-15.6-1.1-30.1,1.9-45.8-0.1
			c-4.8-0.6-9.7-1.5-14.6-1.3s-9.8,1.4-14.6,2.4c-7.5,1.6-15.3,2.7-21.9,6.6c-20.5,12-4.7,31.3,11,38.1c22,9.5,47.1,6.3,70.8,9.5
			c45.8,6.2,85.6,36.4,131.4,43.1c14.9,2.2,33.8-0.5,39.1-14.7C591.5,451,577.4,436.3,564.1,427.5z"/>
		<path class="st5" d="M526.7,392c-7.3,1.3-15.7,2.5-19.7,8.7c-5,7.8,0.9,18.8,9.1,23c8.2,4.2,18,4.1,27.2,5.2
			c7.5,0.9,15.1,2.7,22.7,1.9c9.4-1.1,17.8-6.2,25.9-11.2c8-5,16.7-10.8,19.2-19.9c3.1-11.3-4.6-22.6-12-31.6
			c-2.8-3.4-5.7-6.8-9.5-9s-8.7-2.9-12.5-0.7c-9.9,5.7,2.4,15.2-9.9,21C554.3,385.4,540.7,389.6,526.7,392z"/>
		<path class="st0" d="M557.7,493.3c7.9,1.2,15.7,4,23.7,3.8s16.9-4.3,18.9-12.1c0.5-1.7,0.4-3.5-0.2-5.2c-1.7-3.9-6.8-4.8-11.1-4.9
			c-14.5-0.2-29.2,2.4-43.5,0.1c-9.7-1.6-18.8-5.4-28.3-8s-19.8-3.7-28.9,0c-18.7,7.5-2,25.9,10.6,29.2
			C517.3,501.1,538.5,490.5,557.7,493.3z"/>
		<path class="st6" d="M152.9,415.2c-1.6,8.8-0.6,18,2.7,26.3c2.3,5.7,5.9,11.1,11.4,13.8c9.1,4.4,20.9-0.9,25.9-9.8
			c2.2-4,3.4-8.5,4.5-12.9l9.5-38c0.9-3.5,1.8-7.2,0.9-10.8c-1.1-4.1-4.5-7.2-7.7-10c-5.2-4.6-10.7-9.3-17.4-11.1
			c-12.2-3.3-18.9,5.4-21.2,16.1C158.9,391,155,403.2,152.9,415.2z"/>
		<path class="st7" d="M168.9,471c-4.5,2.4-8.3,6.7-8.7,11.8c-0.4,5.1,2.7,10,6.9,12.9s9.3,4.1,14.4,4.8c26.1,3.5,52.6-5.9,78.9-3.9
			c6.8,0.5,13.6,1.8,20.2,0.3c3-0.6,6.3-2.4,6.6-5.4c0-1.4-0.3-2.8-1-4c-9.1-19.9-34.8-26.4-55.1-25.6c-8,0.3-15.9,2.6-23.8,3.4
			C194.9,466.7,180,465.2,168.9,471z"/>
		<path class="st8" d="M168.9,444.9c-4.9,7.9-8.3,18.9-2.1,25.8c4.8,5.3,13.3,5.3,20.1,2.9s12.7-6.8,19.4-9.3c8.1-3,17-2.9,25.6-2.9
			l75.9,0.4c3.2-7.7,1.1-16.8-3.6-23.6c-4.7-6.8-11.7-11.8-18.7-16.2c-17.7-10.9-45.7-24.5-67.1-18.4
			C198.8,409.4,179.3,428.1,168.9,444.9z"/>
		<path class="st6" d="M261,477.1c-1.1,1.4-2.1,3.1-1.6,4.9c0.4,1.5,1.9,2.5,3.3,3.3c15.4,8.4,34,6.6,51.6,6.7
			c46.7,0.2,93.5,15.4,139.6,7.7c6.4-1.1,14.1-4.3,14.1-10.7c0-5.4-5.7-8.9-10.6-11.1c-32.4-14.6-71.6-29.1-107.6-29.8
			c-14.5-0.3-28.9,4.8-42.7,8.3C291.2,460.3,271.6,463.2,261,477.1z"/>
		<path class="st6" d="M276.5,315.2c-8.8,2-16.8,6.3-23.3,12.6c-4.4,4.3-8,9.7-8.4,15.8c-0.6,10.1,8.9,18.9,19,20.1
			c4.5,0.5,9.1-0.1,13.6-0.8l38.8-5.8c3.6-0.5,7.4-1.1,10.2-3.3c3.4-2.6,5-6.9,6.3-11c2.2-6.6,4.5-13.4,3.5-20.3
			c-1.7-12.5-12.3-15.3-23.1-13.2C301.2,311.4,288.5,312.5,276.5,315.2z"/>
		<path class="st6" d="M568.4,424.6c-2.8,6.9-1.9,15.3,2.7,21.1c2.3,2.9,5.4,5.1,8.4,7.3c2.2,1.6,4.5,3.2,7.2,3.4
			c6.1,0.5,10.2-6.1,12.2-12c2.5-7.5,4-15.7,1.6-23.1C594.1,402.2,574.4,409.6,568.4,424.6z"/>
		<path class="st9" d="M481.3,382.8c-4.7,4.8-6.4,13-2.4,18.5c3.4,4.7,9.7,6.1,15.5,7.1l14.4,2.6c5,0.9,10.5,1.8,15.1-0.5
			c3.1-1.6,5.4-4.4,7.6-7.1l12.1-15.1c10.7-13.3-16.5-12.5-23.5-13.1C507.4,374.2,491,372.8,481.3,382.8z"/>
	</g>
</g>
<g id="Layer_2_2_">
	<g id="_2_1_">
		<polygon class="st10" points="85,8.4 162,504.4 601,504.4 681,8.4 		"/>
		<line class="st10" x1="98.3" y1="86" x2="665" y2="86"/>
		<line class="st10" x1="112.6" y1="172.1" x2="649.7" y2="172.1"/>
		<line class="st10" x1="128.3" y1="258.3" x2="634.8" y2="258.3"/>
		<line class="st10" x1="139.5" y1="344.4" x2="623.3" y2="344.4"/>
		<line class="st10" x1="150.1" y1="430.6" x2="612.4" y2="430.6"/>
		<line class="st10" x1="392.8" y1="8.4" x2="392.8" y2="504.4"/>
		<line class="st10" x1="548.6" y1="8.4" x2="494" y2="504.4"/>
		<line class="st10" x1="225.7" y1="8.4" x2="277" y2="498.4"/>
		<polyline class="st11" points="681,32.4 756,32.4 756,64.4 672,64.4 		"/>
		<polyline class="st11" points="83,32.4 8,32.4 8,64.4 92,64.4 		"/>
	</g>
</g>
</svg>
