<?xml version="1.0" encoding="utf-8"?>
<!-- Generator: Adobe Illustrator 22.1.0, SVG Export Plug-In . SVG Version: 6.00 Build 0)  -->
<svg version="1.1" id="Layer_1" xmlns="http://www.w3.org/2000/svg" xmlns:xlink="http://www.w3.org/1999/xlink" x="0px" y="0px"
	 viewBox="0 0 762 510" style="enable-background:new 0 0 762 510;" xml:space="preserve">
<style type="text/css">
	.st0{fill:#9526DA;}
	.st1{fill:#FFBF00;}
	.st2{fill:#F57B17;}
	.st3{fill:#00ADB9;}
	.st4{fill:#FFADB9;}
	.st5{fill:#677300;}
	.st6{fill:#D02600;}
	.st7{fill:#FFFFFF;}
	.st8{fill:#FF6A00;}
	.st9{fill:#6773E1;}
	.st10{fill:none;stroke:#454545;stroke-width:14;stroke-linecap:round;stroke-linejoin:round;}
	.st11{fill:#454545;stroke:#454545;stroke-width:14;stroke-linecap:round;stroke-linejoin:round;}
</style>
<title>Asset 84</title>
<g id="Layer_2_1_">
	<g id="_2">
		<path class="st0" d="M496.9,317.3c13.7,5,29.3,11.3,42.2,4.6c16.3-8.5,17-32.9,7.1-48.3s-26.7-24.7-41.3-35.7
			c-12-9-23.1-19.6-36.9-25.6c-17.1-7.5-36.5-7-55.2-6.4s-39.1,1.9-52.4,15c-16.5,16.3-14.5,43.1-10.7,65.9c1.4,8.5,3,17.2,7.4,24.7
			s12.1,13.6,20.7,13.6c22.6,0,10.8-28.4,37.6-26.1C443.2,301.5,470.6,307.6,496.9,317.3z"/>
		<path class="st1" d="M382.8,371.5c36.3,10.8,74.5,13.4,111.9,7.8c14.2-2.1,28.9-5.4,42.6-1.1s25,20,18.9,33
			c-2.6,5.5-7.8,9.4-13.1,12.5c-27.9,16.1-62.4,15.8-94.2,10.6s-63-15-95.3-16.1c-30.4-1.1-60.4,5.5-90.6,8.2
			c-42.6,3.7-155-24.6-75-69.7C257.3,317.5,314.4,351.1,382.8,371.5z"/>
		<path class="st2" d="M465.7,337.9c-33.5-2.1-65.4-15.4-98.9-17.5s-72.4,11.9-82,44c-1.1,3.5-1.7,7.4-0.2,10.8s5,5.7,8.5,7.3
			c23.3,10.8,50.5,3.3,76.2,2.1c30.6-1.4,60.7,6.8,90.6,13.3s61.3,11.5,91,4s57.4-30.4,61.7-60.8c5.4-38.5-36-40.8-61.5-28.3
			C521.5,327.5,501.4,340.2,465.7,337.9z"/>
		<path class="st2" d="M313.5,221.2c-33.5-2.1-65.4-15.4-98.9-17.5s-72.4,11.9-82,44c-1.1,3.5-1.7,7.4-0.2,10.8s5,5.7,8.5,7.3
			c23.3,10.8,50.5,3.3,76.2,2.1c30.6-1.4,60.7,6.8,90.6,13.3s61.3,11.5,91,4s57.4-30.4,61.7-60.8c5.4-38.5-36-40.8-61.5-28.3
			C369.3,210.8,349.2,223.5,313.5,221.2z"/>
		<path class="st3" d="M337.7,347.9c29.3-3,58.8-8.7,88.1-5.2c12.7,1.5,25.2,4.8,38,5.4s26.4-1.8,36.1-10.2
			c9.7-8.4,13.9-23.8,6.9-34.5c-8.3-12.4-26-12.9-40.9-12.6c-39,0.6-78.1-2.7-116.5-9.7c-26-4.7-58.7-13.8-84.5-2.9
			c-19.5,8.2-35.2,35.2-20.1,54.8C262,355.1,314.3,350.3,337.7,347.9z"/>
		<path class="st4" d="M488.3,256c-37.2-1.9-77.4-3.1-108.5,17.5c-9.8,6.4-19,17-16.9,28.5c1.5,8.6,9.1,15,17.3,17.8
			c8.2,2.8,17.1,2.8,25.8,2.9c30.9,0.5,61.7,4,92,10.3c14.1,3,28.5,6.6,42.6,3.9c14.1-2.6,27.9-13.7,28.3-28.1
			C570.2,258.6,522.9,257.7,488.3,256z"/>
		<path class="st4" d="M364.5,157.3c-37.2-1.9-77.4-3.1-108.5,17.5c-9.8,6.4-19,17-16.9,28.5c1.5,8.6,9.1,15,17.3,17.8
			c8.2,2.8,17.1,2.8,25.8,2.9c30.9,0.5,61.7,4,92,10.3c14.1,3,28.5,6.6,42.6,3.9c14.1-2.6,27.9-13.7,28.3-28.1
			C446.4,159.9,399.1,159,364.5,157.3z"/>
		<path class="st4" d="M386.6,379.2c-23.2-1.2-48.2-1.9-67.6,10.9c-6.1,4-11.9,10.6-10.6,17.8c1,5.3,5.7,9.3,10.8,11.1
			c5.1,1.8,10.6,1.7,16,1.8c19.3,0.3,38.5,2.5,57.3,6.4c8.8,1.9,17.8,4.1,26.6,2.4s17.4-8.6,17.6-17.5
			C437.7,380.8,408.2,380.3,386.6,379.2z"/>
		<path class="st5" d="M218.4,446.2c-3.2,4.4-6,10-4.2,15.2c1.6,4.5,6.1,7.1,10.5,8.8c42.9,17.2,90.8-11.8,136.7-7.3
			c19.8,1.9,38.4,10,57.2,16.5c20.7,7.2,41.9,12.6,63.5,16.2c8.8,1.5,18.6,2.4,26.1-2.4c12-7.7,11.1-26.7,2.2-37.8
			s-23.1-16.2-36.5-21c-17.9-6.5-35.8-13.3-54.4-17.9C365,403.3,256.8,393.1,218.4,446.2z"/>
		<path class="st6" d="M569.5,430.5c-26.4-17.4-55.6-30.1-86.3-37.6c-15.5-3.8-31.3-6.4-47.2-7.6c-15.5-1.1-30.1,1.9-45.7-0.1
			c-4.9-0.6-9.7-1.5-14.6-1.3s-9.8,1.4-14.6,2.4c-7.5,1.6-15.3,2.7-21.9,6.6c-20.4,12.1-4.7,31.3,11,38.1c22,9.5,47.1,6.3,70.8,9.5
			c45.8,6.2,85.6,36.4,131.4,43.1c14.9,2.2,33.8-0.5,39-14.7C596.9,454,582.8,439.3,569.5,430.5z"/>
		<path class="st0" d="M532.1,395c-7.3,1.3-15.7,2.4-19.7,8.7c-5,7.8,0.9,18.8,9.1,23s18,4.1,27.2,5.2c7.5,0.9,15.1,2.8,22.7,1.9
			c9.4-1.1,17.8-6.2,25.9-11.2c8-5,16.7-10.8,19.2-19.9c3.1-11.3-4.5-22.6-12-31.6c-2.8-3.4-5.7-6.8-9.5-9s-8.7-2.9-12.5-0.7
			c-9.9,5.7,2.4,15.2-9.9,21C559.7,388.3,546.1,392.6,532.1,395z"/>
		<path class="st0" d="M153.6,271c-7.3,1.3-15.7,2.4-19.7,8.7c-5,7.8,0.9,18.8,9.1,23s18,4.1,27.2,5.2c7.5,0.9,15.1,2.8,22.7,1.9
			c9.4-1.1,17.8-6.2,25.9-11.2c8-5,16.7-10.8,19.2-19.9c3.1-11.3-4.5-22.6-12-31.6c-2.8-3.4-5.7-6.8-9.5-9s-8.7-2.9-12.5-0.7
			c-9.9,5.7,2.4,15.2-9.9,21C181.2,264.3,167.6,268.6,153.6,271z"/>
		<path class="st1" d="M563,496.3c8,1.2,15.7,4,23.8,3.8c8-0.2,16.9-4.3,18.9-12.1c0.5-1.7,0.4-3.5-0.2-5.2
			c-1.7-3.9-6.8-4.8-11.1-4.9c-14.5-0.2-29.2,2.5-43.5,0.1c-9.7-1.6-18.8-5.4-28.3-8s-19.8-3.7-28.9,0c-18.7,7.5-2,25.9,10.6,29.2
			C522.6,504.1,543.8,493.5,563,496.3z"/>
		<path class="st1" d="M532.3,236.1c8,1.2,15.7,4,23.8,3.8c8-0.2,16.9-4.3,18.9-12.1c0.5-1.7,0.4-3.5-0.2-5.2
			c-1.7-3.9-6.8-4.8-11.1-4.9c-14.5-0.2-29.2,2.5-43.5,0.1c-9.7-1.6-18.8-5.4-28.3-8s-19.8-3.7-28.9,0c-18.7,7.5-2,25.9,10.6,29.2
			C491.9,243.9,513.1,233.3,532.3,236.1z"/>
		<path class="st1" d="M551.3,349.6c7.9,1.2,15.7,4,23.7,3.8s16.9-4.3,18.9-12.1c0.5-1.7,0.4-3.5-0.2-5.2c-1.7-3.9-6.8-4.8-11.1-4.9
			c-14.5-0.2-29.2,2.5-43.5,0.1c-9.7-1.6-18.8-5.4-28.3-8s-19.8-3.7-28.9,0c-18.7,7.5-2,25.9,10.6,29.2
			C510.9,357.4,532.1,346.8,551.3,349.6z"/>
		<path class="st1" d="M216.3,323.8c7.9,1.2,15.7,4,23.7,3.8s16.9-4.3,18.9-12.1c0.5-1.7,0.4-3.5-0.2-5.2c-1.7-3.9-6.8-4.8-11.1-4.9
			c-14.5-0.2-29.2,2.5-43.5,0.1c-9.7-1.6-18.8-5.4-28.3-8s-19.8-3.7-28.9,0c-18.7,7.5-2,25.9,10.6,29.2
			C175.9,331.6,197.1,321,216.3,323.8z"/>
		<path class="st7" d="M158.2,418.2c-1.6,8.8-0.7,18,2.6,26.3c2.3,5.7,5.9,11.1,11.4,13.8c9.2,4.4,20.9-0.9,25.9-9.8
			c2.2-4,3.4-8.5,4.5-12.9l9.6-38c0.9-3.5,1.8-7.2,0.8-10.8c-1.1-4.1-4.5-7.2-7.7-10c-5.2-4.6-10.7-9.3-17.4-11.1
			c-12.2-3.2-18.9,5.4-21.2,16.2C164.2,394,160.4,406.1,158.2,418.2z"/>
		<path class="st8" d="M174.2,474c-4.5,2.4-8.3,6.7-8.7,11.8s2.7,10,6.9,12.9s9.3,4.1,14.4,4.8c26.1,3.6,52.6-5.9,78.9-3.9
			c6.8,0.5,13.6,1.8,20.3,0.3c3-0.6,6.2-2.4,6.6-5.4c0-1.4-0.3-2.8-1-4c-9.1-19.9-34.8-26.4-55.1-25.6c-8,0.3-15.9,2.6-23.8,3.4
			C200.3,469.7,185.4,468.1,174.2,474z"/>
		<path class="st8" d="M517.6,245.6c-4.5,2.4-8.3,6.7-8.7,11.8s2.7,10,6.9,12.9c4.2,2.9,9.3,4.1,14.4,4.8
			c26.1,3.6,52.6-5.9,78.9-3.9c6.8,0.5,13.6,1.8,20.3,0.3c3-0.6,6.2-2.4,6.6-5.4c0-1.4-0.3-2.8-1-4c-9.1-19.9-34.8-26.4-55.1-25.6
			c-8,0.3-15.9,2.6-23.8,3.4C543.7,241.3,528.8,239.7,517.6,245.6z"/>
		<path class="st9" d="M174.3,447.9c-4.9,7.9-8.3,19-2.1,25.8c4.8,5.3,13.3,5.3,20.1,2.9s12.7-6.8,19.4-9.3c8.1-3,17-2.9,25.6-2.9
			l75.9,0.4c3.2-7.7,1.1-16.8-3.6-23.6c-4.7-6.8-11.7-11.8-18.7-16.1c-17.7-10.9-45.7-24.5-67.1-18.4
			C204.1,412.4,184.7,431,174.3,447.9z"/>
		<path class="st5" d="M262,258.2c-4.9,7.9-8.3,19-2.1,25.8c4.8,5.3,13.3,5.3,20.1,2.9c6.8-2.4,12.7-6.8,19.4-9.3
			c8.1-3,17-2.9,25.6-2.9l75.9,0.4c3.2-7.7,1.1-16.8-3.6-23.6c-4.7-6.8-11.7-11.8-18.7-16.1c-17.7-10.9-45.7-24.5-67.1-18.4
			C291.8,222.7,272.4,241.3,262,258.2z"/>
		<path class="st7" d="M266.3,480.1c-1.1,1.4-2.1,3.1-1.6,4.8c0.5,1.7,1.9,2.6,3.3,3.3c15.4,8.4,34,6.6,51.6,6.7
			c46.8,0.2,93.5,15.4,139.6,7.7c6.4-1.1,14.1-4.3,14.1-10.7c0-5.4-5.7-8.9-10.6-11.1c-32.4-14.6-71.6-29.1-107.6-29.8
			c-14.5-0.3-28.8,4.8-42.7,8.3C296.6,463.3,276.9,466.2,266.3,480.1z"/>
		<path class="st7" d="M206.9,304.2c-8.8,1.9-16.8,6.3-23.3,12.6c-4.4,4.3-8,9.7-8.4,15.8c-0.6,10.1,8.9,18.9,18.9,20.1
			c4.5,0.5,9.1-0.1,13.6-0.8l38.8-5.8c3.6-0.5,7.4-1.1,10.2-3.3c3.4-2.6,5-6.9,6.3-11c2.2-6.6,4.5-13.4,3.5-20.3
			c-1.7-12.5-12.3-15.4-23.1-13.3C231.6,300.4,218.9,301.5,206.9,304.2z"/>
		<path class="st7" d="M573.7,427.6c-2.8,6.9-1.9,15.3,2.7,21.1c2.3,2.9,5.4,5.1,8.4,7.3c2.2,1.6,4.5,3.2,7.2,3.4
			c6.1,0.5,10.2-6.1,12.2-12c2.5-7.4,4-15.7,1.6-23.1C599.4,405.1,579.7,412.6,573.7,427.6z"/>
		<path class="st6" d="M222.9,275.8c-2.8,1.9-5.1,4.4-6.8,7.4c-3,6.3-1.4,13.8,4,18.2c11.9,9.3,25.9,6.5,38,1.5
			c14.9-6.2,32.8-5.9,48.6-5c18.6,1.2,37.1,4.2,55.7,4c5.6-0.1,12.1-1,14.6-6c2.3-4.5-0.4-10.2-4.5-13.1s-9.3-3.7-14.3-4.4
			c-30.8-4.3-61.6-8.5-92.7-10.4C250.5,267.1,235.4,265.5,222.9,275.8z"/>
		<path class="st3" d="M486.7,385.8c-4.7,4.9-6.4,13-2.4,18.5c3.4,4.7,9.7,6.1,15.5,7.1l14.4,2.6c5,0.9,10.5,1.8,15.1-0.5
			c3.1-1.5,5.4-4.3,7.6-7.1l12.1-15c10.7-13.3-16.5-12.5-23.5-13.1C512.8,377.2,496.3,375.8,486.7,385.8z"/>
		<path class="st3" d="M215.3,247.4c-4.7,4.9-6.4,13-2.4,18.5c3.4,4.7,9.7,6.1,15.5,7.1l14.4,2.6c5,0.9,10.5,1.8,15.1-0.5
			c3.1-1.5,5.4-4.3,7.6-7.1l12.1-15c10.7-13.3-16.5-12.5-23.5-13.1C241.4,238.8,224.9,237.4,215.3,247.4z"/>
		<path class="st3" d="M152.7,388.5c4.6,5,12.6,7.2,18.3,3.6c4.9-3.1,6.7-9.3,8.1-15l3.5-14.2c1.2-5,2.5-10.4,0.5-15.1
			c-1.3-3.2-4-5.7-6.6-8l-14.3-13c-12.6-11.6-13.5,15.6-14.6,22.6C145.7,361.9,143.3,378.3,152.7,388.5z"/>
		<path class="st3" d="M591.2,243.7c-8.8-5-21.2-4.4-27.6,3.3c-5.5,6.6-5.2,16.2-4.6,25l1.5,21.7c0.6,7.6,1.2,15.9,6.2,21.6
			c3.3,3.9,8.3,6.2,13,8.3l26.2,11.9c23.2,10.7,12-28.3,10.3-38.7C613.3,278.2,609.2,253.9,591.2,243.7z"/>
	</g>
</g>
<g id="Layer_2_2_">
	<g id="_2_1_">
		<polygon class="st10" points="84,7 161,503 600,503 680,7 		"/>
		<line class="st10" x1="97.3" y1="84.6" x2="664" y2="84.6"/>
		<line class="st10" x1="111.6" y1="170.8" x2="648.7" y2="170.8"/>
		<line class="st10" x1="127.3" y1="256.9" x2="633.8" y2="256.9"/>
		<line class="st10" x1="138.5" y1="343" x2="622.4" y2="343"/>
		<line class="st10" x1="149.1" y1="429.2" x2="611.5" y2="429.2"/>
		<line class="st10" x1="391.9" y1="7" x2="391.9" y2="503"/>
		<line class="st10" x1="547.7" y1="7" x2="493" y2="503"/>
		<line class="st10" x1="224.8" y1="7" x2="276" y2="497"/>
		<polyline class="st11" points="680,31 755,31 755,63 671,63 		"/>
		<polyline class="st11" points="82,31 7,31 7,63 91,63 		"/>
	</g>
</g>
</svg>
