<?xml version="1.0" encoding="utf-8"?>
<!-- Generator: Adobe Illustrator 22.1.0, SVG Export Plug-In . SVG Version: 6.00 Build 0)  -->
<svg version="1.1" id="Layer_1" xmlns="http://www.w3.org/2000/svg" xmlns:xlink="http://www.w3.org/1999/xlink" x="0px" y="0px"
	 viewBox="0 0 766.7 520.6" style="enable-background:new 0 0 766.7 520.6;" xml:space="preserve">
<style type="text/css">
	.st0{fill:#FFADB9;}
	.st1{fill:#00ADB9;}
	.st2{fill:#9526DA;}
	.st3{fill:#FFBF00;}
	.st4{fill:#D02600;}
	.st5{fill:#677300;}
	.st6{fill:#FF6A00;}
	.st7{fill:#F57B17;}
	.st8{fill:#FFFFFF;}
	.st9{fill:#6773E1;}
	.st10{fill:none;stroke:#454545;stroke-width:14;stroke-linecap:round;stroke-linejoin:round;}
	.st11{fill:#454545;stroke:#454545;stroke-width:14;stroke-linecap:round;stroke-linejoin:round;}
</style>
<title>Asset 81</title>
<g id="Layer_2_1_">
	<g id="_2">
		<path class="st0" d="M342.5,49.4c-23.2-1.2-48.2-1.9-67.6,10.9c-6.1,4-11.9,10.6-10.6,17.8c1,5.3,5.7,9.3,10.8,11.1
			s10.6,1.7,16,1.8c19.3,0.3,38.5,2.5,57.3,6.4c8.8,1.8,17.8,4.1,26.6,2.4s17.4-8.5,17.6-17.5C393.5,51,364,50.5,342.5,49.4z"/>
		<path class="st1" d="M333,68.3c-4.7,4.9-6.4,13-2.4,18.5c3.4,4.7,9.7,6.1,15.5,7.1l14.4,2.6c5,0.9,10.5,1.8,15.1-0.5
			c3.1-1.5,5.4-4.4,7.6-7.1l12.1-15.1c10.7-13.3-16.5-12.5-23.5-13.1C359.1,59.7,342.7,58.3,333,68.3z"/>
		<path class="st2" d="M458.1,102.8c7,2.4,14.9,5.5,21.5,1.9c8.1-4.4,8.3-16.9,3.1-24.5c-5.2-7.6-13.8-12.3-21.3-17.7
			c-6.1-4.4-11.9-9.7-19-12.6c-8.8-3.6-18.6-3.1-28-2.6c-9.5,0.5-19.8,1.4-26.4,8.2c-8.2,8.4-6.9,22-4.7,33.5
			c0.8,4.3,1.7,8.7,4,12.5c2.3,3.8,6.2,6.7,10.6,6.6c11.4-0.2,5.2-14.5,18.8-13.6C430.7,95.3,444.6,98.2,458.1,102.8z"/>
		<path class="st3" d="M558.8,134.8c14.9,17.6,33.9,28,55.5,30.5c8.2,1,17.1,0.9,22.6,7.8c5.5,6.9,5.6,23.8-2.4,34.6
			c-3.4,4.6-7.6,7.1-11.5,8.9c-20.5,9.1-38.4,1.7-53.1-9.8s-27.3-27-43.7-34.8c-15.4-7.3-33.5-7.5-50.3-11.2
			c-23.6-5.4-71.7-55.1-13.3-80.3C513.4,58.6,530.7,101.8,558.8,134.8z"/>
		<path class="st4" d="M426,92.6c-29.9-10.3-61.3-15.4-92.9-15.1c-16,0.1-31.9,1.5-47.6,4.3c-15.3,2.8-28.7,9.3-44.3,11.2
			c-4.9,0.6-9.8,0.9-14.5,2.3s-9.2,3.8-13.6,5.9c-6.9,3.4-14.2,6.4-19.6,11.8c-16.8,16.7,3.2,31.6,20.1,34.2
			c23.7,3.8,47.2-5.5,71-8.3c45.9-5.3,91.9,14.1,138,9.3c15-1.5,32.6-8.8,34.2-23.9C458.3,108.6,441.1,97.8,426,92.6z"/>
		<path class="st2" d="M544.3,334.8c-7.3,1.3-15.7,2.4-19.7,8.7c-5,7.8,0.9,18.8,9.1,23c8.2,4.2,18,4.1,27.2,5.2
			c7.5,0.9,15.1,2.8,22.7,1.9c9.4-1.1,17.8-6.2,25.8-11.2c8.1-5,16.7-10.8,19.2-19.9c3.1-11.3-4.5-22.6-12-31.6
			c-2.8-3.4-5.7-6.8-9.5-9s-8.7-2.9-12.5-0.7c-9.9,5.7,2.4,15.2-9.9,21C571.9,328.1,558.3,332.3,544.3,334.8z"/>
		<path class="st1" d="M461.3,266.2c29.3-3,58.8-8.7,88.1-5.2c12.7,1.5,25.2,4.8,38,5.4s26.4-1.8,36.1-10.2
			c9.7-8.4,13.9-23.8,6.9-34.5c-8.3-12.4-26-12.9-40.9-12.6c-39,0.6-78.1-2.7-116.5-9.7c-26-4.6-58.7-13.8-84.5-2.9
			c-19.6,8.2-35.2,35.2-20.1,54.8C385.5,273.3,437.8,268.6,461.3,266.2z"/>
		<path class="st5" d="M258.7,147c-3.2,4.4-6,10-4.2,15.2c1.6,4.4,6.1,7.1,10.5,8.8c42.9,17.2,90.8-11.8,136.7-7.3
			c19.8,1.9,38.4,10,57.2,16.5c20.7,7.2,41.9,12.6,63.5,16.2c8.8,1.5,18.6,2.4,26.1-2.4c12-7.7,11.1-26.7,2.2-37.8
			c-9-11.1-23.1-16.2-36.5-21c-17.9-6.5-35.8-13.3-54.4-17.8C405.3,104.1,297.1,93.9,258.7,147z"/>
		<path class="st5" d="M346.3,195.7c-3.2,4.4-6,10-4.2,15.2c1.6,4.4,6.1,7.1,10.5,8.8c42.9,17.2,90.8-11.8,136.7-7.3
			c19.8,1.9,38.4,10,57.2,16.5c20.7,7.2,41.9,12.6,63.5,16.2c8.8,1.5,18.6,2.4,26.1-2.4c12-7.7,11.1-26.7,2.2-37.8
			c-9-11.1-23.1-16.2-36.5-21c-17.9-6.5-35.8-13.3-54.4-17.8C492.9,152.8,384.7,142.6,346.3,195.7z"/>
		<path class="st6" d="M150.7,360.7c1.7,9.1,6.6,19.6,15.9,20.5c7.2,0.7,13.4-5,16.8-11.4s4.8-13.6,8.1-19.9
			c4-7.7,10.6-13.6,17-19.4l56.3-50.8c-2.8-7.8-10.5-13.1-18.6-15s-16.6-0.9-24.7,0.7c-20.4,3.9-50.3,12.6-62,31.6
			C148.9,314.3,147.1,341.2,150.7,360.7z"/>
		<path class="st6" d="M136,320c1.7,9.1,6.6,19.6,15.9,20.5c7.2,0.7,13.4-5,16.8-11.4s4.8-13.6,8.1-19.9c4-7.7,10.6-13.6,17-19.4
			l56.3-50.8c-2.8-7.8-10.5-13.1-18.6-15s-16.6-0.9-24.7,0.7c-20.4,3.9-50.3,12.6-62,31.6C134.2,273.6,132.4,300.5,136,320z"/>
		<path class="st3" d="M373.7,244.7c-10.9-2.5-21.9-4.9-32.9-5.7c-26.5-1.8-53.2,0.5-79,6.8c-13.9,3.4-28.3,8.1-42.3,5
			s-26.7-17.7-21.8-31.1c2.1-5.8,6.9-10.1,11.9-13.6c26.3-18.6,60.7-21.4,92.9-19.1c32.2,2.3,64.1,9.2,96.3,7.4
			c19.9-1.1,38.7-7.1,58.4-9.5c15.5-1.9,34-8.5,49.6-8.5c18.1,0,32.2,15.1,43.2,29.4c5,6.5,9.8,13.2,13,20.7
			c5.2,12.1,5.9,25.5,6.5,38.6c0.5,9.5,0.1,20.6-7.6,26.1c-7.3,5.1-17.4,2.3-25.5-1.4c-23.2-10.5-43.8-26.9-67.7-35.9
			c-19.4-7.3-32.4-2.3-51.9-2.4C402.4,251.4,388.1,248,373.7,244.7z"/>
		<path class="st2" d="M489.2,333.1c13.7,5,29.3,11.3,42.2,4.6c16.3-8.5,17-32.9,7.1-48.3s-26.7-24.7-41.4-35.7
			c-12-9-23.1-19.6-36.9-25.6c-17.1-7.5-36.5-7-55.2-6.4s-39.1,1.9-52.4,15c-16.5,16.3-14.5,43.1-10.7,65.9c1.4,8.5,3,17.2,7.4,24.7
			s12.1,13.6,20.7,13.6c22.6,0,10.8-28.4,37.6-26.1C435.5,317.3,462.9,323.5,489.2,333.1z"/>
		<path class="st3" d="M375.1,387.3c36.3,10.8,74.5,13.4,111.9,7.8c14.2-2.1,28.9-5.5,42.6-1.1s25,20,18.9,33
			c-2.6,5.5-7.8,9.4-13.1,12.5c-27.9,16.1-62.4,15.8-94.2,10.6s-63-15-95.3-16.1c-30.4-1.1-60.4,5.5-90.6,8.2
			c-42.6,3.7-155-24.6-75-69.7C249.6,333.3,306.8,367,375.1,387.3z"/>
		<path class="st3" d="M339.7,204.2c36.3,10.8,74.5,13.4,111.9,7.8c14.2-2.1,28.9-5.5,42.6-1.1s25,20,18.9,33
			c-2.6,5.5-7.8,9.4-13.1,12.5c-27.9,16.1-62.4,15.8-94.2,10.6s-63-15-95.3-16.1c-30.4-1.1-60.4,5.5-90.6,8.2
			c-42.6,3.7-155-24.6-75-69.7C214.2,150.2,271.4,183.9,339.7,204.2z"/>
		<path class="st7" d="M458,353.8c-33.5-2.1-65.4-15.4-98.9-17.5s-72.4,11.9-82,44c-1.1,3.5-1.7,7.4-0.2,10.8s5,5.7,8.5,7.3
			c23.3,10.8,50.5,3.3,76.2,2.1c30.6-1.4,60.7,6.8,90.6,13.3s61.3,11.5,91,4c29.7-7.5,57.4-30.4,61.7-60.8
			c5.4-38.5-36-40.8-61.5-28.3C513.9,343.3,493.8,356,458,353.8z"/>
		<path class="st1" d="M330.1,363.8c29.3-3,58.8-8.7,88.1-5.2c12.7,1.5,25.2,4.8,38,5.4s26.4-1.8,36.1-10.2
			c9.7-8.4,13.9-23.8,6.9-34.5c-8.3-12.4-26-12.9-40.9-12.6c-39,0.6-78.1-2.7-116.5-9.7c-26-4.6-58.7-13.8-84.5-2.9
			c-19.6,8.2-35.2,35.2-20.1,54.8C254.3,370.9,306.6,366.2,330.1,363.8z"/>
		<path class="st1" d="M228.1,189c29.3-3,58.8-8.7,88.1-5.2c12.7,1.5,25.2,4.8,38,5.4s26.4-1.8,36.1-10.2
			c9.7-8.4,13.9-23.8,6.9-34.5c-8.3-12.4-26-12.9-40.9-12.6c-39,0.6-78.1-2.7-116.5-9.7c-26-4.6-58.7-13.8-84.5-2.9
			c-19.6,8.2-35.2,35.2-20.1,54.8C152.3,196.1,204.6,191.4,228.1,189z"/>
		<path class="st0" d="M480.6,271.8c-37.2-1.9-77.4-3.1-108.5,17.5c-9.8,6.5-19,17-16.9,28.5c1.5,8.5,9.1,15,17.3,17.8
			c8.2,2.8,17.1,2.8,25.8,2.9c30.9,0.5,61.7,4,92,10.3c14.1,3,28.5,6.6,42.6,3.9s27.9-13.7,28.3-28.1
			C562.5,274.4,515.2,273.6,480.6,271.8z"/>
		<path class="st0" d="M379,395.1c-23.2-1.2-48.2-1.9-67.6,10.9c-6.1,4-11.9,10.6-10.6,17.8c1,5.3,5.7,9.3,10.8,11.1
			s10.6,1.7,16,1.8c19.3,0.3,38.5,2.5,57.3,6.4c8.8,1.8,17.8,4.1,26.6,2.4s17.4-8.5,17.6-17.5C430,396.7,400.5,396.2,379,395.1z"/>
		<path class="st5" d="M210.7,462c-3.2,4.4-6,10-4.2,15.2c1.6,4.5,6.1,7.1,10.5,8.8c42.9,17.2,90.7-11.8,136.7-7.3
			c19.8,1.9,38.4,10,57.2,16.5c20.7,7.2,41.9,12.6,63.5,16.2c8.8,1.5,18.6,2.4,26.1-2.4c12-7.7,11.1-26.7,2.2-37.8
			s-23.1-16.2-36.5-21c-17.9-6.5-35.8-13.3-54.4-17.8C357.3,419.1,249.1,408.9,210.7,462z"/>
		<path class="st4" d="M561.8,446.3c-26.4-17.4-55.6-30.1-86.3-37.6c-15.5-3.8-31.3-6.4-47.2-7.5c-15.5-1.1-30.1,1.9-45.7-0.1
			c-4.9-0.6-9.7-1.5-14.6-1.3s-9.8,1.4-14.6,2.4c-7.5,1.6-15.3,2.7-21.9,6.6c-20.4,12-4.7,31.4,11,38.1c22,9.5,47.1,6.3,70.8,9.5
			c45.8,6.2,85.6,36.4,131.4,43.1c14.9,2.2,33.8-0.5,39-14.7C589.2,469.8,575.1,455.1,561.8,446.3z"/>
		<path class="st2" d="M524.4,410.9c-7.3,1.3-15.7,2.4-19.7,8.7c-5,7.8,0.9,18.8,9.1,23c8.2,4.2,18,4.1,27.2,5.2
			c7.5,0.9,15.1,2.8,22.7,1.9c9.4-1.1,17.8-6.2,25.8-11.2c8.1-5,16.7-10.8,19.2-19.9c3.1-11.3-4.5-22.6-12-31.6
			c-2.8-3.4-5.7-6.8-9.5-9s-8.7-2.9-12.5-0.7c-9.9,5.7,2.4,15.2-9.9,21C552,404.2,538.4,408.4,524.4,410.9z"/>
		<path class="st3" d="M555.3,512.2c8,1.2,15.7,4,23.8,3.9c8-0.2,16.9-4.3,18.8-12.1c0.5-1.7,0.4-3.5-0.2-5.2
			c-1.7-3.9-6.8-4.8-11.1-4.9c-14.5-0.2-29.2,2.5-43.5,0.1c-9.7-1.6-18.8-5.4-28.3-8s-19.8-3.7-28.9,0c-18.7,7.5-2,25.9,10.6,29.2
			C515,519.9,536.2,509.4,555.3,512.2z"/>
		<path class="st3" d="M543.6,365.5c7.9,1.2,15.7,4,23.7,3.8s16.9-4.3,18.9-12.1c0.5-1.7,0.4-3.5-0.2-5.2c-1.7-3.9-6.8-4.8-11.1-4.9
			c-14.5-0.2-29.2,2.4-43.5,0.1c-9.7-1.6-18.8-5.4-28.3-8s-19.8-3.7-28.9,0c-18.7,7.5-2,25.9,10.6,29.2
			C503.2,373.2,524.4,362.7,543.6,365.5z"/>
		<path class="st3" d="M567.3,257.3c-6.3-4.9-11.7-11.2-18.7-15c-7.1-3.8-16.8-4.6-22.4,1.2c-1.3,1.2-2.1,2.8-2.4,4.6
			c-0.4,4.2,3.5,7.5,7.2,9.7c12.5,7.3,26.6,12.3,37.9,21.4c7.6,6.2,13.7,14,20.7,20.9s15.4,13,25.1,14.3c20,2.7,14.5-21.5,5.2-30.6
			C606.2,270.5,582.6,269.2,567.3,257.3z"/>
		<path class="st8" d="M150.6,434.1c-1.6,8.8-0.7,18,2.7,26.3c2.3,5.7,5.9,11.1,11.4,13.8c9.1,4.4,20.9-0.9,25.9-9.8
			c2.2-4,3.4-8.5,4.5-12.9l9.6-38c0.9-3.5,1.8-7.2,0.8-10.7c-1.1-4.1-4.5-7.2-7.7-10c-5.2-4.6-10.7-9.3-17.4-11.1
			c-12.2-3.2-18.9,5.5-21.2,16.2C156.6,409.8,152.7,421.9,150.6,434.1z"/>
		<path class="st6" d="M166.5,489.9c-4.5,2.4-8.3,6.7-8.7,11.8c-0.4,5.1,2.7,10,6.9,12.9c4.2,2.9,9.3,4.1,14.4,4.8
			c26.1,3.5,52.6-5.9,78.9-3.9c6.8,0.5,13.6,1.8,20.3,0.3c3-0.7,6.2-2.4,6.6-5.4c0-1.4-0.3-2.8-1-4c-9.1-19.9-34.8-26.4-55.1-25.6
			c-8,0.3-15.9,2.6-23.8,3.4C192.6,485.5,177.7,484,166.5,489.9z"/>
		<path class="st9" d="M166.6,466.8c-4.9,7.9-8.3,18.9-2.1,25.8c4.8,5.3,13.3,5.3,20.1,2.9s12.7-6.8,19.4-9.2c8.1-3,17-2.9,25.6-2.9
			l75.9,0.4c3.2-7.7,1.1-16.8-3.6-23.6c-4.7-6.8-11.7-11.8-18.7-16.1c-17.7-10.9-45.7-24.5-67.1-18.4
			C196.5,431.2,177,449.9,166.6,466.8z"/>
		<path class="st8" d="M258.6,495.9c-1.1,1.4-2.1,3.1-1.6,4.8c0.4,1.6,1.9,2.6,3.3,3.3c15.4,8.4,34,6.6,51.6,6.6
			c46.8,0.2,93.5,15.4,139.6,7.7c6.4-1.1,14.1-4.3,14.1-10.7c0-5.4-5.7-8.9-10.6-11.1c-32.4-14.6-71.6-29.1-107.6-29.8
			c-14.5-0.3-28.8,4.8-42.7,8.3C288.9,479.1,269.2,482.1,258.6,495.9z"/>
		<path class="st8" d="M199.2,320c-8.8,1.9-16.8,6.3-23.3,12.6c-4.4,4.3-8,9.7-8.4,15.8c-0.6,10.1,8.9,18.9,18.9,20.1
			c4.5,0.5,9.1-0.1,13.6-0.8l38.8-5.8c3.6-0.5,7.3-1.1,10.2-3.3c3.4-2.6,5-6.9,6.3-11c2.2-6.6,4.5-13.4,3.5-20.3
			c-1.7-12.5-12.3-15.4-23.1-13.3C223.9,316.2,211.2,317.4,199.2,320z"/>
		<path class="st8" d="M566.1,443.4c-2.8,6.9-1.9,15.3,2.7,21.1c2.3,2.9,5.4,5.1,8.4,7.3c2.2,1.5,4.5,3.2,7.2,3.4
			c6.1,0.5,10.2-6.1,12.2-12c2.5-7.5,4-15.7,1.6-23.1C591.8,421,572.1,428.4,566.1,443.4z"/>
		<path class="st4" d="M215.2,291.7c-2.8,1.9-5.1,4.4-6.8,7.4c-3,6.3-1.4,13.8,4,18.2c11.9,9.3,25.9,6.5,38,1.5
			c14.9-6.2,32.8-5.9,48.6-4.9c18.6,1.1,37.1,4.2,55.7,4c5.6-0.1,12.1-1.1,14.6-6c2.3-4.5-0.4-10.2-4.5-13.1s-9.3-3.7-14.3-4.4
			c-30.8-4.3-61.6-8.5-92.7-10.4C242.9,283,227.7,281.3,215.2,291.7z"/>
		<path class="st1" d="M479,401.6c-4.7,4.9-6.4,13-2.4,18.5c3.4,4.7,9.7,6.1,15.5,7.1l14.4,2.6c5,0.9,10.5,1.8,15.1-0.5
			c3.1-1.5,5.4-4.4,7.6-7.1l12.1-15.1c10.7-13.3-16.5-12.5-23.5-13.1C505.1,393,488.7,391.6,479,401.6z"/>
		<path class="st1" d="M137.4,240c-4.7,4.9-6.4,13-2.4,18.5c3.4,4.7,9.7,6.1,15.5,7.1l14.4,2.6c5,0.9,10.5,1.8,15.1-0.5
			c3.1-1.5,5.4-4.4,7.6-7.1l12.1-15.1c10.7-13.3-16.5-12.5-23.5-13.1C163.5,231.4,147.1,230,137.4,240z"/>
		<path class="st1" d="M145,404.4c4.6,5,12.6,7.2,18.3,3.6c4.9-3.1,6.7-9.3,8.1-15l3.5-14.2c1.2-5,2.4-10.4,0.5-15.1
			c-1.3-3.2-4-5.7-6.6-8l-14.3-13c-12.6-11.6-13.5,15.7-14.6,22.6C138.1,377.8,135.7,394.1,145,404.4z"/>
		<path class="st7" d="M448,157.1c-23.2-1.2-48.2-1.9-67.6,10.9c-6.1,4-11.9,10.6-10.6,17.8c1,5.3,5.7,9.3,10.8,11.1
			s10.6,1.7,16,1.8c19.3,0.3,38.5,2.5,57.3,6.4c8.8,1.8,17.8,4.1,26.6,2.4c8.8-1.7,17.4-8.6,17.6-17.5
			C499,158.7,469.5,158.2,448,157.1z"/>
		<path class="st4" d="M463.8,194.3c-26.4-17.4-55.6-30.1-86.3-37.6c-15.5-3.8-31.3-6.4-47.2-7.6c-15.5-1.1-30.1,1.9-45.7-0.1
			c-4.9-0.6-9.7-1.5-14.6-1.3s-9.8,1.4-14.6,2.4c-7.5,1.6-15.3,2.7-21.9,6.6c-20.4,12-4.7,31.4,11,38.1c22,9.5,47.1,6.3,70.8,9.5
			c45.8,6.2,85.6,36.4,131.4,43.1c14.9,2.2,33.8-0.5,39-14.7C491.2,217.8,477.1,203.1,463.8,194.3z"/>
		<path class="st8" d="M176.7,234.8l-2.3,5.3c-2.8,6.6-5.6,13.4-5.3,20.5c0.4,7.1,4.9,14.6,12,15.8c3.2,0.4,6.5-0.1,9.4-1.6
			c9.5-4.4,15.4-14.1,19.1-23.9c3.7-9.8,6-20.2,11.2-29.3c4.1-7.1,26.1-22.5,24.7-29.7c-3-15-21.6-6.7-29.3-3.6
			C194.5,196.8,185.4,214.7,176.7,234.8z"/>
		<path class="st1" d="M287.5,239.9c-4.5,2.4-8.3,6.7-8.7,11.8s2.7,10,6.9,12.9s9.3,4.1,14.4,4.8c26.1,3.5,52.6-5.9,78.9-3.9
			c6.8,0.5,13.6,1.8,20.3,0.3c3-0.6,6.2-2.4,6.6-5.4c0-1.4-0.3-2.8-1-4c-9.1-19.9-34.8-26.4-55.1-25.6c-8,0.3-15.9,2.6-23.8,3.4
			C313.6,235.5,298.7,234,287.5,239.9z"/>
		<path class="st0" d="M198,272.5c-1.1,1.4-2.1,3.1-1.6,4.8c0.4,1.6,1.9,2.6,3.3,3.3c15.4,8.4,34,6.6,51.6,6.6
			c46.8,0.2,93.5,15.4,139.6,7.7c6.4-1.1,14.1-4.3,14.1-10.7c0-5.4-5.7-8.9-10.6-11.1c-32.4-14.6-71.6-29.1-107.6-29.8
			c-14.5-0.3-28.8,4.8-42.7,8.3C228.3,255.7,208.6,258.7,198,272.5z"/>
		<path class="st8" d="M249.1,167.4c-2.8,6.9-1.9,15.3,2.7,21.1c2.3,2.9,5.4,5.1,8.4,7.3c2.2,1.6,4.5,3.2,7.2,3.4
			c6.1,0.5,10.2-6.1,12.2-12c2.5-7.5,4-15.7,1.6-23.1C274.8,145,255.1,152.4,249.1,167.4z"/>
		<path class="st4" d="M579.8,258.9c-7.5-4.7-18.5-4.7-24.4,1.9c-5.1,5.7-5.2,14.1-5,21.8l0.5,19.2c0.2,6.7,0.5,14,4.7,19.3
			c2.8,3.6,7,5.8,11.1,7.8l22.6,11.5c20,10.2,11.6-24.6,10.5-33.8C597.9,290.1,595.3,268.6,579.8,258.9z"/>
		<path class="st5" d="M268.3,293.2c8,1.2,15.7,4,23.8,3.9c8-0.1,16.9-4.3,18.9-12.1c0.5-1.7,0.4-3.5-0.2-5.2
			c-1.7-3.9-6.8-4.8-11.1-4.9c-14.5-0.2-29.2,2.5-43.5,0.1c-9.7-1.6-18.8-5.4-28.3-8s-19.8-3.7-28.9,0c-18.7,7.5-2,25.9,10.6,29.2
			C228,300.9,249.2,290.4,268.3,293.2z"/>
	</g>
</g>
<g id="Layer_2_2_">
	<g id="_2_1_">
		<polygon class="st10" points="86.1,16.6 163.1,512.6 602.1,512.6 682.1,16.6 		"/>
		<line class="st10" x1="99.4" y1="94.2" x2="666.1" y2="94.2"/>
		<line class="st10" x1="113.7" y1="180.3" x2="650.8" y2="180.3"/>
		<line class="st10" x1="129.4" y1="266.5" x2="635.9" y2="266.5"/>
		<line class="st10" x1="140.6" y1="352.6" x2="624.4" y2="352.6"/>
		<line class="st10" x1="151.2" y1="438.8" x2="613.6" y2="438.8"/>
		<line class="st10" x1="394" y1="16.6" x2="394" y2="512.6"/>
		<line class="st10" x1="549.7" y1="16.6" x2="495.1" y2="512.6"/>
		<line class="st10" x1="226.8" y1="16.6" x2="278.1" y2="506.6"/>
		<polyline class="st11" points="682.1,40.6 757.1,40.6 757.1,72.6 673.1,72.6 		"/>
		<polyline class="st11" points="84.1,40.6 9.1,40.6 9.1,72.6 93.1,72.6 		"/>
	</g>
</g>
</svg>
