<svg xmlns="http://www.w3.org/2000/svg" xmlns:xlink="http://www.w3.org/1999/xlink" viewBox="0 0 293.93 252.22"><defs><style>.cls-1{fill:none;}.cls-2{clip-path:url(#clip-path);}.cls-3{fill:#ededee;}.cls-4{fill:#231f20;}.cls-5{fill:#828487;}</style><clipPath id="clip-path"><path class="cls-1" d="M129.76,20.15,190,31.41s43,13.11,50.71,33.88S250,163.66,250,163.66s-17,5-37.4-4.95L198.3,235.38S133.56,252.8,56.21,208.86l14.32-76.68a60.39,60.39,0,0,1-36.35-5.77C54.18,81.32,72,14.46,129.76,20.15Z"/></clipPath></defs><title>Asset 22</title><g id="Layer_2" data-name="Layer 2"><g id="_2" data-name="2"><g class="cls-2"><path class="cls-3" d="M129.76,20.15,190,31.41s43,13.11,50.71,33.88,15.88,77.22,15.88,77.22,11.72,32.71-17.12,34.45L198.3,235.38S133.56,252.8,56.21,208.86L63.34,142,24.83,128.74C61.61,65.41,72,14.46,129.76,20.15Z"/><rect class="cls-4" x="32.38" y="39.54" width="260.17" height="7" transform="matrix(0.98, 0.18, -0.18, 0.98, 10.66, -29.09)"/><rect class="cls-4" x="29.63" y="54.29" width="260.17" height="7" transform="matrix(0.98, 0.18, -0.18, 0.98, 13.32, -28.33)"/><rect class="cls-4" x="23.76" y="85.74" width="260.17" height="7" transform="translate(18.99 -26.72) rotate(10.58)"/><rect class="cls-4" x="26.7" y="70.02" width="260.17" height="7" transform="matrix(0.98, 0.18, -0.18, 0.98, 16.16, -27.52)"/><rect class="cls-4" x="21.01" y="100.49" width="260.17" height="7" transform="matrix(0.98, 0.18, -0.18, 0.98, 21.65, -25.96)"/><rect class="cls-4" x="15.32" y="130.96" width="260.17" height="7" transform="matrix(0.98, 0.18, -0.18, 0.98, 27.15, -24.4)"/><rect class="cls-4" x="18.25" y="115.24" width="260.17" height="7" transform="matrix(0.98, 0.18, -0.18, 0.98, 24.31, -25.21)"/><rect class="cls-4" x="12.56" y="145.71" width="260.17" height="7" transform="matrix(0.98, 0.18, -0.18, 0.98, 29.81, -23.65)"/><rect class="cls-4" x="6.69" y="177.16" width="260.17" height="7" transform="matrix(0.98, 0.18, -0.18, 0.98, 35.48, -22.03)"/><rect class="cls-4" x="9.63" y="161.44" width="260.17" height="7" transform="matrix(0.98, 0.18, -0.18, 0.98, 32.64, -22.84)"/><rect class="cls-4" x="3.94" y="191.91" width="260.17" height="7" transform="translate(38.14 -21.28) rotate(10.58)"/><rect class="cls-4" x="1.19" y="206.66" width="260.17" height="7" transform="translate(40.8 -20.52) rotate(10.58)"/><rect class="cls-4" x="-1.57" y="221.4" width="260.17" height="7" transform="matrix(0.98, 0.18, -0.18, 0.98, 43.46, -19.77)"/><ellipse class="cls-4" cx="159.39" cy="33.31" rx="21.5" ry="35.04" transform="translate(97.39 183.88) rotate(-79.42)"/><ellipse class="cls-5" cx="160.94" cy="27.38" rx="19.62" ry="27.59" transform="translate(104.49 180.56) rotate(-79.42)"/><rect class="cls-4" x="35.32" y="23.81" width="260.17" height="7" transform="matrix(0.98, 0.18, -0.18, 0.98, 7.82, -29.89)"/></g></g></g></svg>