<?xml version="1.0" encoding="utf-8"?>
<!-- Generator: Adobe Illustrator 22.1.0, SVG Export Plug-In . SVG Version: 6.00 Build 0)  -->
<svg version="1.1" id="Layer_1" xmlns="http://www.w3.org/2000/svg" xmlns:xlink="http://www.w3.org/1999/xlink" x="0px" y="0px"
	 viewBox="0 0 823.7 806.5" style="enable-background:new 0 0 823.7 806.5;" xml:space="preserve">
<style type="text/css">
	.st0{fill:#008EB5;}
	.st1{fill:none;stroke:#FFFFFF;stroke-width:4;stroke-linecap:round;stroke-linejoin:round;}
	.st2{fill:none;stroke:#FFFFFF;stroke-width:4;stroke-linecap:round;stroke-miterlimit:10;}
	.st3{fill:#C7B2E2;}
	.st4{fill:#B194D7;}
	.st5{fill:#FFA400;}
	.st6{fill:#E89700;}
	.st7{fill:none;stroke:#B19400;stroke-width:2;stroke-miterlimit:10;}
	.st8{clip-path:url(#SVGID_2_);}
	.st9{fill:#EDEDEE;}
	.st10{fill:#231F20;}
	.st11{fill:#828487;}
</style>
<title>Asset 26</title>
<g id="Layer_2_1_">
	<g id="_2">
		<path class="st0" d="M142.8,487.2c0,0,54.4-14.6,75.8-23.2c0,0,17.9-9.9,33.5-0.7c10.1,6,21.1,14.4,39.9,37.7
			c0,0-5.9,18.2-29.7,27.7c0,0,8.5,28.8,12.4,36.3c5.8,11.1,26.6,38.2,26.6,38.2s-63,48.6-126.2,37.8c0,0-3.2-35.3-6.4-46.4
			c-2.3-7.8-12.4-28.2-12.4-28.2s-25.3,12.7-43.2-4.1c0,0-3.3-30.5,4.4-54.6C122.6,491.4,130,490.4,142.8,487.2z"/>
		<path class="st1" d="M154.1,485.5c0,0,38.6,28.1,56.3-16.8L154.1,485.5z"/>
		<path class="st2" d="M262.3,528.7c0,0,21.8-7.4,29.7-27.7"/>
		<path class="st2" d="M156.4,566.3c0,0-24.1,12.3-43.3-4.1"/>
		<path class="st1" d="M175.1,640.9c0,0,52.6,15.8,126.2-37.8"/>
	</g>
</g>
<g id="Layer_2_4_">
	<g id="_2_3_">
		<path class="st3" d="M654.7,310.3l0.1,0.2c1.1,3.5-0.8,10.4-0.1,14.6c0.4,3.2,1.3,6.4,2.5,9.4c1.7,3.3,3.8,6.3,6.3,9
			c8.7,10.3,15.7,17.6,29.7,18.2c12.6,0.5,24.9-5.3,35.5-11.6l25.7,14.4c-9.1,11.9-17,24.6-23.7,38c-8.7,17.4-15.4,32.8-32.7,43.1
			c-12.9,7.6-19.3,22.5-24.2,36.6c-5.3,15-9.1,30.4-14.5,45.3c-7.2,19.3-14,38.7-20.2,58.3c-13.2,41.4-25.3,85-26,128.7
			c-0.4,23.2,3.4,44.2,15.9,64c-7.4,2-15-1.3-23,2.6c-6.6,3.1-12.9,7.8-20.2,8.5c-8.9,0.9-17.3-4.3-24.8-9.2
			c-16.9-11.1-24.9-16.6-44.7-15.3c-16,1-31.6-5-42.8-16.5c-13.9-14.4-23.6-26.5-43.9-32.3c-8.3-2.3-16.9-3.4-24.8-6.8
			c-7.9-3.4-15.2-9.8-16.5-18.3c-1-6.2,1.3-12.4,1.9-18.6c0.7-7.8-12.9-39.2-21.7-39.6c4,0.2,8.4-1.5,12-2.8
			c14.8-5.4,28.2-14.9,40.4-24.5c26.1-20.6,49-45.4,70.4-70.8c24.9-29.6,45.7-63.6,74-90.2c5.3-5,10.9-9.8,15.5-15.5
			c12-15,13.3-33.8,15-52c1-11,7.4-18.1,14-26.2c5.7-6.9,10.2-14.7,13.5-23c4-10.4,6.6-21.4,7.6-32.5c-0.1,1.3,14.2,7.9,15.6,8.7
			C649.1,305.6,653.5,307.1,654.7,310.3z"/>
		<path class="st4" d="M382.3,649.7c0,0,8.3,19.2,7.5,23.2c0,0,95.2-91.7,154.1-165.6C543.9,507.3,444.8,621.7,382.3,649.7z"/>
		<path class="st4" d="M421.1,713.9c0,0,19.4,6.5,23.5,8.8c0,0,83.5-121.7,101.6-167.2C546.2,555.5,466.8,679.4,421.1,713.9z"/>
		<path class="st4" d="M540.4,768.3l-24.4-4.4c0,0-25.9-34.9,83.5-248.9C599.6,515,514.7,682.7,540.4,768.3z"/>
		<path class="st4" d="M606.2,780.7L594,787c0,0-74.7-18.3,16.6-213.2C610.6,573.9,538.3,739.9,606.2,780.7z"/>
	</g>
</g>
<g id="Layer_2_3_">
	<g id="_2_2_">
		<path class="st5" d="M351,97.2c0,0,71.3-7.1,130.8-24c0,0,75.6,227.8,93.4,249.4c0,0-23.4,35.1-75.8,25.8
			c0,0-59.2-146.4-70.1-195.1l19.1,204.5c0,0-48.1,30.7-80.9-2.1L351,97.2z"/>
		<path class="st6" d="M351.8,110.2c0,0,90.1-12.3,133.7-26l-3.7-11c0,0-95.1,18.4-130.8,24L351.8,110.2z"/>
		<line class="st7" x1="470.7" y1="88.4" x2="564" y2="334.1"/>
		<line class="st7" x1="361.7" y1="110.2" x2="376.6" y2="363"/>
	</g>
</g>
<g id="Layer_2_2_">
	<g id="_2_1_">
		<g>
			<defs>
				<path id="SVGID_1_" d="M162.8,127.3l60.2,11.3c0,0,43,13.1,50.7,33.9s9.3,98.4,9.3,98.4s-17,5-37.4-4.9l-14.3,76.7
					c0,0-64.7,17.4-142.1-26.5l14.3-76.7c-12.4,1.9-25.1-0.1-36.3-5.8C87.2,188.4,105,121.6,162.8,127.3z"/>
			</defs>
			<clipPath id="SVGID_2_">
				<use xlink:href="#SVGID_1_"  style="overflow:visible;"/>
			</clipPath>
			<g class="st8">
				<path class="st9" d="M162.8,127.3l60.2,11.3c0,0,43,13.1,50.7,33.9s15.9,77.2,15.9,77.2s11.7,32.7-17.1,34.4l-41.2,58.4
					c0,0-64.7,17.4-142.1-26.5l7.1-66.9l-38.5-13.3C94.6,172.5,105,121.6,162.8,127.3z"/>
				
					<rect x="191.7" y="19.8" transform="matrix(0.1807 -0.9835 0.9835 0.1807 12.9138 314.3693)" class="st10" width="7" height="259.2"/>
				
					<rect x="189" y="34.5" transform="matrix(0.1807 -0.9835 0.9835 0.1807 -3.7681 323.7844)" class="st10" width="7" height="259.2"/>
				
					<rect x="183.3" y="66.3" transform="matrix(0.1836 -0.983 0.983 0.1836 -40.4722 343.9703)" class="st10" width="7" height="260.2"/>
				
					<rect x="186.1" y="50.2" transform="matrix(0.1807 -0.9835 0.9835 0.1807 -21.5534 333.8308)" class="st10" width="7" height="259.2"/>
				
					<rect x="180.5" y="80.6" transform="matrix(0.1807 -0.9835 0.9835 0.1807 -56.0142 353.2569)" class="st10" width="7" height="259.2"/>
				
					<rect x="175" y="111" transform="matrix(0.1807 -0.9835 0.9835 0.1807 -90.4667 372.6929)" class="st10" width="7" height="259.2"/>
				
					<rect x="177.8" y="95.3" transform="matrix(0.1807 -0.9835 0.9835 0.1807 -72.6925 362.6527)" class="st10" width="7" height="259.2"/>
				
					<rect x="172.3" y="125.7" transform="matrix(0.1807 -0.9835 0.9835 0.1807 -107.145 382.0886)" class="st10" width="7" height="259.2"/>
				
					<rect x="166.5" y="157.1" transform="matrix(0.1807 -0.9835 0.9835 0.1807 -142.719 402.1543)" class="st10" width="7" height="259.2"/>
				
					<rect x="169.4" y="141.4" transform="matrix(0.1807 -0.9835 0.9835 0.1807 -124.9385 392.1252)" class="st10" width="7" height="259.2"/>
				
					<rect x="163.5" y="172.4" transform="matrix(0.1836 -0.983 0.983 0.1836 -161.0197 411.1536)" class="st10" width="7" height="260.2"/>
				
					<rect x="160.8" y="187.2" transform="matrix(0.1836 -0.983 0.983 0.1836 -177.7694 420.4942)" class="st10" width="7" height="260.2"/>
				
					<rect x="158.4" y="201.2" transform="matrix(0.1807 -0.9835 0.9835 0.1807 -192.7401 430.3657)" class="st10" width="7" height="259.2"/>
				
					<ellipse transform="matrix(0.1836 -0.983 0.983 0.1836 19.0542 303.776)" class="st10" cx="192.4" cy="140.4" rx="21.5" ry="35"/>
				
					<ellipse transform="matrix(0.1836 -0.983 0.983 0.1836 26.1556 300.4617)" class="st11" cx="194" cy="134.5" rx="19.6" ry="27.6"/>
				
					<rect x="194.5" y="4.1" transform="matrix(0.1807 -0.9835 0.9835 0.1807 30.6956 304.3422)" class="st10" width="7" height="259.2"/>
			</g>
		</g>
	</g>
</g>
</svg>
