<?xml version="1.0" encoding="utf-8"?>
<!-- Generator: Adobe Illustrator 22.1.0, SVG Export Plug-In . SVG Version: 6.00 Build 0)  -->
<svg version="1.1" id="Layer_1" xmlns="http://www.w3.org/2000/svg" xmlns:xlink="http://www.w3.org/1999/xlink" x="0px" y="0px"
	 viewBox="0 0 941 991.9" style="enable-background:new 0 0 941 991.9;" xml:space="preserve">
<style type="text/css">
	.st0{fill:#DD3522;}
	.st1{fill:none;stroke:#FFFFFF;stroke-width:4;stroke-miterlimit:10;}
	.st2{fill:#008EB5;}
	.st3{fill:none;stroke:#FFFFFF;stroke-width:4;stroke-linecap:round;stroke-linejoin:round;}
	.st4{fill:none;stroke:#FFFFFF;stroke-width:4;stroke-linecap:round;stroke-miterlimit:10;}
	.st5{fill:#C7B2E2;}
	.st6{fill:#B194D7;}
	.st7{fill:#FFA400;}
	.st8{fill:#E89700;}
	.st9{fill:none;stroke:#B19400;stroke-width:2;stroke-miterlimit:10;}
	.st10{clip-path:url(#SVGID_2_);}
	.st11{fill:#EDEDEE;}
	.st12{fill:#231F20;}
	.st13{fill:#828487;}
</style>
<title>Asset 27</title>
<g id="Layer_2_1_">
	<g id="_2">
		<path class="st0" d="M379.3,557.1l22.9-4c0,0,6.1,102.3,72.5,93.6c66.4-8.7,30.6-111.7,30.6-111.7l20.1-3.5
			c0,0,12.1,136.7,51.4,141.7c0,0-32.7,32.3-11.3,137.9c0,0-34.7,20.9-28.1,75.8l-34.4,6c-28.2-60-57.9-60.8-57.9-60.8
			c-26.7-101.6-60.9-128.1-60.9-128.1S428.7,687.3,379.3,557.1z"/>
		<path class="st1" d="M402.6,553c0,0,5.6,100.2,71,93.8c65.4-6.5,32-111.9,32-111.9"/>
		<path class="st1" d="M525.9,531.4c0,0,9.3,132.4,50.7,142"/>
		<path class="st1" d="M379.5,557.1c0,0,47.6,112.8,4.9,147.1"/>
		<path class="st1" d="M445.6,832.4c0,0,29.4-2.2,57.3,60.5"/>
		<path class="st1" d="M566,811.3c0,0-36,21.2-28.5,75.5"/>
	</g>
</g>
<g id="Layer_2_5_">
	<g id="_2_4_">
		<path class="st2" d="M126.5,596.2c0,0,54.4-14.6,75.8-23.2c0,0,17.9-9.9,33.5-0.7c10.1,6,21.1,14.4,39.9,37.7
			c0,0-5.9,18.2-29.7,27.7c0,0,8.5,28.8,12.4,36.3c5.8,11.1,26.6,38.2,26.6,38.2s-63,48.6-126.2,37.8c0,0-3.2-35.3-6.4-46.4
			c-2.3-7.8-12.4-28.2-12.4-28.2s-25.3,12.7-43.2-4.1c0,0-3.3-30.5,4.4-54.6C106.3,600.4,113.7,599.4,126.5,596.2z"/>
		<path class="st3" d="M137.8,594.5c0,0,38.6,28.1,56.3-16.8L137.8,594.5z"/>
		<path class="st4" d="M246,637.7c0,0,21.8-7.4,29.7-27.7"/>
		<path class="st4" d="M140.1,675.3c0,0-24.1,12.3-43.3-4.1"/>
		<path class="st3" d="M158.8,749.9c0,0,52.6,15.8,126.2-37.8"/>
	</g>
</g>
<g id="Layer_2_4_">
	<g id="_2_3_">
		<path class="st5" d="M782.5,157.5l0.1,0.2c2,3.1,1.9,10.3,3.6,14.2c1.2,3,2.8,5.8,4.8,8.4c2.5,2.7,5.3,5.1,8.4,7.1
			c11,7.7,19.6,13,33.3,10c12.3-2.7,22.8-11.5,31.3-20.2l28.5,7.3c-5.7,13.8-10.2,28.2-13.2,42.8c-4,19.1-6.5,35.7-20.6,50
			c-10.5,10.6-12.9,26.7-14.1,41.6c-1.3,15.8-1,31.8-2.5,47.5c-2,20.5-3.7,41-4.7,61.5c-2.2,43.4-2.8,88.6,7.7,131.1
			c5.6,22.5,14.6,41.8,31.7,57.8c-6.7,3.8-14.8,2.6-21.6,8.4c-5.6,4.7-10.4,10.8-17.3,13.4c-8.4,3.1-17.8,0.3-26.3-2.6
			c-19.2-6.5-28.3-9.7-47.1-3.4c-15.2,5-31.8,3.2-45.6-5c-17.1-10.3-29.6-19.6-50.7-20c-8.6-0.2-17.2,1-25.7-0.2
			s-17.2-5.6-20.6-13.5c-2.5-5.7-1.9-12.3-2.9-18.5c-1.3-7.7-22.5-34.6-31.1-32.7c3.9-0.8,7.7-3.5,10.9-5.8
			c12.9-9,23.4-21.5,32.8-34c20-26.6,35.8-56.4,50-86.4c16.5-35,28-73.1,48.5-106.1c3.9-6.2,8-12.3,11-19
			c7.8-17.6,4.2-36.1,1.2-54.1c-1.8-10.9,2.6-19.4,6.8-28.9c3.7-8.1,6.2-16.8,7.1-25.7c1.2-11.1,0.9-22.3-1-33.4
			c0.2,1.3,15.7,4,17.3,4.4C775.9,154.4,780.5,154.7,782.5,157.5z"/>
		<path class="st6" d="M605.8,555.2c0,0,12.9,16.5,13.2,20.5c0,0,68.6-113,106.7-199.5C725.7,376.3,659.1,512.2,605.8,555.2z"/>
		<path class="st6" d="M659.7,607.3c0,0,20.5,1.3,24.9,2.5c0,0,49.7-139,55.6-187.6C740.2,422.2,695,562.3,659.7,607.3z"/>
		<path class="st6" d="M789,629.5l-24.7,2c0,0-33.9-27.2,17.2-262C781.5,369.5,742.2,553.3,789,629.5z"/>
		<path class="st6" d="M855.8,624.7l-10.2,9.2c0,0-76.9,1.3-38.3-210.4C807.2,423.6,779.7,602.5,855.8,624.7z"/>
	</g>
</g>
<g id="Layer_2_3_">
	<g id="_2_2_">
		<path class="st7" d="M358.4,157.9c0,0,71.3-7.1,130.8-24c0,0,75.5,227.8,93.4,249.3c0,0-23.4,35.1-75.8,25.8
			c0,0-59.2-146.4-70.1-195.1l19.1,204.5c0,0-48.1,30.7-80.9-2.1L358.4,157.9z"/>
		<path class="st8" d="M359.2,170.9c0,0,90.1-12.3,133.7-26l-3.7-11c0,0-95.1,18.4-130.8,24L359.2,170.9z"/>
		<line class="st9" x1="478.1" y1="149.1" x2="571.4" y2="394.7"/>
		<line class="st9" x1="369.1" y1="170.9" x2="384" y2="423.6"/>
	</g>
</g>
<g id="Layer_2_2_">
	<g id="_2_1_">
		<g>
			<defs>
				<path id="SVGID_1_" d="M171.3,212.8l60.2,11.3c0,0,43,13.1,50.7,33.9c7.7,20.8,9.3,98.4,9.3,98.4s-17,5-37.4-5l-14.3,76.7
					c0,0-64.7,17.4-142.1-26.5l14.3-76.7c-12.4,1.9-25.1-0.1-36.3-5.8C95.7,274,113.5,207.2,171.3,212.8z"/>
			</defs>
			<clipPath id="SVGID_2_">
				<use xlink:href="#SVGID_1_"  style="overflow:visible;"/>
			</clipPath>
			<g class="st10">
				<path class="st11" d="M171.3,212.8l60.2,11.3c0,0,43,13.1,50.7,33.9c7.7,20.8,15.9,77.2,15.9,77.2s11.7,32.7-17.1,34.4
					l-41.2,58.4c0,0-64.7,17.4-142.1-26.5l7.1-66.9l-38.5-13.3C103.1,258.1,113.5,207.2,171.3,212.8z"/>
				
					<rect x="200.2" y="105.4" transform="matrix(0.1807 -0.9835 0.9835 0.1807 -64.298 392.8754)" class="st12" width="7" height="259.2"/>
				
					<rect x="197.5" y="120.1" transform="matrix(0.1807 -0.9835 0.9835 0.1807 -80.9799 402.2904)" class="st12" width="7" height="259.2"/>
				
					<rect x="191.9" y="151.9" transform="matrix(0.1836 -0.983 0.983 0.1836 -117.6623 422.2186)" class="st12" width="7" height="260.2"/>
				
					<rect x="194.6" y="135.8" transform="matrix(0.1807 -0.9835 0.9835 0.1807 -98.7652 412.3369)" class="st12" width="7" height="259.2"/>
				
					<rect x="189" y="166.2" transform="matrix(0.1807 -0.9835 0.9835 0.1807 -133.2259 431.763)" class="st12" width="7" height="259.2"/>
				
					<rect x="183.5" y="196.6" transform="matrix(0.1807 -0.9835 0.9835 0.1807 -167.6785 451.1989)" class="st12" width="7" height="259.2"/>
				
					<rect x="186.3" y="180.9" transform="matrix(0.1807 -0.9835 0.9835 0.1807 -149.9042 441.1587)" class="st12" width="7" height="259.2"/>
				
					<rect x="180.8" y="211.3" transform="matrix(0.1807 -0.9835 0.9835 0.1807 -184.3568 460.5947)" class="st12" width="7" height="259.2"/>
				
					<rect x="175" y="242.7" transform="matrix(0.1807 -0.9835 0.9835 0.1807 -219.9308 480.6603)" class="st12" width="7" height="259.2"/>
				
					<rect x="177.9" y="227" transform="matrix(0.1807 -0.9835 0.9835 0.1807 -202.1503 470.6313)" class="st12" width="7" height="259.2"/>
				
					<rect x="172" y="258" transform="matrix(0.1836 -0.983 0.983 0.1836 -238.2097 489.4019)" class="st12" width="7" height="260.2"/>
				
					<rect x="169.3" y="272.8" transform="matrix(0.1836 -0.983 0.983 0.1836 -254.9595 498.7425)" class="st12" width="7" height="260.2"/>
				
					<rect x="167" y="286.8" transform="matrix(0.1807 -0.9835 0.9835 0.1807 -269.9518 508.8718)" class="st12" width="7" height="259.2"/>
				
					<ellipse transform="matrix(0.1836 -0.983 0.983 0.1836 -58.1359 382.0243)" class="st12" cx="200.9" cy="226" rx="21.5" ry="35"/>
				
					<ellipse transform="matrix(0.1836 -0.983 0.983 0.1836 -51.0344 378.71)" class="st13" cx="202.5" cy="220.1" rx="19.6" ry="27.6"/>
				
					<rect x="203" y="89.7" transform="matrix(0.1807 -0.9835 0.9835 0.1807 -46.5162 382.8483)" class="st12" width="7" height="259.2"/>
			</g>
		</g>
	</g>
</g>
</svg>
