<?xml version="1.0" encoding="utf-8"?>
<!-- Generator: Adobe Illustrator 22.1.0, SVG Export Plug-In . SVG Version: 6.00 Build 0)  -->
<svg version="1.1" id="Layer_1" xmlns="http://www.w3.org/2000/svg" xmlns:xlink="http://www.w3.org/1999/xlink" x="0px" y="0px"
	 viewBox="0 0 937.9 490.7" style="enable-background:new 0 0 937.9 490.7;" xml:space="preserve">
<style type="text/css">
	.st0{fill:#C7B2E2;}
	.st1{fill:#B194D7;}
	.st2{fill:#FFA400;}
	.st3{fill:#E89700;}
	.st4{fill:none;stroke:#B19400;stroke-width:2;stroke-miterlimit:10;}
	.st5{clip-path:url(#SVGID_2_);}
	.st6{fill:#EDEDEE;}
	.st7{fill:#231F20;}
	.st8{fill:#828487;}
</style>
<title>Asset 25</title>
<g id="Layer_2_1_">
	<g id="_2">
		<path class="st0" d="M827.7,8.3l0.1,0.2c2,3.1,1.9,10.3,3.6,14.2c1.2,3,2.8,5.8,4.8,8.4c2.5,2.7,5.3,5.1,8.4,7.1
			c11,7.7,19.6,13,33.3,10c12.3-2.7,22.8-11.5,31.3-20.2l28.5,7.3c-5.7,13.8-10.2,28.2-13.2,42.8c-4,19.1-6.5,35.7-20.6,50
			c-10.5,10.6-12.9,26.7-14.1,41.6c-1.3,15.8-1,31.8-2.5,47.5c-2,20.5-3.7,41-4.7,61.5c-2.2,43.4-2.8,88.6,7.7,131.1
			c5.6,22.5,14.6,41.9,31.7,57.8c-6.7,3.9-14.8,2.6-21.6,8.4c-5.6,4.7-10.4,10.8-17.3,13.4c-8.4,3.1-17.8,0.3-26.3-2.6
			c-19.2-6.5-28.3-9.7-47.1-3.4c-15.2,5-31.8,3.2-45.6-5c-17.1-10.4-29.6-19.6-50.7-20c-8.6-0.2-17.2,1-25.7-0.2
			s-17.2-5.6-20.6-13.5c-2.5-5.7-1.9-12.3-2.9-18.5c-1.3-7.7-22.5-34.6-31.1-32.7c3.9-0.8,7.7-3.5,10.9-5.8
			c12.9-9,23.4-21.5,32.8-34c20-26.6,35.8-56.4,50-86.4c16.5-35,28-73.1,48.5-106.1c3.9-6.2,8-12.3,11-18.9
			c7.8-17.6,4.2-36.1,1.2-54.1c-1.8-10.9,2.6-19.4,6.8-28.9c3.7-8.1,6.2-16.8,7.1-25.7c1.2-11.1,0.9-22.3-1-33.4
			c0.2,1.3,15.7,4,17.3,4.4C821.1,5.3,825.7,5.5,827.7,8.3z"/>
		<path class="st1" d="M651,406.1c0,0,12.9,16.5,13.2,20.5c0,0,68.6-113,106.6-199.5C770.9,227.1,704.3,363,651,406.1z"/>
		<path class="st1" d="M704.9,458.2c0,0,20.4,1.3,24.9,2.5c0,0,49.7-139,55.6-187.6C785.4,273.1,740.2,413.2,704.9,458.2z"/>
		<path class="st1" d="M834.2,480.4l-24.7,2c0,0-33.9-27.2,17.2-262C826.7,220.4,787.4,404.2,834.2,480.4z"/>
		<path class="st1" d="M901,475.6l-10.2,9.2c0,0-76.9,1.4-38.3-210.4C852.4,274.4,824.9,453.4,901,475.6z"/>
	</g>
</g>
<g id="Layer_2_3_">
	<g id="_2_2_">
		<path class="st2" d="M366.8,113.1c0,0,71.3-7.1,130.8-24c0,0,75.6,227.8,93.4,249.4c0,0-23.4,35.1-75.8,25.8
			c0,0-59.2-146.4-70.1-195.1l19.1,204.5c0,0-48.1,30.7-80.9-2.1L366.8,113.1z"/>
		<path class="st3" d="M367.7,126.1c0,0,90.1-12.3,133.7-26l-3.7-11c0,0-95.1,18.4-130.8,24L367.7,126.1z"/>
		<line class="st4" x1="486.6" y1="104.3" x2="579.9" y2="349.9"/>
		<line class="st4" x1="377.6" y1="126.1" x2="392.4" y2="378.8"/>
	</g>
</g>
<g id="Layer_2_2_">
	<g id="_2_1_">
		<g>
			<defs>
				<path id="SVGID_1_" d="M159.3,128.7l60.2,11.3c0,0,43,13.1,50.7,33.9s9.3,98.4,9.3,98.4s-17,5-37.4-5L227.8,344
					c0,0-64.7,17.4-142.1-26.5l14.3-76.7c-12.4,1.9-25.1-0.1-36.4-5.8C83.7,189.9,101.5,123,159.3,128.7z"/>
			</defs>
			<clipPath id="SVGID_2_">
				<use xlink:href="#SVGID_1_"  style="overflow:visible;"/>
			</clipPath>
			<g class="st5">
				<path class="st6" d="M159.3,128.7l60.2,11.3c0,0,43,13.1,50.7,33.9s15.9,77.2,15.9,77.2s11.7,32.7-17.1,34.4L227.8,344
					c0,0-64.7,17.4-142.1-26.5l7.1-66.9l-38.5-13.3C91.1,174,101.5,123,159.3,128.7z"/>
				
					<rect x="188.2" y="21.3" transform="matrix(0.1807 -0.9835 0.9835 0.1807 8.59 312.1527)" class="st7" width="7" height="259.2"/>
				
					<rect x="185.5" y="36" transform="matrix(0.1807 -0.9835 0.9835 0.1807 -8.0919 321.5678)" class="st7" width="7" height="259.2"/>
				
					<rect x="179.9" y="67.8" transform="matrix(0.1836 -0.983 0.983 0.1836 -44.7848 341.7512)" class="st7" width="7" height="260.2"/>
				
					<rect x="182.6" y="51.7" transform="matrix(0.1807 -0.9835 0.9835 0.1807 -25.8772 331.6142)" class="st7" width="7" height="259.2"/>
				
					<rect x="177" y="82.1" transform="matrix(0.1807 -0.9835 0.9835 0.1807 -60.3379 351.0403)" class="st7" width="7" height="259.2"/>
				
					<rect x="171.5" y="112.5" transform="matrix(0.1807 -0.9835 0.9835 0.1807 -94.7905 370.4763)" class="st7" width="7" height="259.2"/>
				
					<rect x="174.3" y="96.8" transform="matrix(0.1807 -0.9835 0.9835 0.1807 -77.0162 360.4361)" class="st7" width="7" height="259.2"/>
				
					<rect x="168.8" y="127.2" transform="matrix(0.1807 -0.9835 0.9835 0.1807 -111.4688 379.872)" class="st7" width="7" height="259.2"/>
				
					<rect x="163" y="158.6" transform="matrix(0.1807 -0.9835 0.9835 0.1807 -147.0428 399.9377)" class="st7" width="7" height="259.2"/>
				
					<rect x="165.9" y="142.9" transform="matrix(0.1807 -0.9835 0.9835 0.1807 -129.2623 389.9086)" class="st7" width="7" height="259.2"/>
				
					<rect x="160" y="173.9" transform="matrix(0.1836 -0.983 0.983 0.1836 -165.3323 408.9345)" class="st7" width="7" height="260.2"/>
				
					<rect x="157.3" y="188.7" transform="matrix(0.1836 -0.983 0.983 0.1836 -182.082 418.2751)" class="st7" width="7" height="260.2"/>
				
					<rect x="155" y="202.7" transform="matrix(0.1807 -0.9835 0.9835 0.1807 -197.0638 428.1491)" class="st7" width="7" height="259.2"/>
				
					<ellipse transform="matrix(0.1836 -0.983 0.983 0.1836 14.7416 301.5569)" class="st7" cx="188.9" cy="141.9" rx="21.5" ry="35"/>
				
					<ellipse transform="matrix(0.1836 -0.983 0.983 0.1836 21.843 298.2426)" class="st8" cx="190.5" cy="136" rx="19.6" ry="27.6"/>
				
					<rect x="191" y="5.6" transform="matrix(0.1807 -0.9835 0.9835 0.1807 26.3718 302.1256)" class="st7" width="7" height="259.2"/>
			</g>
		</g>
	</g>
</g>
</svg>
