<?xml version="1.0" encoding="utf-8"?>
<!-- Generator: Adobe Illustrator 22.1.0, SVG Export Plug-In . SVG Version: 6.00 Build 0)  -->
<svg version="1.1" id="Layer_1" xmlns="http://www.w3.org/2000/svg" xmlns:xlink="http://www.w3.org/1999/xlink" x="0px" y="0px"
	 viewBox="0 0 1028.6 1056.5" style="enable-background:new 0 0 1028.6 1056.5;" xml:space="preserve">
<style type="text/css">
	.st0{fill:#FFE700;}
	.st1{fill:#1E1E1E;}
	.st2{fill:#C7C8CA;}
	.st3{fill:#FFFFFF;}
	.st4{fill:#DD3522;}
	.st5{fill:none;stroke:#FFFFFF;stroke-width:4;stroke-miterlimit:10;}
	.st6{fill:#008EB5;}
	.st7{fill:none;stroke:#FFFFFF;stroke-width:4;stroke-linecap:round;stroke-linejoin:round;}
	.st8{fill:none;stroke:#FFFFFF;stroke-width:4;stroke-linecap:round;stroke-miterlimit:10;}
	.st9{fill:#C7B2E2;}
	.st10{fill:#B194D7;}
	.st11{fill:#FFA400;}
	.st12{fill:#E89700;}
	.st13{fill:none;stroke:#B19400;stroke-width:2;stroke-miterlimit:10;}
	.st14{clip-path:url(#SVGID_2_);}
	.st15{fill:#EDEDEE;}
	.st16{fill:#231F20;}
	.st17{fill:#828487;}
</style>
<title>Asset 87</title>
<g id="Layer_2_1_">
	<g id="_2">
		<path class="st0" d="M721.6,877.7l145.2-16.2L947,1000c0,0-102.8,55.1-248.1,32.4L721.6,877.7z"/>
		<polygon class="st0" points="899.9,1015.9 849.8,914.6 887.8,1020.2 		"/>
		<polygon class="st0" points="812.4,919.4 850.4,1030.3 836.5,1032.9 		"/>
		<polygon class="st0" points="787.4,924.2 800.8,1037.1 785.7,1038.1 		"/>
		<polygon class="st0" points="748.4,924.4 752.5,1037.8 737.4,1036.9 		"/>
		<polygon class="st0" points="721.8,924.5 719.4,1035.2 706.2,1033.5 		"/>
		<polygon class="st0" points="867,914.5 919,1012.6 933,1006.3 		"/>
		<path class="st1" d="M721.6,877.7l145.2-16.2L947,1000c0,0-102.8,55.1-248.1,32.4L721.6,877.7z"/>
		<polygon points="899.9,1015.9 849.8,914.6 887.8,1020.2 		"/>
		<polygon points="812.4,919.4 850.4,1030.3 836.5,1032.9 		"/>
		<polygon points="787.4,924.2 800.8,1037.1 785.7,1038.1 		"/>
		<polygon points="748.4,924.4 752.5,1037.8 737.4,1036.9 		"/>
		<polygon points="721.8,924.5 719.4,1035.2 706.2,1033.5 		"/>
		<polygon points="867,914.5 919,1012.6 933,1006.3 		"/>
		<path class="st2" d="M717.1,673.3l43.6-6.9l108,226.3c0,0-35.6-28.7-116,17.2C672.3,955.8,717.1,673.3,717.1,673.3z"/>
		<path class="st3" d="M722.8,706.5c0,0,16.1,41.3,29.9,109.1s39.1,67.8,44.8,124c0,0-23-12.6-57.4,4.6s-65.5-16.1-65.5-16.1
			s12.6-72.4,4.6-112.6s-4.6-40.2-4.6-40.2s-7.5,55.8-25.8,73c-18.4,17.2-18.8,24.7-25.7,28.1c0,0-28.9-13.8-32.3-32.2
			c0,0,25.3-24.1,29.9-42.5c4.6-18.4,28.7-50.5,44.8-88.4c16.1-37.9,51.7-40.2,51.7-40.2S717.1,690.5,722.8,706.5z"/>
		<path class="st3" d="M760.7,666.4c0,0,21.8,116,54,149.3c32.2,33.4,26.4,95.3,37.9,112.6c0,0,45.9,1.1,56.3-37.9
			c0,0-18-72.2-51.7-117.2c-3.4-4.6-12.6-29.9-12.6-29.9s40.1,60.5,78,88c0,0,22-21.5,24.2-42.1c0,0-32.2-20.7-37.9-35.6
			c-5.7-14.9-44.8-71.2-64.3-77C825.1,670.8,803.2,646.8,760.7,666.4z"/>
	</g>
</g>
<g id="Layer_2_6_">
	<g id="_2_5_">
		<path class="st4" d="M315.6,611.9l28-4.9c0,0,7.5,125.1,88.7,114.5s37.5-136.6,37.5-136.6l24.5-4.3c0,0,14.9,167.1,62.8,173.1
			c0,0-40,39.5-13.8,168.5c0,0-42.5,25.5-34.3,92.7l-42,7.3c-34.5-73.3-70.8-74.3-70.8-74.3c-32.6-124.2-74.4-156.6-74.4-156.6
			S376,771,315.6,611.9z"/>
		<path class="st5" d="M344.1,606.9c0,0,6.9,122.5,86.8,114.6c79.9-7.9,39.1-136.7,39.1-136.7"/>
		<path class="st5" d="M494.8,580.5c0,0,11.4,161.8,62,173.6"/>
		<path class="st5" d="M315.8,611.8c0,0,58.1,137.9,6,179.8"/>
		<path class="st5" d="M396.7,948.4c0,0,35.9-2.7,70,73.9"/>
		<path class="st5" d="M543.8,922.6c0,0-44,25.9-34.8,92.3"/>
	</g>
</g>
<g id="Layer_2_5_">
	<g id="_2_4_">
		<path class="st6" d="M67.9,692.8c0,0,66.5-17.8,92.6-28.4c0,0,21.9-12.1,41-0.8c12.4,7.3,25.8,17.6,48.8,46
			c0,0-7.2,22.3-36.3,33.9c0,0,10.4,35.2,15.2,44.3c7.1,13.6,32.5,46.7,32.5,46.7s-77.1,59.4-154.2,46.2c0,0-3.9-43.2-7.8-56.7
			c-2.8-9.5-15.1-34.4-15.1-34.4s-30.9,15.5-52.8-5c0,0-4-37.3,5.4-66.7C43.2,698,52.2,696.7,67.9,692.8z"/>
		<path class="st7" d="M81.7,690.8c0,0,47.2,34.3,68.8-20.5L81.7,690.8z"/>
		<path class="st8" d="M213.9,743.5c0,0,26.6-9.1,36.3-33.9"/>
		<path class="st8" d="M84.4,789.5c0,0-29.5,15-52.9-5"/>
		<path class="st7" d="M107.3,880.7c0,0,64.4,19.3,154.2-46.2"/>
	</g>
</g>
<g id="Layer_2_4_">
	<g id="_2_3_">
		<path class="st9" d="M846.3,27.6l0.2,0.2c2.4,3.8,2.3,12.6,4.4,17.3c1.5,3.7,3.5,7.1,5.9,10.3c3,3.3,6.5,6.2,10.3,8.7
			c13.4,9.4,24,15.9,40.7,12.2c15-3.3,27.8-14,38.3-24.7l34.8,8.9c-7,16.9-12.4,34.4-16.2,52.3c-4.9,23.3-8,43.6-25.2,61.1
			c-12.8,13-15.8,32.6-17.2,50.8c-1.6,19.3-1.2,38.8-3,58.1c-2.4,25-4.5,50.1-5.7,75.2c-2.7,53-3.4,108.3,9.4,160.2
			c6.8,27.6,17.8,51.2,38.7,70.6c-8.1,4.7-18.1,3.2-26.4,10.2c-6.9,5.8-12.8,13.2-21.2,16.4c-10.3,3.9-21.7,0.3-32.1-3.2
			c-23.4-7.9-34.6-11.9-57.6-4.1c-18.6,6.1-38.9,3.9-55.7-6.1c-20.9-12.7-36.1-24-62-24.4c-10.5-0.2-21.1,1.2-31.5-0.3
			c-10.4-1.5-21-6.9-25.2-16.5c-3.1-7-2.3-15-3.5-22.6c-1.6-9.4-27.5-42.2-38-40c4.8-1,9.4-4.3,13.3-7.1
			c15.8-11,28.6-26.3,40.1-41.6c24.4-32.5,43.8-68.9,61.1-105.7c20.2-42.8,34.2-89.4,59.3-129.7c4.7-7.6,9.8-15,13.4-23.2
			c9.5-21.5,5.1-44.1,1.4-66.2c-2.2-13.3,3.1-23.7,8.3-35.4c4.6-9.9,7.5-20.5,8.7-31.4c1.5-13.6,1.1-27.3-1.2-40.8
			c0.3,1.5,19.2,4.9,21.1,5.4C838.1,23.9,843.8,24.2,846.3,27.6z"/>
		<path class="st10" d="M630.3,513.8c0,0,15.8,20.2,16.1,25.1c0,0,83.8-138.1,130.4-243.8C776.8,295,695.4,461.1,630.3,513.8z"/>
		<path class="st10" d="M696.2,577.4c0,0,25,1.6,30.5,3c0,0,60.7-169.8,67.9-229.2C794.6,351.2,739.3,522.4,696.2,577.4z"/>
		<path class="st10" d="M854.1,604.5L824,607c0,0-41.5-33.2,21-320.2C845,286.8,797,511.4,854.1,604.5z"/>
		<path class="st10" d="M935.8,598.7L923.3,610c0,0-94,1.7-46.9-257.1C876.4,352.9,842.8,571.6,935.8,598.7z"/>
	</g>
</g>
<g id="Layer_2_3_">
	<g id="_2_2_">
		<path class="st11" d="M378.6,138c0,0,87.1-8.7,159.9-29.3c0,0,92.3,278.4,114.2,304.8c0,0-28.6,42.9-92.7,31.6
			c0,0-72.4-179-85.7-238.5l23.4,249.9c0,0-58.8,37.5-98.9-2.5L378.6,138z"/>
		<path class="st12" d="M379.6,153.9c0,0,110.1-15.1,163.4-31.8l-4.5-13.4c0,0-116.2,22.5-159.9,29.3L379.6,153.9z"/>
		<line class="st13" x1="525" y1="127.2" x2="639" y2="427.4"/>
		<line class="st13" x1="391.7" y1="153.8" x2="409.9" y2="462.7"/>
	</g>
</g>
<g id="Layer_2_2_">
	<g id="_2_1_">
		<g>
			<defs>
				<path id="SVGID_1_" d="M179.8,145.6l73.6,13.8c0,0,52.6,16,62,41.4c9.4,25.4,11.4,120.2,11.4,120.2s-20.8,6.1-45.7-6.1
					l-17.5,93.7c0,0-79.1,21.3-173.7-32.4l17.5-93.7c-15.2,2.3-30.7-0.1-44.4-7.1C87.4,220.4,109.2,138.6,179.8,145.6z"/>
			</defs>
			<clipPath id="SVGID_2_">
				<use xlink:href="#SVGID_1_"  style="overflow:visible;"/>
			</clipPath>
			<g class="st14">
				<path class="st15" d="M179.8,145.6l73.6,13.8c0,0,52.6,16,62,41.4c9.4,25.4,19.4,94.4,19.4,94.4s14.3,40-20.9,42.1l-50.3,71.4
					c0,0-79.1,21.3-173.7-32.4l8.7-81.7l-47.1-16.2C96.5,200.9,109.2,138.6,179.8,145.6z"/>
				
					<rect x="215.1" y="14.3" transform="matrix(0.1807 -0.9835 0.9835 0.1807 9.8573 357.2321)" class="st16" width="8.5" height="316.8"/>
				
					<rect x="211.8" y="32.3" transform="matrix(0.1807 -0.9835 0.9835 0.1807 -10.5323 368.7398)" class="st16" width="8.5" height="316.8"/>
				
					<rect x="204.9" y="71" transform="matrix(0.1836 -0.983 0.983 0.1836 -55.343 393.4521)" class="st16" width="8.6" height="318"/>
				
					<rect x="208.3" y="51.5" transform="matrix(0.1807 -0.9835 0.9835 0.1807 -32.2706 381.0191)" class="st16" width="8.5" height="316.8"/>
				
					<rect x="201.5" y="88.6" transform="matrix(0.1807 -0.9835 0.9835 0.1807 -74.3905 404.7629)" class="st16" width="8.5" height="316.8"/>
				
					<rect x="194.7" y="125.8" transform="matrix(0.1807 -0.9835 0.9835 0.1807 -116.5005 428.5186)" class="st16" width="8.5" height="316.8"/>
				
					<rect x="198.2" y="106.6" transform="matrix(0.1807 -0.9835 0.9835 0.1807 -94.7757 416.2469)" class="st16" width="8.5" height="316.8"/>
				
					<rect x="191.4" y="143.7" transform="matrix(0.1807 -0.9835 0.9835 0.1807 -136.8857 440.0027)" class="st16" width="8.5" height="316.8"/>
				
					<rect x="184.4" y="182.1" transform="matrix(0.1807 -0.9835 0.9835 0.1807 -180.3664 464.5281)" class="st16" width="8.5" height="316.8"/>
				
					<rect x="187.9" y="162.9" transform="matrix(0.1807 -0.9835 0.9835 0.1807 -158.634 452.27)" class="st16" width="8.5" height="316.8"/>
				
					<rect x="180.7" y="200.8" transform="matrix(0.1836 -0.983 0.983 0.1836 -202.6832 475.5676)" class="st16" width="8.6" height="318"/>
				
					<rect x="177.3" y="218.8" transform="matrix(0.1836 -0.983 0.983 0.1836 -223.1558 486.9842)" class="st16" width="8.6" height="318"/>
				
					<rect x="174.5" y="236" transform="matrix(0.1807 -0.9835 0.9835 0.1807 -241.5051 499.0098)" class="st16" width="8.5" height="316.8"/>
				
					<ellipse transform="matrix(0.1836 -0.983 0.983 0.1836 17.4138 344.3242)" class="st16" cx="216" cy="161.7" rx="26.3" ry="42.8"/>
				
					<ellipse transform="matrix(0.1836 -0.983 0.983 0.1836 26.0935 340.2733)" class="st17" cx="217.9" cy="154.4" rx="24" ry="33.7"/>
				
					<rect x="218.6" y="-4.9" transform="matrix(0.1807 -0.9835 0.9835 0.1807 31.5913 344.9764)" class="st16" width="8.5" height="316.8"/>
			</g>
		</g>
	</g>
</g>
</svg>
