<?xml version="1.0" encoding="utf-8"?>
<!-- Generator: Adobe Illustrator 22.1.0, SVG Export Plug-In . SVG Version: 6.00 Build 0)  -->
<svg version="1.1" id="Layer_1" xmlns="http://www.w3.org/2000/svg" xmlns:xlink="http://www.w3.org/1999/xlink" x="0px" y="0px"
	 viewBox="0 0 564.3 297.6" style="enable-background:new 0 0 564.3 297.6;" xml:space="preserve">
<style type="text/css">
	.st0{fill:#FFA400;}
	.st1{fill:#E89700;}
	.st2{fill:none;stroke:#B19400;stroke-width:2;stroke-miterlimit:10;}
	.st3{clip-path:url(#SVGID_2_);}
	.st4{fill:#EDEDEE;}
	.st5{fill:#231F20;}
	.st6{fill:#828487;}
</style>
<title>Asset 24</title>
<g id="Layer_2_1_">
	<g id="_2">
		<path class="st0" d="M340,24c0,0,71.3-7.1,130.8-24c0,0,75.5,227.8,93.4,249.4c0,0-23.4,35.1-75.8,25.8c0,0-59.2-146.4-70.1-195.1
			l19.1,204.5c0,0-48.1,30.7-80.9-2.1L340,24z"/>
		<path class="st1" d="M340.8,37c0,0,90.1-12.3,133.7-26l-3.7-11c0,0-95.1,18.4-130.8,24L340.8,37z"/>
		<line class="st2" x1="459.7" y1="15.2" x2="553" y2="260.8"/>
		<line class="st2" x1="350.7" y1="37" x2="365.6" y2="289.7"/>
	</g>
</g>
<g id="Layer_2_2_">
	<g id="_2_1_">
		<g>
			<g>
				<defs>
					<path id="SVGID_1_" d="M132.4,39.6l60.2,11.3c0,0,43,13.1,50.7,33.9s9.3,98.4,9.3,98.4s-17,5-37.4-4.9L201,254.9
						c0,0-64.7,17.4-142.1-26.5l14.3-76.7c-12.4,1.9-25.1-0.1-36.3-5.8C56.9,100.8,74.7,33.9,132.4,39.6z"/>
				</defs>
				<clipPath id="SVGID_2_">
					<use xlink:href="#SVGID_1_"  style="overflow:visible;"/>
				</clipPath>
				<g class="st3">
					<path class="st4" d="M132.4,39.6l60.2,11.3c0,0,43,13.1,50.7,33.9s15.9,77.2,15.9,77.2s11.7,32.7-17.1,34.4L201,254.9
						c0,0-64.7,17.4-142.1-26.5l7.1-66.9l-38.5-13.3C64.3,84.9,74.7,33.9,132.4,39.6z"/>
					
						<rect x="161.3" y="-67.8" transform="matrix(0.1807 -0.9835 0.9835 0.1807 74.2031 212.749)" class="st5" width="7" height="259.2"/>
					
						<rect x="158.6" y="-53" transform="matrix(0.1807 -0.9835 0.9835 0.1807 57.4966 222.1469)" class="st5" width="7" height="259.2"/>
					
						<rect x="153" y="-21.4" transform="matrix(0.1836 -0.983 0.983 0.1836 20.8576 242.6004)" class="st5" width="7" height="260.2"/>
					
						<rect x="155.7" y="-37.4" transform="matrix(0.1807 -0.9835 0.9835 0.1807 39.7815 232.155)" class="st5" width="7" height="259.2"/>
					
						<rect x="150.2" y="-7" transform="matrix(0.1807 -0.9835 0.9835 0.1807 5.2885 251.6012)" class="st5" width="7" height="259.2"/>
					
						<rect x="144.6" y="23.5" transform="matrix(0.1807 -0.9835 0.9835 0.1807 -29.2075 271.0633)" class="st5" width="7" height="259.2"/>
					
						<rect x="147.5" y="7.7" transform="matrix(0.1807 -0.9835 0.9835 0.1807 -11.3961 260.9868)" class="st5" width="7" height="259.2"/>
					
						<rect x="141.9" y="38.2" transform="matrix(0.1807 -0.9835 0.9835 0.1807 -45.892 280.4489)" class="st5" width="7" height="259.2"/>
					
						<rect x="136.2" y="69.5" transform="matrix(0.1807 -0.9835 0.9835 0.1807 -81.4097 300.5023)" class="st5" width="7" height="259.2"/>
					
						<rect x="139" y="53.8" transform="matrix(0.1807 -0.9835 0.9835 0.1807 -63.6042 290.4409)" class="st5" width="7" height="259.2"/>
					
						<rect x="133.2" y="84.8" transform="matrix(0.1836 -0.983 0.983 0.1836 -99.6381 309.8054)" class="st5" width="7" height="260.2"/>
					
						<rect x="130.5" y="99.6" transform="matrix(0.1836 -0.983 0.983 0.1836 -116.4135 319.2272)" class="st5" width="7" height="260.2"/>
					
						<rect x="128.1" y="113.7" transform="matrix(0.1807 -0.9835 0.9835 0.1807 -131.476 328.6924)" class="st5" width="7" height="259.2"/>
					
						<ellipse transform="matrix(0.1836 -0.983 0.983 0.1836 80.4445 202.4223)" class="st5" cx="162.1" cy="52.8" rx="21.5" ry="35"/>
					
						<ellipse transform="matrix(0.1836 -0.983 0.983 0.1836 87.5042 199.1787)" class="st6" cx="163.7" cy="46.9" rx="19.6" ry="27.6"/>
					
						<rect x="164.2" y="-83.5" transform="matrix(0.1807 -0.9835 0.9835 0.1807 92.0078 202.6905)" class="st5" width="7" height="259.2"/>
				</g>
			</g>
		</g>
	</g>
</g>
</svg>
