<?xml version="1.0" encoding="utf-8"?>
<!-- Generator: Adobe Illustrator 22.1.0, SVG Export Plug-In . SVG Version: 6.00 Build 0)  -->
<svg version="1.1" id="Layer_1" xmlns="http://www.w3.org/2000/svg" xmlns:xlink="http://www.w3.org/1999/xlink" x="0px" y="0px"
	 viewBox="0 0 1112.4 871" style="enable-background:new 0 0 1112.4 871;" xml:space="preserve">
<style type="text/css">
	.st0{fill:#73A9CA;}
	.st1{fill:#FF9E9B;}
	.st2{fill:#3D8763;}
	.st3{fill:#FFB81B;}
	.st4{fill:#2D6849;}
</style>
<title>Asset 74</title>
<path class="st0" d="M263.6,422.2c0,0,0,268.4,0,268.4s-43.9,103.4,93.3,79.6c24.3-4.2,53.5-1.5,72.6,19.2
	c3.9,4.2,7.1,9.2,11.3,12.8c6,5.1,13.6,7.1,20.9,5.5c4.2-0.9,8.1-3,12.1-4.8c69.3-31.8,145.1,61,212.1-10.5
	c10.7-11.4,18.8-26,32.7-33.1c31.2-15.9,76.4,13.2,101.5-11.2c11.2-10.9,12.6-28,13.3-43.6c2-48.1,2.7-96.3,2-144.5
	c-0.3-23.4,9.4-123.6-8.4-137.5c-16.1-12.6-90.3-0.4-111.6-0.4c-38.6,0-77.2,0-115.8,0c-109.1,0-218.2,0-327.2,0
	C269.4,422.2,266.5,422.2,263.6,422.2z"/>
<rect class="st1" width="1112" height="730.8"/>
<rect x="358.9" y="108.6" class="st2" width="389.8" height="621.9"/>
<circle class="st3" cx="680.3" cy="505.5" r="28.8"/>
<polygon class="st4" points="422.2,590 684.5,590 696.8,619.2 407.1,619.2 "/>
<polygon class="st4" points="422.2,629.6 684.5,629.6 696.8,658.8 407.1,658.8 "/>
<polygon class="st4" points="422.2,669.2 684.5,669.2 696.8,698.5 407.1,698.5 "/>
<rect x="457.1" y="207.7" class="st4" width="83.1" height="122.7"/>
<rect x="560.9" y="207.7" class="st4" width="83" height="122.7"/>
<rect x="457.1" y="354" class="st4" width="83.1" height="122.7"/>
<rect x="560.9" y="354" class="st4" width="83" height="122.7"/>
</svg>
