<?xml version="1.0" encoding="utf-8"?>
<!-- Generator: Adobe Illustrator 22.1.0, SVG Export Plug-In . SVG Version: 6.00 Build 0)  -->
<svg version="1.1" id="Layer_1" xmlns="http://www.w3.org/2000/svg" xmlns:xlink="http://www.w3.org/1999/xlink" x="0px" y="0px"
	 viewBox="0 0 1112.4 871" style="enable-background:new 0 0 1112.4 871;" xml:space="preserve">
<style type="text/css">
	.st0{fill:#FF9E9B;}
	.st1{fill:#3D8763;}
	.st2{fill:#FFB81B;}
	.st3{fill:#2D6849;}
	.st4{opacity:0.49;fill:#73A9CA;enable-background:new    ;}
	.st5{opacity:0.52;fill:#FDFEFF;enable-background:new    ;}
	.st6{fill:#F99D1C;}
	.st7{fill:#200000;}
	.st8{fill:#FFFFFF;}
	.st9{fill:#F26923;}
	.st10{fill:#C4551A;}
	.st11{fill:#5A2000;}
</style>
<title>Asset 74</title>
<rect class="st0" width="1112" height="730.8"/>
<rect x="358.9" y="108.6" class="st1" width="389.8" height="621.9"/>
<circle class="st2" cx="680.3" cy="505.5" r="28.8"/>
<polygon class="st3" points="422.2,590 684.5,590 696.8,619.2 407.1,619.2 "/>
<polygon class="st3" points="422.2,629.6 684.5,629.6 696.8,658.8 407.1,658.8 "/>
<polygon class="st3" points="422.2,669.2 684.5,669.2 696.8,698.5 407.1,698.5 "/>
<rect x="457.1" y="207.7" class="st3" width="83.1" height="122.7"/>
<rect x="560.9" y="207.7" class="st3" width="83" height="122.7"/>
<rect x="457.1" y="354" class="st3" width="83.1" height="122.7"/>
<rect x="560.9" y="354" class="st3" width="83" height="122.7"/>
<rect class="st4" width="1112.4" height="871"/>
<circle class="st5" cx="136.9" cy="174" r="65.4"/>
<circle class="st5" cx="270" cy="412.2" r="16.4"/>
<circle class="st5" cx="374.4" cy="207.7" r="32.7"/>
<circle class="st5" cx="112.4" cy="534.3" r="32.7"/>
<circle class="st5" cx="846.4" cy="716.6" r="32.7"/>
<circle class="st5" cx="1000.1" cy="493.1" r="16.4"/>
<circle class="st5" cx="270" cy="683.9" r="16.4"/>
<circle class="st5" cx="848.1" cy="327.7" r="47.7"/>
<ellipse transform="matrix(0.2298 -0.9732 0.9732 0.2298 637.9595 1122.8964)" class="st5" cx="1028.4" cy="158.4" rx="32.7" ry="32.7"/>
<circle class="st5" cx="737.1" cy="120.3" r="21.1"/>
<g>
	<path class="st6" d="M203.4,137.8l25.8-0.7c0,0,14.9-11.8,2.9-16.6c-12-4.7-8.6,1.3-16.5,1.7c-7.9,0.4-18.3-8.2-17,6
		C199.9,142.4,203.4,137.8,203.4,137.8z"/>
	<path class="st6" d="M283.2,188.5c0,0-9.5-61.8-79.7-54.2c-70.2,7.6-61,67.4-52.7,79.8c8.3,12.4,84,28.3,132.4-3.5
		c0,0,23.1,33.4,34.1,4.4c6.3-10.2-18.1-17.5-18.1-17.5s33.2-3.8,21.4-16.1C295,154.8,283.2,188.5,283.2,188.5z"/>
	<path class="st7" d="M215.6,133.7c0,0,35.9,52.1,0,95.6c0,0,14.1,0.2,26.2-2.7c0,0,32.1-46-3.3-89.6
		C238.6,137,227.8,133,215.6,133.7z"/>
	<path class="st7" d="M173.7,141.9c0,0,17.5-6.9,29.7-7.6c0,0,15.2,76.9-10.5,93.9l-19.2-3.4C173.7,224.9,206.3,162.1,173.7,141.9z"
		/>
	<path class="st8" d="M215.6,133.7c0,0,22.8,52.1,0,95.6l13.1,0c0,0,20.3-57.5-3-95L215.6,133.7z"/>
	<path class="st8" d="M196.3,136.2c0,0,18.2,50.2-3.4,92.1l10.5,1.1c0,0,16-60.2,0-95L196.3,136.2z"/>
	<path class="st8" d="M272.9,163.3c0,0,7.7,34.8-11.3,58l12.9-5.6c0,0,10.7-16.2,5.9-37.2L272.9,163.3z"/>
	<circle class="st7" cx="175.6" cy="174.2" r="7.6"/>
</g>
<g>
	<path class="st6" d="M848.5,436.2l15.4-0.4c0,0,8.9-7.1,1.7-9.9c-7.1-2.8-5.1,0.8-9.9,1c-4.7,0.3-10.9-4.9-10.1,3.6
		S848.5,436.2,848.5,436.2z"/>
	<path class="st6" d="M896.1,466.5c0,0-5.7-36.9-47.6-32.3c-41.9,4.5-36.4,40.2-31.4,47.6c4.9,7.4,50.1,16.9,79-2.1
		c0,0,13.8,19.9,20.3,2.6c3.7-6.1-10.8-10.5-10.8-10.5s19.8-2.3,12.8-9.6C903.1,446.4,896.1,466.5,896.1,466.5z"/>
	<path class="st7" d="M855.8,433.8c0,0,21.4,31.1,0,57.1c0,0,8.4,0.1,15.7-1.6c0,0,19.1-27.4-2-53.5
		C869.5,435.8,863.1,433.4,855.8,433.8z"/>
	<path class="st7" d="M830.8,438.7c0,0,10.4-4.1,17.7-4.5c0,0,9.1,45.9-6.2,56l-11.5-2C830.8,488.2,850.2,450.7,830.8,438.7z"/>
	<path class="st8" d="M855.8,433.8c0,0,13.6,31.1,0,57.1l7.8,0c0,0,12.1-34.3-1.8-56.7L855.8,433.8z"/>
	<path class="st8" d="M844.2,435.2c0,0,10.8,30-2,54.9l6.3,0.6c0,0,9.6-35.9,0-56.7L844.2,435.2z"/>
	<path class="st8" d="M890,451.4c0,0,4.6,20.8-6.8,34.6l7.7-3.3c0,0,6.4-9.7,3.5-22.2L890,451.4z"/>
	<circle class="st7" cx="831.9" cy="457.9" r="4.6"/>
</g>
<g>
	<path class="st6" d="M998.2,44.6l15.4-0.4c0,0,8.9-7.1,1.7-9.9s-5.1,0.8-9.9,1c-4.7,0.3-10.9-4.9-10.1,3.6
		C996.1,47.4,998.2,44.6,998.2,44.6z"/>
	<path class="st6" d="M1045.8,74.9c0,0-5.7-36.9-47.6-32.3c-41.9,4.5-36.4,40.2-31.4,47.6s50.1,16.9,79-2.1c0,0,13.8,19.9,20.3,2.6
		c3.7-6.1-10.8-10.5-10.8-10.5s19.8-2.3,12.8-9.6C1052.8,54.7,1045.8,74.9,1045.8,74.9z"/>
	<path class="st7" d="M1005.5,42.1c0,0,21.4,31.1,0,57.1c0,0,8.4,0.1,15.7-1.6c0,0,19.1-27.4-2-53.5
		C1019.2,44.1,1012.8,41.8,1005.5,42.1z"/>
	<path class="st7" d="M980.5,47c0,0,10.4-4.1,17.7-4.5c0,0,9.1,45.9-6.2,56l-11.5-2C980.5,96.5,999.9,59.1,980.5,47z"/>
	<path class="st8" d="M1005.5,42.1c0,0,13.6,31.1,0,57.1l7.8,0c0,0,12.1-34.3-1.8-56.7L1005.5,42.1z"/>
	<path class="st8" d="M994,43.6c0,0,10.8,30-2,54.9l6.3,0.6c0,0,9.6-35.9,0-56.7L994,43.6z"/>
	<path class="st8" d="M1039.7,59.8c0,0,4.6,20.8-6.8,34.6l7.7-3.3c0,0,6.4-9.7,3.5-22.2L1039.7,59.8z"/>
	<circle class="st7" cx="981.6" cy="66.3" r="4.6"/>
</g>
<g>
	<path class="st9" d="M646,316.6c0,0,7.5-63.1,80.4-75.7s13.5,60.2,13.5,60.2s60.7,66.2-17.5,57C644.1,348.9,646,316.6,646,316.6z"
		/>
	<path class="st10" d="M693,319.7c0,0,14.3,16.1,26.6,5.5c12.3-10.6-9.9-15.1-9.9-15.1L693,319.7z"/>
	<circle class="st11" cx="677.2" cy="307.1" r="8"/>
</g>
<g>
	<path class="st9" d="M300.6,622c0,0,7.5-63.1,80.4-75.7s13.5,60.2,13.5,60.2s60.7,66.2-17.5,57S300.6,622,300.6,622z"/>
	<path class="st10" d="M347.5,625.1c0,0,14.3,16.1,26.6,5.5c12.3-10.6-9.9-15.1-9.9-15.1L347.5,625.1z"/>
	<circle class="st11" cx="331.8" cy="612.6" r="8"/>
</g>
<g>
	<path class="st9" d="M13.2,442.3c0,0,7.5-63.1,80.4-75.7s13.5,60.2,13.5,60.2s60.7,66.2-17.5,57S13.2,442.3,13.2,442.3z"/>
	<path class="st10" d="M60.1,445.3c0,0,14.3,16.1,26.6,5.5c12.3-10.6-9.9-15.1-9.9-15.1L60.1,445.3z"/>
	<circle class="st11" cx="44.4" cy="432.8" r="8"/>
</g>
</svg>
