<?xml version="1.0" encoding="utf-8"?>
<!-- Generator: Adobe Illustrator 22.1.0, SVG Export Plug-In . SVG Version: 6.00 Build 0)  -->
<svg version="1.1" id="Layer_1" xmlns="http://www.w3.org/2000/svg" xmlns:xlink="http://www.w3.org/1999/xlink" x="0px" y="0px"
	 viewBox="0 0 383.5 297.6" style="enable-background:new 0 0 383.5 297.6;" xml:space="preserve">
<style type="text/css">
	.st0{fill:#BCBDBF;}
	.st1{fill:#DF8C1B;}
	.st2{fill:#3972B9;}
	.st3{fill:#2B578E;}
	.st4{fill:none;stroke:#56A5C3;stroke-width:2;stroke-miterlimit:10;}
	.st5{fill:#C9CACC;}
	.st6{fill:#F99B1C;}
	.st7{fill:#FFFFFF;}
	.st8{fill:#ED1C24;}
	.st9{fill:none;stroke:#ED1C24;stroke-miterlimit:10;}
</style>
<g>
	<path class="st0" d="M261.9,107.9l29.4-80.2c0,0,3.4,67.3-20.2,87.1L261.9,107.9z"/>
	<path class="st1" d="M271.1,114.8l-9.2-6.9l-19.7,44.2c0,0,26.6,31.2,49.9,4.4C315.3,129.7,271.1,114.8,271.1,114.8z M279.4,145.7
		c-8.2,14.4-21.1,0.8-21.1,0.8l7.8-17.4C266.1,129.1,287.7,131.2,279.4,145.7z"/>
</g>
<title>Asset 22</title>
<g id="Layer_2_1_">
	<g id="_2">
		<path class="st2" d="M0,24c0,0,71.3-7.1,130.8-24c0,0,75.5,227.8,93.4,249.4c0,0-23.4,35.1-75.8,25.8c0,0-59.2-146.4-70.1-195.1
			l19.1,204.5c0,0-48.1,30.7-80.9-2.1L0,24z"/>
		<path class="st3" d="M0.8,37c0,0,90.1-12.3,133.7-26l-3.7-11c0,0-95.1,18.4-130.8,24L0.8,37z"/>
		<line class="st4" x1="119.7" y1="15.2" x2="213" y2="260.8"/>
		<line class="st4" x1="10.7" y1="37" x2="25.6" y2="289.7"/>
	</g>
</g>
<g>
	<path class="st5" d="M265.3,107.9l23.3-85.3c0,0-39.9,43.9-36.3,82.5L265.3,107.9z"/>
	<path class="st6" d="M212.1,123.2c1.6,35.5,41.8,27.5,41.8,27.5l12-46.9l-11.5-0.4C254.4,103.5,210.5,87.7,212.1,123.2z
		 M249.4,117.8l-4.7,18.5c0,0-18.6,2.7-16.1-13.8C231.2,106.1,249.4,117.8,249.4,117.8z"/>
</g>
<g>
	<path class="st7" d="M139.4,195.5c0,0,38.9-27.9,114.6,7.4s110.1-8.9,110.1-8.9l10.7,6.8c0,0-27.7,57.9-120.8,12.7
		c-72.7-35.2-107.1-5.3-107.1-5.3L139.4,195.5z"/>
	<polygon class="st8" points="364.1,193.9 374.8,200.8 383.5,193.9 373.8,185 	"/>
	<line class="st9" x1="364.1" y1="203.4" x2="370" y2="207.9"/>
	<line class="st9" x1="359" y1="207.9" x2="364.1" y2="214.1"/>
	<line class="st9" x1="352.1" y1="211" x2="357.7" y2="219.2"/>
	<line class="st9" x1="345.1" y1="214.1" x2="350.4" y2="223.5"/>
	<line class="st9" x1="296.3" y1="221.3" x2="296.5" y2="228.8"/>
	<line class="st9" x1="289" y1="219" x2="287.3" y2="226.9"/>
	<line class="st9" x1="281.2" y1="218.5" x2="279.3" y2="224.1"/>
	<line class="st9" x1="266.6" y1="210.9" x2="263.6" y2="217.7"/>
	<line class="st9" x1="258.9" y1="207.1" x2="255.8" y2="214.6"/>
	<line class="st9" x1="251" y1="205.5" x2="248.4" y2="210.3"/>
	<line class="st9" x1="244.5" y1="203.1" x2="241.9" y2="207.9"/>
	<line class="st9" x1="273.5" y1="215.1" x2="271.4" y2="221.1"/>
	<line class="st9" x1="213.5" y1="192.6" x2="211.4" y2="198.6"/>
	<line class="st9" x1="222.2" y1="194.2" x2="220.2" y2="200.2"/>
	<line class="st9" x1="228.9" y1="196.4" x2="226.8" y2="202.4"/>
	<line class="st9" x1="235" y1="198.6" x2="232.9" y2="204.6"/>
	<line class="st9" x1="334.7" y1="218.8" x2="338.5" y2="228.1"/>
	<line class="st9" x1="322.9" y1="220.9" x2="326.4" y2="230.7"/>
	<line class="st9" x1="313.5" y1="221.3" x2="313.5" y2="230.4"/>
	<line class="st9" x1="194.8" y1="189.2" x2="193.8" y2="196.4"/>
	<line class="st9" x1="304.1" y1="219.9" x2="304.1" y2="229.1"/>
	<line class="st9" x1="169.4" y1="188" x2="173.4" y2="197.2"/>
	<line class="st9" x1="183.3" y1="190" x2="183.3" y2="197.2"/>
	<line class="st9" x1="204.5" y1="190" x2="202.9" y2="197.2"/>
	<line class="st9" x1="162.2" y1="192.6" x2="165.6" y2="199.4"/>
	<line class="st9" x1="154.3" y1="194.2" x2="157.1" y2="202.4"/>
</g>
</svg>
