<?xml version="1.0" encoding="utf-8"?>
<!-- Generator: Adobe Illustrator 22.0.1, SVG Export Plug-In . SVG Version: 6.00 Build 0)  -->
<svg version="1.1" id="Layer_1" xmlns="http://www.w3.org/2000/svg" xmlns:xlink="http://www.w3.org/1999/xlink" x="0px" y="0px"
	 viewBox="0 0 499.3 611.9" style="enable-background:new 0 0 499.3 611.9;" xml:space="preserve">
<style type="text/css">
	.st0{fill:#C7987A;stroke:#FFFFFF;stroke-width:73;stroke-linecap:round;stroke-linejoin:round;}
	.st1{fill:#98755D;stroke:#FFFFFF;stroke-width:47;stroke-linecap:round;stroke-linejoin:round;}
	.st2{fill:#A0DBE8;stroke:#FFFFFF;stroke-width:47;stroke-linecap:round;stroke-linejoin:round;}
	.st3{fill:none;stroke:#98755D;stroke-width:47;stroke-linecap:round;stroke-miterlimit:10;}
	.st4{fill:#C7987A;}
	.st5{fill:#98755D;}
	.st6{fill:none;stroke:#98755D;stroke-width:10;stroke-linecap:round;stroke-miterlimit:10;}
	.st7{fill:#A0DBE8;}
	.st8{fill:#FFFFFF;}
</style>
<title>Asset 45</title>
<g id="Layer_2_2_">
	<g id="_2_1_">
		<path class="st0" d="M449.2,501.5V277c-225.1-65.5-400.5,0-400.5,0v224.5C270.8,585.6,449.2,501.5,449.2,501.5z M436.4,285.5
			c0,0-17.6,7.3-49.8,14.2c-46.6,11.4-95.8,14.2-139.9,12.9c-42.7-0.9-85.2-5.6-127.1-14c-10.3-2-16.2-3.4-16.2-3.4l0,0
			c-13.7-3.1-27.8-6.6-42.1-10.6C40,278.6,256.6,223.4,436.4,285.5z"/>
		<path class="st1" d="M410.1,293.2c-7.7,2.5-15.5,4.7-23.4,6.6c32.1-7,49.8-14.2,49.8-14.2c-179.8-62.1-375-0.8-375-0.8
			c14.3,4,28.3,7.6,42.1,10.6C260.3,264.2,410.1,293.2,410.1,293.2z"/>
		<path class="st1" d="M246.7,312.7c-42.6-1.3-85.2-6-127.1-14C161.5,307.1,204,311.8,246.7,312.7z"/>
		<path class="st2" d="M103.4,295.2L103.4,295.2c0,0,5.8,1.4,16.2,3.4c41.9,8.1,84.4,12.8,127.1,14.1c44.2,1.3,93.4-1.5,139.9-12.9
			c7.9-1.9,15.7-4.1,23.5-6.6C421.7,289.4,260.3,264.2,103.4,295.2z"/>
		<line class="st3" x1="93.1" y1="323.1" x2="93.1" y2="440.5"/>
		<line class="st3" x1="144.9" y1="363.9" x2="144.9" y2="489.1"/>
		<line class="st3" x1="270.3" y1="325.7" x2="270.3" y2="477.4"/>
		<line class="st3" x1="330.2" y1="380" x2="330.2" y2="496.5"/>
		<line class="st3" x1="384.3" y1="314.3" x2="384.3" y2="428.6"/>
		<path class="st4" d="M48.7,277c0,0,175.4-65.5,400.5,0v224.5c0,0-178.3,84.2-400.5,0L48.7,277L48.7,277z"/>
		<path class="st5" d="M61.4,284.6c0,0,195.2-61.2,375,0.8C436.4,285.5,285.1,347.6,61.4,284.6z"/>
		<line class="st6" x1="93.1" y1="323.1" x2="93.1" y2="440.5"/>
		<line class="st6" x1="144.9" y1="363.9" x2="144.9" y2="489.1"/>
		<line class="st6" x1="185.2" y1="373.9" x2="185.2" y2="416.2"/>
		<line class="st6" x1="270.3" y1="325.7" x2="270.3" y2="477.4"/>
		<line class="st6" x1="223.2" y1="437.6" x2="223.2" y2="520.7"/>
		<line class="st6" x1="177.1" y1="501.8" x2="177.1" y2="473.5"/>
		<line class="st6" x1="224.3" y1="333.1" x2="224.3" y2="368.6"/>
		<line class="st6" x1="146" y1="311.7" x2="146" y2="336.5"/>
		<line class="st6" x1="330.2" y1="380" x2="330.2" y2="496.5"/>
		<line class="st6" x1="303.7" y1="514.6" x2="303.7" y2="444.9"/>
		<line class="st6" x1="291.1" y1="341.8" x2="291.1" y2="382.7"/>
		<line class="st6" x1="384.3" y1="314.3" x2="384.3" y2="428.6"/>
		<line class="st6" x1="376.2" y1="445.6" x2="376.2" y2="489.1"/>
		<line class="st6" x1="409.5" y1="476.9" x2="409.5" y2="404.7"/>
		<line class="st6" x1="103.4" y1="461.7" x2="103.4" y2="489.8"/>
		<line class="st6" x1="338.2" y1="320.3" x2="338.2" y2="345.8"/>
		<line class="st6" x1="227.8" y1="391.3" x2="227.8" y2="405.4"/>
		<line class="st6" x1="256.5" y1="501.2" x2="256.5" y2="518.6"/>
		<line class="st6" x1="409.6" y1="303" x2="409.6" y2="323.2"/>
		<path class="st7" d="M103.4,295.2c0,0,167.2,41.3,302.4-2.1C405.8,293.2,260.3,264.2,103.4,295.2z"/>
		<circle class="st8" cx="61.4" cy="240.4" r="45"/>
		
			<ellipse transform="matrix(7.088902e-02 -0.9975 0.9975 7.088902e-02 -89.2 328.9512)" class="st8" cx="132" cy="212.4" rx="45" ry="45"/>
		<circle class="st8" cx="124.3" cy="257.5" r="45"/>
		
			<ellipse transform="matrix(7.088900e-02 -0.9975 0.9975 7.088900e-02 -194.2922 353.916)" class="st8" cx="92.8" cy="281.3" rx="45" ry="45"/>
		<circle class="st8" cx="165.1" cy="296.5" r="45"/>
		<circle class="st8" cx="197.4" cy="224.3" r="45"/>
		<circle class="st8" cx="217.8" cy="285.5" r="45"/>
		<circle class="st8" cx="262.9" cy="305.9" r="45"/>
		<circle class="st8" cx="262.9" cy="206.4" r="45"/>
		<circle class="st8" cx="270.6" cy="248.1" r="45"/>
		<circle class="st8" cx="348.8" cy="203" r="45"/>
		<circle class="st8" cx="308" cy="158" r="45"/>
		<circle class="st8" cx="330.1" cy="266.8" r="45"/>
		<circle class="st8" cx="348.8" cy="305.9" r="45"/>
		<circle class="st8" cx="404.1" cy="260.8" r="45"/>
		<circle class="st8" cx="410" cy="221.8" r="45"/>
		<circle class="st8" cx="436.4" cy="278.7" r="45"/>
	</g>
</g>
</svg>
