<?xml version="1.0" encoding="utf-8"?>
<!-- Generator: Adobe Illustrator 22.1.0, SVG Export Plug-In . SVG Version: 6.00 Build 0)  -->
<svg version="1.1" id="Layer_1" xmlns="http://www.w3.org/2000/svg" xmlns:xlink="http://www.w3.org/1999/xlink" x="0px" y="0px"
	 viewBox="0 0 499.3 611.9" style="enable-background:new 0 0 499.3 611.9;" xml:space="preserve">
<style type="text/css">
	.st0{fill:#C4C4C4;}
	.st1{fill:#DDDDDD;}
	.st2{fill:#A4D0D0;}
	.st3{fill:#FFFFFF;}
	.st4{fill:#848484;}
	.st5{fill:#F15847;}
	.st6{fill:#0196D0;}
	.st7{fill:#C2C4C6;}
	.st8{fill:#EBEBEC;}
	.st9{fill:#231F20;}
</style>
<title>Asset 45</title>
<g id="Layer_2_1_">
	<g id="_2">
		<path class="st0" d="M68.6,14l362.7,0.4c29.9,0,54,24.3,54,54.1l-0.5,475.4c0,29.9-24.3,54-54.1,54L68,597.5
			c-29.9,0-54-24.3-54-54.1L14.5,68C14.5,38.1,38.8,14,68.6,14z"/>
		<circle class="st1" cx="246.8" cy="364.9" r="168.5"/>
		<circle class="st2" cx="246.8" cy="364.9" r="134.3"/>
		<path class="st3" d="M154.2,303.4c-10.4,12.5-14.7,35.8-15.4,50.4c-0.9,20,4.6,40.3,16.6,56.4c12.1,16.2,39.7,13.4,29.9-10.1
			c-8.9-21.4-18.8-36.1-12.3-60.6c3.3-12.6,10.9-18,17-27.9c4.7-7.7,3.8-16.1-7.7-19c-8-2-16.4,1.4-23.1,6.2
			C157.4,300,155.7,301.6,154.2,303.4z"/>
		<path class="st4" d="M81.2,63.3L419.4,63c6.9,0,12.5,5.6,12.5,12.5l0.1,57.1c0,6.9-5.6,12.5-12.5,12.5l-338.2,0.4
			c-6.9,0-12.5-5.6-12.5-12.5l-0.1-57.1C68.7,68.9,74.3,63.3,81.2,63.3z"/>
		<circle class="st5" cx="403.9" cy="90.8" r="11.7"/>
		<circle class="st6" cx="403.9" cy="117.8" r="11.7"/>
		<rect x="87.7" y="82.3" transform="matrix(1 -1.047197e-03 1.047197e-03 1 -0.1111 0.239)" class="st7" width="281" height="48"/>
		
			<rect x="87.6" y="82.4" transform="matrix(1 -1.047197e-03 1.047197e-03 1 -9.876512e-02 0.1175)" class="st8" width="49" height="24"/>
		
			<rect x="136.7" y="106.3" transform="matrix(1 -1.047197e-03 1.047197e-03 1 -0.1238 0.1689)" class="st8" width="49" height="24"/>
		
			<rect x="185.6" y="82.3" transform="matrix(1 -1.047197e-03 1.047197e-03 1 -9.860392e-02 0.2201)" class="st8" width="49" height="24"/>
		
			<rect x="234.7" y="106.2" transform="matrix(1 -1.047197e-03 1.047197e-03 1 -0.1237 0.2715)" class="st8" width="49" height="24"/>
		
			<rect x="283.7" y="82.2" transform="matrix(1 -1.047197e-03 1.047197e-03 1 -9.844271e-02 0.3228)" class="st8" width="49" height="24"/>
		
			<rect x="332.7" y="82.1" transform="matrix(1 -1.047197e-03 1.047197e-03 1 -0.1109 0.3736)" class="st9" width="48" height="48"/>
	</g>
</g>
</svg>
