<?xml version="1.0" encoding="utf-8"?>
<!-- Generator: Adobe Illustrator 22.1.0, SVG Export Plug-In . SVG Version: 6.00 Build 0)  -->
<svg version="1.1" id="Layer_1" xmlns="http://www.w3.org/2000/svg" xmlns:xlink="http://www.w3.org/1999/xlink" x="0px" y="0px"
	 viewBox="0 0 342.4 197.4" style="enable-background:new 0 0 342.4 197.4;" xml:space="preserve">
<style type="text/css">
	.st0{fill:#F7CB20;}
	.st1{fill:#FFF349;}
	.st2{fill:none;}
	.st3{fill:#C6A405;}
</style>
<title>Asset 89</title>
<g id="Layer_2_1_">
	<g id="Layer_4">
		<path class="st0" d="M98.7,0h145c54.5,0,98.7,44.2,98.7,98.7l0,0c0,54.5-44.2,98.7-98.7,98.7h-145C44.2,197.3,0,153.2,0,98.7l0,0
			C0,44.2,44.2,0,98.7,0z"/>
		<path class="st1" d="M102.6,1h137.2c46.3,0,83.9,37.6,83.9,83.9l0,0c0,46.3-37.6,83.9-83.9,83.9H102.6
			c-46.3,0-83.9-37.6-83.9-83.9l0,0C18.7,38.6,56.2,1,102.6,1z"/>
	</g>
</g>
<rect x="28" y="60.2" class="st2" width="299" height="58.7"/>
<g>
	<path class="st3" d="M129.5,96.7c0,6.2-2,11.1-6.1,14.7c-4,3.6-9.9,5.4-17.6,5.4H90.2c-3.7,0-6.2-0.6-7.5-1.9c-1.3-1.3-2-3.6-2-7
		V58.5c0-3.4,0.6-6,1.8-7.6c1.2-1.7,3.8-2.5,7.8-2.5h13.2c6.8,0,11.9,1.5,15.4,4.4c3.5,2.9,5.2,7,5.2,12.1c0,3.1-0.8,5.7-2.3,7.9
		c-1.5,2.2-4.5,4.3-8.7,6.2c5.9,1.5,10.2,3.7,12.7,6.7C128.3,88.7,129.5,92.3,129.5,96.7z M111,68c0-2.5-0.8-4.5-2.5-6
		c-1.6-1.5-3.9-2.2-6.7-2.2h-7.7V76h7.8c2.8,0,5.1-0.8,6.7-2.3C110.2,72.1,111,70.2,111,68z M115.4,96.1c0-6-4.1-9-12.4-9h-8.9v18.2
		h9.2c4.1,0,7.1-0.8,9.1-2.4C114.4,101.3,115.4,99.1,115.4,96.1z"/>
	<path class="st3" d="M184.8,91.2c0,4-0.6,7.7-1.8,11c-1.2,3.3-2.9,6.2-5.2,8.6c-2.2,2.4-4.9,4.2-7.9,5.6c-3,1.4-6.4,2.1-10.1,2.1
		c-3.6,0-7-0.7-10.1-2.1c-3.1-1.4-5.8-3.3-7.9-5.6c-2.2-2.4-3.9-5.2-5.2-8.6c-1.3-3.3-1.9-7-1.9-11s0.6-7.6,1.9-11
		c1.3-3.3,3-6.2,5.2-8.5c2.2-2.4,4.9-4.2,7.9-5.6s6.4-2,10-2c3.7,0,7.1,0.7,10.1,2c3,1.4,5.6,3.2,7.9,5.6c2.2,2.4,4,5.2,5.2,8.5
		C184.2,83.6,184.8,87.2,184.8,91.2z M171.3,91.1c0-4.5-1.1-8-3.3-10.6c-2.2-2.6-4.9-3.8-8.1-3.8c-3.1,0-5.8,1.3-8,3.8
		c-2.3,2.5-3.4,6.1-3.4,10.7c0,4.7,1.1,8.3,3.3,10.8c2.2,2.6,4.9,3.8,8.1,3.8c3.3,0,6.1-1.3,8.2-3.9
		C170.2,99.2,171.3,95.6,171.3,91.1z"/>
	<path class="st3" d="M219.7,72.8c0,3.7-2.9,5.5-8.6,5.5h-2.5v29c0,3.4-0.5,6-1.4,7.7c-0.9,1.7-2.6,2.5-5,2.5s-4.1-0.8-5.1-2.5
		c-1-1.7-1.5-4.2-1.5-7.7v-29h-1.8c-2.3,0-4.2-0.5-5.5-1.5c-1.4-1-2-2.3-2-4c0-1.9,0.7-3.4,2.2-4.3c1.4-0.9,3.8-1.4,7.2-1.5v-8.2
		c0-3.4,0.5-6,1.5-7.7c1-1.7,2.7-2.5,5.1-2.5c2.3,0,4,0.8,4.9,2.5c1,1.7,1.5,4.2,1.5,7.7V67h2.6c2.6,0,4.7,0.5,6.2,1.5
		C218.9,69.4,219.7,70.9,219.7,72.8z"/>
	<path class="st3" d="M268.1,107.4c0,3.4-0.5,6-1.5,7.7c-1,1.7-2.7,2.5-5,2.5c-2.5,0-4.2-0.8-5.2-2.5c-1-1.7-1.5-4.2-1.5-7.7V89.6
		c0-4.7-0.7-8-2-10.1c-1.4-2.1-3.8-3.1-7.4-3.1c-3.3,0-5.6,1.1-7.1,3.3c-1.5,2.2-2.2,5.5-2.2,9.8v17.9c0,6.8-2.2,10.2-6.6,10.2
		c-2.4,0-4.1-0.8-5.1-2.5c-1-1.7-1.5-4.2-1.5-7.7V53.5c0-3.3,0.5-5.8,1.5-7.5c1-1.8,2.7-2.6,5.1-2.6c4.4,0,6.6,3.4,6.6,10.2v18.7
		c2.6-2.9,5-4.8,7.2-5.6c2.2-0.8,4.6-1.2,7.1-1.2c5.7,0,10.1,1.6,13.2,4.9c3.1,3.3,4.6,8.1,4.6,14.6V107.4z"/>
</g>
</svg>
