<?xml version="1.0" encoding="utf-8"?>
<!-- Generator: Adobe Illustrator 22.1.0, SVG Export Plug-In . SVG Version: 6.00 Build 0)  -->
<svg version="1.1" id="Layer_1" xmlns="http://www.w3.org/2000/svg" xmlns:xlink="http://www.w3.org/1999/xlink" x="0px" y="0px"
	 viewBox="0 0 499.3 534.2" style="enable-background:new 0 0 499.3 534.2;" xml:space="preserve">
<style type="text/css">
	.st0{fill:#F19121;}
	.st1{fill:#F6D4C1;}
	.st2{fill:#C7987A;}
	.st3{fill:#98755D;}
	.st4{fill:#A0DBE8;}
	.st5{fill:none;stroke:#98755D;stroke-width:47;stroke-linecap:round;stroke-miterlimit:10;}
	.st6{fill:none;stroke:#98755D;stroke-width:10;stroke-linecap:round;stroke-miterlimit:10;}
	.st7{fill:#FFFFFF;}
	.st8{fill:#F5B11A;}
</style>
<path class="st0" d="M95.2,95.7c0,0,28.6-35.8,95.2-18.1v50.9h-51.2L95.2,95.7z"/>
<path class="st0" d="M384.6,77.6c0,0,43.5-26.4,93,3.7L461.2,107l-85.8-5.4L384.6,77.6z"/>
<path class="st1" d="M166,112l-6-85.3c0,0-25-18.7-51.9-9.2s16.5,110.9,16.5,110.9L166,112z"/>
<path class="st1" d="M397.4,98.5l27.7-80.9c0,0,29-11.6,52.5,4.5s-44.5,102.9-44.5,102.9L397.4,98.5z"/>
<title>Asset 45</title>
<g id="Layer_2_2_">
	<g id="_2_1_">
		<path class="st2" d="M449.5,495.2V270.7c-225.1-65.5-400.5,0-400.5,0v224.5C271.1,579.3,449.5,495.2,449.5,495.2z M436.7,279.2
			c0,0-17.6,7.3-49.8,14.2c-46.6,11.4-95.8,14.2-139.9,12.9c-42.7-0.9-85.2-5.6-127.1-14c-10.3-2-16.2-3.4-16.2-3.4l0,0
			c-13.7-3.1-27.8-6.6-42.1-10.6C40.3,272.3,256.9,217.1,436.7,279.2z"/>
		<path class="st3" d="M410.4,286.9c-7.7,2.5-15.5,4.7-23.4,6.6c32.1-7,49.8-14.2,49.8-14.2c-179.8-62.1-375-0.8-375-0.8
			c14.3,4,28.3,7.6,42.1,10.6C260.6,257.9,410.4,286.9,410.4,286.9z"/>
		<path class="st3" d="M247,306.4c-42.6-1.3-85.2-6-127.1-14C161.8,300.8,204.3,305.5,247,306.4z"/>
		<path class="st4" d="M103.7,288.9L103.7,288.9c0,0,5.8,1.4,16.2,3.4c41.9,8.1,84.4,12.8,127.1,14.1c44.2,1.3,93.4-1.5,139.9-12.9
			c7.9-1.9,15.7-4.1,23.5-6.6C422,283.1,260.6,257.9,103.7,288.9z"/>
		<line class="st5" x1="93.4" y1="316.8" x2="93.4" y2="434.2"/>
		<line class="st5" x1="145.2" y1="357.6" x2="145.2" y2="482.8"/>
		<line class="st5" x1="270.6" y1="319.4" x2="270.6" y2="471.1"/>
		<line class="st5" x1="330.5" y1="373.7" x2="330.5" y2="490.2"/>
		<line class="st5" x1="384.6" y1="308" x2="384.6" y2="422.3"/>
		<path class="st2" d="M49,270.7c0,0,175.4-65.5,400.5,0v224.5c0,0-178.3,84.2-400.5,0L49,270.7L49,270.7z"/>
		<path class="st3" d="M61.7,278.3c0,0,195.2-61.2,375,0.8C436.7,279.2,285.4,341.3,61.7,278.3z"/>
		<line class="st6" x1="93.4" y1="316.8" x2="93.4" y2="434.2"/>
		<line class="st6" x1="145.2" y1="357.6" x2="145.2" y2="482.8"/>
		<line class="st6" x1="185.5" y1="367.6" x2="185.5" y2="409.9"/>
		<line class="st6" x1="270.6" y1="319.4" x2="270.6" y2="471.1"/>
		<line class="st6" x1="223.5" y1="431.3" x2="223.5" y2="514.4"/>
		<line class="st6" x1="177.4" y1="495.5" x2="177.4" y2="467.2"/>
		<line class="st6" x1="224.6" y1="326.8" x2="224.6" y2="362.3"/>
		<line class="st6" x1="146.3" y1="305.4" x2="146.3" y2="330.2"/>
		<line class="st6" x1="330.5" y1="373.7" x2="330.5" y2="490.2"/>
		<line class="st6" x1="304" y1="508.3" x2="304" y2="438.6"/>
		<line class="st6" x1="291.4" y1="335.5" x2="291.4" y2="376.4"/>
		<line class="st6" x1="384.6" y1="308" x2="384.6" y2="422.3"/>
		<line class="st6" x1="376.5" y1="439.3" x2="376.5" y2="482.8"/>
		<line class="st6" x1="409.8" y1="470.6" x2="409.8" y2="398.4"/>
		<line class="st6" x1="103.7" y1="455.4" x2="103.7" y2="483.5"/>
		<line class="st6" x1="338.5" y1="314" x2="338.5" y2="339.5"/>
		<line class="st6" x1="228.1" y1="385" x2="228.1" y2="399.1"/>
		<line class="st6" x1="256.8" y1="494.9" x2="256.8" y2="512.3"/>
		<line class="st6" x1="409.9" y1="296.7" x2="409.9" y2="316.9"/>
		<path class="st4" d="M103.7,288.9c0,0,167.2,41.3,302.4-2.1C406.1,286.9,260.6,257.9,103.7,288.9z"/>
		<circle class="st7" cx="61.7" cy="234.1" r="45"/>
		<ellipse class="st7" cx="132.4" cy="206" rx="45" ry="45"/>
		<circle class="st7" cx="124.6" cy="251.2" r="45"/>
		<ellipse class="st7" cx="93.2" cy="275" rx="45" ry="45"/>
		<circle class="st7" cx="165.4" cy="290.2" r="45"/>
		<circle class="st7" cx="197.7" cy="218" r="45"/>
		
			<ellipse transform="matrix(0.1602 -0.9871 0.9871 0.1602 -92.3998 449.7811)" class="st7" cx="218.1" cy="279.2" rx="45" ry="45"/>
		<circle class="st7" cx="263.2" cy="299.6" r="45"/>
		<circle class="st7" cx="280.7" cy="200.1" r="45"/>
		<circle class="st7" cx="270.9" cy="241.8" r="45"/>
		<circle class="st7" cx="349.1" cy="196.7" r="45"/>
		<circle class="st7" cx="242.7" cy="189.1" r="45"/>
		<circle class="st7" cx="330.4" cy="260.5" r="45"/>
		<circle class="st7" cx="349.1" cy="299.6" r="45"/>
		<circle class="st7" cx="404.4" cy="254.5" r="45"/>
		<circle class="st7" cx="410.3" cy="215.5" r="45"/>
		<circle class="st7" cx="436.7" cy="272.4" r="45"/>
	</g>
	<path class="st8" d="M384.6,77.6l-58.7,128.6c0,0-43.1,26.6-62.7,38.9s-8.3,34.1,22.2,15.4s18.7-7.4,18.7-7.4l-24.2,32.8
		c0,0,25.7-17.7,46.7,0.9c0,0,12.3-33.2,38.7-23.8c0,0,4.9-34.3,44.5-21.4l67.8-160.2C477.6,81.4,425.4,118.9,384.6,77.6z"/>
	<path class="st8" d="M95.2,95.7c0,0,79.2,13.9,95.2-18.1l28.7,145.5l16.6,18.2c0,0-31.1-15-44.7-1.1c0,0-20.7-18.1-40.5-0.3
		c0,0-0.5-25-22.4-16.8L95.2,95.7z"/>
</g>
<path class="st0" d="M461.2,98.5L406.1,230c0,0-24.1-2.6-40.6,15.1l60.7-138.4C426.2,106.7,448.5,107,461.2,98.5z"/>
<path class="st0" d="M185.5,93.2l27.3,131.2c0,0-13.9-4.6-17.9,5.6l-25.3-128.5C169.6,101.5,175,101.6,185.5,93.2z"/>
</svg>
