<svg xmlns="http://www.w3.org/2000/svg" viewBox="0 0 499.28 611.92"><defs><style>.cls-1{fill:#c4c4c4;stroke:#fff;stroke-miterlimit:10;stroke-width:28px;}.cls-2{fill:#ddd;}.cls-3{fill:#a4d0d0;}.cls-4{fill:#fff;}.cls-5{fill:#848484;}.cls-6{fill:#f15847;}.cls-7{fill:#0196d0;}.cls-8{fill:#c2c4c6;}.cls-9{fill:#ebebec;}.cls-10{fill:#231f20;}</style></defs><title>Asset 45</title><g id="Layer_2" data-name="Layer 2"><g id="_2" data-name="2"><rect class="cls-1" x="14.26" y="14.2" width="470.76" height="583.53" rx="54.05" ry="54.05" transform="translate(0.33 -0.27) rotate(0.06)"/><circle class="cls-2" cx="246.83" cy="364.95" r="168.5"/><circle class="cls-3" cx="246.83" cy="364.95" r="134.28"/><path class="cls-4" d="M154.2,303.38c-10.43,12.48-14.73,35.84-15.4,50.37-.92,19.95,4.62,40.34,16.63,56.41,12.14,16.24,39.66,13.36,29.9-10.13-8.9-21.42-18.77-36.11-12.26-60.62,3.33-12.56,10.89-18,17-27.91,4.73-7.69,3.81-16.15-7.71-19-8-2-16.42,1.37-23.11,6.17A27.77,27.77,0,0,0,154.2,303.38Z"/><rect class="cls-5" x="68.7" y="63.17" width="363.23" height="82.07" rx="12.5" ry="12.5" transform="translate(-0.11 0.25) rotate(-0.06)"/><circle class="cls-6" cx="403.85" cy="90.81" r="11.73"/><circle class="cls-7" cx="403.88" cy="117.81" r="11.73"/><rect class="cls-8" x="87.66" y="82.26" width="281" height="48" transform="translate(-0.11 0.23) rotate(-0.06)"/><rect class="cls-9" x="87.65" y="82.38" width="49" height="24" transform="translate(-0.1 0.11) rotate(-0.06)"/><rect class="cls-9" x="136.68" y="106.33" width="49" height="24" transform="translate(-0.12 0.16) rotate(-0.06)"/><rect class="cls-9" x="185.65" y="82.28" width="49" height="24" transform="translate(-0.1 0.21) rotate(-0.06)"/><rect class="cls-9" x="234.68" y="106.23" width="49" height="24" transform="translate(-0.12 0.26) rotate(-0.06)"/><rect class="cls-9" x="283.65" y="82.18" width="49" height="24" transform="translate(-0.09 0.31) rotate(-0.06)"/><rect class="cls-10" x="332.66" y="82.13" width="48" height="48" transform="translate(-0.11 0.36) rotate(-0.06)"/></g></g></svg>