<?xml version="1.0" encoding="utf-8"?>
<!-- Generator: Adobe Illustrator 22.1.0, SVG Export Plug-In . SVG Version: 6.00 Build 0)  -->
<svg version="1.1" id="Layer_1" xmlns="http://www.w3.org/2000/svg" xmlns:xlink="http://www.w3.org/1999/xlink" x="0px" y="0px"
	 viewBox="0 0 296 170.7" style="enable-background:new 0 0 296 170.7;" xml:space="preserve">
<style type="text/css">
	.st0{fill:#B50029;}
	.st1{fill:#FF0029;}
	.st2{fill:#F9C7DD;}
	.st3{enable-background:new    ;}
	.st4{fill:#FFFFFF;}
</style>
<title>Asset 88</title>
<g id="Layer_2_1_">
	<g id="Layer_4">
		<path class="st0" d="M85.3,0h125.4C257.8,0,296,38.2,296,85.3l0,0c0,47.1-38.2,85.3-85.3,85.3H85.3C38.2,170.7,0,132.5,0,85.3l0,0
			C0,38.2,38.2,0,85.3,0z"/>
		<path class="st1" d="M84.7,0h126.6c42.8,0,77.4,34.7,77.4,77.4l0,0c0,42.8-34.7,77.4-77.4,77.4H84.7c-42.8,0-77.4-34.7-77.4-77.4
			l0,0C7.3,34.7,41.9,0,84.7,0z"/>
		<path class="st2" d="M44.9,45.2c7.6,0,11.3,7.8,8.1,13.8c-3.8,7.3-5.5,15.5-5.1,23.8c0.5,8.2,2.3,16.2,5.2,23.9
			c1.2,3.5,1.6,5.9-1.1,9c-1.8,2.1-4.4,3.3-7.2,3.3c-12.2,0-13.8-18.2-14.2-26.7c-0.6-10.3,0-20.7,1.9-30.8
			C33.8,54.6,36,45.2,44.9,45.2z"/>
		<path class="st2" d="M57.8,33.6L57.8,33.6c-5.3,0-9.5-4.3-9.5-9.5l0,0c0-5.3,4.3-9.5,9.5-9.5l0,0c5.3,0,9.5,4.3,9.5,9.5l0,0
			C67.3,29.3,63,33.6,57.8,33.6z"/>
		<g class="st3">
			<path class="st4" d="M117.3,99.2c0,2.2-0.3,3.8-1,5s-1.9,1.8-3.7,1.8c-2.2,0-4.3-1.4-6.2-4.1L82.6,70v27.8c0,5.2-1.7,7.8-5.2,7.8
				c-1.9,0-3.2-0.6-4-1.9s-1.2-3.3-1.2-5.9V59.1c0-2.4,0.4-4.2,1.1-5.5s1.9-1.9,3.6-1.9c1.2,0,2.2,0.3,3.1,0.9
				c0.9,0.6,1.8,1.5,2.8,2.8l24.1,32.3V59.6c0-2.6,0.4-4.6,1.2-5.9c0.8-1.3,2.1-2,4.1-2c3.4,0,5.1,2.6,5.1,7.9
				C117.3,59.6,117.3,99.2,117.3,99.2z"/>
			<path class="st4" d="M156.3,100.3c0,1.7-0.6,2.9-1.9,3.6c-1.3,0.7-3.2,1.1-5.9,1.1h-14.3c-2.8,0-4.8-0.5-5.8-1.4
				c-1-1-1.5-2.8-1.5-5.4v-38c0-2.6,0.5-4.6,1.4-5.9c0.9-1.3,2.9-1.9,6-1.9h13.9c2.5,0,4.4,0.4,5.7,1.1c1.3,0.7,2,2,2,3.7
				c0,1.8-0.7,3-2,3.7s-3.3,1.1-5.7,1.1h-10.9v11.5h9.5c5.2,0,7.8,1.6,7.8,4.9c0,1.7-0.7,2.9-2,3.6s-3.3,1.1-5.9,1.1h-9.5v12.1h11.3
				c2.6,0,4.6,0.4,5.9,1.1C155.7,97.2,156.3,98.5,156.3,100.3z"/>
			<path class="st4" d="M201.2,101.2c0,1.1-0.4,2.1-1.3,3c-0.9,0.9-2,1.3-3.2,1.3s-2.3-0.4-3.1-1.1c-0.9-0.7-1.9-1.8-2.9-3.2
				l-11.5-16.7l-11.5,16.6c-1.1,1.4-2,2.5-2.8,3.2s-1.7,1.1-2.8,1.1c-1.3,0-2.4-0.5-3.3-1.4c-0.9-0.9-1.3-1.9-1.3-3
				c0-1,0.2-2,0.7-2.8c0.5-0.9,1.1-1.8,1.9-2.9l13.6-19.1L163,62c-0.7-1.1-1.2-2-1.8-2.9c-0.5-0.9-0.8-1.8-0.8-2.8
				c0-1.3,0.5-2.4,1.4-3.3c0.9-0.9,2.1-1.3,3.6-1.3c1.1,0,2,0.4,2.8,1.1s1.7,1.8,2.7,3.3l8.5,11.8l8.2-12c2.2-2.8,4.1-4.3,5.8-4.3
				c1.2,0,2.3,0.5,3.1,1.4c0.9,0.9,1.3,1.9,1.3,3s-0.3,2.1-0.8,3c-0.6,0.9-1.1,1.8-1.7,2.7l-10.2,14.5l13.3,19.4
				c0.7,1.1,1.3,2,1.9,2.8S201.2,100.1,201.2,101.2z"/>
			<path class="st4" d="M235.4,57.3c0,1.8-0.6,3-1.9,3.7s-3.2,1.1-5.8,1.1h-5.5v35.7c0,2.6-0.4,4.6-1.2,5.9s-2.1,1.9-4,1.9
				s-3.3-0.6-4.1-1.9s-1.2-3.3-1.2-5.9V62.1h-5.4c-2.6,0-4.6-0.4-5.9-1.1c-1.3-0.7-1.9-2-1.9-3.7c0-1.8,0.6-3,1.9-3.7
				c1.3-0.7,3.2-1.1,5.9-1.1h21.3c2.6,0,4.6,0.4,5.8,1.1C234.8,54.3,235.4,55.5,235.4,57.3z"/>
		</g>
	</g>
</g>
</svg>
