<svg id="Layer_1" data-name="Layer 1" xmlns="http://www.w3.org/2000/svg" viewBox="0 0 1221.3 552.87"><defs><style>.cls-1{fill:#00b2d1;}.cls-2{fill:none;stroke:#fff;stroke-linecap:round;stroke-miterlimit:10;stroke-width:15px;}.cls-3{fill:#fcd00b;}.cls-4{fill:#f7921e;}.cls-5{fill:#d3edff;}</style></defs><title>ped</title><path class="cls-1" d="M173.9,385.1s114.8,6,164.2,40.2c45.3,31.4,159-27.1,159-27.1s-87.7,20.5-121.7,11.3C296.6,388.4,212.6,381.3,173.9,385.1Z" transform="translate(-20.9 -0.04)"/><path class="cls-2" d="M468.5,385.3s-46.1-8.3-57.6,40.3" transform="translate(-20.9 -0.04)"/><path class="cls-3" d="M270.5,49.3S289.7-2,358.2.1,467.3,36.5,458.7,87.8,386,184,413.8,224.6,529.3,269.5,555,213.9s72.7-25.7,72.7-25.7-27.8,8.1-27.8,67.1S589.2,441.6,409.5,424,205.2,250.3,281.7,199s61.2-85.5,20.7-89.8S253.9,73.2,270.5,49.3Z" transform="translate(-20.9 -0.04)"/><path class="cls-4" d="M259.4,73.3s-35,17.8-76.3,20.8-4.9,41.6,76.3,23.8c19.3-4.2,49,1.7,54.4-6.5C331.2,84.9,271.9,37.1,259.4,73.3Z" transform="translate(-20.9 -0.04)"/><circle class="cls-5" cx="87.5" cy="384.06" r="87.5"/><path class="cls-2" d="M132.9,315.6s-72-13-90,63" transform="translate(-20.9 -0.04)"/><circle class="cls-5" cx="215.2" cy="346.66" r="87.5"/><path class="cls-2" d="M260.6,278.2s-72-13-90,63" transform="translate(-20.9 -0.04)"/><circle class="cls-5" cx="194.7" cy="434.56" r="87.5"/><path class="cls-2" d="M240.1,366.1s-72-13-90,63" transform="translate(-20.9 -0.04)"/><circle class="cls-5" cx="327.2" cy="409.36" r="87.5"/><path class="cls-2" d="M372.6,340.9s-72-13-90,63" transform="translate(-20.9 -0.04)"/><circle class="cls-5" cx="1087.2" cy="347.06" r="87.5"/><path class="cls-2" d="M1132.6,278.6s-72-13-90,63" transform="translate(-20.9 -0.04)"/><circle class="cls-5" cx="952.7" cy="403.86" r="87.5"/><path class="cls-2" d="M998.1,335.4s-72-13-90,63" transform="translate(-20.9 -0.04)"/><circle class="cls-5" cx="431.9" cy="429.06" r="56"/><circle class="cls-5" cx="1165.3" cy="404.36" r="56"/><path class="cls-2" d="M1201.8,360.6s-46.1-8.3-57.6,40.3" transform="translate(-20.9 -0.04)"/><circle class="cls-5" cx="516.8" cy="396.46" r="56"/><path class="cls-2" d="M553.4,352.7s-46.1-8.3-57.6,40.3" transform="translate(-20.9 -0.04)"/><circle class="cls-5" cx="108.38" cy="496.91" r="56" transform="translate(-415.54 571.95) rotate(-86.19)"/><path class="cls-2" d="M124.1,453.1S78,444.8,66.5,493.4" transform="translate(-20.9 -0.04)"/><circle class="cls-5" cx="1087.2" cy="420.66" r="87.5"/><path class="cls-2" d="M1132.6,352.2s-72-13-90,63" transform="translate(-20.9 -0.04)"/></svg>