<?xml version="1.0" encoding="utf-8"?>
<!-- Generator: Adobe Illustrator 22.0.1, SVG Export Plug-In . SVG Version: 6.00 Build 0)  -->
<svg version="1.1" id="Layer_1" xmlns="http://www.w3.org/2000/svg" xmlns:xlink="http://www.w3.org/1999/xlink" x="0px" y="0px"
	 viewBox="0 0 1243 1833.8" style="enable-background:new 0 0 1243 1833.8;" xml:space="preserve">
<style type="text/css">
	.st0{fill:#D5BEDC;}
	.st1{fill:none;stroke:#B3A0BA;stroke-width:12;stroke-miterlimit:10;}
</style>
<title>watersm4</title>
<polygon class="st0" points="1,1841.5 1243,1841.5 1242,1088.5 0,1088.5 "/>
<line class="st1" x1="153" y1="1088.5" x2="153" y2="1841.5"/>
<line class="st1" x1="303" y1="1088.5" x2="303" y2="1841.5"/>
<line class="st1" x1="464" y1="1088.5" x2="464" y2="1841.5"/>
<line class="st1" x1="622" y1="1088.5" x2="622" y2="1841.5"/>
<line class="st1" x1="781" y1="1088.5" x2="781" y2="1841.5"/>
<line class="st1" x1="948" y1="1088.5" x2="948" y2="1841.5"/>
<line class="st1" x1="1097" y1="1088.5" x2="1097" y2="1841.5"/>
<line class="st1" x1="0" y1="1242.6" x2="1242.2" y2="1242.6"/>
<line class="st1" x1="0" y1="1403.6" x2="1242.2" y2="1403.6"/>
<polygon class="st0" points="1,1088.8 1243,1088.8 1242,0 0,0 "/>
<line class="st1" x1="153" y1="0" x2="153" y2="1088.8"/>
<line class="st1" x1="303" y1="0" x2="303" y2="1088.8"/>
<line class="st1" x1="464" y1="0" x2="464" y2="1088.8"/>
<line class="st1" x1="622" y1="0" x2="622" y2="1088.8"/>
<line class="st1" x1="781" y1="0" x2="781" y2="1088.8"/>
<line class="st1" x1="948" y1="0" x2="948" y2="1088.8"/>
<line class="st1" x1="1097" y1="0" x2="1097" y2="1088.8"/>
<line class="st1" x1="0" y1="489.9" x2="1242.2" y2="489.9"/>
<line class="st1" x1="0" y1="928.6" x2="1242.2" y2="928.6"/>
<line class="st1" x1="0" y1="1089.6" x2="1242.2" y2="1089.6"/>
<line class="st1" x1="0.9" y1="631.8" x2="1243.1" y2="631.8"/>
<line class="st1" x1="0.9" y1="792.8" x2="1243.1" y2="792.8"/>
<line class="st1" x1="0" y1="32.1" x2="1242.2" y2="32.1"/>
<line class="st1" x1="0.9" y1="174" x2="1243.1" y2="174"/>
<line class="st1" x1="0.9" y1="335" x2="1243.1" y2="335"/>
<line class="st1" x1="0" y1="1556.6" x2="1242.2" y2="1556.6"/>
<line class="st1" x1="0" y1="1717.6" x2="1242.2" y2="1717.6"/>
</svg>
