<?xml version="1.0" encoding="utf-8"?>
<!-- Generator: Adobe Illustrator 22.1.0, SVG Export Plug-In . SVG Version: 6.00 Build 0)  -->
<svg version="1.1" id="Layer_1" xmlns="http://www.w3.org/2000/svg" xmlns:xlink="http://www.w3.org/1999/xlink" x="0px" y="0px"
	 viewBox="0 0 753.7 678" style="enable-background:new 0 0 753.7 678;" xml:space="preserve">
<style type="text/css">
	.st0{fill:#00A451;}
	.st1{fill:#C2BE30;}
	.st2{fill:#B1C43D;}
	.st3{fill:#27734F;}
	.st4{fill:#3FB449;}
	.st5{fill:#B1C43B;}
	.st6{fill:#FCDBCC;}
	.st7{fill:#93ABC0;}
	.st8{fill:#768A9B;}
	.st9{fill:#FFFFFF;}
	.st10{fill:#E8E8DD;}
	.st11{fill:#7DC89B;}
	.st12{fill:#68A983;}
	.st13{fill:#6DCFF2;}
	.st14{fill:#00B9ED;}
	.st15{fill:#C2E8F5;}
	.st16{fill:#5A4236;}
	.st17{fill:#7F5E4E;}
	.st18{fill:#EDBDAD;}
	.st19{fill:#FFE500;}
	.st20{fill:#FABAA7;}
	.st21{fill:#F8A68E;stroke:#F8A68E;stroke-width:4;stroke-linecap:round;stroke-miterlimit:10;}
	.st22{fill:#8A6B5C;}
</style>
<path class="st0" d="M62.6,544c3.9-7.1,12.4-11.4,20.4-10.2s14.9,7.7,16.6,15.6c5.9-7.1,13.7-12.6,22.3-15.9
	c1.4,4.8,2.9,9.6,4.3,14.4c0.9-7.6,8.5-13.9,16.1-12.8s13.1,9.8,10.5,17c1.4-7.1,7.9-12.8,15.1-13.3c7.2-0.5,14.4,4.4,16.7,11.2
	c3.7-5.8,7.6-11.8,13.5-15.1c6-3.3,14.7-2.8,18.4,2.9c3.7,5.8,1.5,14.7,6.7,19c3-6.1,6.2-12.3,11.5-16.7s13.1-6.2,18.9-2.7
	c5.8,3.5,7.1,13.4,1.3,16.9c3.5-5.5,7-10.9,10.5-16.4c5.6,6.1,10.3,13,14,20.5c-4.9-9.9,7.2-22.3,17.9-19.2
	c10.6,3.1,15.4,17.2,10.7,27.2c-1.8-9.8,7.5-20,17.4-19.1s17.3,12.5,13.8,21.9c3.1-10.3,12.3-19.1,23-19.2s20.7,11.1,17.5,21.3
	c5.6-11.2,14.4-22.3,26.8-23.9c12.4-1.6,25.6,12.6,18.9,23.1c0.7-10.3,6.4-21.6,16.5-23.7c10.1-2.1,20.7,11.7,13.3,19
	c5.4-10.2,13.5-20.4,24.9-22s23.7,11.6,17.3,21.2c6.1-7.4,12.3-14.9,20.4-19.9c8.2-5,18.8-7,27.3-2.8c8.6,4.2,13.4,16,8.2,24
	c7.3-11.1,19-19.2,31.9-22.3c0.5,6.7-0.6,13.5-3.1,19.7c5.6-8.1,12.2-16.9,21.9-18.4s20.3,10.6,13.7,18c6.4-2.9,11.2-8.3,16.9-12.4
	c5.7-4,13.7-6.5,19.6-2.8c5.9,3.7,4.9,15.4-2.1,15.7c7.9-4.6,17.1-6.8,26.2-6.2c0.3,5.9-2.3,12-6.8,15.8c6.8-2.5,14.9-4.4,20.9-0.3
	c6,4.1,5,16.1-2.3,16.2c6.3-5.8,18.5-1.1,19.4,7.4s-9.6,15.8-17.4,12.1c5.1,1.1,8.7,7,7.4,12.1s-7.3,8.5-12.3,7
	c4.4,1.8,8.7,3.5,13.1,5.3c-13.7,12.8-30.9,21.8-49.2,25.9c-12.9,2.9-26.3,3.3-39.5,3.8c-44.5,1.5-89,2.9-133.5,4.4
	c-28.7,1-57.4,1.9-86,0.7c-47.7-1.9-95.7-9.6-142.9-2.5c-19.1,2.9-37.9,8.2-57.1,10.6c-40.5,5-81.4-3.4-121.4-11.7
	c-7.7-1.6-15.6-3.3-22-7.9s-10.8-12.9-8.4-20.3c-4.9,0.9-10.2,1.8-14.8-0.3c-4.5-2.1-7.4-8.5-4.1-12.3c0.1-0.1-11.1-12.6,0.6-17.3
	c-8.1,3.3-9.7-16.3-9.7-18.8c0-2.2,4.4-3,3.6-5.9c-0.5-2.1-9.3-6.3-11.2-8.3c-1.2-1.3-2.3-2.8-2.3-4.5c0-3,3.3-4.9,6.2-5.1
	c3-0.2,5.9,0.7,8.9,0.3c8.6-1,5-14.7,10.9-19.4c2.3,1.8,3.1,4.2,3.9,7.1c3.3-6.6,7.7-16.1,15.8-17.8C54.4,533.1,63.6,536.6,62.6,544
	z"/>
<g>
	<g>
		<path class="st1" d="M26.1,592.2c0.4,2.7,1.7,5.1,2,7.8c0.2,1.4,1,2.5,2.5,2.5c1.2,0,2.7-1.2,2.5-2.5c-0.4-3.2-1.8-6-2.2-9.1
			c-0.2-1.3-1.9-2.1-3.1-1.7C26.4,589.6,26,590.9,26.1,592.2L26.1,592.2z"/>
	</g>
</g>
<g>
	<g>
		<g>
			<path class="st2" d="M49.4,571.5c0,2.7,0.7,5.3,1,7.9c0.3,3,0.1,6,0,9c0,3.2,5,3.2,5,0c0-2.9,0.3-5.9,0-8.8
				c-0.2-2.7-1-5.4-1.1-8.1C54.3,568.2,49.3,568.2,49.4,571.5L49.4,571.5z"/>
		</g>
	</g>
	<g>
		<g>
			<path class="st2" d="M87.5,572.5c0.3,4.2,1,8.4,1.1,12.7c0,3.2,5,3.2,5,0c0-4.3-0.7-8.5-1.1-12.7
				C92.2,569.3,87.2,569.3,87.5,572.5L87.5,572.5z"/>
		</g>
	</g>
	<g>
		<g>
			<path class="st2" d="M65.2,632.9c0,0.7,0,1.4,0,2.1c0,1.3,1.1,2.6,2.5,2.5s2.5-1.1,2.5-2.5c0-0.7,0-1.4,0-2.1
				c0-1.3-1.1-2.6-2.5-2.5C66.4,630.5,65.2,631.5,65.2,632.9L65.2,632.9z"/>
		</g>
	</g>
	<g>
		<g>
			<path class="st2" d="M140.5,583.1c-0.6,4.6-1.2,9.1-1.1,13.8c0.1,3.2,5.1,3.2,5,0c-0.1-4.6,0.5-9.2,1.1-13.8
				C145.9,579.9,140.9,580,140.5,583.1L140.5,583.1z"/>
		</g>
	</g>
	<g>
		<g>
			<path class="st2" d="M68.4,604.3c0.2,2,0.6,4,1.1,6c0.9,3.1,5.7,1.8,4.8-1.3c-0.4-1.5-0.8-3-1-4.6c-0.1-1.3-1.1-2.5-2.5-2.5
				C69.7,601.8,68.3,602.9,68.4,604.3L68.4,604.3z"/>
		</g>
	</g>
	<g>
		<g>
			<path class="st2" d="M72.7,543.9c0,3.5,0,7.1,0,10.6c0,3.2,5,3.2,5,0c0-3.5,0-7.1,0-10.6C77.7,540.7,72.7,540.7,72.7,543.9
				L72.7,543.9z"/>
		</g>
	</g>
	<g>
		<g>
			<path class="st2" d="M110.1,630.6c-1.8,3.6-3.1,7.4-4.5,11.2c-1.1,3,3.7,4.3,4.8,1.3c1.3-3.4,2.4-6.8,4-10
				C115.8,630.2,111.5,627.7,110.1,630.6L110.1,630.6z"/>
		</g>
	</g>
	<g>
		<g>
			<path class="st2" d="M89.6,631.8c0,2.5,0,4.9,0,7.4c0,3.2,5,3.2,5,0c0-2.5,0-4.9,0-7.4C94.6,628.6,89.6,628.6,89.6,631.8
				L89.6,631.8z"/>
		</g>
	</g>
	<g>
		<g>
			<path class="st2" d="M109.7,593.7c0,2.1,0,4.2,0,6.4c0,3.2,5,3.2,5,0c0-2.1,0-4.2,0-6.4C114.7,590.5,109.7,590.5,109.7,593.7
				L109.7,593.7z"/>
		</g>
	</g>
	<g>
		<g>
			<path class="st2" d="M127.8,550.3c0.4,3.5,1,7,1.1,10.6c0.1,3.2,5.1,3.2,5,0c-0.1-3.6-0.6-7.1-1.1-10.6
				C132.4,547.1,127.4,547.1,127.8,550.3L127.8,550.3z"/>
		</g>
	</g>
	<g>
		<g>
			<path class="st2" d="M190.3,567.2c0,2.9,0.3,5.9-0.2,8.8c-0.4,2.4-1,4.6-0.8,7.1c0.2,3.2,5.2,3.2,5,0c-0.2-2.6,0.6-5,0.9-7.5
				c0.3-2.8,0.1-5.6,0.1-8.4C195.3,564,190.3,564,190.3,567.2L190.3,567.2z"/>
		</g>
	</g>
	<g>
		<g>
			<path class="st2" d="M160.6,613.8c0,3.5,0,7.1,0,10.6c0,3.2,5,3.2,5,0c0-3.5,0-7.1,0-10.6C165.6,610.6,160.6,610.6,160.6,613.8
				L160.6,613.8z"/>
		</g>
	</g>
	<g>
		<g>
			<path class="st2" d="M169.2,574.2c0.3,2.3,1.1,4.4,1,6.8c-0.2,3.2,4.8,3.2,5,0c0.2-2.8-0.8-5.4-1.1-8.1c-0.2-1.3-1.9-2.1-3.1-1.7
				C169.5,571.6,169,572.9,169.2,574.2L169.2,574.2z"/>
		</g>
	</g>
	<g>
		<g>
			<path class="st2" d="M136.2,634c0,2.1,0,4.2,0,6.4c0,3.2,5,3.2,5,0c0-2.1,0-4.2,0-6.4C141.2,630.7,136.2,630.7,136.2,634
				L136.2,634z"/>
		</g>
	</g>
	<g>
		<g>
			<path class="st2" d="M195.6,625.5c0,3.5,0,7.1,0,10.6c0,3.2,5,3.2,5,0c0-3.5,0-7.1,0-10.6C200.6,622.3,195.6,622.3,195.6,625.5
				L195.6,625.5z"/>
		</g>
	</g>
	<g>
		<g>
			<path class="st2" d="M156.4,653c0,3.9,0,7.8,0,11.7c0,3.2,5,3.2,5,0c0-3.9,0-7.8,0-11.7C161.4,649.8,156.4,649.8,156.4,653
				L156.4,653z"/>
		</g>
	</g>
	<g>
		<g>
			<path class="st2" d="M234.4,602.9c3,3,3.5,5.8,3.5,9.9c0,3.2,5,3.2,5,0c-0.1-5.4-1.1-9.5-5-13.4
				C235.7,597.1,232.2,600.6,234.4,602.9L234.4,602.9z"/>
		</g>
	</g>
	<g>
		<g>
			<path class="st2" d="M222.1,639.7c-0.3,1.8-1.1,3.6-1.2,5.4c-0.2,2,0.8,3.6,1.2,5.4c0.6,3.2,5.4,1.8,4.8-1.3
				c-0.3-1.3-1.2-2.6-1-4c0.1-1.4,0.8-2.8,1-4.2C227.5,637.8,222.6,636.5,222.1,639.7L222.1,639.7z"/>
		</g>
	</g>
	<g>
		<g>
			<path class="st2" d="M217.9,584.8c0.3,2.3,1.1,4.4,1,6.8c-0.2,3.2,4.8,3.2,5,0c0.2-2.8-0.8-5.4-1.1-8.1c-0.2-1.3-1.9-2.1-3.1-1.7
				C218.2,582.2,217.7,583.5,217.9,584.8L217.9,584.8z"/>
		</g>
	</g>
	<g>
		<g>
			<path class="st2" d="M284.6,572.5c0.3,4.6,1,9.2,1.1,13.8c0.1,3.2,5.1,3.2,5,0c-0.1-4.6-0.7-9.2-1.1-13.8
				C289.3,569.3,284.3,569.3,284.6,572.5L284.6,572.5z"/>
		</g>
	</g>
	<g>
		<g>
			<path class="st2" d="M241.1,568.3c0,1.8,0.7,3.2,1.1,4.9c0.3,1.3,1.8,2.1,3.1,1.7c1.3-0.4,2.1-1.8,1.7-3.1
				c-0.2-0.7-0.4-1.3-0.6-1.9c-0.1-0.3-0.2-0.6-0.3-0.9c-0.1-0.3-0.1-0.4,0-0.1c0-0.2,0-0.4,0-0.6c0-1.4-1.2-2.5-2.5-2.5
				C242.3,565.8,241.1,566.9,241.1,568.3L241.1,568.3z"/>
		</g>
	</g>
	<g>
		<g>
			<path class="st2" d="M285.7,630.4c0.6,2.3,1,4.4,1,6.8c0,3.2,5,3.2,5,0c0-2.8-0.4-5.4-1.1-8.1C289.7,626,284.8,627.3,285.7,630.4
				L285.7,630.4z"/>
		</g>
	</g>
	<g>
		<g>
			<path class="st2" d="M268.7,599c-0.4,3.5-1,7-1.1,10.6c-0.1,3.2,4.9,3.2,5,0c0.1-3.6,0.6-7.1,1.1-10.6
				C274.1,595.8,269,595.8,268.7,599L268.7,599z"/>
		</g>
	</g>
	<g>
		<g>
			<path class="st2" d="M259.1,639.3c0,2.5,0,4.9,0,7.4c0,3.2,5,3.2,5,0c0-2.5,0-4.9,0-7.4C264.1,636,259.1,636,259.1,639.3
				L259.1,639.3z"/>
		</g>
	</g>
	<g>
		<g>
			<path class="st2" d="M321.6,602.2c0.4,4.6,1,9.2,1.1,13.8c0,3.2,5,3.2,5,0c0-4.6-0.7-9.2-1.1-13.8
				C326.4,599,321.4,599,321.6,602.2L321.6,602.2z"/>
		</g>
	</g>
	<g>
		<g>
			<path class="st2" d="M331.2,654.1c-0.2,1.6-0.5,3.1-1,4.6c-0.9,3.1,3.9,4.4,4.8,1.3c0.6-2,0.9-3.9,1.1-6c0.1-1.3-1.2-2.5-2.5-2.5
				C332.2,651.6,331.3,652.7,331.2,654.1L331.2,654.1z"/>
		</g>
	</g>
	<g>
		<g>
			<path class="st2" d="M303.7,625.1c0.4,2.9,1.7,5.6,2.1,8.5c0.2,1.3,1.9,2.1,3.1,1.7c1.4-0.4,2-1.7,1.7-3.1
				c-0.5-2.9-1.7-5.6-2.1-8.5c-0.2-1.3-1.9-2.1-3.1-1.7C304,622.4,303.5,623.8,303.7,625.1L303.7,625.1z"/>
		</g>
	</g>
	<g>
		<g>
			<path class="st2" d="M364.1,587c0.4,1.1,0.7,2.1,1.1,3.2c0.4,1.2,1.7,2.2,3.1,1.7c1.2-0.4,2.2-1.7,1.7-3.1
				c-0.4-1.1-0.7-2.1-1.1-3.2c-0.4-1.2-1.7-2.2-3.1-1.7C364.6,584.3,363.7,585.6,364.1,587L364.1,587z"/>
		</g>
	</g>
	<g>
		<g>
			<path class="st2" d="M312.1,571.5c0,3.5,0,7.1,0,10.6c0,3.2,5,3.2,5,0c0-3.5,0-7.1,0-10.6C317.1,568.2,312.1,568.2,312.1,571.5
				L312.1,571.5z"/>
		</g>
	</g>
	<g>
		<g>
			<path class="st2" d="M355.5,624.4c0.1,2.6,1,5,1.3,7.6c0.3,3.1,0.8,6.2,0.8,9.3c0,3.2,5,3.2,5,0c0-3-0.3-5.9-0.7-8.8
				c-0.2-1.5-0.1-3.1-0.4-4.5c-0.3-1.2-1-2.3-1-3.6C360.4,621.2,355.4,621.2,355.5,624.4L355.5,624.4z"/>
		</g>
	</g>
	<g>
		<g>
			<path class="st2" d="M390.5,603.2c0.1,1.8,0.5,3.5,0.9,5.2s1.4,3.6,1.2,5.3c-0.2,3.2,4.8,3.2,5,0c0.1-2-0.7-3.6-1.2-5.4
				c-0.4-1.7-0.8-3.4-0.9-5.2C395.3,600,390.3,600,390.5,603.2L390.5,603.2z"/>
		</g>
	</g>
	<g>
		<g>
			<path class="st2" d="M403.3,568.9c0.3,2.3,1.1,4.4,1,6.8c-0.2,3.2,4.8,3.2,5,0c0.2-2.8-0.8-5.4-1.1-8.1c-0.2-1.3-1.9-2.1-3.1-1.7
				C403.6,566.3,403.1,567.6,403.3,568.9L403.3,568.9z"/>
		</g>
	</g>
	<g>
		<g>
			<path class="st2" d="M339.7,587c0.7,3.3,2.3,6.5,2,9.9c-0.3,3.2,4.7,3.2,5,0c0.3-3.9-1.4-7.5-2.2-11.3
				C343.8,582.5,339,583.8,339.7,587L339.7,587z"/>
		</g>
	</g>
	<g>
		<g>
			<path class="st2" d="M398,638.9c0.6,1.8,1.4,3.5,1.9,5.3c0.5,1.9,0.1,3.8,0.1,5.7c-0.1,3.2,4.9,3.2,5,0c0.1-2.1,0.3-4.2-0.1-6.4
				c-0.4-2.1-1.5-4-2.1-6C401.8,634.5,397,635.8,398,638.9L398,638.9z"/>
		</g>
	</g>
	<g>
		<g>
			<path class="st2" d="M439.3,599.7c1.5,3.7,2,7.1,2,11c0,3.2,5,3.2,5,0c0-4.3-0.6-8.3-2.2-12.3
				C442.9,595.4,438.1,596.7,439.3,599.7L439.3,599.7z"/>
		</g>
	</g>
	<g>
		<g>
			<path class="st2" d="M456.5,581.2c1.2,2.4,2.1,4.9,3,7.4c0.8,2,2.1,4,1.9,6.2c-0.2,3.2,4.8,3.2,5,0c0.2-2.8-1.1-5-2.1-7.5
				c-1.1-2.9-2.2-5.8-3.6-8.6C459.4,575.8,455.1,578.3,456.5,581.2L456.5,581.2z"/>
		</g>
	</g>
	<g>
		<g>
			<path class="st2" d="M410.6,601.1c0,1.1,0,2.1,0,3.2c0,1.3,1.1,2.6,2.5,2.5s2.5-1.1,2.5-2.5c0-1.1,0-2.1,0-3.2
				c0-1.3-1.1-2.6-2.5-2.5C411.8,598.7,410.6,599.7,410.6,601.1L410.6,601.1z"/>
		</g>
	</g>
	<g>
		<g>
			<path class="st2" d="M483.7,629.7c0,3.6,1.5,6.7,2.2,10.2c0.6,3.2,5.4,1.8,4.8-1.3c-0.6-3-2-5.8-2-8.9
				C488.7,626.5,483.7,626.5,483.7,629.7L483.7,629.7z"/>
		</g>
	</g>
	<g>
		<g>
			<path class="st2" d="M440.3,639.3c0,3.2,0,6.4,0,9.5c0,3.2,5,3.2,5,0s0-6.4,0-9.5C445.3,636,440.3,636,440.3,639.3L440.3,639.3z"
				/>
		</g>
	</g>
	<g>
		<g>
			<path class="st2" d="M422.3,630.8c-0.2,1.6-0.7,3.1-1,4.6c-0.2,1.3,0.4,2.7,1.7,3.1c1.2,0.3,2.8-0.4,3.1-1.7c0.4-2,0.9-3.9,1.1-6
				c0.2-1.3-1.3-2.5-2.5-2.5C423.3,628.3,422.5,629.4,422.3,630.8L422.3,630.8z"/>
		</g>
	</g>
	<g>
		<g>
			<path class="st2" d="M463.6,619.1c0.2,2.7,0.5,5.4,1.1,8.1c0.8,3.1,5.6,1.8,4.8-1.3c-0.6-2.2-0.8-4.5-1-6.8
				C468.4,615.9,463.4,615.9,463.6,619.1L463.6,619.1z"/>
		</g>
	</g>
	<g>
		<g>
			<path class="st2" d="M510.3,573.2c1.9,5.3,3,10.6,3.1,16.3c0.1,3.2,5.1,3.2,5,0c-0.1-6.1-1.2-11.9-3.3-17.6
				C514,568.8,509.2,570.1,510.3,573.2L510.3,573.2z"/>
		</g>
	</g>
	<g>
		<g>
			<path class="st2" d="M483.8,556c-0.9,4.1-2,8.1-2.2,12.3c-0.1,3.2,4.9,3.2,5,0c0.1-3.8,1.2-7.3,2-11
				C489.3,554.1,484.5,552.8,483.8,556L483.8,556z"/>
		</g>
	</g>
	<g>
		<g>
			<path class="st2" d="M437.1,568.3c0,1.1,0,2.1,0,3.2c0,1.3,1.1,2.6,2.5,2.5s2.5-1.1,2.5-2.5c0-1.1,0-2.1,0-3.2
				c0-1.3-1.1-2.6-2.5-2.5C438.3,565.8,437.1,566.9,437.1,568.3L437.1,568.3z"/>
		</g>
	</g>
	<g>
		<g>
			<path class="st2" d="M494.3,603.2c0,3.2,0,6.4,0,9.5c0,3.2,5,3.2,5,0s0-6.4,0-9.5C499.3,600,494.3,600,494.3,603.2L494.3,603.2z"
				/>
		</g>
	</g>
	<g>
		<g>
			<path class="st2" d="M534.7,648.4c0.4,1.1,0.7,2.1,1.1,3.2c0.4,1.2,1.7,2.2,3.1,1.7c1.2-0.4,2.2-1.7,1.7-3.1
				c-0.4-1.1-0.7-2.1-1.1-3.2c-0.4-1.2-1.7-2.2-3.1-1.7C535.2,645.7,534.2,647.1,534.7,648.4L534.7,648.4z"/>
		</g>
	</g>
	<g>
		<g>
			<path class="st2" d="M555,588.6c2.5,5,3.9,10.1,3.9,15.7c0,3.2,5,3.2,5,0c0-6.5-1.7-12.4-4.6-18.2
				C557.9,583.2,553.6,585.7,555,588.6L555,588.6z"/>
		</g>
	</g>
	<g>
		<g>
			<path class="st2" d="M534.6,571.5c0,2.8,0,5.7,0,8.5c0,3.2,5,3.2,5,0c0-2.8,0-5.7,0-8.5C539.6,568.2,534.6,568.2,534.6,571.5
				L534.6,571.5z"/>
		</g>
	</g>
	<g>
		<g>
			<path class="st2" d="M519.7,621.2c0,2.4-0.3,4.8,0,7.2c0.2,2.2,1.2,4.3,1.1,6.6c-0.1,3.2,4.9,3.2,5,0c0.1-2.3-0.7-4.2-1.1-6.4
				c-0.4-2.4,0-4.9,0-7.4C524.8,618,519.8,618,519.7,621.2L519.7,621.2z"/>
		</g>
	</g>
	<g>
		<g>
			<path class="st2" d="M583.3,620.2c0.6,6,2,11.8,3.3,17.6c0.7,3.1,5.5,1.8,4.8-1.3c-1.1-5.4-2.5-10.8-3.1-16.3
				C588,617,583,617,583.3,620.2L583.3,620.2z"/>
		</g>
	</g>
	<g>
		<g>
			<path class="st2" d="M565.3,634c0,3.9,0,7.8,0,11.7c0,3.2,5,3.2,5,0c0-3.9,0-7.8,0-11.7C570.3,630.7,565.3,630.7,565.3,634
				L565.3,634z"/>
		</g>
	</g>
	<g>
		<g>
			<path class="st2" d="M604.6,579.5c0.7,3.5,1.4,7.1,2.1,10.6c0.6,3.2,5.4,1.8,4.8-1.3c-0.7-3.5-1.4-7.1-2.1-10.6
				C608.8,575.1,604,576.4,604.6,579.5L604.6,579.5z"/>
		</g>
	</g>
	<g>
		<g>
			<path class="st2" d="M573.8,575.7c-0.1,3.2-0.9,6.8,1.8,9.2c2.4,2.2,5.9-1.4,3.5-3.5c-1.2-1.1-0.4-4.1-0.3-5.6
				C578.8,572.5,573.8,572.5,573.8,575.7L573.8,575.7z"/>
		</g>
	</g>
	<g>
		<g>
			<path class="st2" d="M639.6,581.7c0.9,2.9,2,5.4,2,8.4c0.1,3,0,5.9,0,8.9c0,3.2,5,3.2,5,0c0-3.4,0.2-6.8,0-10.2
				c-0.2-3-1.3-5.6-2.2-8.5C643.4,577.3,638.6,578.6,639.6,581.7L639.6,581.7z"/>
		</g>
	</g>
	<g>
		<g>
			<path class="st2" d="M616.2,611.7c0,5.7,0,11.3,0,17c0,3.2,5,3.2,5,0c0-5.7,0-11.3,0-17C621.2,608.5,616.2,608.5,616.2,611.7
				L616.2,611.7z"/>
		</g>
	</g>
	<g>
		<g>
			<path class="st2" d="M589.7,596.9c0,3.8-0.2,7.3,1.4,10.8c1.3,2.9,5.6,0.4,4.3-2.5c-1.1-2.6-0.7-5.5-0.7-8.3
				C594.7,593.7,589.7,593.7,589.7,596.9L589.7,596.9z"/>
		</g>
	</g>
	<g>
		<g>
			<path class="st2" d="M623.6,637.1c0,1.4-0.1,2.8,0.2,4.2c0.1,0.7,0.3,1.2,0.6,1.9c0.1,0.2,0.3,1,0.4,0.7
				c-0.2,1.3,0.3,2.7,1.7,3.1c1.2,0.3,2.9-0.4,3.1-1.7c0.2-1.7-0.2-2.7-0.7-4.2c-0.4-1.2-0.2-2.6-0.2-3.9
				C628.6,633.9,623.6,633.9,623.6,637.1L623.6,637.1z"/>
		</g>
	</g>
	<g>
		<g>
			<path class="st2" d="M669.2,598.6c2,5.2,3.1,10.7,3.1,16.3c0,3.2,5,3.2,5,0c0-6-1.2-12-3.3-17.6
				C672.9,594.3,668.1,595.6,669.2,598.6L669.2,598.6z"/>
		</g>
	</g>
	<g>
		<g>
			<path class="st2" d="M654.3,626.5c0,3.9,0,7.8,0,11.7c0,3.2,5,3.2,5,0c0-3.9,0-7.8,0-11.7C659.3,623.3,654.3,623.3,654.3,626.5
				L654.3,626.5z"/>
		</g>
	</g>
</g>
<g>
	<path class="st3" d="M93.3,495.8c7.8,2.7,16.1,4.3,24.3,4.8c-6-4.8-12.1-9.5-18.1-14.3c-1.1-0.9-2.3-1.8-2.6-3.2
		c-0.4-1.4,0.2-2.8,0.8-4.1c7.7-17.6,20.2-33,35.7-44.3c15,21.3,17.5,48.7,19.6,74.7c0.1,1.7,0.3,3.5-0.5,5
		c-0.8,1.6-2.4,2.6-3.9,3.4c-5.3,2.9-11,5.2-16.9,6.7c5,3.9,11.3,6.1,17.6,6.2c5.4,14.8,0.1,32.8-12.5,42.3
		c-3.7,2.8-8.1,4.9-12.6,4.5c-14-1.2-15.9-18.7-19.8-29C97.9,530.9,92.2,515.2,93.3,495.8z"/>
	<path class="st3" d="M185.9,536.6c4,7.6,8,15.2,12,22.8c0.2-7.6,0.4-15.1,0.6-22.7c0-1.4,0.1-3,1.1-3.9c0.9-0.9,2.4-1,3.7-1.1
		c16.4-0.4,32.2,5.8,47.3,12.1c-7.5,12.4-16.2,24.2-27.1,33.7c-11,9.4-24.4,16.4-38.8,18c-10.8,1.2-21.8-0.7-32.2-3.7
		C124.6,583.8,173.8,540.8,185.9,536.6z"/>
	<path class="st3" d="M96.6,572.7c-1.3-0.3-2.7-0.6-3.9-0.1c-1.4,0.6-2.1,2.1-2.7,3.5c-3,7.1-5.2,14.5-6.8,22
		c-3-10-4.6-20.4-4.8-30.9c-22.4-3.8-46.1,0.7-65.7,12.3c9.1,10.2,21.4,17.6,34.8,20.8c1.8-5.8,3.6-11.5,5.4-17.3
		c-2.6,7.1-0.5,15.4,4.2,21.4c4.6,6,11.4,10,18.4,13c9.9,4.2,20.6,6.5,31.4,6.7c0.1-8.1,0.3-16.1,0.4-24.2c1,5.5,2,11.1,4.7,16
		s7.4,9,13,9.4c4,0.3,7.9-1.3,11.6-2.8C163.2,611.7,110.7,576.3,96.6,572.7z"/>
</g>
<g>
	<path class="st4" d="M515.1,577c-13.8-3.4-28.5,11.3-25.1,25.1c-5.6-1.5-12,2.4-13.2,8.1c-1.2,5.6,3.1,11.8,8.8,12.7
		c-3.3,0.8-6.2,3.2-7.5,6.3c7.9,7.2,20,9.2,29.8,4.9c-0.4,6.8,7.6,11.6,14.3,10.6s12.1-5.8,17.2-10.4c-0.3,7.1,8.5,11.7,15.3,10
		s12-7.3,16.6-12.6c1.9,6,9.6,8.4,15.7,6.6c6-1.7,10.7-6.3,15.2-10.8c5.4,10.6,24,9.4,28-1.8c4.6,4.1,9.6,8.4,15.7,9.5
		c6.1,1,13.5-2.8,13.9-9c8.3,1.9,16.9,3.1,25.4,3.4c1.7-5.7-7.3-10.5-11.2-6.1c8,0.6,15.3-8.1,13.2-15.9s-12.7-11.7-19.4-7.2
		c5,1.4,7.8-6.7,4.8-10.9c-3-4.3-8.4-5.9-12.7-8.9c-8.2-5.8-15.9-17.7-24.9-13.2c-0.2,1.8,2.5,2.7,3.9,1.7s1.9-3,2-4.8
		c0.4-7.9-4.8-16.5-12.6-17.8s-16.1,7.6-12.6,14.7c-0.5-9.5-2.5-20.1-10.2-25.6c-7.8-5.5-21.9-0.5-20.7,9c3.5-9.1-3-20.8-12.6-22.1
		c-9.7-1.3-19.1,9.1-16.3,18.4c-1.9-6.4-2.7-14-11.9-13.7c-10.4,0.3-8,9.7-12.5,15.5C522.8,553.9,507.4,559.3,515.1,577z"/>
	<g>
		<g>
			<path class="st5" d="M521.1,590.2c-4-0.1-7.9-0.4-11.1,2.5c-3.6,3.2-3.3,7.5-3.2,11.8c0,3.2,5,3.2,5,0c0-2.8-0.8-6.2,1.8-8.3
				c2.1-1.7,5.1-1,7.5-1C524.3,595.3,524.3,590.3,521.1,590.2L521.1,590.2z"/>
		</g>
	</g>
	<g>
		<g>
			<path class="st5" d="M540.5,573.9c3.4-3.9,7.5-7.5,12.8-8.2c1.9-0.2,4.4-0.5,5.2,1.4c0.6,1.3,0.1,4.8-0.8,5.8c1.3,1,2.6,2,3.9,3
				c2.1-4.3,8.8-5.3,13.1-4.4c9.1,1.9,6.8,11,5.7,17.7c-0.5,3.1,4.3,4.5,4.8,1.3c0.8-5,2.4-9.9,0.8-14.9c-1.4-4.2-4.6-7.5-8.9-8.7
				c-6.6-1.8-16.6-0.2-19.9,6.5c-1.2,2.4,2,5.3,3.9,3c3.5-4,3.8-13.1-1.9-15.3c-8.2-3.2-17.4,3.4-22.5,9.2
				C534.9,572.8,538.4,576.3,540.5,573.9L540.5,573.9z"/>
		</g>
	</g>
	<g>
		<g>
			<path class="st5" d="M566.3,614.8c0.1-4.5,1-7.6,6-7.8c4.8-0.2,7.5,1.4,8.1,6.4c0.4,3.1,5.4,3.2,5,0c-1-7.7-5.3-11.6-13.1-11.4
				c-7.9,0.2-10.8,5.5-11,12.8C561.2,618.1,566.2,618.1,566.3,614.8L566.3,614.8z"/>
		</g>
	</g>
	<g>
		<g>
			<path class="st5" d="M619.3,598.6c-0.3-3.9,2.4-6.2,5.4-8.1c1.9-1.2,4.4-3.3,5.9-1.2c1.7,2.4,0,9.1-0.2,11.8
				c-0.2,2.4,3.6,3.5,4.7,1.3c1.8-3.9,7.2-6.5,11-3.3c3.3,2.8,2.5,8.1-0.1,11c-2.1,2.4,1.4,6,3.5,3.5c4.6-5.3,5.3-14.3-0.9-18.8
				c-6-4.4-14.8-1.4-17.9,5.1c1.6,0.4,3.1,0.8,4.7,1.3c0.5-4.9,2.7-16.1-4.2-17.8c-3.6-0.9-7.9,2-10.6,3.9
				c-3.8,2.8-6.7,6.4-6.3,11.3C614.6,601.8,619.6,601.9,619.3,598.6L619.3,598.6z"/>
		</g>
	</g>
</g>
<path class="st6" d="M407.4,583.6c1.4,16.9,12.2,58.1-12.1,64.5c-3.7,1-7.6,0.8-11.2,1.9c-3.6,1.1-7.1,4.2-6.9,8
	c0.2,3.3,3.2,5.8,6.4,6.5c12.5,2.9,31.3-2.1,44.1-2.7c2.7-0.1,5.6-0.3,7.7-2.1c5.5-4.5,4.3-29.5,4.3-36.4
	c-0.1-19.2-0.4-38.4-0.7-57.6c-0.1-10.3-0.2-20.7-2.3-30.5c-3.3-15.9-20.1-40-30.7-20.3C397.8,530.2,406,566.6,407.4,583.6z"/>
<path class="st6" d="M310.6,535c-0.2,25.9-2.5,51.7-6.8,77.2c-1.2,7.1-3.5,15.4-10.3,17.9c-3.1,1.1-6.6,0.7-9.9,1.2
	c-3.3,0.4-6.9,2.3-7.5,5.5c-0.5,2.9,1.6,5.7,4.3,6.9c2.7,1.2,5.7,1.2,8.6,1.2c9.9,0,19.8-0.1,29.7-0.1c3.2,0,6.7-0.1,9-2.3
	c2.1-2,2.6-5,3-7.8c5.4-37,9.4-74.2,12-111.4c0.3-4.6,0.5-9.5-2.1-13.3c-2.8-4-8.4-5.5-13.2-4.4C312.4,509,310.7,521.9,310.6,535z"
	/>
<g>
	<path class="st7" d="M294.7,526.2c-0.1,0.3-0.2,0.6-0.2,0.9c-0.8,2.9-1.6,6.2-0.1,8.9c1.1,2.1,3.4,3.2,5.6,4.1
		c8.4,3.5,17.4,5.5,26.5,6.1c2.9,0.2,24.8,5.2,25.2,4.5c3.9-6.5,0.9-17.6,8-20.2c5-1.8,10,3.4,11.2,8.6c1.2,5.2,0.2,10.7,1.8,15.8
		c28.6-4.2,57.4-7,86.3-8.1c-2-19-4-37.9-6.1-56.9c-0.8-7.6-1.7-15.6-5.7-22.1c-8.5-14-27.3-16.9-43.7-18.3
		c-14.2-1.2-28.6-2.5-42.7-0.6c-12.4,1.6-24.8,4.3-36.5,8.7c-9.5,3.6-25.8,9.7-27.5,20.9c-0.7,4.5,0,9.2,0.5,13.7
		C298.3,503.5,297.4,515.1,294.7,526.2z"/>
	<path class="st8" d="M333.7,547c2.3-10.9,18-16.1,29.1-16.8c-6.4,6.6-10.1,11.4-9.8,20.7"/>
	<path class="st8" d="M433.6,548c8.7-1.4,17.4,0.1,26.1-1.3c-2.2-17.9-4.4-38.7-6.6-56.6c-18.6,1.1-23.8-2.3-21.4,17.3
		C432.1,511,435.8,547.6,433.6,548z"/>
	<path class="st8" d="M389.5,458.9c-13.3-5.4-28.3-3.7-42.6-1.9c-9.8,1.2-19.6,2.4-29.4,3.7c-4.9,0.6-10,1.3-14.1,4.1
		c-4.1,2.8-6.8,8.4-4.6,12.8c2.3,4.7,6.5,4.6,10.8,5.7c6.5,1.6,12.9,3.6,19.3,5.5c5.5,1.6,11.1,3.1,16.6,4.7
		c13.8,3.9,28.7,5.9,42.2,10.7c5.9,2.1,12.3,2.5,18.6,2.4c5.8-0.1,11.8-1.9,17.5,0.1c7.7,2.7,8.1,9.7,9.7,16.7
		c0.6,2.9,1.3,5.7,1.5,8.7c0.1,0.8,0.2,1.8,0.9,2.3c0.6,0.4,1.5,0.2,2.1-0.2s1.1-1,1.8-1.4c0.8-0.6,1.9-0.8,2.8-1.2
		c4.3-1.9,6.3-7.4,7.7-11.5c1.9-5.6,4.5-11.4,4.9-17.4c0.3-3.9,0-7.9-0.9-11.7"/>
</g>
<g>
	<path class="st6" d="M278.3,392.9c0,1.2,0.2,2.5,0.9,3.4c1.1,1.5,3.1,1.9,4.9,2.2c3.6,0.5,7.2,0.9,10.8,1.2
		c2.1,0.2,4.4,0.2,6.3-0.6c3.5-1.5,5.2-5.4,6.3-9c0.7-2,1.3-4,1.3-6.1c0.1-5.1-3.2-9.8-7.6-12.4c-5.2-3.1-11.2-4.9-15.1,0.2
		C282.2,377.2,278.2,386.3,278.3,392.9z"/>
	<path class="st9" d="M368,312.5c5.9,2.8,12.6,3.2,19.1,2.8c9.2-0.6,18.7-2.7,26-8.5c8.2,24.5,16.8,49.8,34,69.2
		c2.3,2.6,4.8,5.1,6.2,8.3c2,4.5,1.5,9.7,1,14.6c-3.2,33.2-2,66.9,3.5,99.8c-24.1,1-48.3,1.1-72.4,0.4c-6.8-0.2-13.8-0.5-20.4-2.2
		c-5.6-1.4-10.9-3.8-16.5-5.2c-5.6-1.4-11.4-1.7-17.1-2.9c-11.6-2.5-22-8.7-32.2-14.7c-0.8-0.5-1.7-1.1-1.9-2
		c-0.1-0.7,0.1-1.4,0.4-2c10.5-24.7,17.7-50.7,21.5-77.2c2.6-17.9,3.6-36.1,8.9-53.3c3.2-10.5,8.3-20.7,15.6-28.9
		c2.5-2.9,7.8-9.6,12.1-8.8C360,302.4,363.7,310.4,368,312.5z"/>
	<path class="st10" d="M437.3,422.9c-2.8,22.9-10.4,45.5-24,64.1c-0.7,1-1.5,2.1-1.6,3.3c0,1.8,1.6,3.3,3.4,3.8s3.6,0.1,5.4-0.1
		c7.8-1.2,15.9-1.3,23.7-0.4c2.1,0.2,4.1,0.6,6.2,0.2c2-0.4,4-1.6,4.7-3.6c0.6-1.6,0.1-3.4-0.4-5.1c-7.3-28-3.9-57.5-1.9-86.3
		c0.3-4.8,1.2-14.4-3.8-17.2C438.6,390.8,438.9,410.3,437.3,422.9z"/>
	<path class="st6" d="M508.7,419c-3.4,9.2-11.5,16.1-20.6,19.8c-9.1,3.7-19.1,4.5-28.9,4.4c-33.7-0.3-67.2-10.8-95-29.7
		c-2.2-1.5-4.4-3.1-5.5-5.5c-2.4-4.9,1.1-11.1,6.2-13.2c5-2.1,10.8-1.1,15.9,0.9c-0.6-4,0.7-8.2,3.3-11.2
		c1.8-2.1,19.9,18.4,23.4,20.1c14.5,7,38,4.9,53.2,2.2c23-4,9.8-24-1.2-34.2c-11.5-10.6-39.7-23.7-32.1-43.8
		c6.4-16.8,23.7-6.9,32.9,0.3c7.9,6.2,13.7,14.8,19.3,23.2C491.2,369.6,517.4,396,508.7,419z"/>
	<g>
		<path class="st11" d="M510.7,358.6c-2.3,5.8-9.3,9.1-15.8,11.9c-18.6,8.1-38.2,16.4-59.1,16c-0.4,0-9.5-36.5-11-40.2
			c-5.8-14.5-12.7-28.8-15.3-44.1c-0.4-2.4-0.7-4.9,0.3-7.1c1.7-3.8,6.7-5.7,11.5-6.4c30.1-4.5,46.1,27.5,59.6,44.2
			C489.1,342.9,498.2,352.5,510.7,358.6z"/>
		<path class="st12" d="M451.8,308.8c7.8,10.1,17.2,18.8,24.5,29.3c3.3,4.9,5.4,10.4,8.6,15.2c1.8,2.8,7.2,15.7,9.2,16.8
			c4.6,2.6,15.6-8.1,19-11.1c-6.4,1.2-11.9-4.6-15.9-9.8c-11.2-14.6-22.4-29.2-33.6-43.8c-4.3-5.6-8.7-11.3-14.6-15
			c-4.6-2.9-12.9-6-17.6-2.3c4,3,8.4,5.2,11.8,9.1c2.4,2.7,4.3,5.7,6.3,8.6C450.3,306.8,451,307.8,451.8,308.8z"/>
	</g>
	<g>
		<path class="st12" d="M386.7,296.3c11.4,0.6,22.4-4.8,31.2-12.1c3-2.4,7-5.3,10.2-3.2c2.8,1.8,2.7,5.9,1.7,9
			c-4.1,12.8-16.8,21.2-29.9,24.4c-11.3,2.8-23.8,2.4-34-3.2s-17.5-17.1-16.3-28.7c1.6-14.7,9.2-5.7,13.6-1
			C370.3,289.1,374.8,295.7,386.7,296.3z"/>
		<path class="st11" d="M383.5,290c11.4,0.6,22.4-4.8,31.2-12.1c3-2.4,7-5.3,10.2-3.2c2.8,1.8,2.7,5.9,1.7,9
			c-4.1,12.8-16.8,21.2-29.9,24.4c-11.3,2.8-23.8,2.4-34-3.2s-17.5-17.1-16.3-28.7c1.6-14.7,9.2-5.7,13.6-1
			C367.2,282.9,371.6,289.4,383.5,290z"/>
	</g>
	<g>
		<path class="st11" d="M322.5,287.8c-7.5,5.3-13.1,12.9-18.7,20.3c-12.8,17-26.5,33.4-40.8,49.2c9.6,8,19.3,16.1,30.4,21.8
			c11.1,5.7,23.9,9,36.2,6.7c0.7-0.1,1.5-0.3,2.1-0.8c0.8-0.7,0.8-1.9,0.9-3c0.5-21.7,3.9-43.3,10.2-64.1
			c2.2-7.4,10.5-25.3,6.1-32.7C344.2,276.9,328.2,283.8,322.5,287.8z"/>
		<path class="st12" d="M327.8,344.9c0.2-0.7,0.4-1.3,0.7-2c3-8.2,6.9-16,10.6-23.9c2.6-5.6,4.5-20.8,12-21.6
			c-0.3,7.7-6.2,15.1-9.1,22.1c-3,7.4-4.4,16.7-6.2,24.6c-1.9,8.3-3.4,16.7-4,25.1c-0.3,3.7,1.3,12.5-1,16.3c-0.6,1-1.6,1.7-2.9,1.7
			c-6.2,0.3-12.4-0.4-18.4-1.9c12.6-8.3,14.7-27.7,17.7-41c4.3-18.8,12.7-38.5,22.7-55c1.4,3.3,3.3,6.4,5.5,9.3"/>
	</g>
	<g>
		<path class="st13" d="M175.3,390.3c-1-0.4-2.1-0.8-3-0.2c-0.7,0.4-1,1.2-1.2,2c-1.9,6-3.5,13.4,0.7,18.1c2,2.2,4.8,3.3,7.6,4.2
			c7.3,2.6,14.7,4.8,21.8,8c13.8,6.2,27,14.8,41.9,18.3c19.7,4.7,21.2-7.2,25.2-24.6c1.5-6.4,2.1-14.3-3.1-18.4
			C236.5,405.1,203,401.2,175.3,390.3z"/>
		<path class="st13" d="M342.9,372.8c4.7-3.9,11.2-6.3,17.1-4.7c3,0.8,5.7,2.6,8.2,4.3c8.4,5.7,17.1,12.2,20.7,21.7
			c3.5,9.2,1.3,20-4.6,27.9c-5.9,7.9-15.1,12.9-24.7,14.8c-4.5,0.9-9.5,1.1-13.4-1.2c-4-2.3-6.2-8-3.6-11.8
			c5.9-4.7,15.5-1.8,21.1-6.7c3-2.6,4.1-6.8,4.5-10.8c0.5-4.9,0.2-10.1-2.6-14.2c-2.8-4.1-8.6-6.3-12.8-3.8
			c-4.2,2.5-5.3,8.3-9.5,10.8c-3.1,1.9-7.6,1.2-10-1.6C326.6,389.7,337.4,377.4,342.9,372.8z"/>
		<path class="st14" d="M262,436.5c1-2.1,0.6-4.7,0.9-7c0.5-3.3,2-7.6-0.9-9.4c-1.3-0.8-3-0.6-4.6-0.2
			c-51.9,12.1-90.6-23.6-87.4-12.5C170.8,417.2,253.5,453.7,262,436.5z"/>
		<path class="st13" d="M255.5,456.7c4.1,11.4,8.4,15.5,24.1,13.7c18.6-2.2,37-6.9,54.4-13.7c17-6.6,26.6-9.4,20.5-28.6
			c-5-15.7-10-31.4-15.1-47c-0.9-3-2.6-6.5-5.7-6.6c-1.4,0-2.6,0.6-3.8,1.3c-12.9,7-26.8,12-41.2,14.9c-6.8,1.4-14.9,3.3-21.9,2.7
			c-4.3-0.4-12.9-6.1-15.1-5.9c-19.3,1.2-1.4,53.3,1.5,62.6C254.1,452.4,254.8,454.7,255.5,456.7z"/>
		<path class="st14" d="M326.9,388.5c-1,0.8-2,1.5-2.7,2.6c-2,2.9-1.2,6.9-0.2,10.4c2.3,7.5,5.3,14.8,6.9,22.5s1.7,16-1.6,23.1
			c-0.3,0.6-0.6,1.2-0.5,1.9c0.2,1.6,2.3,2,3.9,1.9c4.2-0.3,8.4-1.6,12-3.8c1.7-1,3.3-2.3,4.3-4c1.6-2.9,1.2-6.5,0.5-9.8
			c-3.3-16.1-10.7-31.4-11.9-47.8C336.9,376.4,330,386.1,326.9,388.5z"/>
		<path class="st14" d="M373.7,421.6c0.3-0.3,0.6-0.6,1-0.8c1.1-0.5,2.3,0.7,2.4,1.9c0.1,1.2-0.6,2.3-1.3,3.2
			c-3.4,4.5-8.6,7.7-14.2,8.8c-0.9,0.2-1.8,0.3-2.6,0.1c-0.9-0.2-1.7-0.8-2.4-1.4c-5.9-4.5-4.5-7.1,2.2-6.8
			C364.4,427,369.8,425.6,373.7,421.6z"/>
		<path class="st14" d="M350.7,381.1c4.2-2.7,20.7-3.1,17,6c-0.2,0.4-0.4,0.8-0.8,1.1c-1,0.7-2.3-0.1-3.3-0.8
			c-2.3-1.6-5.2-2.6-8-2.4c-3.5,0.3-4.5,2.3-6.5,4.7c-0.9,1.1-3.8,4.9-5,2C342.7,388.5,348.4,382.5,350.7,381.1z"/>
		<path class="st15" d="M270.4,401c-3.4,1.2-7-1-9.8-3.3c-2.8-2.3-5.8-5-9.4-5c-3,5.5-1.6,12.5,1.5,17.9c2,3.5,4.9,6.8,8.8,7.9
			s8.8-0.7,9.9-4.6c0.6-2.1,0.1-4.3,0.6-6.4c0.4-1.6,1.3-3.1,1-4.6c-0.2-1.6-2.6-2.8-3.4-1.4"/>
		<path class="st15" d="M358.6,374.1c-4.7,0.6-9.2,2.4-12.9,5.2c-0.9-2.9,1-6.2,3.7-7.7c2.7-1.5,6-1.5,9-1.2
			c0.5,0.8,0.9,1.6,0.9,2.5s-0.9,1.8-1.8,1.5"/>
	</g>
	<path class="st6" d="M485.7,400.8c-5,1-10.4,1.1-14.5,0.7c0,0-0.1,0-0.1,0c-1.9,2.5-5.3,4.4-10.9,5.4c-15.2,2.7-38.8,4.8-53.2-2.2
		c-3.6-1.7-21.7-22.2-23.4-20.1c-2.6,3.1-3.9,7.3-3.3,11.2c-5.1-1.9-10.9-3-15.9-0.9c-5,2.1-8.5,8.3-6.2,13.2c1.1,2.4,3.4,4,5.5,5.5
		c27.8,19,61.3,29.5,95,29.7c9.8,0.1,19.8-0.7,28.9-4.4c9.1-3.7,17.2-10.6,20.6-19.8c1.1-2.9,1.7-5.9,1.7-8.9
		C501.6,407.6,493.7,404,485.7,400.8z"/>
	<path class="st6" d="M220.2,423c0.8,1,1.2,2.3,1.6,3.6c1.2-2.7,4-4.6,6.9-4.8c0.8-0.1,1.6,0,2.2,0.5c0.4,0.4,0.7,0.9,0.9,1.4
		c0.7,1.8,1.1,3.6,1.4,5.5c1.2-2.2,2.7-4.5,5.1-5.2c3-0.8,6.2,1.7,6.9,4.7c0.7,3-0.6,6.3-2.5,8.7c-3.4,4.4-8.8,7-14.3,7.2
		c-6.8,0.2-15.9-3.9-17.9-11C209.1,429.3,215.6,417.2,220.2,423z"/>
	<path class="st9" d="M175.3,390.3c0,0-15.2-24.2-18.9-0.5s-2.4,30.9,13.6,17.6S175.3,390.3,175.3,390.3z"/>
</g>
<g>
	<path class="st16" d="M452.3,71.5c12.9,22.6,10.2,50.4,7.2,76.3c-3.6,30.7,2,63.9-20.5,88.5c-3.1,3.4-6.5,6.5-9.1,10.2
		c-5.5,7.9-6.9,17.9-8.2,27.4c-0.9,7-1.7,14.4,1.3,20.7c3.1,6.6,9.9,10.7,16.7,13.4c17.1,6.8,37.7,5.8,53.9-3.7
		c14.7-8.6,22.2-25.8,25.5-42.5c3.2-16.2,3.4-32.9,3.5-49.5c0.1-33.6-0.1-67.3-5-100.5C514,87.6,507.4,62.7,493,42.6
		c-15.7-21.8-35.4-30.1-61.4-34.8c-3-0.6-6.5-0.9-8.9,1c-0.9,1.9-0.5,4.3,1,5.8c-2.3-2.1-5.5-3.3-8.6-2.6c-3,0.6-5.7,3.4-5.7,6.5
		c-0.1,3.1,2.9,6.1,5.9,5.6c-4.5-1.4-9.4-1.4-13.8,0c-4.1,1.3-8.4,5.2-7.1,9.3c0.4,1.4,1.5,2.6,2.6,3.6c8.7,8.1,21.3,5.7,31.6,11.4
		C438.3,53.8,446.7,61.8,452.3,71.5z"/>
	<path class="st17" d="M295.3,236.9c-4.1,9.5-9.3,20.5-4.2,29.5c1.9,3.4,5.1,5.9,8.4,7.8c13.5,7.8,30.1,7.4,45.8,6.8
		c6.5-0.3,13.2-0.6,19.2-3.1c4.4-1.9,8.2-4.9,11.5-8.5c16.2-17.7,15.4-48-1-65.4c-13.7-14.5-37.3-19.2-56-12.6
		C300.8,197.7,301.8,221.6,295.3,236.9z"/>
	<path class="st16" d="M307.7,239.6c-4.1,9.5-9.3,20.5-4.2,29.5c1.9,3.4,5.1,5.9,8.4,7.8c13.5,7.8,30.1,7.4,45.8,6.8
		c6.5-0.3,13.2-0.6,19.2-3.1c4.4-1.9,8.2-4.9,11.5-8.5c16.2-17.7,15.4-48-1-65.4c-13.7-14.5-37.3-19.2-56-12.6
		C313.3,200.5,314.2,224.4,307.7,239.6z"/>
	<path class="st6" d="M363.8,258.8c-0.3,9-1.1,18-2.5,26.8c-0.3,1.9-0.6,3.8-0.2,5.6c0.8,3.5,3.8,5.9,6.9,7.7
		c14.4,8,33.9,5.6,46-5.7c0.8-0.8,1.6-1.6,2.1-2.7c0.6-1.6,0.2-3.4-0.1-5c-1.7-9.5,0-19.3,2.4-28.7c2.4-9.4,5.1-20.5-1.3-27.7
		c-2.2-2.5-5.3-4.1-8.4-5.4c-11.1-4.7-23.6-6-35.4-3.8c-4.7,0.9-9.5,2.4-13,5.6c-7.2,6.4-3.4,8.9-0.7,14.7
		C362.6,246.5,364,251.6,363.8,258.8z"/>
	<path class="st18" d="M394.1,245.1c0,0-9.3,28.3,0,57.9c0,0,13.6-3.5,22-12.4c0,0-2.6-42,9.3-53L394.1,245.1z"/>
	<path class="st6" d="M291.9,165.8c2.2,13.5,5.7,27.1,13.5,38.3c8,11.5,19.8,19.6,32.3,26c21.4,10.9,45.6,17,69.5,14.5
		c23.8-2.5,47.2-14.3,61.1-33.8c7.6-10.6,12.2-23,16.6-35.3c11.3-30.8,22.6-65.1,10.4-95.5c-6.7-16.8-20.1-30.3-35.2-40.3
		C419.7,13,360,9.8,318.2,35.5C280.7,58.5,285.8,128.3,291.9,165.8z"/>
	<path class="st18" d="M376.3,237.6c30.9,6.9,32.1,36.4,67.1-22.6c6.7-11.2,12.2-23,16.6-35.3c5.9-16.2,11.9-33.3,14.4-50.3
		c0.5-3.5,0.8-7.1,1.1-10.6c0.7-11.8-0.6-23.4-5.1-34.6c-6.7-16.8-20-30.2-35.1-40.2c-9.4-6.2-42.1,0.3-53.2-3.3
		c-9.2-3,33.2,10.7,43.3,34c9.1,20.9,11.9,52,8,74.8C416.6,246.5,376.3,237.6,376.3,237.6"/>
	<path class="st17" d="M340,5.1c-11.8,3.7-23.1,9.4-32.2,17.9c-13.2,12.3-20.8,29.7-24.4,47.4s-3.6,35.9-3.5,53.9
		c0,2.9,0.1,6,1.5,8.6s4.8,4.3,7.4,2.9c-2.2-19.3,0.3-39.2,7.2-57.4c7.4-19.4,22.3-38.5,43-40.6c13.8-1.4,27.9,5,41.3,1.4
		c4.9-1.3,10-6.5,7.2-10.7C405,32.5,421.9,12,399,3.9C380.9-2.4,357.9-0.4,340,5.1z"/>
	<path class="st17" d="M437.7,72c0.4,1.3,0.8,2.7,1.1,4.1c2.2,11.7,3.4,23.6,2.9,35.5c-0.4,10.3,1,20.1,0.3,30.5
		c-1.6,23.8-4.9,48.2-16.6,69.4c-4.2,7.5-9.3,14.4-13.4,21.9c-7.9,14.7-8.9,29.1-4.9,45c1.4,5.5,0.2,11,2.7,16.4
		c3.1,6.6,9.9,10.7,16.7,13.4c17.1,6.8,37.7,5.8,53.9-3.7c14.7-8.6,22.2-25.8,25.5-42.5c3.2-16.2,3.4-32.9,3.5-49.5
		c0.1-33.6-0.1-67.3-5-100.5c-3.6-24.2-10.2-49.1-24.6-69.2C464,20.8,444.3,12.5,418.3,7.8c-3-0.6-6.5-0.9-8.9,1
		c-0.9,1.9-0.5,4.3,1,5.8c-2.3-2.1-5.5-3.3-8.6-2.6s-5.7,3.4-5.7,6.5s2.9,6.1,5.9,5.6c-4.5-1.4-9.4-1.4-13.8,0
		c-4.1,1.3-8.4,5.2-7.1,9.3c0.4,1.4,1.5,2.6,2.6,3.6c8.7,8.1,21.3,5.7,31.6,11.4C425.1,53.9,434.1,61.5,437.7,72z"/>
	<path class="st17" d="M376.8,52.4c2.6,10.3,6,20.6,12.6,28.9s16.8,14.3,27.3,13.3c-3.3-5.8-8.3-10.3-12.4-15.5
		c-7.8-9.8-12.5-22.2-13-34.7C390.4,24.7,373.2,38.1,376.8,52.4z"/>
</g>
<path class="st19" d="M475.6,64.9c-2-3.2-6-6.1-9.4-4.4c-2.7,1.4-3.4,5-3.1,8c0.4,4.8,2.3,9.5,5.4,13.3c-5.9-1.1-12.7-2.1-17.5,1.7
	c-3,2.4-4.3,7.7-1.1,9.9c0.9,0.6,2,0.9,3.1,1.2c5.6,1.2,11.5,1.2,17-0.1c-2.1,2.4-3.8,5.2-5,8.3c-1.3,3.5-1.6,8.2,1.6,10.2
	c3.4,2.2,7.9-0.7,9.9-4.2s2.6-7.7,5.1-10.9c2.7,3.9,6.4,7.4,11,8.3s10.1-1.8,10.9-6.5c0.5-3.2-1.3-6.5-3.8-8.4c-2.6-2-5.8-2.9-9-3.5
	c4-1.8,7-5.4,8-9.6c0.8-3.2,0.1-7.1-2.8-8.6c-6.2-3.2-7.9,5.4-12.3,5.6C477.3,75.3,478.6,69.7,475.6,64.9z"/>
<path class="st9" d="M536.4,577.9c-3.2,1.1-5.5,4.4-5.5,7.8c0,2.1,0.8,4.2,1.9,6c0.9,1.5,2.1,2.9,3.6,3.7c1.6,0.8,3.6,0.9,5-0.2
	c-0.6,3-1.3,6-0.5,9c0.7,2.9,3.3,5.6,6.3,5.5c2.1-0.1,4-1.6,5.1-3.4s1.5-4,1.8-6.1c5.2,2.6,12.3-1.3,13-7.1c0.1-0.7,0.1-1.4-0.3-1.9
	c-0.5-0.7-1.4-0.9-2.2-1.1c-2.2-0.4-4.4-0.7-6.7-0.7c1.7-2,3.5-4,4.5-6.3c1.1-2.4,1.4-5.2,0.1-7.5c-1.7-3.3-6.2-4.5-9.7-3.3
	c-3.4,1.1-5,6-7.6,6.8C542.7,579.9,539.7,576.7,536.4,577.9z"/>
<path class="st9" d="M602.6,560.4c-2.5,0.7-4.6,2.6-6.1,4.7c-0.5,0.7-1.1,1.5-1.2,2.4c-0.1,0.9,0.2,1.8,0.6,2.5
	c1.8,3.4,6.1,5.2,9.8,4.3c-2.7,1.8-4.4,5.2-3.6,8.4c0.8,3.1,4.5,5.4,7.5,4.1c1.1-0.5,2.1-1.4,2.9-2.4c2.1-2.5,3.6-5.5,4.5-8.7
	c-0.7,2,0,4.3,1.6,5.7s3.8,1.9,5.9,1.5c5.5-0.9,6.1-5.8,2.9-10c-1.9-2.5-4.7-4.1-7.5-5.4c7.6-1.3,7.7-12.3,0.5-14.3
	c-3.6-1-14.9,4.7-10.9,9.4C607.7,560.5,605.2,559.7,602.6,560.4z"/>
<path class="st9" d="M201.5,613.7c-5-0.3-9.9,4-10.2,9c0,0.9,0,1.8,0.6,2.5c0.4,0.5,1.1,0.8,1.7,1.1c3.4,1.1,7.1,0.3,10.2-1.4
	c3.1-1.7,5.7-4.2,8.2-6.6c-0.2,3,2.1,6,5,6.8c2.9,0.9,6.2,0,8.6-1.9c1.5-1.2,2.8-3.1,2.4-5.1c-0.3-1.2-1.1-2.1-2-2.9
	c-2.3-2.4-5.6-5-8.7-3.7c4.7-2.1,12.6-4.9,10.9-12.1c-1.7-7.1-10-3.8-13.2-0.3c-1.7,1.9-2.9,4.6-2.3,7.1
	C205.9,585.8,183.1,606.3,201.5,613.7z"/>
<path class="st20" d="M344.7,150.2c18.2-5.3-14.7-26.3-13.7-5.2c0.1,1.8,0.8,3.8,2.4,4.7c1,0.5,2.1,0.7,3.2,0.8
	C339.3,150.8,342.1,151,344.7,150.2z"/>
<path class="st20" d="M414.2,127.8c-3.1,1-5.7,3.3-8.1,5.6c-3.3,3.2-6.4,6.8-7.4,11.3c-1.3,5.4,0.8,11.1,2.8,16.3
	c0.9,2.2,1.8,4.5,3.5,6.2s4.5,2.5,6.5,1.3c0.7-0.4,1.3-1.1,1.9-1.7C418.8,160.4,436.3,120.5,414.2,127.8z"/>
<path class="st16" d="M307,116.4c4.7-2,8.4-6.5,13.5-6.9c0.5,0,1,0,1.4,0.2c0.5,0.3,0.8,1,0.9,1.6c0.2,1.8-0.8,3.4-2,4.8
	c-3.9,4.4-9.6,7.2-15.4,7.6c-1.4,0.1-2.8,0-4-0.5c-1.7-0.8-4.2-3.9-2.2-5.5C300.5,116.5,305.1,117.2,307,116.4z"/>
<path class="st16" d="M366.4,119.5c3.6,3.3,8.4,5,13.2,5.8c1.1,0.2,2.3,0.3,3.3-0.1c1-0.4,1.8-1.6,1.4-2.7c-0.3-0.8-1.1-1.2-1.8-1.6
	c-3.1-1.7-7-3.1-9.7-5.3c-1.6-1.4-2.2-3.8-3.8-5.1c-1.6-1.3-3.3-1.3-4.6,0.4C362.4,113.7,364.2,117.5,366.4,119.5z"/>
<path class="st21" d="M364.3,163.9c0,6.8-0.6,13.6-2.2,19.8c-1.6,6.1-4.3,11.5-7.8,13.9c-2.6,1.8-5.4,2-8.1,1.5
	c-4.9-0.9-9.9-3.9-13.6-9.8c-3.8-5.9-6.2-14.7-5.9-23.7c0.1-3.3,0.1-4.1,1.9-4.3c1.8-0.2,3.5,1.1,5.3,2c6.6,3.7,14,2.8,20.3-2.4
	c1.8-1.5,3.7-3.5,5.7-3.4C362.8,157.7,364.3,158.7,364.3,163.9z"/>
<path class="st22" d="M294.8,84.9c0.7-0.7,1.4-1.2,1.9-1.7c7.5-6.4,18.6-8.6,28-5.5c0.6,0.2,1.2,0.4,1.7,0.9
	c0.6,0.7,0.7,1.7,0.7,2.6c0.4,7-9.8,3.4-13.8,3c-5.4-0.5-11,1.2-14.6,5.7c-2.3,2.9-3.7,6.4-5.3,9.7c-2.2,4.7-8.3,9.3-10,2.1
	C282.2,96.6,290.1,89,294.8,84.9z"/>
<path class="st22" d="M386.2,95.3c1.3,0.6,2.7,1.2,4,0.6c1.4-0.7,1.7-2.7,1-4.1c-0.7-1.4-2.1-2.3-3.4-3.2c-6.4-4-13.5-7.7-21.1-8.9
	c-2.7-0.4-11.9-1.7-13.7,1.4c-2.9,5.3,9,5.5,11.6,6C372.2,88.6,379.3,91.9,386.2,95.3z"/>
<path class="st13" d="M59,497.8c-2.6,22.9,29.6,22.3,17.9,7.2C74,501.2,60.7,482.9,59,497.8z"/>
<path class="st13" d="M191.5,505c-21.2,8.9-5,36.7,2.5,19.1C195.9,519.7,205.4,499.2,191.5,505z"/>
<path class="st13" d="M137.8,460.7c2.2-3.3,5.5-7.4,7.5-4.6c0.4,0.6,0.5,1.3,0.5,2c-0.1,6.7-3.9,14.7-7,20.6
	c-1.1,2.2-4.1,4.5-5.6,2.5c-0.4-0.5-0.5-1.1-0.6-1.8c-0.8-5.5,0.6-10.6,3.2-15.5C136.1,463.5,136.8,462.2,137.8,460.7z"/>
<path class="st13" d="M106.5,533.8c1.8,2.9,4.4,5.4,7.3,7.2c1,0.6,2.3,1.1,3.2,0.3c0.6-0.5,0.7-1.4,0.7-2.2c0-1.9-0.1-3.9-0.8-5.7
	c-1-2.6-4.1-5.1-6.9-5.5C106.3,527.3,104.4,530.4,106.5,533.8z"/>
<path class="st13" d="M117.7,393.6c-1.2,1-2.1,2.3-2.1,3.8c0,0.8,0.2,1.6,0.9,2c0.4,0.3,1,0.3,1.5,0.3c4.4,0,8.8-1.1,12.7-3.1
	c3.6-1.8,6.1-7.9,0.3-8.4C127.4,388,120.4,391.5,117.7,393.6z"/>
<path class="st13" d="M142.6,434.9c0.6,1.2,1.8,2.5,3.1,2.2c0.9-0.2,1.5-1,2-1.7c1.7-2.7,8.2-18,0-16.3
	C142.6,420,140.8,431.1,142.6,434.9z"/>
<path class="st13" d="M95.7,440c1.1,0.2,2.1-0.7,2.8-1.5c2-2.4,9-18.7,0.1-15.7C94.7,424.2,91.1,439.1,95.7,440z"/>
<path class="st13" d="M30.3,528.7c-0.1,2.7,2,5,4,6.9c2.8,2.6,7,7,11.1,7.3c3.5,0.3,5.4-3.2,3.6-6.2
	C47.4,533.7,30.6,523.8,30.3,528.7z"/>
<path class="st13" d="M161.5,552.7c0.6,1.7,0.4,3.5-0.1,5.2c-1.2,4.8-4.6,10.5-9.9,11.6c-3.4,0.7-4.8-0.7-4.7-4.1
	C146.9,560.4,158,542.5,161.5,552.7z"/>
<path class="st13" d="M91.7,566.1c2.3,3.6,4.9,7,8.2,9.6c1.3,1,2.8,1.9,4.5,2c1.7,0.1,3.5-0.7,4-2.3c0.3-1,0.2-2,0-3
	c-1.2-4.8-5.2-10.2-9.5-12.8C92.8,556,87.4,559.3,91.7,566.1z"/>
</svg>
