<?xml version="1.0" encoding="utf-8"?>
<!-- Generator: Adobe Illustrator 22.1.0, SVG Export Plug-In . SVG Version: 6.00 Build 0)  -->
<svg version="1.1" id="Layer_1" xmlns="http://www.w3.org/2000/svg" xmlns:xlink="http://www.w3.org/1999/xlink" x="0px" y="0px"
	 viewBox="0 0 796.8 691.2" style="enable-background:new 0 0 796.8 691.2;" xml:space="preserve">
<style type="text/css">
	.st0{fill:#FCC8B2;}
	.st1{fill:#FCB31A;}
	.st2{fill:#B98F0D;}
	.st3{fill:#FDDCCC;}
	.st4{fill:#C7EAFB;}
	.st5{fill:#9ADBF8;}
	.st6{fill:#CFD1D2;}
	.st7{fill:#ADAFB2;}
	.st8{fill:#782F14;}
	.st9{fill:#953C1F;}
	.st10{fill:#ED1C24;}
	.st11{fill:#682609;}
	.st12{fill:#D37C60;}
	.st13{fill:#FFC20E;}
</style>
<path class="st0" d="M627.6,364.6c8.5-2.5,16.6-6.2,24-11c4.6-3,9.4-7.1,9.8-12.6c0.2-2.7-0.8-5.3-1.7-7.9c-7.9-22-15.8-44-23.8-66
	c-0.5-1.4-1-2.8-1.9-3.9c-3.9-4.7-11.5-1.3-16.4,2.3c-22.8,16.6-44.3,26.3-28.1,57.2c5.2,9.8,11.7,19.4,13.2,30.4
	c0.6,4.5,0.6,9.8,4.2,12.6c2.8,2.2,6.9,1.9,10.4,1.3C620.8,366.4,624.3,365.6,627.6,364.6z"/>
<path class="st1" d="M596.8,346.4c34.5-6.1,74.8-22,94.7,16.5c7.1,13.9,12.7,28.5,16.4,43.7c4.4,17.6,6.3,35.7,10.1,53.5
	C730,516,758.7,563.6,762,621.7c2.8,48.4-13.5,70.4-63.8,70.8c-22,0.2-44.3-2.9-66.2-4.4c-16.5-1.1-33-2.2-49.6-2.9
	c-14.6-0.6-28.8,5.2-42.5,4.2c-6.2-0.5-12.6-4.2-14.1-10.3c-2.8-11.2,6.4-29.4,8.5-40.6c3.3-17.8,4.2-36.1,4.7-54.1
	c1.1-34.9-0.9-69.7-0.9-104.6C538.2,430.1,534,357.5,596.8,346.4z"/>
<path class="st2" d="M542.8,496.1c13.3,3,27,4.8,40.7,5.1c5.3,0.1,11.7-0.6,13.7-5.2c2.2-4.8-2.4-9.9-6.5-13.4
	c-19.7-16.7-40.9-34.1-67.1-38.5c-17.8-3-51.9-3.9-34.1,20.1C502.5,481.7,521,491.1,542.8,496.1z"/>
<path class="st3" d="M338.5,518.2c-14.4,1.7-29.1,2.8-44.4,2.9c-8.9,0-36-5.5-39.6,5.5c-1.5,4.6,1.1,9.8,4.9,12.7
	c3.8,2.9,8.7,4.2,13.4,5.3c-7.9-1.7-16.5,5.2-16.6,13.3c-0.1,8.1,8.4,15.2,16.3,13.6c-7.2,4.8-15.3,12.3-12.5,20.5
	c2.4,7.2,11.6,9.1,19.1,9.6c108.8,7.1,217.6-44.4,289.3-126.5c3-3.5,6.1-7.2,7-11.7c1.9-9.6-6.4-17.8-14-24c-3.3-2.7-7-5.6-11.3-5.6
	c-2.9,0-5.7,1.3-8.3,2.7c-40.3,21.4-71.7,56.9-117.3,66.2C394.9,508.6,367.3,514.7,338.5,518.2z"/>
<path class="st0" d="M311.6,556.9c3.9,8.6,14.3,12.2,23.7,12.9c13.1,0.9,23.1-4.4,35.3-7.3c12.8-3,26.4-2.1,38.6-7.4
	c3.3-1.4,6.9-3.9,7.1-7.5c0.2-3.5-2.9-6.3-5.8-8.3c-12.4-8.5-27.1-13.6-42-14.8c-9.9-0.8-19.3-2.7-29.3-1.4
	C321.4,525.4,302.3,536.5,311.6,556.9z"/>
<g>
	<path class="st4" d="M325.3,508.9c-1.1,8-2.5,16.2-1.3,24.2c1.2,8,5.4,16.1,12.8,19.5c7.5,3.4,16.7,1.2,23-4.1
		c6.3-5.3,10-13.1,12-21.1c1.7-6.9,2.3-14.4,0.1-21.2c-3.1-9.8-11.4-16.9-17.3-25.3c-5.5-7.9-9.1-17.1-10.3-26.7
		c-2.2-17.5-12.8-24.2-16.8-4.4C323.6,468.2,327.8,489.8,325.3,508.9z"/>
	<path class="st5" d="M347.6,534.6c-1.2,5.4-2.3,12.4,2.4,15.4c5.7,3.7,12.6-3.1,14.8-9.5c3.1-8.8,3.6-18.5,1.3-27.5
		c-1.6-6.4-4.6-12.5-7.5-18.4c-7.3-14.8-13.7-31.1-22.7-44.7c-2.5,11,3.9,21.6,7.4,32C349.1,498.9,351.6,516.7,347.6,534.6z"/>
</g>
<g>
	<path class="st6" d="M265.2,399.7c-5.8,8.3-3.2,20.3,3.3,28.1c9.1,10.9,23.7,15.3,37.7,17.8c14.7,2.6,30.2,3.8,44.1-1.6
		c13.9-5.4,25.6-18.7,24.9-33.6c-0.1-2-0.4-4.1-1.5-5.7c-2.4-3.6-7.8-4.1-11.9-2.7c-4.1,1.4-7.6,4.3-11.6,6.2
		c-9,4.4-19.8,3.6-29.2,0.1C305.9,402.5,280.1,378.4,265.2,399.7z"/>
	<path class="st7" d="M292.2,419.6c6.5,2.2,14.5,6.9,17,7.2c7.5,1,13.9-2.4,21.5-3.3c3.2-0.4,6.5-0.4,9.4,1.1
		c12.8,6.7-13.5,16.4-18.5,17.3c-10.3,1.8-21.5-0.1-30.3-5.9c-3.2-2.1-6.2-4.8-7.4-8.3C280.4,417.8,285.6,417.4,292.2,419.6z"/>
</g>
<g>
	<path class="st6" d="M298.3,285.6c18.4-1.2,46.8,0,54.6,20.2c2.6,6.6,3.1,13.8,3.7,20.9c1.9,25.2,3.9,50.5,1.4,75.6
		c-0.2,2.3-0.6,4.8-1.9,6.7c-2.5,3.4-7.3,3.8-11.5,3.7c-13.6-0.2-27.1-1.6-40.4-4.4c-2.3-0.5-4.8-1.1-6.5-2.7
		c-2.8-2.5-3.1-6.7-3.1-10.5c-0.4-22.5,4.5-34-20.1-35c-22.1-0.9-44.7,0.6-66.8,2.2c-43.2,3-86.2,9.2-128.5,18.4
		c-19.8,4.3-42.9,8.5-58.1-4.9c-5.3-4.7-8.9-11.1-11.4-17.7c-25.7-68.4,67.3-58,106.2-60.6C176.6,293.5,237.4,289.6,298.3,285.6z"/>
	<path class="st7" d="M278.7,326.3c9.3,0.5,18.8,2,26.1,7.7c18.2,14.3,22.3,44.4,18.8,65.4c-22.2,9.2-21.1-16.7-20.6-29.1
		c0.2-4,0.3-8.1-1.4-11.8c-3.6-7.7-13.5-9.7-21.9-10.4c-32.1-2.4-67.7-0.2-99.4,5.4c-13.5,2.4-13.7-11.9-5.8-18.9
		c6.3-5.5,20.1-4.6,27.8-4.5c24.9,0.2,49-4.7,74-3.9C277,326.2,277.9,326.3,278.7,326.3z"/>
</g>
<g>
	<path class="st6" d="M133.3,160.4c6.3,0.6,11.8,4.7,15.9,9.5c12.7,15,14.1,36.3,14.7,55.9c0.4,15,0.8,29.9,0.4,44.9
		c-0.5,21.1-2.5,41.9-3.3,63.1c-11.3,1.5-22.6,2.2-34,2c-4.7-0.1-9.9-0.4-13.5-3.5c-4.5-3.9-4.9-10.7-4.9-16.7
		c-0.2-36.4,3.1-71.2,5.9-107.4C115.6,193.9,107.3,158.1,133.3,160.4z"/>
	<path class="st7" d="M138.2,216.7c0-3.4,0-6.9-1-10.1c-1.5-5-5.1-9-7.5-13.6c-2.4-4.6-3.2-10.9,0.4-14.6c4.5-4.5,12.7-1.9,16.7,3.1
		c4.7,5.9,5.9,13.7,6.7,21.2c3.4,29.6,4.9,59.4,4.4,89.2c-0.1,6.8-2.1,30.4-14.5,28.3c-8.7-1.5-5.3-13.3-5.3-20.6
		C138.2,271.9,138.2,244.3,138.2,216.7z"/>
</g>
<g>
	<path class="st8" d="M686.2,46c19,11.5,30.3,32.1,38.7,52.6c7.4,18.1,13.2,36.9,18.9,55.6c5.6,18.1,11.1,36.3,16.7,54.4
		c2.9,9.5,5.8,19,6.9,28.9c1.4,13.1-2.7,29.2-15.2,33.2c-8.9,2.9-18.8-1.8-24.7-9c-5.9-7.2-8.4-16.6-10.2-25.7
		c-10.2-51.6-2.7-108.7-30.1-153.5c-4.4-7.3-10.7-14.6-19.2-15.5c-6.8-0.8-13.2,2.8-19.4,5.6c-19.4,8.7-33.7-8-18.7-23.4
		C644,34.8,670.5,36.5,686.2,46z"/>
	<path class="st9" d="M673.4,38.2c19,11.5,30.3,32.1,38.7,52.6c7.4,18.1,13.2,36.9,18.9,55.6c5.6,18.1,11.1,36.3,16.7,54.4
		c2.9,9.5,5.8,19,6.9,28.9c1.4,13.1-2.7,29.2-15.2,33.2c-8.9,2.9-18.8-1.8-24.7-9c-5.9-7.2-8.4-16.6-10.2-25.7
		c-10.2-51.6-2.7-108.7-30.1-153.5c-4.4-7.3-10.7-14.6-19.2-15.5c-6.8-0.8-13.2,2.8-19.4,5.6c-19.4,8.7-33.7-8-18.7-23.4
		C631.2,26.9,657.6,28.7,673.4,38.2z"/>
</g>
<path class="st3" d="M406.5,285c21.7,45.5,73.4,69.4,121.4,65.4c48.5-4.1,95-34.8,117.3-80.6c11.4-23.4,16.4-49.6,19.8-75.7
	c3-23.3,4.2-48.8-8.1-68.4c-5.1-8.2-12.3-14.7-19.8-20.6c-60.5-46.8-149-48.1-210.7-3.2c-26.5,19.3-49.2,49.7-46.9,85.7
	c0.9,14.2,6.9,28.5,10.3,42.2C394.4,248.4,398.3,267.7,406.5,285z"/>
<path class="st0" d="M570.8,277.4c-0.5,19.5-7.2,38.4-6.8,57.9c0,0.9,0.1,1.9,0.5,2.6c1.2,2,4.2,1.8,6.5,1.3
	c20.6-5,39.8-16.4,53.1-32.9s20.4-38.2,18.1-59.3c-1.4-12.4-5.8-24.2-11.2-35.4c-5.8-12.1-12.9-23.9-23-32.9
	c-10.1-8.9-23.5-14.8-36.9-13.5c-29,2.7-30.6,22.6-20.2,43.2C561.9,230.1,571.4,252.8,570.8,277.4z"/>
<path class="st9" d="M409.1,29.8c-21.5,12.8-34,37.4-37.3,62.2c-1.6,11.9-1.3,24-4.5,35.6c-4.7,16.9-16.3,31-23,47.3
	s-6.8,38,7.6,48.1c14.8,10.4,36.2,1.9,47.6-12.1s16.3-32,24.6-48c-2.8,13.6,16.4,23.1,29,17.1c12.6-6,18.9-20,24-32.9
	c5.1-13,11.1-27,23.4-33.5c-0.1,10,13.7,15.1,22.6,10.6c8.9-4.4,13.7-14.2,17.4-23.5C546.7,86,552.2,70,550,54.1
	c-2.2-15.9-14.5-31.6-30.6-32.4c-21.9-1.1-27.6,17.4-50,8.6C448.7,22.2,429.9,17.4,409.1,29.8z"/>
<path class="st9" d="M514.4,150.3c8.4,10.2,17.1,20.7,28.8,26.7s27.5,6.2,36.9-3c2.7,21.5,10.6,42.3,22.9,60.2
	c12.6,18.4,34.1,34.7,55.6,28.8c17.1-4.7,28-22.4,30.2-40.1s-2.6-35.3-7.3-52.4c-6.8-24.6-13.6-49.1-20.4-73.7
	c-5.4-19.6-11.3-40-24.7-55.3C620.3,23.2,595.8,15,572.2,8.9c-23-6-47.1-10.7-70.6-6.3c-49.7,9.2-64.3,53.8-48.6,97.9
	c5.6,15.8,13.7,33.8,22.2,48.1c5,8.3,12,18.6,23,18.3C506.5,166.7,517,159.7,514.4,150.3z"/>
<path class="st8" d="M627.5,109.8c13.8,32.1,10.9,68.5,15.9,103c3.3,22.9,30.8,36.3,39.1,8c1.3-4.5,1.1-9.3,0.9-14
	c-2.3-37.1-10.9-73.7-25.5-107.9c-7.9-18.4-11-40.3-24.8-55.7c-15-16.8-35.8-22.5-56.3-29.7c-6.7-2.4-13.7-4.7-20.7-3.8
	C522.3,14.3,571.8,46,580.6,53C599.9,68.5,617.6,86.7,627.5,109.8z"/>
<path class="st10" d="M258.2,151.7c-11.3-19.3-31.3-32.3-52.6-39.2c-21.3-6.9-43.9-8.3-66.2-8.9c-31.8-0.9-74,1-97.6,25.6
	c-17.7,18.4-21.2,41.1-13.6,59.8c5.2,12.7,15.4,23.7,29.9,30.4c20.7,9.6,41.6,19.3,63.9,24.4c38.5,8.7,109.3,6.2,135.3-28.8
	C270.5,197.1,269.5,171,258.2,151.7z M63.9,167.8c-3-0.8-4.3-4.4-4.6-7.6c-2-21,20.7-36.5,39.6-39.4c1.6-0.2,3.4-0.3,4.8,0.6
	c1.6,1.1,2,3.1,2.5,5c0.5,2.2,1.1,4.1,1.9,5.9c1.8,4.5,4.3,8,7.7,12.1c3.7,4.5,6.6,11.4-1.5,13.9c-10.6,3.3-19.8-3.6-30.8,1.7
	c-5.3,2.6-10.2,6.4-15.9,7.7C66.4,167.9,65.1,168.1,63.9,167.8z M163.1,211c0.2,1.2,0.3,2.4-0.1,3.6c-0.4,1-1.2,1.8-2.1,2.4
	c-4.5,3.2-10.5,3.3-15.8,1.9c-5.3-1.5-10.1-4.3-15-6.7c-9-4.4-18.6-7.4-28.5-8.9c-5.9-0.9-15.8-5.1-8.5-11.2
	c5.9-5,16.6-5.9,23.4-10.5c3.9-2.6,7.5-5.7,11.7-7.6c4.3-1.9,9.5-2.5,13.5-0.1c6.1,3.7,6.6,12.2,9.9,18.5
	C154.8,198.9,161.6,203.7,163.1,211z M142.2,130.6c-2.7-6.4-6.8-7-11-6.5c-4.9,0.5-10,2.3-13.3-2.2c-1.5-2.1-0.5-5.1,1.4-6.7
	c1.9-1.6,4.5-2.2,7-2.7c16.9-3.4,36.3,4.6,53,7.9c7.1,1.4,16.7,1.5,22.9,5.5c2.1,1.3,3.9,3.1,4.7,5.5c0.8,2.3,0.1,5.2-2,6.5
	c-1.8,1.2-4.2,0.8-6.2,0c-2-0.8-3.8-2.1-5.8-2.9c-13.7-5.5-29.1,6-40.7,11.2C140.6,151.3,145,137.1,142.2,130.6z M243,167.6
	c1.6,9.5,1.4,20.1-4.3,27.9c-1.8,2.5-4.2,4.7-6.5,6.8c-2.7,2.4-5.3,4.9-8,7.3c-4.8,4.4-10,9-16.3,10.2c-6.4,1.2-14.2-2.5-14.9-9
	c-0.2-2.1,0.3-4.3,0.6-6.4c0-0.1,0-0.2,0-0.3c0.9-11-9.6-15.2-10.3-25.2c-0.6-10,8.7-10.7,16.2-9.9c11.6,1.3,22.2,0,32-7.3
	c1.5-1.1,3.1-2.5,5-2.5C240.4,159,242.4,163.8,243,167.6z"/>
<path class="st11" d="M504.3,155.8c7.3,0.1,15,2.6,19.8,8.1c1.6,1.9,2.9,4.3,2.2,6.7c-1.2,4-6.6,4.3-10.7,3.9
	c-6.2-0.7-33.9-0.2-35.6-6.5C477.3,157.8,499.2,155.7,504.3,155.8z"/>
<path class="st11" d="M402.9,178.1c-7.1,2.7-13.7,7.9-16.4,14.8c-0.9,2.3-1.3,5.1,0.2,7.1c2.6,3.3,8,1.6,11.8-0.3
	c5.8-2.9,33-12.6,32.4-19.1C429.9,170.1,407.8,176.2,402.9,178.1z"/>
<path class="st11" d="M523.2,229.7c2.3-12.8-3.1-43.2-22.5-32.1c-12.4,7-12.2,26.6-4.1,36.7c3,3.7,7.2,6.7,11.9,7.4s10-1.2,12.5-5.3
	C522.3,234.4,522.8,232,523.2,229.7z"/>
<path class="st11" d="M430.7,246.4c2.3-12.8-3.1-43.2-22.5-32.1c-12.4,7-12.2,26.6-4.1,36.7c3,3.7,7.2,6.7,11.9,7.4
	c4.7,0.7,10-1.2,12.5-5.3C429.8,251.1,430.3,248.7,430.7,246.4z"/>
<path class="st12" d="M464.9,265c-4.5,8-5,18.1-1.3,26.5c1.7,3.9,4.6,7.6,8.6,8.7c6.1,1.7,12.6-3.5,14.3-9.6
	c1.7-6.2-0.2-12.7-2.7-18.6c-1.8-4.2-4.3-8.5-8.5-10.2s-10.3,1-10.1,5.6"/>
<path class="st3" d="M399.7,556c-15.9-0.9-31.9-1.9-47.8-2.8c-3.7-0.2-7.7-0.4-10.8,1.8c-4.1,2.8-4.9,8.8-2.9,13.3
	s6.1,7.7,10.4,10.1c12.5,7,27.2,8.7,41.5,8.6c12.1-0.1,26.7-3.2,30.5-14.7c0.6-1.9,0.9-4.1,0-6c-0.9-1.9-2.9-3-4.8-4
	c-6.3-3-13.1-4.9-20-5.4"/>
<path class="st0" d="M388.1,577.9c3.3-0.2,6.6-0.7,10-1.7c1.5-0.4,3-1,4.5-0.8c9.2,1.2-4.4,10.2-6.9,11c-8.4,2.7-17.9,0.8-26.3-0.8
	c-4.1-0.8-8.1-1.5-12.2-2.3c-12.4-2.3-4.6-6.9,3.7-6.8C370.3,576.7,379.1,578.5,388.1,577.9z"/>
<path class="st0" d="M478.8,531.9c0.1-0.1,0.2-0.1,0.3-0.2c23.1-16.5,45.6-38.6,62.6-61.3c3.5-4.7,7-9.7,12.2-12.6
	c1-0.6,2.1-1,3.3-1c2.5,0.1,4.2,3,4,5.5s-1.6,4.8-3.1,6.8c-37.4,53.7-95,96.3-156.8,117.2c-2.9,1-6.1,1.9-9,1.1
	c-3-0.8-5.5-4.1-4.2-6.9c0.9-2.1,3.2-3,5.4-3.7c5.8-1.9,11.7-3.6,17.5-5.5C436.4,562.7,457.2,547.4,478.8,531.9z"/>
<path class="st13" d="M508.6,421.5c-9.4,8.9-20.4,17.4-24.1,29.8c16.5-0.2,33.2-0.3,49.2,3.6c16,3.9,31.5,12.5,40.4,26.3
	c3.1,4.7,5.3,10,9.1,14.2c3.8,4.2,9.8,7.1,15.1,5.2c3.6-1.3,6.1-4.4,8.4-7.5c16.8-23.1,27.8-50.5,31.6-78.9c1.2-8.8,1.6-18-1-26.5
	c-5.7-18.1-25.5-29.6-44.5-28.8C552.1,360.6,534.3,397.2,508.6,421.5z"/>
</svg>
