<?xml version="1.0" encoding="utf-8"?>
<!-- Generator: Adobe Illustrator 22.1.0, SVG Export Plug-In . SVG Version: 6.00 Build 0)  -->
<svg version="1.1" id="Layer_1" xmlns="http://www.w3.org/2000/svg" xmlns:xlink="http://www.w3.org/1999/xlink" x="0px" y="0px"
	 viewBox="0 0 796.8 691.2" style="enable-background:new 0 0 796.8 691.2;" xml:space="preserve">
<style type="text/css">
	.st0{fill:#83B8DC;}
	.st1{fill:#FFC40C;}
	.st2{fill:#FFFFFF;}
	.st3{fill:#D8A813;}
	.st4{fill:#C3DEEB;}
	.st5{fill:#FDDCCC;}
	.st6{fill:#F9D1C1;}
	.st7{fill:#EEBEAE;}
	.st8{fill:#9A461A;}
	.st9{fill:#C55B27;}
	.st10{fill:#FABFB1;}
	.st11{fill:#F47854;}
	.st12{fill:none;stroke:#F6937B;stroke-width:5;stroke-linecap:round;stroke-miterlimit:10;}
	.st13{fill:#6E2E03;}
	.st14{fill:#E0E1E2;}
	.st15{fill:#FFE500;}
</style>
<path class="st0" d="M141,513.1c-43.8-1.2-92.8-2.9-125.1,26.6c-2.7,2.5-5.3,5.3-6.5,8.7c-3.9,11.4,9,21.3,20.3,25.5
	s25.2,9.5,26.7,21.5c1.8,13.9-14.5,22.3-27.8,26.7s-29.4,13.6-26.8,27.3c1.1,5.8,5.5,10.3,10.1,13.9c22.8,17.9,53.6,20.6,82.6,22.6
	c25.7,1.8,51.6,3.5,77.3,1c45.2-4.4,88.1-21.9,129.4-40.8c21.1-9.6,42.4-19.9,59.4-35.7c33.3-31,42.7-101.4-15.2-106.5
	C279.3,498.1,208.1,514.9,141,513.1z"/>
<path class="st0" d="M100.6,328.5c-11.2-0.3-22.8-0.8-33.3,1.2c-10.4,2-19.2,7.5-16.7,12.9c3.5,7.6,25,10,30.4,17.3
	c7.6,10.4-22.1,21.1-13.4,31.3c5.7,6.7,23.5,7.7,38.1,7.7c14.9,0,29.9,0,44.8,0c31.6,0,66.3-0.6,90.1-10.9
	c24.3-10.5,29.8-28,33.8-43.9c1.4-5.8,2.7-12.2-3.5-17.2c-6.8-5.6-21.3-7.8-34.3-7.2c-18.1,0.9-34.2,6.1-52.2,7.7
	C157.5,329.7,127.8,329.3,100.6,328.5z"/>
<path class="st0" d="M616.2,605.7c-11.2-0.3-22.8-0.8-33.3,1.2c-10.4,2-19.2,7.5-16.7,12.9c3.5,7.6,25,10,30.4,17.3
	c7.6,10.4-22.1,21.1-13.4,31.3c5.7,6.7,23.5,7.7,38.1,7.7c14.9,0,29.9,0,44.8,0c31.6,0,66.3-0.6,90.1-10.9
	c24.3-10.5,29.8-28,33.8-43.9c1.4-5.8,2.7-12.2-3.5-17.2c-6.8-5.6-21.3-7.8-34.3-7.2c-18.1,0.9-34.2,6.1-52.2,7.7
	C673.1,607,643.4,606.5,616.2,605.7z"/>
<path class="st1" d="M182.8,586.2c-4.6,12.6-13.1,23.7-24.2,31.3c-5.6,3.9-12.7,10.2-9,15.9c1.3,2,3.7,3.1,6.1,3.7
	c11.5,2.8,23.3-3.4,32.7-10.7c6.4-4.9,12.5-10.8,15.4-18.3c2.9-7.5,1.6-17.1-4.7-22.1c-6.4-5-17.7-2.4-19.6,5.5"/>
<path class="st2" d="M625.5,636.9c40.9-16.2,76.4-45,101.9-80.7c26.3-36.9,34-79.8,52.4-119.9c4.4-9.6,7.9-22.2,0.4-29.6
	c-4.6-4.5-11.6-5.1-18-5.5c-81.9-4.6-162.6-10.7-244.6-2.3c-83.7,8.6-166,27.9-249.8,35.8c-17.2,1.6-34.6,2.7-51.5-0.6
	c-15.9-3.1-30.7-10.1-46.4-13.8c-24.2-5.7-65.3,2.2-60.7,35.3c1.7,12.3,11.9,24.3,17.4,35.2c9.2,18.5,17.3,37.8,25.8,56.7
	c9.1,20.1,18.4,40.4,32.4,57.4c55.3,67.1,174.4,73.4,254.1,67.8c33.4-2.3,66.4-8.1,99.3-14C567.8,653.3,597.6,647.9,625.5,636.9z"/>
<path class="st1" d="M185.7,305.9c23.9-11.7,50.1-19.8,74.7-27.8c20.1-6.6,41.5-7.8,62.1-13.7c26.5-7.5,53.1-14.4,79.8-21.2
	c32.8-8.5,65.8-16.9,99.5-20.8c68.2-7.8,138.5,4,200.6,33.3c51.5,24.4,100.3,80.3,90.5,141c-12.3,75.9-91.1,109.5-152.7,137.6
	c-59.6,27.2-116.1,65.7-182.8,68.4c-60.5,2.4-124.8,0.3-184.1-13.3c-43.6-10-91.6-18.6-122-54.9c-22.2-26.5-46.5-52.8-48.5-89.1
	c-2.1-38.8,7.6-77.1,35-105.7C151.6,325.3,168,314.6,185.7,305.9z"/>
<path class="st3" d="M492.8,237.4c1.7-1.3,3.6-2.7,5.7-2.7c4,0,6.2,5.4,4.7,9.1c-1.5,3.7-5.3,6-8.9,7.8
	c-21.9,11.3-55.7,23.7-80.5,18.5C417.5,251.9,477.3,248.8,492.8,237.4z"/>
<path class="st4" d="M247.2,313.6c-35.3,6.5-75.1,17.8-90.5,50.2c-7.7,16.2-7.8,35-5.5,52.8c6.4,49.2,32.6,98.6,77.3,120.1
	c15.1,7.3,31.7,11.1,48.2,14.5c58.1,12,117.6,19.3,176.8,15.7s118.4-18.5,169.6-48.7c24-14.1,46-31.4,67.5-49.2
	c17.9-14.8,35.8-30.3,48.3-50c12.4-19.7,18.9-44.3,12-66.5c-5.3-17.3-18-31.3-31.4-43.5c-45.5-41.3-113.1-76-175.9-76.5
	c-26.6-0.2-54.1,23.2-78.8,32.6c-32.4,12.3-66.1,20.7-100,27.5C325.8,300.6,286.4,306.4,247.2,313.6z"/>
<g>
	<path class="st5" d="M515.9,266.9c-7.1,1.1-14.3,0.3-21.4,1.1c-9,1.1-17.7,5-24.5,11c-8.5,7.5-14.3,18.3-24.4,23.6
		c-3,1.6-6.9,3.8-6,7c0.3,1.1,1.1,1.9,2,2.7c5.8,4.6,13.8,4.7,21.2,5.3c11.1,0.9,22.1,3.5,32.5,7.7c6.6,2.7,13.2,6.1,20.4,6.7
		c9.9,0.9,19.8-3.8,29.7-2.6c15.8,1.8,29.2,17.9,44.7,14.3c4.5-1,8.6-3.8,13.2-4.4c6.3-0.9,13.6,1.9,18.6-2.1c5.7-4.5,3.5-13.6,0-20
		c-7.5-13.9-18.1-25.9-28.7-37.7c-6.6-7.4-13.5-15-22.9-18.1c-9.8-3.3-21.2-2.2-31.3-3.6C529.7,256.5,525.8,265.3,515.9,266.9z"/>
	<g>
		<path class="st6" d="M525.9,267.2c-0.8,1.5-1.8,3-1.9,4.7c-0.2,3.2,2.9,5.4,5.8,6.7c10.7,4.5,23.8,2.3,32.4-5.5
			c10.6-9.7,13-25.3,12.6-39.6c-0.2-6-0.8-12.1-3.4-17.4c-3.4-6.9-9.8-11.7-16.4-15.4c-13.9-7.6-38.5-4-33.2,16.6
			c1.7,6.5,6.7,11.6,8,18.4C531.5,245,530.6,258.7,525.9,267.2z"/>
		<path class="st7" d="M552.1,256.7c1.6,3.1,1,6.7-0.5,9.9c-1.4,3.1-3.7,5.9-5.4,8.9c-0.5,1-1.1,2.3-0.2,3.1c0.5,0.5,1.3,0.6,2,0.6
			c6.1,0.5,12.2-1.8,16.6-5.4c4.4-3.7,7.4-8.5,9.6-13.5c3.6-8.2,5.2-17.1,4.8-25.8c-0.1-1.4-0.2-2.9-1.1-4.1
			c-0.8-1.2-2.3-1.9-3.7-2.4c-8.3-3.6-18.6-5.3-27.4-2.2c-7.4,2.7-10.5,9.1-16.7,13.1c-3.7,2.4-8.6,1.2-3.9,5.6
			c1.8,1.7,6.4,2.2,8.8,3C540.7,249.2,549,250.9,552.1,256.7z"/>
		<path class="st5" d="M449.7,150.7c-1.4,3.6-2.9,7.1-4.6,10.5c-10,19.9-15,37.4,3.7,56.4c14.5,14.8,35.8,20.7,56.3,24
			c40.2,6.6,97.2-1.9,110.6-47.7c4.9-16.8,2-35.2,2.5-52.1c0.5-15,0.1-28.8-9-41.9c-4.6-6.7-10.9-11.9-17.6-16.5
			c-22.9-15.5-51.3-22.7-78.9-19.8c-18.6,2-34.9,8.3-42.9,25C460.3,108.3,457.4,130.6,449.7,150.7z"/>
		<path class="st7" d="M584.6,148.8c1.2,24.9-3.8,50.5-17.3,71.5c-6.2,9.7-13.8,15.4-25.5,16.3c-5.3,0.5-10.8,0.4-16,2
			c-1.2,0.4-2.3,0.9-3.2,1.8c-0.8,1-0.9,2.5,0,3.3c0.6,0.6,1.6,0.7,2.5,0.8c8.2,0.5,15.6,0.5,23.8-0.4c10.9-1.6,21.3-5.7,31.3-10.3
			c8.6-4,17.1-8.7,23.1-15.9c4-4.8,6.7-10.5,9-16.3c9.7-24.2,13.3-50.7,11.2-76.6c-0.5-5.3-1.1-10.7-3.2-15.6
			c-2-4.7-5.2-8.9-8.5-12.7c-7.4-8.5-16-16.1-25.9-21.5c-5.6-3-26.1-13-22.9,0.1c1.4,5.7,6.3,11.9,8.7,17.4
			c2.4,5.8,4.6,11.7,6.3,17.7C581.8,122.8,584,135.7,584.6,148.8z"/>
		<path class="st7" d="M490.5,135c0.9,0.3,1.8,0.5,2.8,0.6c3.2,0.5,16.4,0.4,15.5-5.1c1.3,7.4,5.7,14.6,12.5,17.8
			c6.9,3.2,16.1,1.4,20.2-4.9c2,6.2,8,11,14.5,11.4c6.5,0.4,13.1-3.5,15.9-9.5c2.1,5.5,7.2,9.8,13,10.8c5.8,1.1,12.1-1,16.1-5.4
			c1.5-1.7,2.8-3.8,3.3-6.1c1.1-5-1.5-10.2-5.4-13.5c-3.9-3.3-8.8-5.2-13.6-6.8c-17.3-5.9-35-10.7-52.9-14.3
			c-8.9-1.7-18.1-3.9-27-4.4c-8.7-0.5-13.7-3.3-21.7-7.2c-4.8-2.4-9.9-4.1-15.2-5c-1.9-0.3-4.2-0.4-5.4,1.2
			c-0.5,0.6-0.7,1.4-0.9,2.3c-1.7,7.3-3.8,19.1,1.9,25.5c3.1,3.4,17.5,3.9,16.5-3.3C481.6,126.3,484.3,132.9,490.5,135z"/>
	</g>
	<g>
		<path class="st8" d="M462.2,59.9c-8.3,9.1-15.4,19.4-21,30.2c-2.9,5.6-5.9,11.6-4.9,17.7c1.1,6.7,7.3,12.2,14.4,12.7
			c7,0.5,14.1-4.1,16.2-10.5c-2.1,10.2,7.3,20.3,18,22.3c10.7,2,21.7-2.5,30.2-9.1c-1.8,8.2,4.8,17.3,13.5,18.5
			c8.7,1.3,17.7-5.4,18.6-13.8c-1,8.6,5.9,17.4,14.8,18.9c8.9,1.4,18.4-4.6,20.5-13c-2.3,9.4,5.2,13,9.9,18.9
			c22.9,28.9-3.5,68.6-16.4,96.5c-2.6,5.8-5.4,12-4.5,18.3c0.5,4.1,2.5,7.9,4.8,11.3c7.1,10.7,19,19.4,31.7,18.6
			c4.2,7.4,10.6,13.6,18.2,17.7c5.9,3.2,12.7,5,19.2,3.3s12-7.5,11.8-14.1c0.3,7.9,17,8.7,21.6,7.6c8.9-2.1,18.9-8.6,23.2-16.7
			c7.3-13.7-2.6-29.3-4.2-43.1c-2.3-21.5-8.3-41.8-12.3-63.1c-5.4-28.5-3.1-57.9-8-86.5c-8.9-50.2-52-91.1-108.4-76.3
			c-3.1,0.8-6.2,1.8-9.4,1.9c-3.2,0.1-6.2-0.6-9.3-1.3C514.9,20.2,484.3,35.7,462.2,59.9z"/>
		<path class="st9" d="M461.2,53.7c-8,9.1-14.7,19.4-20.2,30.2c-2.8,5.6-5.7,11.6-4.7,17.7c1,6.7,7,12.2,13.7,12.7
			c6.7,0.5,13.5-4.1,15.5-10.5c-2,10.2,7,20.3,17.3,22.3c10.3,2,20.8-2.5,28.9-9.1c-1.7,8.2,4.6,17.3,12.9,18.5s17-5.4,17.8-13.8
			c-0.9,8.6,5.7,17.4,14.2,18.9c8.6,1.4,17.7-4.6,19.7-13c-2.3,9.4,5.1,13,9.5,18.9c13.6,18,10.6,36.5,0.7,55.9
			c-8,15.7-27.7,42.6-17.7,61.3c8.8,16.4,35.5,20.8,49.5,9.2c-1.9,4.4-0.5,9.7,2.4,13.4c3,3.7,7.5,5.9,12.2,7
			c5.2,1.2,10.9,1,15.5-1.7c4.5-2.8,7.4-8.6,5.6-13.6c3.5,5,8.2,9.5,14.1,11.4c11,3.6,21.6-5,23.4-16c2.7-16.2-13.2-33-19.6-46.9
			c-8-17.4-10.8-36.7-12.1-55.7c-1.6-23.2-1.3-46.7-6.2-69.4c-5-22.8-16-45.3-35.5-58c-11.4-7.4-26-17.1-39-21.1
			c-9.7-2.9-14.9-0.5-24.3-0.2c-3,0.1-6-0.6-8.9-1.3C511.7,13.9,482.3,29.6,461.2,53.7z"/>
	</g>
</g>
<g>
	<path class="st5" d="M412.3,260.1c-4.7,0.6-9.2,2.2-12.9,5c-12.7,9.6-3.1,19.4-2.8,31.3c0.3,12-4.1,23.9-8.9,34.7
		c-1.9,4.3-3.9,8.9-3.7,13.5c0.2,4.7,3.4,9.4,7.9,9.4c4.4,0,7.8-4.2,10.3-8c11.6-18.2,19.3-38.8,22.7-60.1
		c14.9,6.9,38.4,4.6,54.4,2.6c8.8-1.1,19-4.1,21.9-12.5c0.6-1.7,0.8-3.6-0.2-5.2c-0.8-1.3-2.2-2-3.6-2.6c-10.5-4.8-22-7.5-33.5-7.6
		c-7.5-0.1-15,0.8-22.5,0.7c-7.2-0.2-14.3-1.5-21.5-1.7C417.3,259.5,414.8,259.6,412.3,260.1z"/>
	<path class="st5" d="M413.6,326.4c-6.1,9.3-1.2,22-4.5,32.7c-0.5,1.5-1.2,2.9-2.3,3.9c-6.2,4.8-21.6,1-24.3-6.4
		c-1.1-2.9-0.4-6.1,0.3-9c1.9-8.1,4.6-15.9,8.1-23.3"/>
	<path class="st7" d="M423.5,280c-0.1,2.5,0.1,5.5,2.2,6.9c0.9,0.6,2,0.7,3.2,0.9c3.5,0.5,7,1.4,10.4,0.9c3.5-0.6,6.9-3.3,6.9-6.8
		c0-3-2.6-5.5-5.4-6.6c-2.8-1.1-5.9-1.1-8.9-1.6c-2.4-0.4-4.8-1.1-7.1-2C417.7,268.8,423.7,276.6,423.5,280z"/>
</g>
<path class="st10" d="M481.5,181.9c3.1-0.8,5.3-5.7,4.1-8.7c-0.5-1.2-1.5-2.1-2.4-2.9c-5-4.1-20.1-8-17.1,4.1
	c1.2,4.9,6.9,7,11.8,7.6C479.1,182.1,480.3,182.1,481.5,181.9z"/>
<path class="st11" d="M528.6,174.6c-4.5,0.8-9.1,2.5-11.8,6.2c-2,2.8-2.6,6.5-2.4,9.9c0.2,3.7,1.4,7.6,4.2,10c3.3,2.8,8,3,12.4,2.8
	c4.8-0.2,9.9-0.7,13.5-3.9c3.7-3.2,5.1-8.2,5.8-13.1C552.3,172.5,539.5,172.7,528.6,174.6z"/>
<path class="st12" d="M459,185.5c-1.3,5.2,2.6,10.2,7,13.1c3.7,2.3,8,3.9,12.5,3.4c4.3-0.5,8.7-3,10.4-7"/>
<g>
	<path class="st13" d="M476.5,146.9c-1.3,0-2.4-0.2-3.7-0.6c-2.5-1-4.8-3.1-6.6-6.2c-1.6-2.8-2.5-5.5-2.5-8.1h2.7
		c0,2.1,0.7,4.4,2.2,6.9c1.5,2.6,3.3,4.3,5.2,5.1c3.8,1.4,8.2-0.6,12-2.9l1.4,2.3C483.9,145,480.2,146.9,476.5,146.9z"/>
	<path class="st13" d="M519.2,163.4c-4.1,0-7.9-2.2-9.4-5.6c-1.4-2.8-1.1-6-0.9-8.6l2.7,0.2c-0.2,2.3-0.4,5.1,0.6,7.1
		c1.3,2.5,4.4,4.2,7.6,4c3-0.3,6-1.9,8.2-4.7l2.1,1.7c-2.7,3.3-6.4,5.3-10.1,5.6C519.7,163.4,519.4,163.4,519.2,163.4z"/>
	
		<rect x="457.5" y="137.3" transform="matrix(0.9414 -0.3372 0.3372 0.9414 -19.6902 163.971)" class="st13" width="9.3" height="2.7"/>
	<path class="st13" d="M466.2,150.3l-2.2-1.6c1.8-2.3,3.8-4.4,6.1-6.2l1.7,2.1C469.7,146.3,467.8,148.2,466.2,150.3z"/>
	
		<rect x="503.7" y="162.8" transform="matrix(0.7113 -0.7029 0.7029 0.7113 31.4201 404.8417)" class="st13" width="9.7" height="2.7"/>
	
		<rect x="520.4" y="161.2" transform="matrix(0.9592 -0.2829 0.2829 0.9592 -25.769 154.3836)" class="st13" width="2.7" height="10.5"/>
</g>
<path class="st2" d="M427.1,303.4c-3.1,5.9,0.3,14.8,6.9,15.5c-7.9-2.3-16,6.4-15.1,14.6c0.9,8.2,8.2,14.6,16.1,16.9
	c7.9,2.4,16.4,1.5,24.6,0.7c-1.2,9.6,8.4,18,18.1,18.7c9.7,0.7,18.9-4.1,26.8-9.7c-1.3,11.4,10.2,21.2,21.6,21.5
	c11.4,0.3,21.9-6.7,29.6-15.1c1.6,10,10.1,18.5,20.1,20.1c10,1.6,20.7-4,25.3-13c12.5,8.5,29.4,9.9,43.1,3.6
	c7.5-3.4,14.5-12.5,9.7-19.1c7.1,4.8,17.3-4.2,15.9-12.7c-1.4-8.5-9.9-14.1-18.3-15.8c-8.2-1.6-19.1,1.5-20,9.8
	c-7.3-22.1-38.8-31.5-57-17c-8.7-8.7-17.8-17.5-29.2-22s-26-3.3-34,6c4.1-11.5-4.1-25.8-16.2-27.9s-24.7,8.4-24.8,20.6
	c-1.3-16.2-12.3-2-15.9-1.5C444.6,298.8,433.7,290.8,427.1,303.4z"/>
<path class="st2" d="M258.3,344c-9.3-0.8-19.3,3.4-23.9,11.5s-2.4,19.9,5.6,24.7c-7.4-5.1-18,4.2-16.9,13.1s9.3,15.3,17.7,18.6
	s17.5,4.7,25.3,9.1c-5.5-1-9.8,6-8.2,11.4c1.6,5.4,6.7,8.9,11.7,11.4c19.4,9.6,43,10.2,62.9,1.6c-0.1,10,7.4,19,16.6,23.1
	c9.2,4.1,19.6,4.2,29.6,3.2c9-0.9,18.7-2.8,24.8-9.5c6.1-6.7,6.2-19.3-1.9-23.4c3.7,1.4,6.9-2.9,7.9-6.7c3-11.5-1.4-24.3-9.9-32.5
	c-8.6-8.2-20.7-12.2-32.6-12c0.2-12.8-6.9-25.4-17.9-31.9s-25.5-6.6-36.6-0.3c3.9-10.8-5.8-23.9-17.2-23.5
	c-10.2,0.4-16.5,10.5-16.9,19.8C272.1,349.1,265.8,344.7,258.3,344z"/>
<path class="st2" d="M565.5,397.7c-14.9,3.8-27.7,15.4-32.8,29.9c-14.4-12.2-31-23.5-49.8-24.4c-18.8-0.9-39.3,12.5-39.8,31.4
	c2.1-2.3-0.8-6.4-3.9-6.3c-3.1,0.1-5.6,2.8-7.2,5.5c-10.4,17.3,1.9,43.5,21.9,46.5c-6.9,3.6-14.4,8-16.7,15.4
	c-2.2,7,1.2,14.8,6.8,19.5s12.9,6.8,20.1,7.9c18.8,2.7,38.5-1.2,54.8-10.9c6.4,13.2,24.6,17.6,38.1,11.8s22.4-19.2,26.7-33.3
	c12.2,1.1,24.7,2.2,36.7-0.6c12-2.8,23.6-10,28.3-21.4c4.7-11.3,0.4-26.6-11-31.2c9.9,1.6,18.4-10.2,15.9-19.9
	c-4.9-19.1-25.3-16.2-40-16C597.3,401.8,581.8,393.6,565.5,397.7z"/>
<path class="st2" d="M334.8,287.4c0.5-7.5,5.3-14.3,11.6-18.5c6.3-4.2,13.9-6,21.4-6.6c5.3-0.4,10.9-0.2,15.3,2.7s6.9,9.3,4,13.7
	c4.4-5.1,13-6,18.1-1.6c5.1,4.4,5.5,13.3,0.6,17.9c-6.3,5.9-16.3,3.2-24.4,0.3c-4.8,12.4-19.4,18.1-32.8,18.9
	c-4.6,0.3-10.3-0.5-12.1-4.8c-0.3-0.7-0.6-1.7-1.4-1.9c-0.8-0.3-1.5,0.3-2.1,0.9c-4.6,4.5-8.3,10-13.6,13.7
	c-16.3,11.5-27.4-7.6-21.4-21.9C301.1,293.1,335.9,271,334.8,287.4z"/>
<path class="st8" d="M556.2,82.4c-6.9,4.5-7.9,15-3.4,21.9c4.5,6.9,13,10.2,21.2,10.3c8.2,0.1,16.2-2.5,23.8-5.4
	c-3.3,7.5,2.3,16.8,10.1,19.5c7.8,2.7,16.5,0.1,23.4-4.4c8.3-5.3,15.3-14.1,15-24c5.6,2.5,12.5-1.7,14.8-7.3s1.3-12.2-0.3-18.1
	c-1.3-4.7-3.1-9.5-6.8-12.6c-3.3-2.8-7.7-3.9-11.9-4.5c-7.3-1-15.6-0.5-20.8,4.8c1.8-8.5-2.3-17.6-9.1-23.1
	c-13.6-10.9-27.9-7.3-42-1c-11.7,5.3-20.4,4-32.5,6.2c-9.6,1.8-18.6,6.7-18.4,18.3C519.6,82.1,542.3,83.3,556.2,82.4z"/>
<path class="st2" d="M558.5,56.4c-7.7,5-8.9,16.9-3.9,24.7s14.7,11.5,23.9,11.7c9.2,0.2,18.2-2.8,26.9-6.1c-3.8,8.5,2.6,19,11.4,22
	s18.6,0.1,26.5-4.9c9.4-6,17.2-16,16.9-27.1c6.3,2.8,14.1-1.9,16.7-8.3c2.6-6.4,1.5-13.7-0.4-20.4c-1.5-5.3-3.5-10.7-7.6-14.2
	c-3.7-3.1-8.6-4.4-13.4-5.1c-8.2-1.2-17.6-0.6-23.4,5.4c2.1-9.6-2.6-19.9-10.3-26c-15.3-12.3-31.5-8.3-47.4-1.1
	c-13.3,6-23,4.5-36.7,7c-10.8,2-20.9,7.6-20.8,20.7C517.1,56.1,542.8,57.4,558.5,56.4z"/>
<path class="st8" d="M600,199.6c-4.9,6.8-1.2,18,6.8,20.5c-6.9,2.7-10.3,12-6.7,18.5c3.6,6.5,13.3,8.5,19.3,4.1
	c-2.9,3.2,0.6,8.5,4.6,10c5.8,2.2,12.9,0.6,17.1-4c4.2-4.6,5.3-11.8,2.6-17.4c2.4,2.3,6.1-1,7-4.1c2.8-9.6-3.6-20.8-13.2-23.3
	c3.4-0.8,4.7-5.5,2.9-8.5C637.1,190.3,603.8,194.4,600,199.6z"/>
<path class="st2" d="M603.7,176.4c-5,9.8-2.7,24.2,9.5,28c-9.4,3.7-14,16.4-9.1,25.3s18.2,11.7,26.3,5.5c-4,4.4,0.8,11.6,6.3,13.7
	c7.9,3.1,17.6,0.8,23.4-5.4c5.8-6.2,7.2-16.1,3.5-23.7c3.2,3.1,8.3-1.4,9.5-5.7c3.9-13.2-4.8-27.6-17.6-31.7
	c12-8.8-19.1-29.8-21.2-1.5c-1-6.8-6.8-12.6-13.5-13.6C612.7,166.1,606.8,170.4,603.7,176.4z"/>
<path class="st2" d="M247.4,487.2c9.4-10.7,24.5-16.2,38.7-13.9c14.1,2.3,26.7,12.2,32.3,25.4c-2.2-1,0.8-3.9,3.2-4.2
	c11-1.4,23-2.6,32.6,3s13.8,21.1,4.9,27.8c-6.5,4.8-15.5,2.6-23.6,3.3c-9.2,0.8-17.6,5.7-26.8,7.2c-15.6,2.5-32.3-6.4-38.8-20.7
	c-7.9,7.8-19.5,11.6-30.4,10s-21-8.7-26.2-18.4c-1.6-2.9-2.5-7.1,0.2-9.1c-6.9-1.4-13.6-4.3-19.4-8.4
	C168.2,471.2,265.1,451.4,247.4,487.2z"/>
<path class="st5" d="M632.3,378.8c-26.1-4.2-52-5.2-78.3-6.4c-6.9-0.3-14.3-0.5-20.1,3.3c-5.8,3.7-8.9,12.6-4.2,17.6
	c3.3,3.4,8.7,3.7,13.4,2.6c4.7-1.1,9-3.2,13.7-3.7c3.3-0.4,6.5,0.1,9.8,0.5c22.7,3,56.5,14.5,78.7,4.5c23-10.3-3.4-67.7-15.2-81.8
	c-14.5-17.4-36.8-5.7-30.9,15.2c6.1,21.7,22.1,33,34,50.4"/>
<path class="st3" d="M752.5,429.4c23.1-40.8,9.9-86.9-17.5-119.5c-2.3-2.8-4.7-5.7-5.9-9.3c-1.2-3.6-0.8-8.3,1.7-10.8
	c1.5-1.4,3.4-2,5.3-2.1c15.6-1.1,21.9,17.7,28,31c7.9,17.3,18.1,33.1,20.1,53.3c1.2,11.9-0.6,23.9-3,35.6
	c-4.9,24.6-20.2,43.1-36.2,59.5c-6.5,6.6-13.5,15.3-22.7,15.4c-4.5,0-9.3-2.8-10.6-7.8c-1.3-4.9,1.1-10.3,4.4-13.5s7.6-5,11.5-7.2
	C739.1,447.3,747,439.1,752.5,429.4z"/>
<path class="st3" d="M136.7,353c-6,12.4-8.5,26.2-9.8,40c-1.9,19.9-0.8,42.1,12.9,56.9c1.5,1.7,3.4,3.3,5.7,3.5
	c3.2,0.3,6-2.6,6.7-5.7c0.8-3.1,0-6.4-0.7-9.5c-4.4-17.9-10.1-35.9-9.6-54.3c0.5-18.4,8.9-38,25.5-46c2.8-1.3,5.8-2.3,8.3-4.1
	c3.6-2.5,6-6.7,6.4-11.1c0.1-1.1,0.1-2.2-0.3-3.1C175.7,305.9,139.4,347.5,136.7,353z"/>
<path class="st3" d="M430,578c18.8-1.4,37.7-2.8,56.3-0.2c3.4,0.5,7.4,1.6,8.4,4.9c1.5,4.8-4.6,8.2-9.5,9.2
	c-26.2,5.7-53.1,3.4-79.3-0.3c-8.5-1.2-33-1.8-19-10.5C395.3,576,420,578.8,430,578z"/>
<path class="st14" d="M674.9,564.3c5.2-4.4,9-10.1,13-15.6c9.1-12.4,19.7-23.7,31.3-33.7c4.7-4,10-7.9,16.1-8.1
	c1.1,0,2.4,0.1,3.2,0.9c0.7,0.6,0.9,1.6,1.1,2.5c1.7,9.2-2.7,18.4-7.8,26.2c-15,23.1-36.4,41.3-58.1,58.3c-4.7,3.7-9.8,7.5-15.8,8.3
	c-6,0.8-13-2.5-14-8.5C641.7,581.5,667.1,570.9,674.9,564.3z"/>
<path class="st15" d="M688.2,484.2c-10.3,6.6-20.6,13.1-30.8,19.7c-3,1.9-6.4,5.4-4.5,8.4c4.2,3.5,10.5,1,15.3-1.6
	c5.2-2.8,10.3-5.5,15.5-8.3c3.1-1.7,6.3-3.4,8.6-6.2c2.3-2.7,3.3-6.8,1.6-9.9c-1.7-3.1-6.6-4.3-8.9-1.5"/>
<path class="st1" d="M354.5,663.1c-5.5,2.2-12.3-0.8-17.3,2.2c-4.1,2.5-5.3,8.3-3.5,12.8c1.8,4.5,6,7.6,10.4,9.5
	c12.3,5.3,27.4,2.2,37.4-6.8s14.6-23.1,13.1-36.4c-0.3-2.9-0.9-5.8-2.5-8.2c-5-7.6-21.7-10.8-27.7-3.7
	C357.3,640.8,368.6,657.6,354.5,663.1z"/>
<path class="st1" d="M681.7,640.2c-7.5-5-14.9-10.5-19.8-18.1c-4.9-7.6-6.9-17.5-3.1-25.7c3.8-8.2,14.4-13.1,22.4-9
	c10.1,5.2,11.8,20.9,22.5,24.7c5.6,2,12.1,0,17.3,2.6c7.1,3.6,7.8,14.4,2.8,20.6c-5,6.2-13.5,8.4-21.4,8.4c-9.7,0-19.3-2.8-27.5-7.9
	"/>
</svg>
