<?xml version="1.0" encoding="utf-8"?>
<!-- Generator: Adobe Illustrator 22.1.0, SVG Export Plug-In . SVG Version: 6.00 Build 0)  -->
<svg version="1.1" id="Layer_1" xmlns="http://www.w3.org/2000/svg" xmlns:xlink="http://www.w3.org/1999/xlink" x="0px" y="0px"
	 viewBox="0 0 912.3 197.4" style="enable-background:new 0 0 912.3 197.4;" xml:space="preserve">
<style type="text/css">
	.st0{fill:#F5919C;}
	.st1{fill:#F9BEC1;}
	.st2{fill:#A57F83;}
</style>
<path class="st0" d="M822.9,197.4H89.4C40,197.4,0,157.4,0,108V89.4C0,40,40,0,89.4,0H823c49.3,0,89.4,40,89.4,89.4V108
	C912.3,157.4,872.3,197.4,822.9,197.4z"/>
<title>Asset 89</title>
<path class="st1" d="M831.4,161.8H80.9C36.2,161.8,0,125.6,0,80.9l0,0C0,36.2,36.2,0,80.9,0h750.5c44.7,0,80.9,36.2,80.9,80.9l0,0
	C912.3,125.6,876.1,161.8,831.4,161.8z"/>
<g>
	<path class="st2" d="M44.7,98c0,1.4-0.5,2.3-1.5,2.9c-1,0.6-2.6,0.9-4.7,0.9H27.1c-2.3,0-3.8-0.4-4.6-1.2c-0.8-0.8-1.2-2.2-1.2-4.3
		V65.5c0-2.1,0.3-3.7,0.9-4.7c0.6-1,1.7-1.6,3.2-1.6c2.8,0,4.1,2.1,4.1,6.3V94h9C42.7,94,44.7,95.4,44.7,98z"/>
	<path class="st2" d="M75.1,84.7c0,1.4-0.3,2.3-1,2.7c-0.7,0.4-1.7,0.5-3,0.5H53.3c0.7,4.9,3.4,7.4,8.1,7.4c1.2,0,2.3-0.2,3.3-0.5
		c1-0.3,1.9-0.7,2.7-1.1c0.8-0.4,1.5-0.8,2.2-1.1c0.7-0.3,1.3-0.5,1.8-0.5c0.9,0,1.7,0.3,2.2,0.9c0.6,0.6,0.9,1.3,0.9,2.1
		c0,0.9-0.3,1.8-1,2.7c-0.7,0.9-1.7,1.7-2.9,2.4c-1.2,0.7-2.7,1.3-4.3,1.7c-1.7,0.4-3.4,0.6-5.4,0.6c-2.2,0-4.3-0.4-6.2-1.2
		c-1.9-0.8-3.6-2-5-3.4c-1.4-1.5-2.5-3.2-3.3-5.2c-0.8-2-1.2-4.2-1.2-6.6c0-2.4,0.4-4.6,1.2-6.6c0.8-2,1.8-3.8,3.2-5.3
		c1.4-1.5,3-2.6,4.8-3.5c1.8-0.8,3.9-1.2,6.1-1.2c2.2,0,4.1,0.4,6,1.2c1.8,0.8,3.4,1.9,4.7,3.3c1.3,1.4,2.3,3,3,4.9
		C74.8,80.7,75.1,82.6,75.1,84.7z M67.3,83.2c-0.2-2.4-0.9-4.2-2.3-5.5c-1.4-1.3-2.9-1.9-4.6-1.9c-1.8,0-3.3,0.6-4.6,1.8
		c-1.3,1.2-2.2,3.1-2.7,5.6H67.3z"/>
	<path class="st2" d="M95.9,74.7c0,2.2-1.8,3.4-5.3,3.4h-1.5v17.8c0,2.1-0.3,3.7-0.9,4.7c-0.6,1-1.6,1.6-3.1,1.6s-2.5-0.5-3.1-1.6
		c-0.6-1-0.9-2.6-0.9-4.7V78.1h-1.1c-1.4,0-2.6-0.3-3.4-0.9c-0.8-0.6-1.2-1.4-1.2-2.4c0-1.2,0.4-2.1,1.3-2.6
		c0.9-0.6,2.4-0.9,4.4-0.9v-5c0-2.1,0.3-3.7,0.9-4.7c0.6-1,1.6-1.6,3.1-1.6c1.4,0,2.4,0.5,3,1.6c0.6,1,0.9,2.6,0.9,4.7v5h1.6
		c1.6,0,2.9,0.3,3.8,0.9C95.5,72.7,95.9,73.6,95.9,74.7z"/>
	<path class="st2" d="M105.9,65.3c0,1.6-0.3,3.1-0.8,4.5c-0.5,1.3-1.2,2.5-2,3.5c-0.8,1-1.7,1.7-2.6,2.3c-1,0.5-1.9,0.8-2.8,0.8
		c-0.6,0-1-0.1-1.2-0.3c-0.3-0.2-0.5-0.5-0.6-0.7c-0.4-1,0.1-2,1.5-2.9c1-0.6,1.8-1.4,2.4-2.4c0.6-1,0.9-2.1,0.9-3
		c-0.2,0.1-0.5,0.2-0.9,0.2c-1,0-1.9-0.4-2.7-1.1c-0.8-0.7-1.2-1.7-1.2-3c0-1.2,0.4-2.2,1.2-3.1c0.8-0.9,1.9-1.3,3.3-1.3
		c1.5,0,2.8,0.6,3.7,1.9C105.4,61.8,105.9,63.4,105.9,65.3z"/>
	<path class="st2" d="M131.5,92.3c0,1.4-0.3,2.8-0.9,4.1c-0.6,1.3-1.4,2.4-2.5,3.3c-1.1,0.9-2.3,1.7-3.8,2.2
		c-1.5,0.5-3.1,0.8-4.9,0.8c-3.3,0-5.9-0.6-7.9-1.8c-2-1.2-3.1-2.7-3.1-4.6c0-1,0.3-1.9,0.8-2.6c0.5-0.7,1.2-1.1,2.1-1.1
		c0.7,0,1.5,0.2,2.2,0.5c0.7,0.3,1.5,0.6,2.2,0.9c0.7,0.3,1.4,0.6,2.2,0.9c0.7,0.3,1.5,0.5,2.3,0.5c1,0,1.8-0.3,2.4-0.9
		c0.6-0.6,0.9-1.2,0.9-1.9c0-0.8-0.5-1.6-1.4-2.2c-0.9-0.6-2.3-1.3-4.3-2c-2.7-1.2-4.8-2.4-6.3-3.7c-1.5-1.3-2.2-3.1-2.2-5.5
		c0-2.8,1-5.1,3.1-7s4.8-2.8,8.1-2.8c1.5,0,2.9,0.2,4.1,0.5c1.3,0.3,2.4,0.8,3.3,1.3c0.9,0.6,1.6,1.2,2.1,2c0.5,0.7,0.7,1.5,0.7,2.3
		c0,1-0.3,1.7-0.9,2.3c-0.6,0.6-1.4,0.9-2.3,0.9c-0.6,0-1.1-0.1-1.8-0.4c-0.6-0.2-1.3-0.5-1.9-0.8c-0.7-0.3-1.3-0.6-2-0.8
		c-0.7-0.2-1.3-0.4-1.9-0.4c-1,0-1.8,0.3-2.2,0.8c-0.5,0.5-0.7,1.1-0.7,1.8c0,1,0.6,1.8,1.9,2.4c1.3,0.6,3,1.3,5.2,2.3
		c2.5,1.2,4.4,2.4,5.6,3.7C130.9,88.5,131.5,90.2,131.5,92.3z"/>
	<path class="st2" d="M186.3,92.3c0,1.4-0.3,2.8-0.9,4.1c-0.6,1.3-1.4,2.4-2.5,3.3c-1.1,0.9-2.3,1.7-3.8,2.2
		c-1.5,0.5-3.1,0.8-4.9,0.8c-3.3,0-5.9-0.6-7.9-1.8c-2-1.2-3.1-2.7-3.1-4.6c0-1,0.3-1.9,0.8-2.6c0.5-0.7,1.2-1.1,2.1-1.1
		c0.7,0,1.5,0.2,2.2,0.5c0.7,0.3,1.5,0.6,2.2,0.9c0.7,0.3,1.4,0.6,2.2,0.9c0.7,0.3,1.5,0.5,2.3,0.5c1,0,1.8-0.3,2.4-0.9
		c0.6-0.6,0.9-1.2,0.9-1.9c0-0.8-0.5-1.6-1.4-2.2c-0.9-0.6-2.3-1.3-4.3-2c-2.7-1.2-4.8-2.4-6.3-3.7c-1.5-1.3-2.2-3.1-2.2-5.5
		c0-2.8,1-5.1,3.1-7s4.8-2.8,8.1-2.8c1.5,0,2.9,0.2,4.1,0.5c1.3,0.3,2.4,0.8,3.3,1.3c0.9,0.6,1.6,1.2,2.1,2c0.5,0.7,0.7,1.5,0.7,2.3
		c0,1-0.3,1.7-0.9,2.3c-0.6,0.6-1.4,0.9-2.3,0.9c-0.6,0-1.1-0.1-1.8-0.4c-0.6-0.2-1.3-0.5-1.9-0.8c-0.7-0.3-1.3-0.6-2-0.8
		c-0.7-0.2-1.3-0.4-1.9-0.4c-1,0-1.8,0.3-2.2,0.8c-0.5,0.5-0.7,1.1-0.7,1.8c0,1,0.6,1.8,1.9,2.4c1.3,0.6,3,1.3,5.2,2.3
		c2.5,1.2,4.4,2.4,5.6,3.7C185.7,88.5,186.3,90.2,186.3,92.3z"/>
	<path class="st2" d="M218.7,84.7c0,1.4-0.3,2.3-1,2.7c-0.7,0.4-1.7,0.5-3,0.5h-17.8c0.7,4.9,3.4,7.4,8.1,7.4c1.2,0,2.3-0.2,3.3-0.5
		c1-0.3,1.9-0.7,2.7-1.1c0.8-0.4,1.5-0.8,2.2-1.1c0.7-0.3,1.3-0.5,1.8-0.5c0.9,0,1.7,0.3,2.2,0.9c0.6,0.6,0.9,1.3,0.9,2.1
		c0,0.9-0.3,1.8-1,2.7c-0.7,0.9-1.7,1.7-2.9,2.4c-1.2,0.7-2.7,1.3-4.3,1.7c-1.7,0.4-3.4,0.6-5.4,0.6c-2.2,0-4.3-0.4-6.2-1.2
		c-1.9-0.8-3.6-2-5-3.4c-1.4-1.5-2.5-3.2-3.3-5.2c-0.8-2-1.2-4.2-1.2-6.6c0-2.4,0.4-4.6,1.2-6.6c0.8-2,1.8-3.8,3.2-5.3
		c1.4-1.5,3-2.6,4.8-3.5c1.8-0.8,3.9-1.2,6.1-1.2c2.2,0,4.1,0.4,6,1.2c1.8,0.8,3.4,1.9,4.7,3.3c1.3,1.4,2.3,3,3,4.9
		C218.3,80.7,218.7,82.6,218.7,84.7z M210.9,83.2c-0.2-2.4-0.9-4.2-2.3-5.5c-1.4-1.3-2.9-1.9-4.6-1.9c-1.8,0-3.3,0.6-4.6,1.8
		c-1.3,1.2-2.2,3.1-2.7,5.6H210.9z"/>
	<path class="st2" d="M250.9,84.7c0,1.4-0.3,2.3-1,2.7c-0.7,0.4-1.7,0.5-3,0.5h-17.8c0.7,4.9,3.4,7.4,8.1,7.4c1.2,0,2.3-0.2,3.3-0.5
		c1-0.3,1.9-0.7,2.7-1.1c0.8-0.4,1.5-0.8,2.2-1.1c0.7-0.3,1.3-0.5,1.8-0.5c0.9,0,1.7,0.3,2.2,0.9c0.6,0.6,0.9,1.3,0.9,2.1
		c0,0.9-0.3,1.8-1,2.7c-0.7,0.9-1.7,1.7-2.9,2.4c-1.2,0.7-2.7,1.3-4.3,1.7c-1.7,0.4-3.4,0.6-5.4,0.6c-2.2,0-4.3-0.4-6.2-1.2
		c-1.9-0.8-3.6-2-5-3.4c-1.4-1.5-2.5-3.2-3.3-5.2c-0.8-2-1.2-4.2-1.2-6.6c0-2.4,0.4-4.6,1.2-6.6c0.8-2,1.8-3.8,3.2-5.3
		c1.4-1.5,3-2.6,4.8-3.5c1.8-0.8,3.9-1.2,6.1-1.2c2.2,0,4.1,0.4,6,1.2c1.8,0.8,3.4,1.9,4.7,3.3c1.3,1.4,2.3,3,3,4.9
		C250.6,80.7,250.9,82.6,250.9,84.7z M243.2,83.2c-0.2-2.4-0.9-4.2-2.3-5.5c-1.4-1.3-2.9-1.9-4.6-1.9c-1.8,0-3.3,0.6-4.6,1.8
		c-1.3,1.2-2.2,3.1-2.7,5.6H243.2z"/>
	<path class="st2" d="M312.2,64.4c0,0.8-0.3,2-0.8,3.4l-14.1,30.9c-1.4,2.8-2.9,4.2-4.5,4.2c-1.2,0-2.2-0.4-3-1.2
		c-0.8-0.8-1.2-1.8-1.2-3c0-0.6,0.1-1.2,0.3-1.9c0.2-0.7,0.5-1.4,0.9-2.2l13.1-27.4h-13.1c-1.9,0-3.3-0.2-4.3-0.6
		c-1-0.4-1.5-1.4-1.5-3c0-2.6,1.7-4,5.1-4h16.8C310,59.8,312.2,61.3,312.2,64.4z"/>
	<path class="st2" d="M376.7,95.9c0,2.1-0.3,3.7-0.9,4.7c-0.6,1-1.6,1.6-3,1.6c-0.8,0-1.6-0.3-2.3-0.8c-0.7-0.5-1.4-1.5-2-2.9
		c-1.2,1.4-2.4,2.4-3.7,2.9c-1.3,0.6-2.7,0.9-4.2,0.9c-1.8,0-3.6-0.4-5.3-1.2c-1.7-0.8-3.2-2-4.4-3.4c-1.3-1.5-2.3-3.2-3.1-5.2
		c-0.8-2-1.2-4.2-1.2-6.5c0-2.3,0.4-4.5,1.1-6.5c0.7-2,1.8-3.7,3-5.1c1.3-1.4,2.8-2.5,4.5-3.3c1.7-0.8,3.5-1.2,5.3-1.2
		c1.4,0,2.7,0.2,3.9,0.7c1.2,0.5,2.6,1.4,4.3,2.8V62.9c0-2,0.3-3.6,0.9-4.6c0.6-1.1,1.7-1.6,3.2-1.6c1.4,0,2.4,0.5,3,1.6
		c0.6,1.1,0.9,2.6,0.9,4.6V95.9z M368.8,86c0-2.8-0.7-4.9-2-6.5c-1.3-1.6-3-2.4-4.9-2.4c-2,0-3.7,0.8-5,2.4
		c-1.4,1.6-2.1,3.7-2.1,6.5c0,2.7,0.7,4.8,2.1,6.4c1.4,1.6,3,2.4,5,2.4c2,0,3.6-0.8,4.9-2.4C368.1,90.9,368.8,88.7,368.8,86z"/>
	<path class="st2" d="M411.5,95.8c0,2.1-0.3,3.7-0.9,4.7c-0.6,1.1-1.6,1.6-3,1.6c-1,0-1.8-0.3-2.4-0.9c-0.7-0.6-1.3-1.7-1.9-3.2
		c-1.3,1.5-2.5,2.7-3.9,3.3c-1.3,0.7-2.8,1-4.3,1c-1.8,0-3.6-0.4-5.2-1.2c-1.6-0.8-3.1-1.9-4.3-3.3c-1.3-1.4-2.2-3.2-3-5.2
		c-0.7-2-1.1-4.3-1.1-6.7c0-2.3,0.4-4.5,1.1-6.5c0.7-2,1.8-3.8,3-5.2c1.3-1.5,2.8-2.6,4.5-3.4c1.7-0.8,3.5-1.2,5.4-1.2
		c1.6,0,3,0.3,4.1,0.9c1.2,0.6,2.4,1.6,3.7,3c1.3-2.4,2.7-3.6,4.4-3.6c1.4,0,2.4,0.5,3,1.6c0.6,1.1,0.9,2.6,0.9,4.7V95.8z
		 M403.4,85.9c0-2.7-0.7-4.8-2-6.3c-1.3-1.5-2.9-2.2-4.8-2.2c-1.9,0-3.6,0.7-4.9,2.2c-1.3,1.5-2,3.6-2,6.3c0,2.8,0.7,4.9,2,6.4
		c1.3,1.5,3,2.2,4.9,2.2c1.9,0,3.5-0.8,4.8-2.3C402.8,90.7,403.4,88.6,403.4,85.9z"/>
	<path class="st2" d="M445.8,95.8c0,2.1-0.3,3.7-0.9,4.7c-0.6,1.1-1.7,1.6-3.1,1.6c-1.5,0-2.6-0.5-3.2-1.6c-0.6-1.1-0.9-2.6-0.9-4.7
		V84.7c0-2.9-0.4-4.9-1.2-6.3c-0.8-1.3-2.4-2-4.6-2c-2,0-3.5,0.7-4.4,2.1c-0.9,1.4-1.4,3.4-1.4,6.1v11.2c0,4.2-1.3,6.3-4,6.3
		c-1.5,0-2.5-0.5-3.1-1.6c-0.6-1.1-0.9-2.6-0.9-4.7V76.2c0-2.1,0.3-3.6,0.9-4.7c0.6-1.1,1.6-1.6,3.1-1.6c0.8,0,1.5,0.3,2.2,0.8
		c0.7,0.5,1.4,1.5,2.2,2.8c1.3-1.5,2.6-2.5,3.9-3c1.4-0.5,2.9-0.8,4.5-0.8c3.5,0,6.2,1,8.1,3c1.9,2,2.8,5.1,2.8,9.1V95.8z"/>
	<path class="st2" d="M480,95.5c0,2.8-0.1,5.3-0.4,7.4c-0.2,2.1-0.8,4-1.8,5.6c-2.6,4.5-7.2,6.7-13.8,6.7c-4,0-7.3-0.6-9.6-1.8
		c-2.4-1.2-3.6-2.6-3.6-4.4c0-1,0.3-1.9,1-2.5c0.7-0.7,1.5-1,2.4-1c0.6,0,1.3,0.1,1.9,0.4c0.7,0.3,1.4,0.6,2.2,0.9
		c0.8,0.3,1.7,0.6,2.7,0.9c1,0.3,2.1,0.4,3.3,0.4c2.6,0,4.6-0.8,6-2.3c1.4-1.5,2.1-3.7,2.1-6.6c0-0.2,0-0.5,0-0.9c0-0.4,0-1.3,0-2.7
		c-1.5,2.4-3,4.1-4.5,4.9c-1.5,0.8-3.1,1.2-4.8,1.2c-1.8,0-3.5-0.4-5.1-1.2c-1.6-0.8-3-1.9-4.1-3.3c-1.2-1.4-2.1-3.1-2.8-5.1
		c-0.7-1.9-1-4.1-1-6.4c0-2.3,0.4-4.5,1.1-6.5s1.8-3.7,3-5.2c1.3-1.4,2.8-2.6,4.5-3.4c1.7-0.8,3.5-1.2,5.4-1.2c1.6,0,3,0.3,4.1,0.9
		c1.2,0.6,2.4,1.6,3.7,3c0.6-1.3,1.3-2.2,2-2.7c0.7-0.5,1.4-0.8,2-0.8c1.5,0,2.5,0.5,3.1,1.6c0.6,1,0.9,2.6,0.9,4.7V95.5z
		 M472.4,85.8c0-2.7-0.7-4.8-2-6.3c-1.3-1.5-3-2.3-4.9-2.3c-2,0-3.6,0.8-5,2.3c-1.3,1.5-2,3.6-2,6.3c0,2.8,0.7,4.9,2,6.5
		c1.3,1.6,3,2.4,5,2.4c2,0,3.6-0.8,4.9-2.4C471.7,90.7,472.4,88.5,472.4,85.8z"/>
	<path class="st2" d="M514.7,84.7c0,1.4-0.3,2.3-1,2.7c-0.7,0.4-1.7,0.5-3,0.5h-17.8c0.7,4.9,3.4,7.4,8.1,7.4c1.2,0,2.3-0.2,3.3-0.5
		c1-0.3,1.9-0.7,2.7-1.1c0.8-0.4,1.5-0.8,2.2-1.1c0.7-0.3,1.3-0.5,1.8-0.5c0.9,0,1.7,0.3,2.2,0.9c0.6,0.6,0.9,1.3,0.9,2.1
		c0,0.9-0.3,1.8-1,2.7c-0.7,0.9-1.7,1.7-2.9,2.4c-1.2,0.7-2.7,1.3-4.3,1.7c-1.7,0.4-3.4,0.6-5.4,0.6c-2.2,0-4.3-0.4-6.2-1.2
		c-1.9-0.8-3.6-2-5-3.4c-1.4-1.5-2.5-3.2-3.3-5.2c-0.8-2-1.2-4.2-1.2-6.6c0-2.4,0.4-4.6,1.2-6.6c0.8-2,1.8-3.8,3.2-5.3
		c1.4-1.5,3-2.6,4.8-3.5c1.8-0.8,3.9-1.2,6.1-1.2c2.2,0,4.1,0.4,6,1.2c1.8,0.8,3.4,1.9,4.7,3.3c1.3,1.4,2.3,3,3,4.9
		C514.3,80.7,514.7,82.6,514.7,84.7z M506.9,83.2c-0.2-2.4-0.9-4.2-2.3-5.5c-1.4-1.3-2.9-1.9-4.6-1.9c-1.8,0-3.3,0.6-4.6,1.8
		c-1.3,1.2-2.2,3.1-2.7,5.6H506.9z"/>
	<path class="st2" d="M537.9,73.8c0,0.9-0.2,1.6-0.7,2.1c-0.5,0.5-1.1,0.9-1.8,1.3c-0.7,0.3-1.5,0.7-2.4,0.9c-0.9,0.3-1.8,0.6-2.7,1
		c-1.5,0.6-2.4,1.4-2.8,2.3c-0.4,0.9-0.5,2.3-0.5,4.1v10.2c0,4.2-1.3,6.3-4,6.3c-1.5,0-2.5-0.5-3.1-1.6c-0.6-1.1-0.9-2.6-0.9-4.7
		V76.2c0-2.1,0.3-3.6,0.9-4.7c0.6-1.1,1.6-1.6,3.1-1.6c0.8,0,1.5,0.3,2.2,0.8c0.7,0.5,1.4,1.5,2.2,2.9c1.2-1.4,2.3-2.4,3.4-2.9
		c1.1-0.6,2.1-0.9,3.1-0.9c1.2,0,2.2,0.4,2.9,1.2C537.5,71.7,537.9,72.7,537.9,73.8z"/>
	<path class="st2" d="M569,86c0,2.4-0.4,4.7-1.1,6.7c-0.7,2.1-1.8,3.8-3.2,5.3c-1.4,1.5-3,2.6-4.8,3.4c-1.8,0.8-3.9,1.3-6.2,1.3
		c-2.2,0-4.3-0.4-6.2-1.3s-3.5-2-4.9-3.4c-1.3-1.5-2.4-3.2-3.2-5.3c-0.8-2.1-1.2-4.3-1.2-6.7c0-2.4,0.4-4.7,1.2-6.7
		c0.8-2,1.8-3.8,3.2-5.2c1.4-1.5,3-2.6,4.9-3.4c1.9-0.8,3.9-1.2,6.1-1.2c2.3,0,4.3,0.4,6.2,1.2c1.8,0.8,3.5,2,4.8,3.4
		c1.4,1.5,2.4,3.2,3.2,5.2C568.7,81.3,569,83.6,569,86z M560.7,85.9c0-2.8-0.7-4.9-2-6.5c-1.3-1.6-3-2.4-5-2.4
		c-1.9,0-3.5,0.8-4.9,2.3c-1.4,1.5-2.1,3.7-2.1,6.5c0,2.9,0.7,5.1,2,6.6s3,2.4,5,2.4c2,0,3.7-0.8,5-2.4
		C560.1,90.9,560.7,88.7,560.7,85.9z"/>
	<path class="st2" d="M600.8,89.1c0,4.5-1.2,7.9-3.5,10.2c-2.3,2.3-5.7,3.4-10.1,3.4c-4.4,0-7.8-1.1-10.1-3.4
		c-2.3-2.3-3.5-5.7-3.5-10.2V76.2c0-2.1,0.3-3.6,0.9-4.7c0.6-1.1,1.6-1.6,3.1-1.6c1.4,0,2.3,0.5,2.9,1.6c0.6,1.1,0.9,2.6,0.9,4.7
		v10.9c0,2.6,0.4,4.6,1.2,5.9c0.8,1.3,2.3,2,4.5,2c2.2,0,3.6-0.7,4.4-2c0.8-1.3,1.2-3.3,1.2-5.9V76.2c0-2.1,0.3-3.6,0.9-4.7
		c0.6-1.1,1.7-1.6,3.1-1.6s2.5,0.5,3.1,1.6c0.6,1.1,0.9,2.6,0.9,4.7V89.1z"/>
	<path class="st2" d="M627.5,92.3c0,1.4-0.3,2.8-0.9,4.1c-0.6,1.3-1.4,2.4-2.5,3.3c-1.1,0.9-2.3,1.7-3.8,2.2
		c-1.5,0.5-3.1,0.8-4.9,0.8c-3.3,0-5.9-0.6-7.9-1.8c-2-1.2-3.1-2.7-3.1-4.6c0-1,0.3-1.9,0.8-2.6c0.5-0.7,1.2-1.1,2.1-1.1
		c0.7,0,1.5,0.2,2.2,0.5c0.7,0.3,1.5,0.6,2.2,0.9c0.7,0.3,1.4,0.6,2.2,0.9c0.7,0.3,1.5,0.5,2.3,0.5c1,0,1.8-0.3,2.4-0.9
		s0.9-1.2,0.9-1.9c0-0.8-0.5-1.6-1.4-2.2c-0.9-0.6-2.3-1.3-4.3-2c-2.7-1.2-4.8-2.4-6.3-3.7c-1.5-1.3-2.2-3.1-2.2-5.5
		c0-2.8,1-5.1,3.1-7c2.1-1.9,4.8-2.8,8.1-2.8c1.5,0,2.9,0.2,4.1,0.5c1.3,0.3,2.4,0.8,3.3,1.3c0.9,0.6,1.6,1.2,2.1,2
		c0.5,0.7,0.7,1.5,0.7,2.3c0,1-0.3,1.7-0.9,2.3c-0.6,0.6-1.4,0.9-2.3,0.9c-0.6,0-1.1-0.1-1.8-0.4c-0.6-0.2-1.3-0.5-1.9-0.8
		c-0.7-0.3-1.3-0.6-2-0.8c-0.7-0.2-1.3-0.4-1.9-0.4c-1,0-1.8,0.3-2.2,0.8c-0.5,0.5-0.7,1.1-0.7,1.8c0,1,0.6,1.8,1.9,2.4
		c1.3,0.6,3,1.3,5.2,2.3c2.5,1.2,4.4,2.4,5.6,3.7C626.9,88.5,627.5,90.2,627.5,92.3z"/>
	<path class="st2" d="M690.1,95.8c0,2.1-0.3,3.7-0.9,4.7c-0.6,1.1-1.6,1.6-3,1.6c-1,0-1.8-0.3-2.4-0.9c-0.7-0.6-1.3-1.7-1.9-3.2
		c-1.3,1.5-2.5,2.7-3.9,3.3c-1.3,0.7-2.8,1-4.3,1c-1.8,0-3.6-0.4-5.2-1.2c-1.6-0.8-3.1-1.9-4.3-3.3c-1.3-1.4-2.2-3.2-3-5.2
		c-0.7-2-1.1-4.3-1.1-6.7c0-2.3,0.4-4.5,1.1-6.5c0.7-2,1.8-3.8,3-5.2c1.3-1.5,2.8-2.6,4.5-3.4c1.7-0.8,3.5-1.2,5.4-1.2
		c1.6,0,3,0.3,4.1,0.9c1.2,0.6,2.4,1.6,3.7,3c1.3-2.4,2.7-3.6,4.4-3.6c1.4,0,2.4,0.5,3,1.6c0.6,1.1,0.9,2.6,0.9,4.7V95.8z
		 M682.1,85.9c0-2.7-0.7-4.8-2-6.3c-1.3-1.5-2.9-2.2-4.8-2.2c-1.9,0-3.6,0.7-4.9,2.2c-1.3,1.5-2,3.6-2,6.3c0,2.8,0.7,4.9,2,6.4
		c1.3,1.5,3,2.2,4.9,2.2c1.9,0,3.5-0.8,4.8-2.3C681.4,90.7,682.1,88.6,682.1,85.9z"/>
	<path class="st2" d="M720.2,96.7c0,1.6-1,3-2.9,4.1c-2,1.1-4.5,1.7-7.5,1.7c-2.2,0-4.2-0.4-6-1.2c-1.8-0.8-3.4-1.9-4.7-3.3
		c-1.3-1.4-2.4-3.2-3.1-5.2c-0.7-2-1.1-4.3-1.1-6.8c0-2.4,0.4-4.6,1.1-6.6c0.7-2,1.8-3.8,3.2-5.2c1.4-1.5,3-2.6,4.9-3.4
		c1.9-0.8,4.1-1.2,6.4-1.2c2.9,0,5.3,0.5,7.1,1.4c1.8,0.9,2.7,2.3,2.7,4c0,0.9-0.3,1.7-0.9,2.4c-0.6,0.7-1.4,1-2.3,1
		c-0.8,0-1.8-0.2-2.9-0.7c-1.1-0.5-2.3-0.7-3.7-0.7c-2.1,0-3.8,0.8-5.2,2.4c-1.4,1.6-2.1,3.7-2.1,6.5c0,2.9,0.7,5.1,2,6.6
		c1.3,1.5,3.2,2.3,5.7,2.3c1.4,0,2.6-0.2,3.7-0.7c1.1-0.5,2-0.7,2.8-0.7c1,0,1.7,0.3,2.2,1C720,95,720.2,95.8,720.2,96.7z"/>
	<path class="st2" d="M740.5,74.7c0,2.2-1.8,3.4-5.3,3.4h-1.5v17.8c0,2.1-0.3,3.7-0.9,4.7c-0.6,1-1.6,1.6-3.1,1.6
		c-1.5,0-2.5-0.5-3.1-1.6c-0.6-1-0.9-2.6-0.9-4.7V78.1h-1.1c-1.4,0-2.6-0.3-3.4-0.9c-0.8-0.6-1.2-1.4-1.2-2.4c0-1.2,0.4-2.1,1.3-2.6
		c0.9-0.6,2.3-0.9,4.4-0.9v-5c0-2.1,0.3-3.7,0.9-4.7c0.6-1,1.6-1.6,3.1-1.6c1.4,0,2.4,0.5,3,1.6c0.6,1,0.9,2.6,0.9,4.7v5h1.6
		c1.6,0,2.9,0.3,3.8,0.9C740,72.7,740.5,73.6,740.5,74.7z"/>
	<path class="st2" d="M751.4,61.5c0,1.4-0.5,2.6-1.4,3.5c-0.9,0.9-2,1.4-3.3,1.4c-1.4,0-2.5-0.5-3.4-1.4c-0.9-0.9-1.3-2.1-1.3-3.5
		c0-1.4,0.4-2.5,1.3-3.4c0.9-0.9,2-1.4,3.4-1.4c1.3,0,2.4,0.5,3.3,1.4C751,59,751.4,60.1,751.4,61.5z M750.8,95.9
		c0,2.1-0.3,3.7-0.9,4.7c-0.6,1-1.7,1.6-3.1,1.6c-1.5,0-2.5-0.5-3.1-1.6c-0.6-1-0.9-2.6-0.9-4.7V76.6c0-2.1,0.3-3.7,0.9-4.7
		c0.6-1,1.6-1.6,3.1-1.6c2.7,0,4,2.1,4,6.3V95.9z"/>
	<path class="st2" d="M781.2,74c0,0.4-0.1,0.9-0.2,1.4c-0.1,0.5-0.3,1-0.5,1.6l-8,21.3c-0.5,1.4-1.1,2.4-1.8,3.2
		c-0.7,0.7-1.7,1.1-3.1,1.1c-1.4,0-2.5-0.4-3.1-1.2c-0.7-0.8-1.3-1.9-1.9-3.5l-8.3-21.6c-0.3-0.9-0.4-1.6-0.4-2.3
		c0-1.1,0.4-2.1,1.1-2.9c0.7-0.8,1.7-1.2,2.8-1.2c1.1,0,1.9,0.4,2.6,1.1c0.6,0.7,1.1,1.8,1.5,3.1l6,19.4l5.8-20
		c0.6-2.3,1.9-3.4,3.8-3.4c1.1,0,2,0.4,2.7,1.1C780.8,71.9,781.2,72.8,781.2,74z"/>
	<path class="st2" d="M792.9,61.5c0,1.4-0.5,2.6-1.4,3.5c-0.9,0.9-2,1.4-3.3,1.4c-1.4,0-2.5-0.5-3.4-1.4c-0.9-0.9-1.3-2.1-1.3-3.5
		c0-1.4,0.4-2.5,1.3-3.4c0.9-0.9,2-1.4,3.4-1.4c1.3,0,2.4,0.5,3.3,1.4C792.4,59,792.9,60.1,792.9,61.5z M792.2,95.9
		c0,2.1-0.3,3.7-0.9,4.7c-0.6,1-1.7,1.6-3.1,1.6c-1.5,0-2.5-0.5-3.1-1.6c-0.6-1-0.9-2.6-0.9-4.7V76.6c0-2.1,0.3-3.7,0.9-4.7
		c0.6-1,1.6-1.6,3.1-1.6c2.7,0,4,2.1,4,6.3V95.9z"/>
	<path class="st2" d="M815.6,74.7c0,2.2-1.8,3.4-5.3,3.4h-1.5v17.8c0,2.1-0.3,3.7-0.9,4.7c-0.6,1-1.6,1.6-3.1,1.6s-2.5-0.5-3.1-1.6
		c-0.6-1-0.9-2.6-0.9-4.7V78.1h-1.1c-1.4,0-2.6-0.3-3.4-0.9c-0.8-0.6-1.2-1.4-1.2-2.4c0-1.2,0.4-2.1,1.3-2.6
		c0.9-0.6,2.3-0.9,4.4-0.9v-5c0-2.1,0.3-3.7,0.9-4.7c0.6-1,1.6-1.6,3.1-1.6c1.4,0,2.4,0.5,3,1.6c0.6,1,0.9,2.6,0.9,4.7v5h1.6
		c1.6,0,2.9,0.3,3.8,0.9C815.1,72.7,815.6,73.6,815.6,74.7z"/>
	<path class="st2" d="M826.5,61.5c0,1.4-0.5,2.6-1.4,3.5c-0.9,0.9-2,1.4-3.3,1.4c-1.4,0-2.5-0.5-3.4-1.4c-0.9-0.9-1.3-2.1-1.3-3.5
		c0-1.4,0.4-2.5,1.3-3.4c0.9-0.9,2-1.4,3.4-1.4c1.3,0,2.4,0.5,3.3,1.4C826.1,59,826.5,60.1,826.5,61.5z M825.9,95.9
		c0,2.1-0.3,3.7-0.9,4.7c-0.6,1-1.7,1.6-3.1,1.6c-1.5,0-2.5-0.5-3.1-1.6c-0.6-1-0.9-2.6-0.9-4.7V76.6c0-2.1,0.3-3.7,0.9-4.7
		c0.6-1,1.6-1.6,3.1-1.6c2.7,0,4,2.1,4,6.3V95.9z"/>
	<path class="st2" d="M860.7,84.7c0,1.4-0.3,2.3-1,2.7c-0.7,0.4-1.7,0.5-3,0.5h-17.8c0.7,4.9,3.4,7.4,8.1,7.4c1.2,0,2.3-0.2,3.3-0.5
		c1-0.3,1.9-0.7,2.7-1.1c0.8-0.4,1.5-0.8,2.2-1.1c0.7-0.3,1.3-0.5,1.8-0.5c0.9,0,1.7,0.3,2.2,0.9c0.6,0.6,0.9,1.3,0.9,2.1
		c0,0.9-0.3,1.8-1,2.7c-0.7,0.9-1.7,1.7-2.9,2.4c-1.2,0.7-2.7,1.3-4.3,1.7c-1.7,0.4-3.4,0.6-5.4,0.6c-2.2,0-4.3-0.4-6.2-1.2
		c-1.9-0.8-3.6-2-5-3.4c-1.4-1.5-2.5-3.2-3.3-5.2c-0.8-2-1.2-4.2-1.2-6.6c0-2.4,0.4-4.6,1.2-6.6c0.8-2,1.8-3.8,3.2-5.3
		c1.4-1.5,3-2.6,4.8-3.5c1.8-0.8,3.9-1.2,6.1-1.2c2.2,0,4.1,0.4,6,1.2c1.8,0.8,3.4,1.9,4.7,3.3c1.3,1.4,2.3,3,3,4.9
		C860.3,80.7,860.7,82.6,860.7,84.7z M852.9,83.2c-0.2-2.4-0.9-4.2-2.3-5.5c-1.4-1.3-2.9-1.9-4.6-1.9c-1.8,0-3.3,0.6-4.6,1.8
		c-1.3,1.2-2.2,3.1-2.7,5.6H852.9z"/>
	<path class="st2" d="M885.2,92.3c0,1.4-0.3,2.8-0.9,4.1c-0.6,1.3-1.4,2.4-2.5,3.3c-1.1,0.9-2.3,1.7-3.8,2.2
		c-1.5,0.5-3.1,0.8-4.9,0.8c-3.3,0-5.9-0.6-7.9-1.8c-2-1.2-3.1-2.7-3.1-4.6c0-1,0.3-1.9,0.8-2.6c0.5-0.7,1.2-1.1,2.1-1.1
		c0.7,0,1.5,0.2,2.2,0.5c0.7,0.3,1.5,0.6,2.2,0.9c0.7,0.3,1.4,0.6,2.2,0.9c0.7,0.3,1.5,0.5,2.3,0.5c1,0,1.8-0.3,2.4-0.9
		c0.6-0.6,0.9-1.2,0.9-1.9c0-0.8-0.5-1.6-1.4-2.2c-0.9-0.6-2.3-1.3-4.3-2c-2.7-1.2-4.8-2.4-6.3-3.7c-1.5-1.3-2.2-3.1-2.2-5.5
		c0-2.8,1-5.1,3.1-7c2.1-1.9,4.8-2.8,8.1-2.8c1.5,0,2.9,0.2,4.1,0.5c1.3,0.3,2.4,0.8,3.3,1.3c0.9,0.6,1.6,1.2,2.1,2
		c0.5,0.7,0.7,1.5,0.7,2.3c0,1-0.3,1.7-0.9,2.3c-0.6,0.6-1.4,0.9-2.3,0.9c-0.6,0-1.1-0.1-1.8-0.4c-0.6-0.2-1.3-0.5-1.9-0.8
		c-0.7-0.3-1.3-0.6-2-0.8c-0.7-0.2-1.3-0.4-1.9-0.4c-1,0-1.8,0.3-2.2,0.8c-0.5,0.5-0.7,1.1-0.7,1.8c0,1,0.6,1.8,1.9,2.4
		c1.3,0.6,3,1.3,5.2,2.3c2.5,1.2,4.4,2.4,5.6,3.7C884.6,88.5,885.2,90.2,885.2,92.3z"/>
	<path class="st2" d="M899.7,96.8c0,1.5-0.4,2.8-1.3,3.8c-0.9,1-2,1.6-3.3,1.6c-1.4,0-2.5-0.5-3.4-1.6c-0.9-1-1.4-2.3-1.4-3.8
		c0-1.5,0.5-2.8,1.4-3.8s2.1-1.6,3.4-1.6c1.4,0,2.5,0.5,3.3,1.6S899.7,95.3,899.7,96.8z"/>
</g>
</svg>
