<svg xmlns="http://www.w3.org/2000/svg" viewBox="0 0 415.1 331.44"><defs><style>.cls-1{fill:#de9b62;}.cls-2{fill:#89603a;}.cls-3{fill:none;stroke:#ac794b;stroke-miterlimit:10;stroke-width:5px;}</style></defs><title>Asset 3</title><g id="Layer_2" data-name="Layer 2"><g id="Layer_1-2" data-name="Layer 1"><path class="cls-1" d="M147.17,40.55c-23.6,14.36-45.31,30.29-68.12,45.81-19.83,13.5-51.48,18.74-66.63,38.79-14.83,19.64-18,49.62-.66,68.73C35.44,220,69.4,219.74,100.48,208.42c30.79-11.21,58.38-30,85.51-47.95C217,139.92,246.72,118,273.56,92c16.35-15.87,26.08-45.07,17.12-67.48a30.39,30.39,0,0,0-17.62-17A131.59,131.59,0,0,0,240.9.15c-12.42-1-21.6,3.45-32.82,7.46a163.48,163.48,0,0,0-29.93,13.81C167.73,27.63,157.54,34.24,147.17,40.55Z"/><path class="cls-2" d="M96.31,91S197.73-6.2,259,8.59s8.45,65.5-81.34,109.87S60.71,121.19,96.31,91Z"/><path class="cls-3" d="M77.47,113.11a19.07,19.07,0,0,0-3.41-4.22c-2.37-2-5.59-2.71-8.69-2.88-4.8-.26-10,.82-13.28,4.32a6.63,6.63,0,0,0-2,5.2,7.65,7.65,0,0,0,1.33,3.09c3.59,5.44,9.61,9,16,10.46,3.72.85,13.48,2.73,16.18-1C86.67,123.65,79.59,116.34,77.47,113.11Z"/><path class="cls-3" d="M91.17,131.86c4.16,1.23,6.21,2.81,9.67,5.41s5.83,7.28,4.29,11.33-6.91,6.06-11.26,5-7.77-4.48-10.32-8.18c-3.17-4.61-9.5-13-2.88-15.08C86.42,127.11,87.6,130.8,91.17,131.86Z"/><path class="cls-3" d="M79.26,131.77l-2.12,0c-.83,2.2-3.15,3.43-4.6,5.28-1.85,2.36-2.16,5.57-3.53,8.23a11.44,11.44,0,0,1-7.44,5.82"/><path class="cls-3" d="M46.36,134.17A15.28,15.28,0,0,0,64,137.92c1.76-.83,3.33-2,5.06-2.89a8.54,8.54,0,0,1,5.62-1.1"/><path class="cls-1" d="M268.18,156.27c-23.59,14.36-45.3,30.28-68.12,45.81-19.82,13.49-51.48,18.73-66.62,38.79-14.84,19.64-18,49.61-.67,68.73,23.68,26.15,57.64,25.86,88.72,14.54,30.79-11.22,58.38-30,85.52-48,31-20.55,60.72-42.45,87.56-68.5,16.35-15.88,26.08-45.07,17.13-67.48a30.42,30.42,0,0,0-17.62-17,131.77,131.77,0,0,0-32.17-7.31c-12.42-1-21.59,3.45-32.82,7.46a164.1,164.1,0,0,0-29.93,13.81C288.74,143.35,278.55,150,268.18,156.27Z"/><path class="cls-2" d="M217.33,206.71S318.74,109.52,380,124.31s8.46,65.5-81.34,109.87S181.72,236.9,217.33,206.71Z"/><path class="cls-3" d="M198.48,228.83a19.09,19.09,0,0,0-3.4-4.22c-2.38-2-5.59-2.72-8.7-2.88-4.8-.26-10,.81-13.28,4.32a6.65,6.65,0,0,0-2,5.2,7.56,7.56,0,0,0,1.33,3.08c3.59,5.44,9.61,9,16,10.46,3.72.85,13.47,2.73,16.17-1C207.68,239.36,200.6,232.05,198.48,228.83Z"/><path class="cls-3" d="M212.19,247.58c4.15,1.23,6.2,2.81,9.67,5.41s5.83,7.28,4.28,11.32c-1.6,4.2-6.91,6.07-11.25,5s-7.78-4.49-10.32-8.18c-3.17-4.61-9.51-13-2.88-15.08C207.44,242.83,208.61,246.52,212.19,247.58Z"/><path class="cls-3" d="M200.27,247.49l-2.12,0c-.83,2.2-3.15,3.42-4.6,5.28-1.85,2.36-2.16,5.56-3.53,8.23a11.47,11.47,0,0,1-7.44,5.82"/><path class="cls-3" d="M167.38,249.89a15.26,15.26,0,0,0,17.6,3.74c1.76-.83,3.34-2,5.07-2.89a8.56,8.56,0,0,1,5.61-1.09"/></g></g></svg>