<?xml version="1.0" encoding="utf-8"?>
<!-- Generator: Adobe Illustrator 22.1.0, SVG Export Plug-In . SVG Version: 6.00 Build 0)  -->
<svg version="1.1" id="Layer_1" xmlns="http://www.w3.org/2000/svg" xmlns:xlink="http://www.w3.org/1999/xlink" x="0px" y="0px"
	 viewBox="0 0 440.4 318.2" style="enable-background:new 0 0 440.4 318.2;" xml:space="preserve">
<style type="text/css">
	.st0{fill:#FFFFFF;}
	.st1{fill:#DCDDDE;}
</style>
<title>Asset 2</title>
<g id="Layer_2_1_">
	<g id="Layer_1-2">
		<path class="st0" d="M0.1,99.1c0.2,3.9,0.5,7.9,0.8,11.8c2.3,29,18.3,56.2,31.5,81.5c13.4,25.8,25.9,52.6,40.4,78.1
			c6.2,10.8,12.8,21.5,22,29.9c36.1,33,101.3,17.1,128-20.2c19-26.6,6.8-60.2-5.3-86.9c-13.5-29.8-34.1-53.9-56.1-77.9l-35.7-38.9
			C97.2,45.4,38.5,11.8,7.1,63C0.5,73.6-0.4,86.4,0.1,99.1z"/>
		<path class="st1" d="M27.6,48.6c13-11.1,30.9-14.3,46.9-8.4c12.3,4.7,21.9,14.3,31.1,23.7c35,35.5,70.2,71.2,99.9,111.3
			c10.6,14.4,20.9,30.8,19.6,48.6c-0.8,10.5-5.7,20.3-12.2,28.4C190.5,280,145,286.6,117.5,264c-24.6-20.3-30.1-55.1-45.2-83.1
			C53.5,145.9-18.1,88.6,27.6,48.6z"/>
		<path class="st0" d="M187,209.3c12.9-2.2,26.2-1.1,38.6,3.3c-2.6-11.2-6.4-22-11.4-32.4c-2.5-5.1-5.3-10.2-9.5-14.1
			c-6.4-6-15.5-8.4-24.2-8.6c-27.6-0.5-51.2,18.8-71.9,37l-21.7,19.1c-2.9,2.6-6,5.4-6.7,9.2c-0.6,3.3,0.7,6.6,2,9.7
			c5.2,12,10.8,24.5,18.4,35.1C132.3,251,147.7,216.1,187,209.3z"/>
		<path class="st0" d="M144.9,146.5c12.4-4.4,25.6-5.6,38.6-3.4c-4.5-10.6-10.1-20.6-16.8-29.9c-3.3-4.7-7-9.2-11.8-12.3
			c-7.4-4.8-16.7-5.6-25.4-4.3c-27.3,4.3-47.1,27.3-64.4,48.9L47.1,168c-2.4,3-5,6.4-5,10.3c0,3.4,1.8,6.4,3.7,9.2
			c7.2,10.9,14.9,22.3,24.3,31.4C98.3,197.1,107.4,160.1,144.9,146.5z"/>
		<path class="st0" d="M208,79.2c0.2,3.9,0.5,7.9,0.8,11.7c2.3,29,18.3,56.2,31.5,81.5c13.4,25.8,25.9,52.6,40.4,78.1
			c6.2,10.8,12.8,21.5,22,29.9c36,33,101.3,17.1,128-20.2c19-26.6,6.8-60.2-5.3-86.9c-13.5-29.8-34.1-53.9-56.1-77.8l-35.7-38.8
			c-28.5-31-87.1-64.7-118.6-13.4C208.4,53.7,207.5,66.5,208,79.2z"/>
		<path class="st1" d="M235.4,28.7c13-11.1,30.9-14.3,46.9-8.4c12.3,4.7,21.9,14.3,31.1,23.7c35,35.5,70.2,71.2,99.9,111.3
			c10.6,14.4,21,30.8,19.6,48.6c-0.8,10.5-5.7,20.3-12.2,28.4c-22.4,27.7-67.9,34.4-95.4,11.7c-24.6-20.3-30.1-55.1-45.2-83.1
			C261.4,126,189.8,68.7,235.4,28.7z"/>
		<path class="st0" d="M394.8,189.4c12.9-2.2,26.2-1.1,38.6,3.3c-2.6-11.2-6.4-22-11.4-32.4c-2.5-5.1-5.3-10.2-9.5-14.1
			c-6.4-6-15.5-8.4-24.2-8.6c-27.6-0.5-51.2,18.8-71.9,37l-21.7,19.1c-2.9,2.6-6,5.4-6.7,9.2c-0.6,3.3,0.7,6.6,2,9.7
			c5.2,12,10.8,24.5,18.4,35.1C340.2,231.1,355.6,196.2,394.8,189.4z"/>
		<path class="st0" d="M352.8,126.6c12.3-4.4,25.6-5.6,38.6-3.4c-4.5-10.6-10.1-20.6-16.8-29.9c-3.3-4.7-7-9.2-11.8-12.3
			c-7.4-4.8-16.7-5.6-25.4-4.3C310.2,81,290.3,104,273,125.6l-18.1,22.5c-2.4,3-5,6.4-5,10.3c0,3.4,1.8,6.4,3.7,9.2
			c7.2,10.9,14.9,22.3,24.3,31.4C306.2,177.2,315.3,140.2,352.8,126.6z"/>
	</g>
</g>
</svg>
