<svg xmlns="http://www.w3.org/2000/svg" viewBox="0 0 342.25 375.36"><defs><style>.cls-1{fill:#231f20;}.cls-2,.cls-4{fill:#fff;}.cls-3{fill:none;}.cls-3,.cls-4{stroke:#fff;stroke-miterlimit:10;stroke-width:6px;}</style></defs><title>Asset 4</title><g id="Layer_2" data-name="Layer 2"><g id="Layer_1-2" data-name="Layer 1"><path class="cls-1" d="M93.19,80.51c.23,1.84.45,3.66.65,5.48.85,7.79,1.75,15.74,5,22.88,2.63,5.8,6.71,10.81,11,15.57a221.06,221.06,0,0,0,27.16,25.74c31.12,24.87,53.75,57.69,82.54,85.17,22.6,21.57,58.3,41.3,89.65,26.28C340.11,246.79,339.39,202,324,176c-11.68-19.65-30-34.24-48-48.38-25.16-19.81-44.06-44.23-65.54-68.16C199.33,47.41,188.83,33.3,175.17,24,166,17.72,157.43,8.28,147.35,3.79c-6-2.67-13.33-3.17-18.87.32-2.32,1.47-4.19,3.54-6.44,5.11-8.88,6.23-23-.46-29.67,7-2.39,2.68-3,6.46-3.38,10C87.25,44,90.91,62.73,93.19,80.51Z"/><path class="cls-2" d="M121.4,1.86C134-.91,147.15-.6,155.19,2.85c9.95,4.27,17.48,11.53,24.11,19.89,3.16,4,15.34,18.94,12.25,24.28-5.22,9-22.71-22.67-30-24.35-8.49-2-20.33,7-29.63,7.23-12.36.38-15.37,1.66-14,14.66a45.83,45.83,0,0,0,11,25.08c4.37,5,10.31,11,7.67,17.07-15.34-2.29-26.34-12-34.65-24.42-6.37-9.56-16.55-20.82-15-33.21C88.71,14.67,104.61,5.54,121.4,1.86Z"/><path class="cls-3" d="M172.32,80.66c-5-5-12.75-5.81-19.8-5.42A20.62,20.62,0,0,0,144.33,77c-2.52,1.25-4.64,3.62-4.89,6.42-.31,3.5,2.47,6.74,5.79,7.88s7,.6,10.35-.5a34.09,34.09,0,0,0,16.16-11.33"/><path class="cls-3" d="M171.63,78.21c7,.29,13.2-4.44,18.1-9.52a21.17,21.17,0,0,0,4.85-6.82c1-2.63,1-5.8-.71-8-2.12-2.76-6.31-3.23-9.5-1.8s-5.52,4.33-7.24,7.4a34.5,34.5,0,0,0-4.26,19.24"/><path class="cls-3" d="M199,84.6c-9.32-2.35-18.63-.36-27.15-4.79A68.18,68.18,0,0,1,165,104.17"/><path class="cls-3" d="M164.52,104.93a117.43,117.43,0,0,0,44.15,3.42c5.6-.63,11.35-1.76,15.93-5"/><path class="cls-3" d="M200.77,80.76a102.55,102.55,0,0,1-19.68,50.09"/><path class="cls-3" d="M222.24,101.37c1.78,9.13-.26,18.67-4.15,27.11s-9.54,15.93-15.31,23.22"/><path class="cls-3" d="M179.41,131.48a125.22,125.22,0,0,0,60.53-6.59"/><path class="cls-3" d="M200.25,151.55a111.53,111.53,0,0,0,52.22-3.09"/><path class="cls-3" d="M238.19,122.07a128.74,128.74,0,0,1-15.14,50.51"/><path class="cls-4" d="M282.23,150.22c-5.9,1.07-11.87,2.16-17.36,4.58a73.57,73.57,0,0,0-12.62,7.7c-6.4,4.56-12.77,9.24-18.36,14.77a135.31,135.31,0,0,0-17,20.48c-6.16,9.12-12.09,14.19-4.23,24,12.06,15,28.66,29.49,46.16,37.78,18.83,8.91,41.13,10.89,58.18-2.94,4.26-3.46,8.48-7.11,11.57-11.65,4.23-6.21,6.09-13.68,7.82-21,2-8.54,4-17.42,2.22-26-2.48-12.13-11.83-21.51-20.74-30.11l-11.26-10.87c-3.12-3-6.5-6.35-10.65-7.87S286.6,149.43,282.23,150.22Z"/><path class="cls-2" d="M98.41,109.21c5.31,10.54,14.45,19.44,22.22,28.26,8.28,9.39,17.4,18,26.39,26.68,8.46,8.19,16.39,17.11,24.56,25.63,10.92,11.4,22.3,22.42,33.39,33.54,8.44,8.46,18.1,15.58,27.32,23.2,2.85,2.35,5.8,4.76,9.35,5.75,1,.27,2.3.28,2.71-.65a2.36,2.36,0,0,0-.51-2.12,86.89,86.89,0,0,0-11.55-14.45c-4.51-4.54-8.28-9.19-12.4-14.18C211,210.08,201,200.24,191.41,190.09L178,175.88,165.6,162.82C149.31,145.62,133,128.39,118,110c-3.89-4.78-8.61-8.38-12-13.51l-3.28-5c-1.06-1.62-2.11-3.23-3.09-4.89-1.43-2.44-2.69-5-4-7.5L92.24,72a46.62,46.62,0,0,0,.39,9.73C93.68,91.41,94,100.43,98.41,109.21Z"/><path class="cls-1" d="M6.4,186.31c.23,1.84.45,3.66.65,5.48.86,7.79,1.75,15.74,5,22.88,2.64,5.8,6.72,10.81,11,15.57A221.77,221.77,0,0,0,50.15,256c31.12,24.87,53.75,57.69,82.55,85.17,22.59,21.57,58.29,41.3,89.64,26.28,31-14.84,30.26-59.67,14.84-85.62-11.69-19.65-30.06-34.24-48-48.38-25.16-19.81-44-44.23-65.53-68.15C112.54,153.21,102,139.1,88.39,129.77c-9.15-6.25-17.75-15.69-27.83-20.18-6-2.67-13.33-3.17-18.87.32-2.31,1.47-4.19,3.54-6.44,5.11-8.88,6.23-23-.46-29.67,7-2.39,2.68-3,6.46-3.37,10C.46,149.77,4.12,168.53,6.4,186.31Z"/><path class="cls-2" d="M34.62,107.66c12.61-2.76,25.74-2.46,33.78,1,9.95,4.27,17.48,11.53,24.11,19.89,3.16,4,15.35,18.94,12.25,24.28-5.22,9-22.71-22.67-30-24.35-8.49-2-20.33,6.95-29.63,7.23-12.36.38-15.37,1.66-14,14.66a45.83,45.83,0,0,0,11,25.08c4.37,5,10.31,11,7.68,17.07-15.35-2.29-26.35-12-34.66-24.42-6.37-9.56-16.55-20.82-15-33.21C1.93,120.47,17.82,111.34,34.62,107.66Z"/><path class="cls-3" d="M85.53,186.46c-5-5-12.75-5.81-19.79-5.42a20.81,20.81,0,0,0-8.2,1.72c-2.52,1.25-4.64,3.62-4.89,6.42-.3,3.5,2.47,6.74,5.8,7.88s7,.6,10.34-.5A34,34,0,0,0,85,185.23"/><path class="cls-3" d="M84.84,184c7,.29,13.2-4.44,18.1-9.52a21.17,21.17,0,0,0,4.85-6.82c1-2.63,1-5.8-.71-8-2.11-2.76-6.31-3.23-9.5-1.8s-5.52,4.33-7.23,7.4a34.5,34.5,0,0,0-4.27,19.24"/><path class="cls-3" d="M112.19,190.4c-9.31-2.35-18.62-.36-27.15-4.78A68.19,68.19,0,0,1,78.21,210"/><path class="cls-3" d="M77.73,210.73a117.43,117.43,0,0,0,44.15,3.42c5.6-.63,11.35-1.76,15.93-5"/><path class="cls-3" d="M114,186.56A102.55,102.55,0,0,1,94.3,236.65"/><path class="cls-3" d="M135.45,207.18c1.78,9.12-.26,18.66-4.15,27.1S121.76,250.21,116,257.5"/><path class="cls-3" d="M92.62,237.28a125.22,125.22,0,0,0,60.53-6.59"/><path class="cls-3" d="M113.46,257.35a111.53,111.53,0,0,0,52.22-3.09"/><path class="cls-3" d="M151.4,227.87a128.74,128.74,0,0,1-15.14,50.51"/><path class="cls-4" d="M195.45,256c-5.91,1.07-11.87,2.16-17.36,4.58a72.81,72.81,0,0,0-12.62,7.7,146.09,146.09,0,0,0-18.37,14.77,135.31,135.31,0,0,0-17,20.48c-6.16,9.12-12.09,14.19-4.23,24,12.06,15,28.66,29.49,46.16,37.78,18.83,8.91,41.13,10.9,58.18-2.94,4.26-3.46,8.48-7.11,11.58-11.65,4.22-6.21,6.08-13.68,7.81-21,2-8.54,4-17.42,2.22-26C249.3,291.57,240,282.2,231,273.59l-11.26-10.87c-3.12-3-6.49-6.35-10.64-7.87S199.81,255.23,195.45,256Z"/><path class="cls-2" d="M11.62,215c5.31,10.54,14.45,19.44,22.23,28.26,8.27,9.39,17.39,18,26.38,26.68,8.46,8.19,16.39,17.11,24.56,25.63,10.92,11.4,22.3,22.42,33.4,33.54,8.43,8.46,18.09,15.58,27.32,23.2,2.84,2.35,5.79,4.76,9.35,5.75,1,.27,2.29.28,2.7-.65a2.33,2.33,0,0,0-.51-2.12,86.89,86.89,0,0,0-11.55-14.45c-4.5-4.54-8.28-9.19-12.4-14.18-8.9-10.79-18.87-20.63-28.48-30.78L91.17,281.68,78.81,268.62c-16.29-17.2-32.6-34.43-47.56-52.81-3.89-4.78-8.61-8.38-12-13.51l-3.28-5c-1.05-1.61-2.11-3.23-3.09-4.89-1.43-2.44-2.69-5-3.94-7.5l-3.52-7.07a47.31,47.31,0,0,0,.39,9.73C6.89,197.21,7.2,206.23,11.62,215Z"/></g></g></svg>