<?xml version="1.0" encoding="utf-8"?>
<!-- Generator: Adobe Illustrator 22.1.0, SVG Export Plug-In . SVG Version: 6.00 Build 0)  -->
<svg version="1.1" id="Layer_1" xmlns="http://www.w3.org/2000/svg" xmlns:xlink="http://www.w3.org/1999/xlink" x="0px" y="0px"
	 viewBox="0 0 315.4 330.1" style="enable-background:new 0 0 315.4 330.1;" xml:space="preserve">
<style type="text/css">
	.st0{fill:#D4A317;}
	.st1{fill:#F7D329;}
</style>
<g>
	<path class="st0" d="M166.7,280.5v28.2c0,0,37.5,40.1,91.1,10.6s57.6-81.7,57.6-81.7v-37.5L166.7,280.5z"/>
	<path class="st1" d="M184.2,84.9l18.7,125.9c0,0-67,67-18.7,91.1c48.2,24.1,95.1-17.4,131.2-101.8L303.4,75.6
		C303.4,75.6,233.7,32.7,184.2,84.9z"/>
	<path class="st0" d="M198.9,84.9c0,0,36.2-33.5,89.7,0C264.5,98.3,223,102.3,198.9,84.9z"/>
	<path class="st0" d="M241.1,212.2c0,0,48.9-14.7,30.2,45.5l32.1-53.6l-14.7-97.8c0,0-10.7,10.7-37.5,6.7l16.1,80.7
		C267.2,193.7,277.9,200.1,241.1,212.2z"/>
</g>
<g>
	<path class="st0" d="M0,221.4v28.2c0,0,37.5,40.1,91.1,10.6s57.6-81.7,57.6-81.7v-37.5L0,221.4z"/>
	<path class="st1" d="M17.5,25.9l18.7,125.9c0,0-67,67-18.7,91.1s95.1-17.4,131.2-101.8L136.6,16.5C136.6,16.5,67-26.3,17.5,25.9z"
		/>
	<path class="st0" d="M32.2,25.9c0,0,36.2-33.5,89.7,0C97.8,39.3,56.3,43.3,32.2,25.9z"/>
	<path class="st0" d="M74.3,153.1c0,0,48.9-14.7,30.2,45.5l32.1-53.6l-14.7-97.8c0,0-10.7,10.7-37.5,6.7l16.1,80.7
		C100.5,134.7,111.2,141.1,74.3,153.1z"/>
</g>
</svg>
