<?xml version="1.0" encoding="utf-8"?>
<!-- Generator: Adobe Illustrator 22.1.0, SVG Export Plug-In . SVG Version: 6.00 Build 0)  -->
<svg version="1.1" id="Layer_1" xmlns="http://www.w3.org/2000/svg" xmlns:xlink="http://www.w3.org/1999/xlink" x="0px" y="0px"
	 viewBox="0 0 593.6 579.8" style="enable-background:new 0 0 593.6 579.8;" xml:space="preserve">
<style type="text/css">
	.st0{fill:#F6D4C1;}
	.st1{fill:#A1A1A1;}
	.st2{fill:#CDCDCD;}
	.st3{fill:#616161;}
	.st4{fill:#8ED8F8;}
</style>
<path class="st0" d="M549.3,312.9c0,0-1.1-46.2-49.5-50.7c-48.4-4.5,11.6,39.3,11.6,39.3L549.3,312.9z"/>
<path class="st1" d="M477,316.5c0,0,35.5,108.1-4.3,169.2s-40.7,80.5-40.7,80.5s13.2,19.5,33.6,6.2c0,0,58.4-96.9,56.3-127.4
	c-2.1-30.6-10.3-84-10.3-84L477,316.5z"/>
<title>Asset 11</title>
<path class="st1" d="M348.4,10.6c0,0,69.6-3.1,96.4,85.4C469.1,176,517,311.4,517,311.4s-2.2,12.8-40,15.9l-81-220.4
	C396,106.9,338.1,54.9,348.4,10.6z"/>
<path class="st2" d="M358.6,11.5c0,0,13.9,6.8,32.3,36.4c17.8,28.6,16.3,41.7,16.3,41.7L393,148L298.5,2.7L358.6,11.5z"/>
<path class="st1" d="M298.5,2.7c0,0-26.2,32.7,17.1,93.5S393,148,393,148S385.8,48.4,298.5,2.7z"/>
<ellipse transform="matrix(0.9568 -0.2908 0.2908 0.9568 -10.6744 111.868)" class="st3" cx="371" cy="91.8" rx="1.4" ry="4.7"/>
<ellipse transform="matrix(0.9568 -0.2908 0.2908 0.9568 -0.9045 91.1607)" class="st3" cx="306.2" cy="48.6" rx="1.4" ry="4.7"/>
<ellipse transform="matrix(0.9568 -0.2908 0.2908 0.9568 5.509 90.8279)" class="st3" cx="308.3" cy="26.9" rx="1.4" ry="4.7"/>
<ellipse transform="matrix(0.9568 -0.2908 0.2908 0.9568 0.7123 97.4645)" class="st3" cx="328.2" cy="46.3" rx="1.4" ry="4.7"/>
<ellipse transform="matrix(0.9568 -0.2908 0.2908 0.9568 -6.5505 95.1716)" class="st3" cx="316.9" cy="69.6" rx="1.4" ry="4.7"/>
<ellipse transform="matrix(0.9568 -0.2908 0.2908 0.9568 -6.9977 100.67)" class="st3" cx="335.1" cy="73.9" rx="1.4" ry="4.7"/>
<ellipse transform="matrix(0.9568 -0.2908 0.2908 0.9568 -23.0927 112.7767)" class="st3" cx="367.8" cy="134.1" rx="1.4" ry="4.7"/>
<ellipse transform="matrix(0.9568 -0.2908 0.2908 0.9568 -5.3109 106.13)" class="st3" cx="354.4" cy="70.9" rx="1.4" ry="4.7"/>
<ellipse transform="matrix(0.9568 -0.2908 0.2908 0.9568 -13.7306 99.6991)" class="st3" cx="328.5" cy="96" rx="1.4" ry="4.7"/>
<ellipse transform="matrix(0.9568 -0.2908 0.2908 0.9568 -14.2958 106.6774)" class="st3" cx="351.7" cy="101.4" rx="1.4" ry="4.7"/>
<ellipse transform="matrix(0.9568 -0.2908 0.2908 0.9568 -20.7255 107.2213)" class="st3" cx="350.3" cy="123.3" rx="1.4" ry="4.7"/>
<ellipse transform="matrix(0.9568 -0.2908 0.2908 0.9568 -17.5942 113.2239)" class="st3" cx="372.1" cy="115.8" rx="1.4" ry="4.7"/>
<path class="st4" d="M266.6,69.1c0,0-46.4-38.8-52.9-7.2C207.2,93.7,266.6,69.1,266.6,69.1z"/>
<path class="st4" d="M124.2,113.8c0,0-60.4,3.8-43.4,31.1C98,172.6,124.2,113.8,124.2,113.8z"/>
<path class="st4" d="M247.2,134.1c0,0-60.3,5-42.7,32C222.3,193.4,247.2,134.1,247.2,134.1z"/>
<path class="st4" d="M62.8,321.8c0,0-45.1,40.3-14.8,51.3C78.7,384.2,62.8,321.8,62.8,321.8z"/>
<path class="st4" d="M328,147c0,0-55.4,24.3-30,44.2C323.7,211.2,328,147,328,147z"/>
<path class="st4" d="M244.3,261.3c0,0-46.6,38.6-16.7,50.7C257.7,324.2,244.3,261.3,244.3,261.3z"/>
<path class="st4" d="M318.2,301.1c0,0-46.6,38.6-16.7,50.7C331.7,364,318.2,301.1,318.2,301.1z"/>
<path class="st4" d="M259.1,381.4c0,0-46.6,38.6-16.7,50.7C272.6,444.4,259.1,381.4,259.1,381.4z"/>
<path class="st4" d="M142.1,237.6c0,0-46.6,38.6-16.7,50.7C155.6,300.6,142.1,237.6,142.1,237.6z"/>
<path class="st4" d="M127.3,407.6c0,0-46.6,38.6-16.7,50.7C140.7,470.5,127.3,407.6,127.3,407.6z"/>
<path class="st0" d="M511.5,301.5c0,0-69.2-47.8-78.5-15.9c-9.3,31.9,55.7,48.8,55.7,48.8s8.4,21.2,21.4,39.4
	c13,18.2,16.9,119.5,5.2,140.3c-11.7,20.8,53.3,37.7,65,16.9c11.7-20.8-7.2-122.9-11.4-169.8C562.6,291.6,511.5,301.5,511.5,301.5
	L511.5,301.5z"/>
<path class="st0" d="M541.7,287.4c0,0,42.1,13.2,23.7,54l-23.7-14.1V287.4z"/>
<path class="st0" d="M562.6,312.9c0,0,31.3,6.6,12.9,37s-29.4,0-29.4,0L562.6,312.9z"/>
</svg>
