<svg xmlns="http://www.w3.org/2000/svg" viewBox="0 0 526.84 314.13"><defs><style>.cls-1{fill:#a1a1a1;}.cls-2{fill:#cdcdcd;}.cls-3{fill:#616161;}.cls-4{fill:#bef8ff;}</style></defs><title>Asset 71</title><g id="Layer_2" data-name="Layer 2"><g id="_2" data-name="2"><path class="cls-1" d="M481.15,59.05S434-25.24,310.19,7.59C198.3,37.26,3.79,79.44,3.79,79.44s-13.48,12,10.41,58.73L333,73S436.46,103.46,481.15,59.05Z"/><path class="cls-2" d="M472.73,47.59S454.56,36.12,406.21,36c-46.73-.15-61.07,11.22-61.07,11.22l-58.41,59.31,240.11,5.6Z"/><path class="cls-1" d="M526.84,112.09s-19.52,54.74-122.64,48-117.47-53.56-117.47-53.56S409.41,42.42,526.84,112.09Z"/><ellipse class="cls-3" cx="368.97" cy="91.57" rx="6.5" ry="2" transform="translate(-11.15 97.4) rotate(-14.82)"/><ellipse class="cls-3" cx="467.11" cy="136.44" rx="6.5" ry="2" transform="translate(-19.36 123.99) rotate(-14.82)"/><ellipse class="cls-3" cx="491.21" cy="118.13" rx="6.5" ry="2" transform="translate(-13.88 129.54) rotate(-14.82)"/><ellipse class="cls-3" cx="453.77" cy="108.82" rx="6.5" ry="2" transform="translate(-12.74 119.66) rotate(-14.82)"/><ellipse class="cls-3" cx="434.58" cy="139.16" rx="6.5" ry="2" transform="translate(-21.14 115.76) rotate(-14.82)"/><ellipse class="cls-3" cx="416.25" cy="120.72" rx="6.5" ry="2" transform="translate(-17.03 110.46) rotate(-14.82)"/><ellipse class="cls-3" cx="321.48" cy="126.07" rx="6.5" ry="2" transform="translate(-21.55 86.4) rotate(-14.82)"/><ellipse class="cls-3" cx="405.72" cy="95.93" rx="6.5" ry="2" transform="matrix(0.97, -0.26, 0.26, 0.97, -11.04, 106.94)"/><ellipse class="cls-3" cx="394.96" cy="144.69" rx="6.5" ry="2" transform="translate(-23.87 105.81) rotate(-14.82)"/><ellipse class="cls-3" cx="371.7" cy="121.28" rx="6.5" ry="2" transform="translate(-18.66 99.08) rotate(-14.82)"/><ellipse class="cls-3" cx="346.9" cy="138.88" rx="6.5" ry="2" transform="translate(-23.98 93.33) rotate(-14.82)"/><ellipse class="cls-3" cx="339.93" cy="107.74" rx="6.5" ry="2" transform="translate(-16.25 90.51) rotate(-14.82)"/><path class="cls-4" d="M471.87,198s79.61,26.39,47.08,57.08C486.15,286.06,471.87,198,471.87,198Z"/><path class="cls-4" d="M415.18,240.41s38.06,74.75-6.64,73.7C363.45,313.06,415.18,240.41,415.18,240.41Z"/><path class="cls-4" d="M335.24,182.41S347,265.47,305,250C262.73,234.33,335.24,182.41,335.24,182.41Z"/></g></g></svg>