<?xml version="1.0" encoding="utf-8"?>
<!-- Generator: Adobe Illustrator 22.1.0, SVG Export Plug-In . SVG Version: 6.00 Build 0)  -->
<svg version="1.1" id="Layer_1" xmlns="http://www.w3.org/2000/svg" xmlns:xlink="http://www.w3.org/1999/xlink" x="0px" y="0px"
	 viewBox="0 0 1241.2 441.4" style="enable-background:new 0 0 1241.2 441.4;" xml:space="preserve">
<style type="text/css">
	.st0{clip-path:url(#SVGID_2_);}
	.st1{fill:#00B2D1;}
	.st2{fill:#62CAE0;}
	.st3{fill:#FFFFFF;}
	.st4{fill:#009FC5;}
</style>
<title>Asset 18</title>
<g>
	<g id="Layer_2_1_">
		<g id="_1">
			<g>
				<g>
					<g>
						<g>
							<defs>
								<rect id="SVGID_1_" x="0.5" y="-0.6" width="1241" height="478"/>
							</defs>
							<clipPath id="SVGID_2_">
								<use xlink:href="#SVGID_1_"  style="overflow:visible;"/>
							</clipPath>
							<g class="st0">
								<path class="st1" d="M1241.2-0.5H0v334.6h1c1,57.5,48.4,103.4,106,102.4c56.2-1,101.5-46.3,102.4-102.4l0,0V174
									c0.4-29.5,24.6-53,54.1-52.6c28.9,0.4,52.2,23.7,52.6,52.6v92.3l0,0c0,0.2,0,0.3,0,0.5c0.4,29.5,24.6,53,54.1,52.6
									c28.9-0.4,52.2-23.7,52.6-52.6c0-0.2,0-0.3,0-0.5l0,0V132.6l0,0c0-0.2,0-0.3,0-0.5c-0.4-29.5,23.2-53.7,52.6-54.1
									s53.7,23.2,54.1,52.6c0,0.5,0,1,0,1.5c0,0.2,0,0.3,0,0.5l0,0v130.7h0.2c2.8,38.4,36.2,67.4,74.6,64.6
									c34.6-2.5,62.1-30,64.6-64.6h0.2V163c0-20.7,16.7-37.4,37.4-37.4s37.4,16.7,37.4,37.4l0,0v49.4l0,0c0,0.2,0,0.3,0,0.5
									c0.4,29.5,24.6,53,54.1,52.6c28.9-0.4,52.2-23.7,52.6-52.6c0-0.2,0-0.3,0-0.5l0,0v-79.8h0.3c2.5-20.5,21.1-35.1,41.6-32.6
									c17.1,2.1,30.6,15.5,32.6,32.6h0.3v142.6l0,0c0,29.5,23.9,53.3,53.3,53.3s53.3-23.9,53.3-53.3c0,0,0-19.6,0-20.5
									c0-5.2,4.3-9.5,9.5-9.5s9.5,4.3,9.5,9.5l0.6,93.8l0,0c1.2,52.3,44.5,93.8,96.8,92.6c51-1.1,92-42.5,92.6-93.6l0,0"/>
								<path class="st2" d="M1241.2-0.5H0v306.6h1c1,57.5,48.4,103.4,106,102.4c56.2-1,101.5-46.3,102.4-102.4l0,0V146
									c0.4-29.5,24.6-53,54.1-52.6c28.9,0.4,52.2,23.7,52.6,52.6v92.3l0,0c0,0.2,0,0.3,0,0.5c0.4,29.5,24.6,53,54.1,52.6
									c28.9-0.4,52.2-23.7,52.6-52.6c0-0.2,0-0.3,0-0.5l0,0V104.6l0,0c0-0.2,0-0.3,0-0.5C422.4,74.6,446,50.4,475.4,50
									s53.7,23.2,54.1,52.6c0,0.5,0,1,0,1.5c0,0.2,0,0.3,0,0.5l0,0v130.7h0.2c2.8,38.4,36.2,67.4,74.6,64.6
									c34.6-2.5,62.1-30,64.6-64.6h0.2V135c0-20.7,16.7-37.4,37.4-37.4s37.4,16.7,37.4,37.4l0,0v49.4l0,0c0,0.2,0,0.3,0,0.5
									c0.4,29.5,24.6,53,54.1,52.6c28.9-0.4,52.2-23.7,52.6-52.6c0-0.2,0-0.3,0-0.5l0,0v-79.8h0.3c2.5-20.5,21.1-35.1,41.6-32.6
									c17.1,2.1,30.6,15.5,32.6,32.6h0.3v142.6l0,0c0,29.5,23.9,53.3,53.3,53.3s53.3-23.9,53.3-53.3c0,0,0-1.6,0-2.5
									c0-5.2,4.3-9.5,9.5-9.5s9.5,4.3,9.5,9.5l0.6,75.8l0,0c1.2,52.3,44.5,93.8,96.8,92.6c51-1.1,92-42.5,92.6-93.6l0,0"/>
								<path class="st3" d="M40,161.4L40,161.4c6.3,0,11.5,5.1,11.5,11.5V292c0,6.3-5.1,11.5-11.5,11.5l0,0
									c-6.3,0-11.5-5.1-11.5-11.5V172.8C28.5,166.5,33.6,161.4,40,161.4z"/>
								<path class="st3" d="M40,317.4L40,317.4c6.3,0,11.5,5.1,11.5,11.5l0,0c0,6.3-5.1,11.5-11.5,11.5l0,0
									c-6.3,0-11.5-5.1-11.5-11.5l0,0C28.5,322.5,33.6,317.4,40,317.4z"/>
								<path class="st3" d="M341.8,142.4L341.8,142.4c6.3,0,11.5,5.1,11.5,11.5v63.6c0,6.3-5.1,11.5-11.5,11.5l0,0
									c-6.3,0-11.5-5.1-11.5-11.5v-63.6C330.3,147.5,335.5,142.4,341.8,142.4z"/>
								<path class="st3" d="M341.8,242.9L341.8,242.9c6.3,0,11.5,5.1,11.5,11.5l0,0c0,6.3-5.1,11.5-11.5,11.5l0,0
									c-6.3,0-11.5-5.1-11.5-11.5l0,0C330.3,248.1,335.5,242.9,341.8,242.9z"/>
								<path class="st3" d="M769.5,80.4L769.5,80.4c6.3,0,11.5,5.1,11.5,11.5v63.6c0,6.3-5.1,11.5-11.5,11.5l0,0
									c-6.3,0-11.5-5.1-11.5-11.5V91.8C758,85.5,763.2,80.4,769.5,80.4z"/>
								<path class="st3" d="M769.5,180.9L769.5,180.9c6.3,0,11.5,5.1,11.5,11.5l0,0c0,6.3-5.1,11.5-11.5,11.5l0,0
									c-6.3,0-11.5-5.1-11.5-11.5l0,0C758,186.1,763.2,180.9,769.5,180.9z"/>
								<path class="st3" d="M558.8,130.4L558.8,130.4c6.3,0,11.5,5.1,11.5,11.5v63.6c0,6.3-5.1,11.5-11.5,11.5l0,0
									c-6.3,0-11.5-5.1-11.5-11.5v-63.6C547.3,135.5,552.4,130.4,558.8,130.4z"/>
								<path class="st3" d="M558.8,231L558.8,231c6.3,0,11.5,5.1,11.5,11.5l0,0c0,6.3-5.1,11.5-11.5,11.5l0,0
									c-6.3,0-11.5-5.1-11.5-11.5l0,0C547.3,236.1,552.4,231,558.8,231z"/>
								<path class="st3" d="M951.8,144.9L951.8,144.9c6.3,0,11.5,5.1,11.5,11.5V220c0,6.3-5.1,11.5-11.5,11.5l0,0
									c-6.3,0-11.5-5.1-11.5-11.5v-63.7C940.4,150,945.5,144.9,951.8,144.9z"/>
								<path class="st3" d="M951.8,245.4L951.8,245.4c6.3,0,11.5,5.1,11.5,11.5l0,0c0,6.3-5.1,11.5-11.5,11.5l0,0
									c-6.3,0-11.5-5.1-11.5-11.5l0,0C940.4,250.6,945.5,245.4,951.8,245.4z"/>
								<path class="st3" d="M1080.9,176.5L1080.9,176.5c6.3,0,11.5,5.1,11.5,11.5v119.1c0,6.3-5.1,11.5-11.5,11.5l0,0
									c-6.3,0-11.5-5.1-11.5-11.5V187.9C1069.5,181.6,1074.6,176.5,1080.9,176.5z"/>
								<path class="st3" d="M1080.9,332.5L1080.9,332.5c6.3,0,11.5,5.1,11.5,11.5l0,0c0,6.3-5.1,11.5-11.5,11.5l0,0
									c-6.3,0-11.5-5.1-11.5-11.5l0,0C1069.5,337.6,1074.6,332.5,1080.9,332.5z"/>
							</g>
						</g>
					</g>
				</g>
			</g>
		</g>
	</g>
</g>
<path class="st4" d="M1168.6,47.3c0.9-1.5,2.3-2.5,4.3-3.1c0.7-0.2,1.6-0.4,2.6-0.5l1.3-0.1l0.7-0.1l0.6,0l0.3,0l0.3,0
	c0.3,0,0.5,0,0.8,0c0.7,0,1.5,0,2.2,0c2.1,0,4,0.3,5.9,0.7c5.4,1.2,9.2,3.9,11.5,8.2c1.8,3.4,2.4,7.2,1.8,11.3
	c-0.6,4-2.2,7.1-4.7,9.1c-1,0.8-2.2,1.5-3.7,2c-1.1,0.4-2.3,0.6-3.6,0.8c-0.5,0.1-1,0.1-1.6,0.2l-0.7,0.1l-0.6,0
	c-0.8,0.1-1.2,0.2-1.2,0.4c0,0.2,0.4,0.3,1.3,0.5c0.2,0,0.4,0.1,0.7,0.1l0.8,0.1c0.7,0.1,1.3,0.2,1.8,0.3c1.6,0.3,2.9,0.7,4.1,1.2
	c1.5,0.6,2.8,1.5,3.7,2.6c1.4,1.6,2.3,3.7,2.6,6.3c0.3,2.3,0.1,4.5-0.7,6.6c-0.9,2.8-2.8,5.3-5.6,7.5c-2.6,2-5.8,3.6-9.3,4.6
	c-3.6,1-7.1,1.4-10.4,1c-3.6-0.3-6.6-1.4-9-3.1c-2-1.4-3.6-3.2-4.8-5.4c-1.5-2.6-1.9-4.9-1.3-6.8c0.3-1.1,1-2,2-2.9
	c0.3-0.3,0.7-0.5,1-0.8c0.1-0.1,0.3-0.1,0.4-0.2l0.1-0.1l0.1-0.1c1.1-0.6,2.2-0.9,3.5-1c1.3-0.1,2.5,0.2,3.5,0.8
	c0.8,0.4,1.4,1.1,1.8,1.9c0.3,0.6,0.5,1.4,0.8,2.4l0.3,1.1c0.1,0.4,0.2,0.8,0.3,1.1c0.3,0.7,0.7,1.2,1.2,1.5
	c0.9,0.4,2.1,0.3,3.7-0.3c1.4-0.6,2.8-1.5,4.2-2.8c1.4-1.2,2.5-2.5,3.3-3.8c0.8-1.4,1.1-2.5,0.8-3.3c-0.2-0.6-0.8-1-1.8-1.2
	c-0.3-0.1-0.8-0.2-1.4-0.2l-0.8-0.1l-0.8-0.1c-1.5-0.2-2.8-0.4-3.7-0.8c-1.4-0.5-2.5-1.3-3.4-2.4c-0.9-1-1.5-2.2-1.9-3.6
	c-0.4-1.4-0.3-2.7,0.2-3.8c0.5-1,2.4-2.1,5.9-3.4c1.4-0.6,2.9-1.1,4.3-1.5c0.3-0.1,0.5-0.2,0.8-0.3c0.2-0.1,0.4-0.1,0.7-0.2
	c0.6-0.2,1-0.3,1.2-0.3c1.3-0.4,2-0.9,2.4-1.5c0.8-1.5,0.6-3.4-0.6-5.7c-1.2-2.4-2.7-3.7-4.6-4.1c-0.9-0.2-1.7,0-2.7,0.4
	c-0.6,0.3-1.3,0.8-2.3,1.5l-1.1,0.9c-0.4,0.3-0.8,0.5-1.1,0.7c-0.8,0.4-1.6,0.5-2.3,0.3c-1.7-0.5-3-2-3.8-4.7
	C1167.2,51.7,1167.4,49.3,1168.6,47.3z"/>
</svg>
