<svg id="Layer_1" data-name="Layer 1" xmlns="http://www.w3.org/2000/svg" viewBox="0 0 1241.2 627.38"><defs><style>.cls-1{fill:#62cae0;}.cls-2{fill:#00b2d1;}.cls-3{fill:#fcd00b;}.cls-4{fill:#f7921e;}.cls-5{fill:#d3edff;}.cls-6{fill:none;stroke:#fff;stroke-linecap:round;stroke-miterlimit:10;stroke-width:15px;}</style></defs><title>watersm5</title><path class="cls-1" d="M0,388.76S13,306,195,306s186,68,294,18,248-60.8,354,2,393.4-181,397.2,65" transform="translate(0 -2.08)"/><path class="cls-2" d="M173.9,307.26s114.8,6,164.2,40.2c45.3,31.4,159-27.2,159-27.2s-87.7,20.5-121.7,11.3C296.6,310.46,212.6,303.36,173.9,307.26Z" transform="translate(0 -2.08)"/><path class="cls-2" d="M685.6,282.76s57.3-1.5,113.9,37.6,107.7,15.1,107.7,15.1S779.3,274.86,685.6,282.76Z" transform="translate(0 -2.08)"/><rect class="cls-1" y="386.68" width="1241.2" height="240.7"/><path class="cls-3" d="M259.05,51.35s19.2-51.3,87.7-49.2,109.1,36.4,100.5,87.7-72.7,96.2-44.9,136.8,115.5,44.9,141.2-10.7,72.7-25.7,72.7-25.7-27.8,8.1-27.8,67.1-10.7,186.3-190.4,168.7-204.3-173.7-127.8-225,61.2-85.5,20.7-89.8S242.45,75.25,259.05,51.35Z" transform="translate(0 -2.08)"/><path class="cls-4" d="M248,75.35s-35,17.8-76.3,20.8-4.9,41.6,76.3,23.8c19.3-4.2,49,1.7,54.4-6.5C319.75,87,260.45,39.15,248,75.35Z" transform="translate(0 -2.08)"/><path class="cls-2" d="M162.45,387.15s114.8,6,164.2,40.2c45.3,31.4,159-27.1,159-27.1S398,420.75,364,411.55C285.15,390.45,201.15,383.35,162.45,387.15Z" transform="translate(0 -2.08)"/><circle class="cls-5" cx="96.95" cy="384.06" r="87.5"/><path class="cls-6" d="M121.45,317.65s-72-13-90,63" transform="translate(0 -2.08)"/><circle class="cls-5" cx="224.65" cy="346.66" r="87.5"/><path class="cls-6" d="M249.15,280.25s-72-13-90,63" transform="translate(0 -2.08)"/><circle class="cls-5" cx="204.15" cy="434.56" r="87.5"/><path class="cls-6" d="M228.65,368.15s-72-13-90,63" transform="translate(0 -2.08)"/><circle class="cls-5" cx="336.65" cy="409.36" r="87.5"/><path class="cls-6" d="M361.15,343s-72-13-90,63" transform="translate(0 -2.08)"/><circle class="cls-5" cx="1096.65" cy="347.06" r="87.5"/><path class="cls-6" d="M1121.15,280.65s-72-13-90,63" transform="translate(0 -2.08)"/><circle class="cls-5" cx="962.15" cy="403.86" r="87.5"/><path class="cls-6" d="M986.65,337.45s-72-13-90,63" transform="translate(0 -2.08)"/><circle class="cls-5" cx="441.35" cy="429.06" r="56"/><path class="cls-6" d="M457.05,387.35s-46.1-8.3-57.6,40.3" transform="translate(0 -2.08)"/><circle class="cls-5" cx="1174.75" cy="404.36" r="56"/><path class="cls-6" d="M1190.35,362.65s-46.1-8.3-57.6,40.3" transform="translate(0 -2.08)"/><circle class="cls-5" cx="526.25" cy="396.46" r="56"/><path class="cls-6" d="M542,354.75s-46.1-8.3-57.6,40.3" transform="translate(0 -2.08)"/><circle class="cls-5" cx="96.93" cy="498.95" r="56" transform="translate(-407.37 560.39) rotate(-86.19)"/><path class="cls-6" d="M112.65,455.15s-46.1-8.3-57.6,40.3" transform="translate(0 -2.08)"/><circle class="cls-5" cx="1096.65" cy="420.66" r="87.5"/><path class="cls-6" d="M1121.15,354.25s-72-13-90,63" transform="translate(0 -2.08)"/></svg>