<?xml version="1.0" encoding="utf-8"?>
<!-- Generator: Adobe Illustrator 22.0.1, SVG Export Plug-In . SVG Version: 6.00 Build 0)  -->
<svg version="1.1" id="Layer_1" xmlns="http://www.w3.org/2000/svg" xmlns:xlink="http://www.w3.org/1999/xlink" x="0px" y="0px"
	 viewBox="0 0 1241.2 351.1" style="enable-background:new 0 0 1241.2 351.1;" xml:space="preserve">
<style type="text/css">
	.st0{fill:#62CAE0;}
	.st1{fill:#00B2D1;}
</style>
<title>watersm0</title>
<path class="st0" d="M0,112.4c0,0,13-82.8,195-82.8s186,68,294,18s248-60.8,354,2s393.4-181,397.2,65"/>
<path class="st1" d="M173.9,30.9c0,0,114.8,6,164.2,40.2c45.3,31.4,159-27.2,159-27.2s-87.7,20.5-121.7,11.3
	C296.6,34.1,212.6,27,173.9,30.9z"/>
<path class="st1" d="M685.6,6.4c0,0,57.3-1.5,113.9,37.6s107.7,15.1,107.7,15.1S779.3-1.5,685.6,6.4z"/>
<rect y="112.4" class="st0" width="1241.2" height="240.7"/>
</svg>
