<?xml version="1.0" encoding="utf-8"?>
<!-- Generator: Adobe Illustrator 22.1.0, SVG Export Plug-In . SVG Version: 6.00 Build 0)  -->
<svg version="1.1" id="Layer_1" xmlns="http://www.w3.org/2000/svg" xmlns:xlink="http://www.w3.org/1999/xlink" x="0px" y="0px"
	 viewBox="0 0 531.6 635.2" style="enable-background:new 0 0 531.6 635.2;" xml:space="preserve">
<style type="text/css">
	.st0{fill:#A0DBE8;}
	.st1{fill:#C7987A;}
	.st2{fill:#98755D;}
	.st3{fill:none;stroke:#98755D;stroke-width:47;stroke-linecap:round;stroke-miterlimit:10;}
	.st4{fill:none;stroke:#98755D;stroke-width:10;stroke-linecap:round;stroke-miterlimit:10;}
	.st5{fill:#DFF3FD;}
	.st6{fill:#FFFFFF;}
	.st7{fill:#F38AA5;}
	.st8{fill:#007FB1;}
</style>
<path class="st0" d="M86,496.8c0,0-74,14.7-47.5,36.4c26.5,21.7,79.5,12.1,71.2,29s-18.6,52.3,92.1,40.2
	c110.7-12.2,118.9-77.3,55.4-77.3S86,496.8,86,496.8z"/>
<path class="st0" d="M329,555.9c0,0,46.4,44.2,108.3,39.8s24.3-20.7,48.6-33.5s30.9-58.8-39.8-51.3
	C375.4,518.4,254.2,518.3,329,555.9z"/>
<title>Asset 45</title>
<g id="Layer_2_2_">
	<g id="_2_1_">
		<path class="st1" d="M465.8,524.8V300.3c-225.1-65.5-400.5,0-400.5,0v224.5C287.4,608.9,465.8,524.8,465.8,524.8z M453,308.8
			c0,0-17.6,7.3-49.8,14.2c-46.6,11.4-95.8,14.2-139.9,12.9c-42.7-0.9-85.2-5.6-127.1-14c-10.3-2-16.2-3.4-16.2-3.4l0,0
			c-13.7-3.1-27.8-6.6-42.1-10.6C56.6,301.9,273.2,246.7,453,308.8z"/>
		<path class="st2" d="M426.7,316.5c-7.7,2.5-15.5,4.7-23.4,6.6c32.1-7,49.8-14.2,49.8-14.2c-179.8-62.1-375-0.8-375-0.8
			c14.3,4,28.3,7.6,42.1,10.6C276.9,287.5,426.7,316.5,426.7,316.5z"/>
		<path class="st2" d="M263.3,336c-42.6-1.3-85.2-6-127.1-14C178.1,330.4,220.6,335.1,263.3,336z"/>
		<path class="st0" d="M120,318.5L120,318.5c0,0,5.8,1.4,16.2,3.4c41.9,8.1,84.4,12.8,127.1,14.1c44.2,1.3,93.4-1.5,139.9-12.9
			c7.9-1.9,15.7-4.1,23.5-6.6C438.3,312.7,276.9,287.5,120,318.5z"/>
		<line class="st3" x1="109.7" y1="346.4" x2="109.7" y2="463.8"/>
		<line class="st3" x1="161.5" y1="387.2" x2="161.5" y2="512.4"/>
		<line class="st3" x1="286.9" y1="349" x2="286.9" y2="500.7"/>
		<line class="st3" x1="346.8" y1="403.3" x2="346.8" y2="519.8"/>
		<line class="st3" x1="400.9" y1="337.6" x2="400.9" y2="451.9"/>
		<path class="st1" d="M65.3,300.3c0,0,175.4-65.5,400.5,0v224.5c0,0-178.3,84.2-400.5,0L65.3,300.3L65.3,300.3z"/>
		<path class="st2" d="M78,307.9c0,0,195.2-61.2,375,0.8C453,308.8,301.7,370.9,78,307.9z"/>
		<line class="st4" x1="109.7" y1="346.4" x2="109.7" y2="463.8"/>
		<line class="st4" x1="161.5" y1="387.2" x2="161.5" y2="512.4"/>
		<line class="st4" x1="201.8" y1="397.2" x2="201.8" y2="439.5"/>
		<line class="st4" x1="286.9" y1="349" x2="286.9" y2="500.7"/>
		<line class="st4" x1="239.8" y1="460.9" x2="239.8" y2="544"/>
		<line class="st4" x1="193.7" y1="525.1" x2="193.7" y2="496.8"/>
		<line class="st4" x1="240.9" y1="356.4" x2="240.9" y2="391.9"/>
		<line class="st4" x1="162.6" y1="335" x2="162.6" y2="359.8"/>
		<line class="st4" x1="346.8" y1="403.3" x2="346.8" y2="519.8"/>
		<line class="st4" x1="320.3" y1="537.9" x2="320.3" y2="468.2"/>
		<line class="st4" x1="307.7" y1="365.1" x2="307.7" y2="406"/>
		<line class="st4" x1="400.9" y1="337.6" x2="400.9" y2="451.9"/>
		<line class="st4" x1="392.8" y1="468.9" x2="392.8" y2="512.4"/>
		<line class="st4" x1="426.1" y1="500.2" x2="426.1" y2="428"/>
		<line class="st4" x1="120" y1="485" x2="120" y2="513.1"/>
		<line class="st4" x1="354.8" y1="343.6" x2="354.8" y2="369.1"/>
		<line class="st4" x1="244.4" y1="414.6" x2="244.4" y2="428.7"/>
		<line class="st4" x1="273.1" y1="524.5" x2="273.1" y2="541.9"/>
		<line class="st4" x1="426.2" y1="326.3" x2="426.2" y2="346.5"/>
		<path class="st0" d="M120,318.5c0,0,167.2,41.3,302.4-2.1C422.4,316.5,276.9,287.5,120,318.5z"/>
	</g>
</g>
<g>
	<path class="st5" d="M336.9,201.1l182.4-93.4c11.1-5.7,15.5-19.3,9.8-30.5l0,0c-5.7-11.1-19.3-15.5-30.5-9.8l-182.4,93.4
		L336.9,201.1z"/>
	<path class="st6" d="M334.6,196.7l158-80.9c8.7-4.4,12.1-15.1,7.7-23.8l0,0c-4.4-8.7-15.1-12.1-23.8-7.7l-158,80.9L334.6,196.7z"/>
</g>
<path class="st7" d="M435.9,146.8l-117.4,20.4c0,0-36,12-37.1,32.9c-1.1,21,5.5,58.3,0,78.9c-5.5,20.5-14,45.5,25.6,43.5
	s-21.2-103.2,39.6-132.1S435.9,146.8,435.9,146.8z"/>
<g>
	<g>
		<path class="st5" d="M194.8,136.2L12.3,42.8C1.2,37.1-3.2,23.5,2.5,12.3l0,0C8.2,1.2,21.8-3.2,33,2.5l182.4,93.4L194.8,136.2z"/>
		<path class="st6" d="M197,131.7L39,50.9c-8.7-4.4-12.1-15.1-7.7-23.8l0,0c4.4-8.7,15.1-12.1,23.8-7.7l158,80.9L197,131.7z"/>
	</g>
	<path class="st8" d="M95.7,80.9l117.4,20.4c0,0,36,12,37.1,32.9c1.1,21-5.5,58.3,0,78.9s14,45.5-25.6,43.5
		c-39.6-2,21.2-103.2-39.6-132.1S95.7,80.9,95.7,80.9z"/>
</g>
</svg>
